<svg width="174" height="168" viewBox="0 0 174 168" fill="none" xmlns="http://www.w3.org/2000/svg">
<g filter="url(#filter0_i_86_257)">
<g clip-path="url(#clip0_86_257)">
<path d="M111.72 78.8344C110.297 67.4523 103.183 61.0498 89.6667 61.0498C77.5731 61.0498 68.3251 69.5864 68.3251 83.8141C68.3251 97.6861 76.8617 106.578 91.0894 106.578C102.472 106.578 110.652 99.8202 111.72 88.7938H98.2033C97.4919 92.7064 95.3577 95.9076 91.0894 95.9076C83.6199 95.9076 82.5528 90.2166 82.5528 84.1698C82.5528 75.9889 85.3984 71.7206 90.378 71.7206C95.002 71.7206 97.4919 74.2104 98.2033 78.8344H111.72Z" fill="white"/>
</g>
</g>
<g filter="url(#filter1_d_86_257)">
<path d="M167.377 160.653H13.2524V7.02979H167.377V160.653ZM99.853 43.4272C89.3103 36.3992 77.7636 45.436 68.225 45.938C58.6865 46.44 54.1682 42.6748 48.8969 45.938C43.6256 49.2012 60.1924 70.2866 56.4272 76.0601C52.6619 81.8334 45.6335 85.3477 44.1274 94.6353C42.6212 103.923 45.3829 107.437 53.4155 107.939C61.4477 108.441 60.444 123.503 79.019 121.746C97.5942 119.988 105.376 110.952 116.42 118.231C127.465 125.51 136.502 94.1328 127.465 85.0962C118.429 76.0594 133.741 53.2172 124.956 48.1968C116.17 43.1765 110.396 50.4558 99.853 43.4272Z" fill="#FDB137"/>
</g>
<g filter="url(#filter2_d_86_257)">
<path d="M167.378 160.653H13.2532V7.02979H167.378V160.653ZM120.939 35.645C110.647 35.6451 107.384 44.4309 97.845 40.1636C88.3064 35.8964 79.2695 38.1554 68.7269 40.1636C58.1847 42.1715 58.4354 35.6453 53.1644 35.645C47.8931 35.645 41.8687 40.6656 41.8685 47.9448C41.8685 55.2243 49.1478 64.0108 48.8968 71.7925C48.6457 79.5737 47.6413 80.3268 44.8802 86.1001C42.119 91.8735 38.8559 98.4005 38.1028 101.915C37.3499 105.429 37.8521 113.21 44.8802 115.469C51.9086 117.728 50.1518 127.015 57.431 125.509C64.7104 124.003 69.9822 129.777 79.2698 127.016C88.5306 124.263 97.7914 122.258 97.845 122.247C97.845 122.247 109.392 119.987 118.68 125.509C127.968 131.032 134.744 128.773 134.995 125.509C135.246 122.246 130.729 120.991 137.255 109.696C143.782 98.4001 130.227 88.3592 129.474 79.3228C128.721 70.2862 137.255 56.7307 131.482 52.2124C125.708 47.6941 131.231 35.645 120.939 35.645Z" fill="#F65936"/>
</g>
<g filter="url(#filter3_d_86_257)">
<path d="M167.377 160.653H13.2524V7.02979H167.377V160.653ZM124.705 29.3696C118.931 25.6044 104.372 24.3492 94.8334 29.3696C85.2948 34.3901 80.0233 35.3938 64.7114 29.3696C49.3993 23.3454 35.8443 29.3699 35.3422 45.686C34.8403 62.0018 43.6256 61.5 41.8686 72.0425C40.1115 82.5852 35.342 85.3468 30.5727 93.1284C25.8035 100.91 28.314 114.214 40.1118 119.485C51.9092 124.756 51.4073 135.299 61.4477 133.542C71.4884 131.785 81.0274 133.542 88.809 133.542C96.5904 133.542 96.5909 127.266 105.125 127.266C113.66 127.266 124.705 133.542 134.746 133.542C144.786 133.542 140.77 121.995 140.77 117.728C140.77 113.461 149.555 109.946 143.029 98.9019C136.502 87.8572 140.769 82.0835 138.51 74.5532C136.251 67.0228 138.511 55.9776 140.77 45.686C143.029 35.3945 130.478 33.1348 124.705 29.3696Z" fill="#0B273D"/>
</g>
<g filter="url(#filter4_d_86_257)">
<path d="M167.377 160.653H13.2524V7.02979H167.377V160.653ZM87.0522 24.3501C79.9061 24.1745 59.44 12.8033 40.6137 18.5767C21.7874 24.3501 16.2651 54.7228 21.7875 68.2778C27.3098 81.8327 16.2649 102.667 19.0258 117.728C21.787 132.789 36.8484 121.996 40.6137 134.044C44.379 146.093 62.4519 141.324 72.4926 141.575C82.5333 141.826 95.3356 148.101 106.129 146.093C116.923 144.085 113.158 137.308 120.186 137.308C127.214 137.308 145.288 148.101 149.806 137.308C154.324 126.514 158.09 112.959 159.094 101.162C160.098 89.3639 149.806 93.3796 149.806 76.813C149.806 60.2458 156.584 52.2126 154.325 39.4106C152.065 26.6089 143.28 18.0747 129.474 18.5767C115.668 19.0787 94.1988 24.5254 87.0522 24.3501Z" fill="#161817"/>
</g>
<path d="M173.903 167.178H0V0H173.903V167.178ZM15.7627 10.041V157.64H164.867V10.041H15.7627Z" fill="#161817"/>
<defs>
<filter id="filter0_i_86_257" x="63.2581" y="61.0498" width="49.5286" height="45.5288" filterUnits="userSpaceOnUse" color-interpolation-filters="sRGB">
<feFlood flood-opacity="0" result="BackgroundImageFix"/>
<feBlend mode="normal" in="SourceGraphic" in2="BackgroundImageFix" result="shape"/>
<feColorMatrix in="SourceAlpha" type="matrix" values="0 0 0 0 0 0 0 0 0 0 0 0 0 0 0 0 0 0 127 0" result="hardAlpha"/>
<feOffset dx="-5"/>
<feGaussianBlur stdDeviation="2"/>
<feComposite in2="hardAlpha" operator="arithmetic" k2="-1" k3="1"/>
<feColorMatrix type="matrix" values="0 0 0 0 0 0 0 0 0 0 0 0 0 0 0 0 0 0 0.7 0"/>
<feBlend mode="normal" in2="shape" result="effect1_innerShadow_86_257"/>
</filter>
<filter id="filter1_d_86_257" x="4.25238" y="3.02979" width="163.125" height="161.623" filterUnits="userSpaceOnUse" color-interpolation-filters="sRGB">
<feFlood flood-opacity="0" result="BackgroundImageFix"/>
<feColorMatrix in="SourceAlpha" type="matrix" values="0 0 0 0 0 0 0 0 0 0 0 0 0 0 0 0 0 0 127 0" result="hardAlpha"/>
<feOffset dx="-5"/>
<feGaussianBlur stdDeviation="2"/>
<feComposite in2="hardAlpha" operator="out"/>
<feColorMatrix type="matrix" values="0 0 0 0 0 0 0 0 0 0 0 0 0 0 0 0 0 0 0.7 0"/>
<feBlend mode="normal" in2="BackgroundImageFix" result="effect1_dropShadow_86_257"/>
<feBlend mode="normal" in="SourceGraphic" in2="effect1_dropShadow_86_257" result="shape"/>
</filter>
<filter id="filter2_d_86_257" x="4.25323" y="3.02979" width="163.125" height="161.623" filterUnits="userSpaceOnUse" color-interpolation-filters="sRGB">
<feFlood flood-opacity="0" result="BackgroundImageFix"/>
<feColorMatrix in="SourceAlpha" type="matrix" values="0 0 0 0 0 0 0 0 0 0 0 0 0 0 0 0 0 0 127 0" result="hardAlpha"/>
<feOffset dx="-5"/>
<feGaussianBlur stdDeviation="2"/>
<feComposite in2="hardAlpha" operator="out"/>
<feColorMatrix type="matrix" values="0 0 0 0 0 0 0 0 0 0 0 0 0 0 0 0 0 0 0.7 0"/>
<feBlend mode="normal" in2="BackgroundImageFix" result="effect1_dropShadow_86_257"/>
<feBlend mode="normal" in="SourceGraphic" in2="effect1_dropShadow_86_257" result="shape"/>
</filter>
<filter id="filter3_d_86_257" x="4.25238" y="3.02979" width="163.125" height="161.623" filterUnits="userSpaceOnUse" color-interpolation-filters="sRGB">
<feFlood flood-opacity="0" result="BackgroundImageFix"/>
<feColorMatrix in="SourceAlpha" type="matrix" values="0 0 0 0 0 0 0 0 0 0 0 0 0 0 0 0 0 0 127 0" result="hardAlpha"/>
<feOffset dx="-5"/>
<feGaussianBlur stdDeviation="2"/>
<feComposite in2="hardAlpha" operator="out"/>
<feColorMatrix type="matrix" values="0 0 0 0 0 0 0 0 0 0 0 0 0 0 0 0 0 0 0.7 0"/>
<feBlend mode="normal" in2="BackgroundImageFix" result="effect1_dropShadow_86_257"/>
<feBlend mode="normal" in="SourceGraphic" in2="effect1_dropShadow_86_257" result="shape"/>
</filter>
<filter id="filter4_d_86_257" x="4.25238" y="3.02979" width="163.125" height="161.623" filterUnits="userSpaceOnUse" color-interpolation-filters="sRGB">
<feFlood flood-opacity="0" result="BackgroundImageFix"/>
<feColorMatrix in="SourceAlpha" type="matrix" values="0 0 0 0 0 0 0 0 0 0 0 0 0 0 0 0 0 0 127 0" result="hardAlpha"/>
<feOffset dx="-5"/>
<feGaussianBlur stdDeviation="2"/>
<feComposite in2="hardAlpha" operator="out"/>
<feColorMatrix type="matrix" values="0 0 0 0 0 0 0 0 0 0 0 0 0 0 0 0 0 0 0.7 0"/>
<feBlend mode="normal" in2="BackgroundImageFix" result="effect1_dropShadow_86_257"/>
<feBlend mode="normal" in="SourceGraphic" in2="effect1_dropShadow_86_257" result="shape"/>
</filter>
<clipPath id="clip0_86_257">
<rect width="45.5286" height="45.5286" fill="white" transform="translate(67.2581 61.0498)"/>
</clipPath>
</defs>
</svg>
