<svg width="174" height="168" viewBox="0 0 174 168" fill="none" xmlns="http://www.w3.org/2000/svg">
<g filter="url(#filter0_i_86_238)">
<g clip-path="url(#clip0_86_238)">
<path d="M90.3282 58.9805C89.6512 58.9805 88.9741 59.1286 88.4604 59.4258L70.6285 69.7215C69.6012 70.3134 68.7615 71.7694 68.7615 72.9548V93.5466C68.7615 94.1401 68.9704 94.7997 69.309 95.3859L69.3082 95.3867C69.6464 95.9729 70.1148 96.4847 70.6285 96.7818L88.4597 107.076C89.4866 107.67 91.1687 107.67 92.1953 107.076H92.196L110.028 96.7818C110.542 96.4855 111.009 95.9729 111.348 95.3867C111.686 94.8004 111.895 94.1405 111.895 93.5466V72.9544C111.895 72.3628 111.686 71.7025 111.348 71.1163V71.1155C111.009 70.5285 110.542 70.0163 110.028 69.7211L92.196 59.4261C91.6827 59.1286 91.0057 58.9805 90.3282 58.9805ZM90.329 68.8715C95.4449 68.8715 100.215 71.6246 102.78 76.0563L96.5563 79.6578C95.2751 77.4404 92.886 76.0608 90.329 76.0608C86.3654 76.0608 83.1397 79.2866 83.1397 83.2509C83.1397 87.2152 86.3654 90.4398 90.329 90.4398C92.8879 90.4398 95.2739 89.0625 96.5582 86.8436L102.78 90.4444C100.217 94.8753 95.4449 97.6291 90.329 97.6291C82.4007 97.6291 75.9508 91.1788 75.9508 83.2505C75.9508 75.3222 82.4007 68.8715 90.329 68.8715ZM101.513 80.8538H103.109V82.4523H104.706V84.0492H103.109V85.6476H101.513V84.0492H99.9146V82.4523H101.513V80.8538ZM107.503 80.8538H109.102V82.4523H110.699V84.0492H109.102V85.6476H107.503V84.0492H105.905V82.4523H107.503V80.8538Z" fill="white"/>
</g>
</g>
<g filter="url(#filter1_d_86_238)">
<path d="M167.377 160.653H13.2524V7.02979H167.377V160.653ZM99.8539 43.4272C89.3112 36.3987 77.7637 45.436 68.225 45.938C58.6865 46.4399 54.1682 42.6748 48.8969 45.938C43.6258 49.2014 60.1924 70.2867 56.4272 76.0601C52.6619 81.8334 45.6335 85.3477 44.1274 94.6353C42.6212 103.923 45.3829 107.437 53.4155 107.939C61.4478 108.441 60.444 123.503 79.019 121.746C97.5942 119.988 105.376 110.952 116.42 118.231C127.465 125.51 136.502 94.1328 127.465 85.0962C118.429 76.0594 133.741 53.2171 124.956 48.1968C116.17 43.1765 110.397 50.4556 99.8539 43.4272Z" fill="#FDB137"/>
</g>
<g filter="url(#filter2_d_86_238)">
<path d="M167.378 160.653H13.2532V7.02979H167.378V160.653ZM120.939 35.645C110.647 35.6452 107.384 44.4308 97.845 40.1636C88.3064 35.8965 79.2694 38.1555 68.7268 40.1636C58.1846 42.1715 58.4354 35.6452 53.1643 35.645C47.8931 35.645 41.8687 40.6656 41.8684 47.9448C41.8684 55.2243 49.1478 64.0108 48.8967 71.7925C48.6457 79.5737 47.6413 80.3268 44.8801 86.1001C42.119 91.8734 38.8558 98.4005 38.1028 101.915C37.3499 105.429 37.8522 113.21 44.8801 115.469C51.9086 117.728 50.1524 127.015 57.4319 125.509C64.7111 124.004 69.9824 129.777 79.2698 127.016C88.5247 124.265 97.7798 122.261 97.845 122.247C97.845 122.247 109.392 119.987 118.68 125.509C127.968 131.032 134.745 128.773 134.996 125.509C135.247 122.246 130.729 120.991 137.255 109.696C143.782 98.4001 130.227 88.3592 129.474 79.3228C128.721 70.2862 137.255 56.7307 131.482 52.2124C125.708 47.694 131.23 35.645 120.939 35.645Z" fill="#F65936"/>
</g>
<g filter="url(#filter3_d_86_238)">
<path d="M167.377 160.653H13.2524V7.02979H167.377V160.653ZM124.705 29.3696C118.931 25.6044 104.372 24.3492 94.8334 29.3696C85.2948 34.3901 80.0232 35.3938 64.7114 29.3696C49.3993 23.3454 35.8443 29.3699 35.3422 45.686C34.8403 62.0018 43.6256 61.5 41.8686 72.0425C40.1115 82.5852 35.342 85.3468 30.5727 93.1284C25.8035 100.91 28.3134 114.213 40.1108 119.485C51.9085 124.756 51.4071 135.299 61.4477 133.542C71.4884 131.785 81.0274 133.542 88.809 133.542C96.5904 133.542 96.5909 127.266 105.125 127.266C113.66 127.266 124.705 133.542 134.746 133.542C144.785 133.542 140.77 121.995 140.77 117.728C140.77 113.461 149.555 109.946 143.029 98.9019C136.502 87.8573 140.769 82.0835 138.51 74.5532C136.251 67.0228 138.511 55.9776 140.77 45.686C143.029 35.3945 130.478 33.1348 124.705 29.3696Z" fill="#0B273D"/>
</g>
<g filter="url(#filter4_d_86_238)">
<path d="M167.377 160.653H13.2524V7.02979H167.377V160.653ZM87.0512 24.3501C79.9047 24.1741 59.4396 12.8035 40.6137 18.5767C21.7875 24.3501 16.2643 54.7227 21.7866 68.2778C27.3089 81.8327 16.2649 102.667 19.0258 117.728C21.787 132.789 36.8484 121.996 40.6137 134.044C44.379 146.093 62.4519 141.324 72.4926 141.575C82.5333 141.826 95.3356 148.101 106.129 146.093C116.923 144.085 113.158 137.308 120.186 137.308C127.214 137.308 145.288 148.101 149.806 137.308C154.324 126.514 158.09 112.959 159.094 101.162C160.098 89.3639 149.806 93.3796 149.806 76.813C149.806 60.2458 156.584 52.2126 154.325 39.4106C152.065 26.6089 143.28 18.0748 129.474 18.5767C115.668 19.0787 94.1973 24.5257 87.0512 24.3501Z" fill="#161817"/>
</g>
<path d="M173.903 167.178H0V0H173.903V167.178ZM15.7627 10.041V157.64H164.867V10.041H15.7627Z" fill="#161817"/>
<defs>
<filter id="filter0_i_86_238" x="63.2234" y="58.9805" width="51.6328" height="48.6328" filterUnits="userSpaceOnUse" color-interpolation-filters="sRGB">
<feFlood flood-opacity="0" result="BackgroundImageFix"/>
<feBlend mode="normal" in="SourceGraphic" in2="BackgroundImageFix" result="shape"/>
<feColorMatrix in="SourceAlpha" type="matrix" values="0 0 0 0 0 0 0 0 0 0 0 0 0 0 0 0 0 0 127 0" result="hardAlpha"/>
<feOffset dx="-3"/>
<feGaussianBlur stdDeviation="2"/>
<feComposite in2="hardAlpha" operator="arithmetic" k2="-1" k3="1"/>
<feColorMatrix type="matrix" values="0 0 0 0 0 0 0 0 0 0 0 0 0 0 0 0 0 0 0.7 0"/>
<feBlend mode="normal" in2="shape" result="effect1_innerShadow_86_238"/>
</filter>
<filter id="filter1_d_86_238" x="4.25238" y="3.02979" width="163.125" height="161.623" filterUnits="userSpaceOnUse" color-interpolation-filters="sRGB">
<feFlood flood-opacity="0" result="BackgroundImageFix"/>
<feColorMatrix in="SourceAlpha" type="matrix" values="0 0 0 0 0 0 0 0 0 0 0 0 0 0 0 0 0 0 127 0" result="hardAlpha"/>
<feOffset dx="-5"/>
<feGaussianBlur stdDeviation="2"/>
<feComposite in2="hardAlpha" operator="out"/>
<feColorMatrix type="matrix" values="0 0 0 0 0 0 0 0 0 0 0 0 0 0 0 0 0 0 0.7 0"/>
<feBlend mode="normal" in2="BackgroundImageFix" result="effect1_dropShadow_86_238"/>
<feBlend mode="normal" in="SourceGraphic" in2="effect1_dropShadow_86_238" result="shape"/>
</filter>
<filter id="filter2_d_86_238" x="4.25317" y="3.02979" width="163.125" height="161.623" filterUnits="userSpaceOnUse" color-interpolation-filters="sRGB">
<feFlood flood-opacity="0" result="BackgroundImageFix"/>
<feColorMatrix in="SourceAlpha" type="matrix" values="0 0 0 0 0 0 0 0 0 0 0 0 0 0 0 0 0 0 127 0" result="hardAlpha"/>
<feOffset dx="-5"/>
<feGaussianBlur stdDeviation="2"/>
<feComposite in2="hardAlpha" operator="out"/>
<feColorMatrix type="matrix" values="0 0 0 0 0 0 0 0 0 0 0 0 0 0 0 0 0 0 0.7 0"/>
<feBlend mode="normal" in2="BackgroundImageFix" result="effect1_dropShadow_86_238"/>
<feBlend mode="normal" in="SourceGraphic" in2="effect1_dropShadow_86_238" result="shape"/>
</filter>
<filter id="filter3_d_86_238" x="4.25238" y="3.02979" width="163.125" height="161.623" filterUnits="userSpaceOnUse" color-interpolation-filters="sRGB">
<feFlood flood-opacity="0" result="BackgroundImageFix"/>
<feColorMatrix in="SourceAlpha" type="matrix" values="0 0 0 0 0 0 0 0 0 0 0 0 0 0 0 0 0 0 127 0" result="hardAlpha"/>
<feOffset dx="-5"/>
<feGaussianBlur stdDeviation="2"/>
<feComposite in2="hardAlpha" operator="out"/>
<feColorMatrix type="matrix" values="0 0 0 0 0 0 0 0 0 0 0 0 0 0 0 0 0 0 0.7 0"/>
<feBlend mode="normal" in2="BackgroundImageFix" result="effect1_dropShadow_86_238"/>
<feBlend mode="normal" in="SourceGraphic" in2="effect1_dropShadow_86_238" result="shape"/>
</filter>
<filter id="filter4_d_86_238" x="4.25238" y="3.02979" width="163.125" height="161.623" filterUnits="userSpaceOnUse" color-interpolation-filters="sRGB">
<feFlood flood-opacity="0" result="BackgroundImageFix"/>
<feColorMatrix in="SourceAlpha" type="matrix" values="0 0 0 0 0 0 0 0 0 0 0 0 0 0 0 0 0 0 127 0" result="hardAlpha"/>
<feOffset dx="-5"/>
<feGaussianBlur stdDeviation="2"/>
<feComposite in2="hardAlpha" operator="out"/>
<feColorMatrix type="matrix" values="0 0 0 0 0 0 0 0 0 0 0 0 0 0 0 0 0 0 0.7 0"/>
<feBlend mode="normal" in2="BackgroundImageFix" result="effect1_dropShadow_86_238"/>
<feBlend mode="normal" in="SourceGraphic" in2="effect1_dropShadow_86_238" result="shape"/>
</filter>
<clipPath id="clip0_86_238">
<rect width="48.6328" height="48.6328" fill="white" transform="translate(66.2234 58.9805)"/>
</clipPath>
</defs>
</svg>
