<svg width="174" height="168" viewBox="0 0 174 168" fill="none" xmlns="http://www.w3.org/2000/svg">
<g filter="url(#filter0_i_86_200)">
<path fill-rule="evenodd" clip-rule="evenodd" d="M108.357 60.8682L104.678 102.562L87.5107 107.467L70.3429 102.562L66.6641 60.8682H108.357ZM77.4562 87.8464H82.3613L82.4811 90.9121L87.5107 92.6269L92.5403 90.9121L92.9044 85.3938H82.117L81.8679 80.4887H93.1534L93.5175 75.5835H76.5988L76.23 70.6784H98.6716L98.0585 80.4887L97.1963 94.5909L87.5107 97.7812L77.8251 94.5909L77.4562 87.8464Z" fill="white"/>
</g>
<g filter="url(#filter1_d_86_200)">
<path d="M167.38 160.657H13.2525V7.02881H167.38V160.657ZM99.855 43.4282C89.3121 36.3994 77.765 45.4359 68.2261 45.938C58.6877 46.4399 54.1693 42.675 48.898 45.938C43.6266 49.2013 60.1933 70.2872 56.4283 76.061C52.663 81.8346 45.6347 85.3493 44.1285 94.6372C42.6223 103.925 45.3832 107.44 53.4156 107.942C61.4483 108.444 60.4447 123.505 79.0201 121.748C97.5958 119.99 105.378 110.954 116.423 118.234C127.468 125.512 136.505 94.1352 127.468 85.0981C118.432 76.0613 133.743 53.2183 124.958 48.1978C116.172 43.1773 110.398 50.457 99.855 43.4282Z" fill="#FDB137"/>
</g>
<g filter="url(#filter2_d_86_200)">
<path d="M167.381 160.657H13.2532V7.02881H167.381V160.657ZM120.942 35.646C110.65 35.646 107.386 44.432 97.8469 40.1646C88.3082 35.8972 79.2715 38.1564 68.7288 40.1646C58.1861 42.1727 58.4364 35.6463 53.1653 35.646C47.8938 35.646 41.8684 40.667 41.8684 47.9468C41.8687 55.2263 49.1485 64.0118 48.8977 71.7935C48.6467 79.5753 47.6423 80.3285 44.8811 86.1021C42.12 91.8754 38.857 98.4021 38.1038 101.917C37.3507 105.431 37.8525 113.213 44.8811 115.472C51.9096 117.731 50.1527 127.019 57.4319 125.513C64.7115 124.007 69.9838 129.78 79.2717 127.019C88.5466 124.262 97.8213 122.255 97.8469 122.25C97.8469 122.25 109.394 119.991 118.682 125.513C127.97 131.036 134.747 128.777 134.998 125.513C135.249 122.25 130.731 120.995 137.258 109.699C143.785 98.4027 130.229 88.3615 129.476 79.3247C128.723 70.2879 137.258 56.7319 131.485 52.2134C125.711 47.695 131.233 35.6464 120.942 35.646Z" fill="#F65936"/>
</g>
<g filter="url(#filter3_d_86_200)">
<path d="M167.38 160.657H13.2525V7.02881H167.38V160.657ZM124.707 29.3696C118.933 25.6044 104.373 24.349 94.8345 29.3696C85.2958 34.3902 80.0246 35.3939 64.7125 29.3696C49.4001 23.3452 35.8446 29.3696 35.3423 45.686C34.8403 62.0027 43.6258 61.5014 41.8687 72.0444C40.1115 82.5872 35.3422 85.3486 30.5728 93.1304C25.8035 100.912 28.314 114.216 40.1119 119.488C51.9099 124.759 51.408 135.302 61.4488 133.545C71.4896 131.788 81.0284 133.545 88.8101 133.545C96.5917 133.545 96.5921 127.27 105.127 127.27C113.661 127.27 124.707 133.545 134.748 133.545C144.788 133.545 140.772 121.999 140.772 117.731C140.772 113.464 149.558 109.949 143.032 98.9038C136.505 87.8587 140.772 82.0849 138.513 74.5542C136.254 67.0235 138.513 55.9779 140.772 45.686C143.031 35.3944 130.48 33.1349 124.707 29.3696Z" fill="#0B273D"/>
</g>
<g filter="url(#filter4_d_86_200)">
<path d="M167.38 160.657H13.2525V7.02881H167.38V160.657ZM87.0533 24.3501C80.7776 22.342 59.4405 12.803 40.6138 18.5767C21.7873 24.3505 16.2652 54.7244 21.7877 68.2798C27.3099 81.8352 16.2647 102.67 19.0259 117.732C21.7873 132.793 36.8485 121.999 40.6138 134.048C44.3791 146.097 62.4527 141.329 72.4937 141.58C82.5346 141.831 95.3374 148.105 106.131 146.097C116.925 144.089 113.16 137.312 120.188 137.312C127.217 137.312 145.291 148.106 149.809 137.312C154.328 126.518 158.093 112.962 159.097 101.164C160.101 89.366 149.809 93.3819 149.809 76.8149C149.809 60.2472 156.587 52.2139 154.328 39.4116C152.068 26.6093 143.282 18.0746 129.476 18.5767C115.67 19.0787 87.0533 24.3501 87.0533 24.3501Z" fill="#161817"/>
</g>
<path d="M173.907 167.184H0V0H173.907V167.184ZM15.7627 10.041V157.645H164.87V10.041H15.7627Z" fill="#161817"/>
<defs>
<filter id="filter0_i_86_200" x="63.6641" y="60.8682" width="44.6931" height="46.5986" filterUnits="userSpaceOnUse" color-interpolation-filters="sRGB">
<feFlood flood-opacity="0" result="BackgroundImageFix"/>
<feBlend mode="normal" in="SourceGraphic" in2="BackgroundImageFix" result="shape"/>
<feColorMatrix in="SourceAlpha" type="matrix" values="0 0 0 0 0 0 0 0 0 0 0 0 0 0 0 0 0 0 127 0" result="hardAlpha"/>
<feOffset dx="-3"/>
<feGaussianBlur stdDeviation="2"/>
<feComposite in2="hardAlpha" operator="arithmetic" k2="-1" k3="1"/>
<feColorMatrix type="matrix" values="0 0 0 0 0 0 0 0 0 0 0 0 0 0 0 0 0 0 0.7 0"/>
<feBlend mode="normal" in2="shape" result="effect1_innerShadow_86_200"/>
</filter>
<filter id="filter1_d_86_200" x="4.2525" y="3.02881" width="163.128" height="161.628" filterUnits="userSpaceOnUse" color-interpolation-filters="sRGB">
<feFlood flood-opacity="0" result="BackgroundImageFix"/>
<feColorMatrix in="SourceAlpha" type="matrix" values="0 0 0 0 0 0 0 0 0 0 0 0 0 0 0 0 0 0 127 0" result="hardAlpha"/>
<feOffset dx="-5"/>
<feGaussianBlur stdDeviation="2"/>
<feComposite in2="hardAlpha" operator="out"/>
<feColorMatrix type="matrix" values="0 0 0 0 0 0 0 0 0 0 0 0 0 0 0 0 0 0 0.7 0"/>
<feBlend mode="normal" in2="BackgroundImageFix" result="effect1_dropShadow_86_200"/>
<feBlend mode="normal" in="SourceGraphic" in2="effect1_dropShadow_86_200" result="shape"/>
</filter>
<filter id="filter2_d_86_200" x="4.25317" y="3.02881" width="163.128" height="161.628" filterUnits="userSpaceOnUse" color-interpolation-filters="sRGB">
<feFlood flood-opacity="0" result="BackgroundImageFix"/>
<feColorMatrix in="SourceAlpha" type="matrix" values="0 0 0 0 0 0 0 0 0 0 0 0 0 0 0 0 0 0 127 0" result="hardAlpha"/>
<feOffset dx="-5"/>
<feGaussianBlur stdDeviation="2"/>
<feComposite in2="hardAlpha" operator="out"/>
<feColorMatrix type="matrix" values="0 0 0 0 0 0 0 0 0 0 0 0 0 0 0 0 0 0 0.7 0"/>
<feBlend mode="normal" in2="BackgroundImageFix" result="effect1_dropShadow_86_200"/>
<feBlend mode="normal" in="SourceGraphic" in2="effect1_dropShadow_86_200" result="shape"/>
</filter>
<filter id="filter3_d_86_200" x="4.2525" y="3.02881" width="163.128" height="161.628" filterUnits="userSpaceOnUse" color-interpolation-filters="sRGB">
<feFlood flood-opacity="0" result="BackgroundImageFix"/>
<feColorMatrix in="SourceAlpha" type="matrix" values="0 0 0 0 0 0 0 0 0 0 0 0 0 0 0 0 0 0 127 0" result="hardAlpha"/>
<feOffset dx="-5"/>
<feGaussianBlur stdDeviation="2"/>
<feComposite in2="hardAlpha" operator="out"/>
<feColorMatrix type="matrix" values="0 0 0 0 0 0 0 0 0 0 0 0 0 0 0 0 0 0 0.7 0"/>
<feBlend mode="normal" in2="BackgroundImageFix" result="effect1_dropShadow_86_200"/>
<feBlend mode="normal" in="SourceGraphic" in2="effect1_dropShadow_86_200" result="shape"/>
</filter>
<filter id="filter4_d_86_200" x="4.2525" y="3.02881" width="163.128" height="161.628" filterUnits="userSpaceOnUse" color-interpolation-filters="sRGB">
<feFlood flood-opacity="0" result="BackgroundImageFix"/>
<feColorMatrix in="SourceAlpha" type="matrix" values="0 0 0 0 0 0 0 0 0 0 0 0 0 0 0 0 0 0 127 0" result="hardAlpha"/>
<feOffset dx="-5"/>
<feGaussianBlur stdDeviation="2"/>
<feComposite in2="hardAlpha" operator="out"/>
<feColorMatrix type="matrix" values="0 0 0 0 0 0 0 0 0 0 0 0 0 0 0 0 0 0 0.7 0"/>
<feBlend mode="normal" in2="BackgroundImageFix" result="effect1_dropShadow_86_200"/>
<feBlend mode="normal" in="SourceGraphic" in2="effect1_dropShadow_86_200" result="shape"/>
</filter>
</defs>
</svg>
