<svg width="174" height="168" viewBox="0 0 174 168" fill="none" xmlns="http://www.w3.org/2000/svg">
<g filter="url(#filter0_i_86_182)">
<path d="M81.6581 108.136C86.1315 108.136 89.7403 104.569 89.7403 100.147V92.1573H81.6581C77.1846 92.1573 73.5758 95.7247 73.5758 100.147C73.5758 104.569 77.1846 108.136 81.6581 108.136ZM73.5758 84.1679C73.5758 79.7459 77.1846 76.1785 81.6581 76.1785H89.7403V92.1573H81.6581C77.1846 92.1573 73.5758 88.59 73.5758 84.1679ZM73.5758 68.1891C73.5758 63.7671 77.1846 60.1997 81.6581 60.1997H89.7403V76.1785H81.6581C77.1846 76.1785 73.5758 72.6112 73.5758 68.1891ZM89.7403 60.1997H97.8225C102.296 60.1997 105.905 63.7671 105.905 68.1891C105.905 72.6112 102.296 76.1785 97.8225 76.1785H89.7403V60.1997ZM105.905 84.1679C105.905 88.59 102.296 92.1573 97.8225 92.1573C93.3491 92.1573 89.7403 88.59 89.7403 84.1679C89.7403 79.7459 93.3491 76.1785 97.8225 76.1785C102.296 76.1785 105.905 79.7459 105.905 84.1679Z" fill="white"/>
</g>
<g filter="url(#filter1_d_86_182)">
<path d="M167.38 160.657H13.2525V7.02881H167.38V160.657ZM99.855 43.4282C89.3121 36.3997 77.7649 45.4369 68.2261 45.939C58.6875 46.4409 54.1694 42.6757 48.898 45.939C43.6265 49.2023 60.1936 70.2884 56.4283 76.062C52.663 81.8354 45.6348 85.3497 44.1285 94.6372C42.6223 103.925 45.3838 107.44 53.4166 107.942C61.4487 108.444 60.4452 123.505 79.0201 121.749C97.5958 119.991 105.378 110.954 116.423 118.234C127.468 125.513 136.504 94.1365 127.468 85.0991C118.431 76.0622 133.743 53.2182 124.958 48.1978C116.172 43.1774 110.398 50.457 99.855 43.4282Z" fill="#FDB137"/>
</g>
<g filter="url(#filter2_d_86_182)">
<path d="M167.381 160.657H13.2533V7.02881H167.381V160.657ZM120.941 35.646C110.649 35.6463 107.386 44.4319 97.847 40.1646C88.3083 35.8972 79.2716 38.1564 68.7289 40.1646C58.1862 42.1727 58.4365 35.6463 53.1654 35.646C47.8939 35.646 41.8685 40.667 41.8685 47.9468C41.8688 55.2263 49.1486 64.0118 48.8978 71.7935C48.6468 79.5753 47.6424 80.3286 44.8812 86.1021C42.1201 91.8754 38.8571 98.4021 38.1039 101.917C37.3508 105.431 37.8526 113.213 44.8812 115.472C51.9097 117.731 50.1528 127.019 57.432 125.513C64.7117 124.007 69.984 129.78 79.2718 127.019C88.5513 124.26 97.8305 122.253 97.847 122.25C97.847 122.25 109.394 119.991 118.682 125.513C127.97 131.036 134.747 128.777 134.998 125.513C135.249 122.25 130.732 120.995 137.258 109.699C143.785 98.4027 130.229 88.3615 129.476 79.3247C128.723 70.2879 137.257 56.7318 131.484 52.2134C125.711 47.6946 131.232 35.646 120.941 35.646Z" fill="#F65936"/>
</g>
<g filter="url(#filter3_d_86_182)">
<path d="M167.38 160.657H13.2525V7.02881H167.38V160.657ZM124.707 29.3696C118.933 25.6044 104.374 24.3493 94.8355 29.3696C85.2966 34.3903 80.0248 35.394 64.7125 29.3696C49.4001 23.3452 35.8446 29.3696 35.3423 45.686C34.8403 62.0027 43.6258 61.5014 41.8687 72.0444C40.1115 82.5872 35.3422 85.3486 30.5728 93.1304C25.8035 100.912 28.314 114.216 40.1119 119.488C51.9099 124.759 51.408 135.302 61.4488 133.545C71.4896 131.788 81.0284 133.545 88.8101 133.545C96.5917 133.545 96.5922 127.27 105.127 127.27C113.661 127.27 124.707 133.545 134.748 133.545C144.788 133.545 140.772 121.999 140.772 117.731C140.772 113.464 149.558 109.949 143.032 98.9038C136.505 87.8587 140.772 82.0849 138.513 74.5542C136.254 67.0235 138.513 55.9779 140.772 45.686C143.031 35.3944 130.48 33.1349 124.707 29.3696Z" fill="#0B273D"/>
</g>
<g filter="url(#filter4_d_86_182)">
<path d="M167.38 160.657H13.2525V7.02881H167.38V160.657ZM87.0533 24.3501C81.0218 23.0596 59.4406 12.802 40.6138 18.5757C21.7873 24.3493 16.2653 54.7233 21.7877 68.2788C27.3101 81.8341 16.2649 102.669 19.0259 117.731C21.7872 132.793 36.8485 121.999 40.6138 134.048C44.3793 146.097 62.4528 141.328 72.4937 141.579C82.5346 141.83 95.3374 148.105 106.131 146.097C116.925 144.089 113.16 137.311 120.188 137.311C127.217 137.311 145.291 148.105 149.809 137.311C154.328 126.517 158.093 112.962 159.097 101.164C160.101 89.3654 149.809 93.3816 149.809 76.814C149.809 60.2465 156.587 52.2137 154.328 39.4116C152.068 26.6093 143.282 18.0736 129.476 18.5757C115.67 19.0778 93.0848 25.6405 87.0533 24.3501Z" fill="#161817"/>
</g>
<path d="M173.907 167.184H0V0H173.907V167.184ZM15.7627 10.041V157.645H164.87V10.041H15.7627Z" fill="#161817"/>
<defs>
<filter id="filter0_i_86_182" x="70.5758" y="60.1997" width="35.3289" height="47.9365" filterUnits="userSpaceOnUse" color-interpolation-filters="sRGB">
<feFlood flood-opacity="0" result="BackgroundImageFix"/>
<feBlend mode="normal" in="SourceGraphic" in2="BackgroundImageFix" result="shape"/>
<feColorMatrix in="SourceAlpha" type="matrix" values="0 0 0 0 0 0 0 0 0 0 0 0 0 0 0 0 0 0 127 0" result="hardAlpha"/>
<feOffset dx="-3"/>
<feGaussianBlur stdDeviation="2"/>
<feComposite in2="hardAlpha" operator="arithmetic" k2="-1" k3="1"/>
<feColorMatrix type="matrix" values="0 0 0 0 0 0 0 0 0 0 0 0 0 0 0 0 0 0 0.7 0"/>
<feBlend mode="normal" in2="shape" result="effect1_innerShadow_86_182"/>
</filter>
<filter id="filter1_d_86_182" x="4.2525" y="3.02881" width="163.128" height="161.628" filterUnits="userSpaceOnUse" color-interpolation-filters="sRGB">
<feFlood flood-opacity="0" result="BackgroundImageFix"/>
<feColorMatrix in="SourceAlpha" type="matrix" values="0 0 0 0 0 0 0 0 0 0 0 0 0 0 0 0 0 0 127 0" result="hardAlpha"/>
<feOffset dx="-5"/>
<feGaussianBlur stdDeviation="2"/>
<feComposite in2="hardAlpha" operator="out"/>
<feColorMatrix type="matrix" values="0 0 0 0 0 0 0 0 0 0 0 0 0 0 0 0 0 0 0.7 0"/>
<feBlend mode="normal" in2="BackgroundImageFix" result="effect1_dropShadow_86_182"/>
<feBlend mode="normal" in="SourceGraphic" in2="effect1_dropShadow_86_182" result="shape"/>
</filter>
<filter id="filter2_d_86_182" x="4.25328" y="3.02881" width="163.128" height="161.628" filterUnits="userSpaceOnUse" color-interpolation-filters="sRGB">
<feFlood flood-opacity="0" result="BackgroundImageFix"/>
<feColorMatrix in="SourceAlpha" type="matrix" values="0 0 0 0 0 0 0 0 0 0 0 0 0 0 0 0 0 0 127 0" result="hardAlpha"/>
<feOffset dx="-5"/>
<feGaussianBlur stdDeviation="2"/>
<feComposite in2="hardAlpha" operator="out"/>
<feColorMatrix type="matrix" values="0 0 0 0 0 0 0 0 0 0 0 0 0 0 0 0 0 0 0.7 0"/>
<feBlend mode="normal" in2="BackgroundImageFix" result="effect1_dropShadow_86_182"/>
<feBlend mode="normal" in="SourceGraphic" in2="effect1_dropShadow_86_182" result="shape"/>
</filter>
<filter id="filter3_d_86_182" x="4.2525" y="3.02881" width="163.128" height="161.628" filterUnits="userSpaceOnUse" color-interpolation-filters="sRGB">
<feFlood flood-opacity="0" result="BackgroundImageFix"/>
<feColorMatrix in="SourceAlpha" type="matrix" values="0 0 0 0 0 0 0 0 0 0 0 0 0 0 0 0 0 0 127 0" result="hardAlpha"/>
<feOffset dx="-5"/>
<feGaussianBlur stdDeviation="2"/>
<feComposite in2="hardAlpha" operator="out"/>
<feColorMatrix type="matrix" values="0 0 0 0 0 0 0 0 0 0 0 0 0 0 0 0 0 0 0.7 0"/>
<feBlend mode="normal" in2="BackgroundImageFix" result="effect1_dropShadow_86_182"/>
<feBlend mode="normal" in="SourceGraphic" in2="effect1_dropShadow_86_182" result="shape"/>
</filter>
<filter id="filter4_d_86_182" x="4.2525" y="3.02881" width="163.128" height="161.628" filterUnits="userSpaceOnUse" color-interpolation-filters="sRGB">
<feFlood flood-opacity="0" result="BackgroundImageFix"/>
<feColorMatrix in="SourceAlpha" type="matrix" values="0 0 0 0 0 0 0 0 0 0 0 0 0 0 0 0 0 0 127 0" result="hardAlpha"/>
<feOffset dx="-5"/>
<feGaussianBlur stdDeviation="2"/>
<feComposite in2="hardAlpha" operator="out"/>
<feColorMatrix type="matrix" values="0 0 0 0 0 0 0 0 0 0 0 0 0 0 0 0 0 0 0.7 0"/>
<feBlend mode="normal" in2="BackgroundImageFix" result="effect1_dropShadow_86_182"/>
<feBlend mode="normal" in="SourceGraphic" in2="effect1_dropShadow_86_182" result="shape"/>
</filter>
</defs>
</svg>
