<svg width="174" height="168" viewBox="0 0 174 168" fill="none" xmlns="http://www.w3.org/2000/svg">
<ellipse cx="82.0613" cy="82.0911" rx="34.6883" ry="34.4588" fill="white"/>
<g filter="url(#filter0_d_86_156)">
<path fill-rule="evenodd" clip-rule="evenodd" d="M90.6879 50.4458C73.1411 50.4458 56.5001 65.5662 56.5001 83C56.5001 96.9468 68.0171 107.789 80.6425 111.964C82.23 112.256 82.813 111.279 82.813 110.445C82.813 109.692 82.7835 107.206 82.7698 104.568C73.9299 106.478 72.0645 100.844 72.0645 100.844C70.6191 97.1956 68.5365 96.2255 68.5365 96.2255C65.6529 94.2664 68.7538 94.3071 68.7538 94.3071C71.944 94.5293 73.6247 97.5599 73.6247 97.5599C76.4587 102.385 81.0581 100.99 82.8714 100.184C83.1566 98.1438 83.9801 96.7508 84.8888 95.9625C77.831 95.1654 70.4113 92.4583 70.4113 80.3634C70.4113 76.9172 71.6531 74.1014 73.6857 71.8903C73.3553 71.0958 72.2677 67.8854 73.993 63.5375C73.993 63.5375 76.6608 62.6891 82.733 66.7731C85.2682 66.0731 87.987 65.7214 90.6879 65.7093C93.3873 65.7214 96.1076 66.0721 98.6476 66.772C104.712 62.6881 107.377 63.5365 107.377 63.5365C109.107 67.8838 108.019 71.0948 107.689 71.8893C109.726 74.1003 110.959 76.9162 110.959 80.3624C110.959 92.486 103.526 95.155 96.4502 95.9369C97.5904 96.9165 98.606 98.8379 98.606 101.782C98.606 106.006 98.5692 109.405 98.5692 110.445C98.5692 111.285 99.1417 112.269 100.752 111.959C113.37 107.78 122.464 95.9526 122.464 82.011C122.463 64.5782 108.236 50.4458 90.6879 50.4458Z" fill="#161817"/>
<path d="M70.2396 95.7658C70.1696 95.9226 69.9213 95.9696 69.695 95.8625C69.4635 95.76 69.3346 95.5462 69.4093 95.3889C69.4777 95.2269 69.7266 95.1824 69.9565 95.2906C70.1881 95.3936 70.3196 95.6095 70.2391 95.7663L70.2396 95.7658ZM71.5267 97.1922C71.3757 97.3318 71.0794 97.267 70.8784 97.0459C70.67 96.8263 70.6311 96.5321 70.7853 96.3904C70.9421 96.2514 71.2294 96.3172 71.4377 96.5368C71.6451 96.7594 71.6861 97.0511 71.5272 97.1928L71.5267 97.1922ZM72.7801 99.0097C72.5854 99.1446 72.2665 99.0186 72.0697 98.7379C71.875 98.4567 71.875 98.1195 72.075 97.9852C72.2712 97.8503 72.5854 97.9721 72.7853 98.2502C72.979 98.5351 72.979 98.8727 72.7801 99.0097ZM74.496 100.767C74.3223 100.957 73.9508 100.906 73.6793 100.646C73.402 100.392 73.3247 100.029 73.4988 99.8392C73.6756 99.6479 74.0487 99.7012 74.3218 99.9594C74.5991 100.213 74.6828 100.576 74.497 100.766L74.496 100.767ZM76.8638 101.786C76.7865 102.034 76.4297 102.146 76.0693 102.04C75.7099 101.932 75.4747 101.643 75.5483 101.393C75.622 101.144 75.9814 101.027 76.3439 101.14C76.7033 101.247 76.9385 101.535 76.8638 101.786ZM79.4647 101.975C79.4737 102.235 79.1685 102.451 78.7912 102.456C78.4108 102.465 78.103 102.254 78.0993 101.997C78.0993 101.735 78.3982 101.522 78.7781 101.515C79.1553 101.508 79.4653 101.717 79.4653 101.974L79.4647 101.975ZM81.8842 101.566C81.9294 101.82 81.6668 102.081 81.2917 102.15C80.9233 102.218 80.5813 102.06 80.534 101.809C80.4887 101.548 80.756 101.288 81.1243 101.22C81.5 101.156 81.8368 101.309 81.8842 101.566Z" fill="#161817"/>
</g>
<path d="M160.539 162.726H0.0960693V1.11426H160.539V162.726ZM88.0316 58.6943C72.0017 58.6944 59.0072 70.3435 59.0072 84.7139C59.0072 99.0842 72.0017 110.733 88.0316 110.733C104.062 110.733 117.057 99.0843 117.057 84.7139C117.057 70.3435 104.062 58.6943 88.0316 58.6943Z" fill="#161817"/>
<g filter="url(#filter1_d_86_156)">
<path d="M167.391 160.699H13.2429V8.06934H167.391V160.699ZM99.8571 44.2314C89.3128 37.2483 77.7644 46.2257 68.2243 46.7246C58.6842 47.2234 54.1644 43.4825 48.8923 46.7246C43.6207 49.9671 60.19 70.9161 56.4245 76.6523C52.6587 82.3884 45.6292 85.88 44.1227 95.1074C42.6164 104.335 45.378 107.826 53.4118 108.325C61.4455 108.824 60.4414 123.788 79.0192 122.042C97.5974 120.296 105.381 111.318 116.427 118.551C127.474 125.782 136.511 94.609 127.473 85.6309C118.435 76.6526 133.75 53.9576 124.963 48.9697C116.176 43.982 110.401 51.2144 99.8571 44.2314Z" fill="#FDB137"/>
</g>
<g filter="url(#filter2_d_86_156)">
<path d="M167.392 160.699H13.2425V8.06934H167.392V160.699ZM120.946 36.5C110.652 36.5 107.388 45.229 97.848 40.9893C88.3079 36.7498 79.2701 38.9941 68.7259 40.9893C58.1816 42.9844 58.4325 36.5001 53.1605 36.5C47.8883 36.5 41.8626 41.4882 41.8626 48.7207C41.8628 55.9531 49.1439 64.6818 48.8929 72.4131C48.6418 80.1444 47.6369 80.8928 44.8753 86.6289C42.1137 92.3649 38.8501 98.8495 38.097 102.341C37.3439 105.832 37.8462 113.563 44.8753 115.808C51.9048 118.052 50.1477 127.279 57.428 125.783C64.7085 124.287 69.981 130.023 79.2698 127.28C88.5247 124.547 97.7799 122.556 97.848 122.541C97.848 122.541 109.397 120.297 118.686 125.783C127.975 131.27 134.754 129.025 135.005 125.783C135.256 122.541 130.737 121.294 137.264 110.071C143.791 98.8485 130.235 88.8726 129.482 79.8945C128.729 70.9164 137.264 57.449 131.49 52.96C125.716 48.4707 131.239 36.5 120.946 36.5Z" fill="#F65936"/>
</g>
<g filter="url(#filter3_d_86_156)">
<path d="M167.391 160.699H13.2429V8.06934H167.391V160.699ZM124.712 30.2656C118.937 26.5247 104.376 25.2776 94.8356 30.2656C85.2958 35.2535 80.0236 36.2507 64.7097 30.2656C49.3953 24.2804 35.838 30.2652 35.3356 46.4756C34.8335 62.6861 43.6201 62.1879 41.863 72.6621C40.1056 83.1365 35.3361 85.8804 30.5661 93.6113C25.796 101.343 28.3065 114.561 40.1061 119.798C51.9056 125.035 51.4038 135.51 61.446 133.765C71.4879 132.019 81.0276 133.765 88.8102 133.765C96.593 133.765 96.5936 127.529 105.13 127.529C113.665 127.529 124.712 133.764 134.754 133.765C144.796 133.765 140.779 122.293 140.779 118.053C140.779 113.813 149.566 110.321 143.039 99.3477C136.511 88.3743 140.78 82.638 138.52 75.1562C136.261 67.6745 138.519 56.7006 140.779 46.4756C143.038 36.2508 130.486 34.0065 124.712 30.2656Z" fill="#0B273D"/>
</g>
<g filter="url(#filter4_d_86_156)">
<path d="M167.391 160.699H13.2429V8.06934H167.391V160.699ZM87.0534 25.2773C80.9939 25.5057 59.4372 13.8051 40.6081 19.541C21.7789 25.2771 16.2558 55.4545 21.779 68.9219C27.302 82.3893 16.2557 103.089 19.0173 118.053C21.779 133.016 36.8423 122.293 40.6081 134.264C44.3742 146.234 62.4497 141.496 72.4919 141.745C82.5341 141.995 95.3381 148.229 106.133 146.234C116.929 144.239 113.163 137.506 120.193 137.506C127.223 137.506 145.298 148.229 149.817 137.506C154.336 126.782 158.102 113.314 159.106 101.593C160.11 89.8712 149.817 93.8612 149.817 77.4014C149.817 60.9413 156.596 52.9604 154.337 40.2412C152.077 27.5222 143.29 19.0424 129.482 19.541C115.674 20.0398 93.1132 25.0489 87.0534 25.2773Z" fill="#161817"/>
</g>
<path d="M173.907 167.184H0V0H173.907V167.184ZM15.7529 11.0605V157.705H164.881V11.0605H15.7529Z" fill="#161817"/>
<defs>
<filter id="filter0_d_86_156" x="49.5001" y="46.4458" width="73.9638" height="69.5718" filterUnits="userSpaceOnUse" color-interpolation-filters="sRGB">
<feFlood flood-opacity="0" result="BackgroundImageFix"/>
<feColorMatrix in="SourceAlpha" type="matrix" values="0 0 0 0 0 0 0 0 0 0 0 0 0 0 0 0 0 0 127 0" result="hardAlpha"/>
<feOffset dx="-3"/>
<feGaussianBlur stdDeviation="2"/>
<feComposite in2="hardAlpha" operator="out"/>
<feColorMatrix type="matrix" values="0 0 0 0 0 0 0 0 0 0 0 0 0 0 0 0 0 0 0.7 0"/>
<feBlend mode="normal" in2="BackgroundImageFix" result="effect1_dropShadow_86_156"/>
<feBlend mode="normal" in="SourceGraphic" in2="effect1_dropShadow_86_156" result="shape"/>
</filter>
<filter id="filter1_d_86_156" x="4.24286" y="4.06934" width="163.148" height="160.63" filterUnits="userSpaceOnUse" color-interpolation-filters="sRGB">
<feFlood flood-opacity="0" result="BackgroundImageFix"/>
<feColorMatrix in="SourceAlpha" type="matrix" values="0 0 0 0 0 0 0 0 0 0 0 0 0 0 0 0 0 0 127 0" result="hardAlpha"/>
<feOffset dx="-5"/>
<feGaussianBlur stdDeviation="2"/>
<feComposite in2="hardAlpha" operator="out"/>
<feColorMatrix type="matrix" values="0 0 0 0 0 0 0 0 0 0 0 0 0 0 0 0 0 0 0.7 0"/>
<feBlend mode="normal" in2="BackgroundImageFix" result="effect1_dropShadow_86_156"/>
<feBlend mode="normal" in="SourceGraphic" in2="effect1_dropShadow_86_156" result="shape"/>
</filter>
<filter id="filter2_d_86_156" x="4.24249" y="4.06934" width="163.149" height="160.63" filterUnits="userSpaceOnUse" color-interpolation-filters="sRGB">
<feFlood flood-opacity="0" result="BackgroundImageFix"/>
<feColorMatrix in="SourceAlpha" type="matrix" values="0 0 0 0 0 0 0 0 0 0 0 0 0 0 0 0 0 0 127 0" result="hardAlpha"/>
<feOffset dx="-5"/>
<feGaussianBlur stdDeviation="2"/>
<feComposite in2="hardAlpha" operator="out"/>
<feColorMatrix type="matrix" values="0 0 0 0 0 0 0 0 0 0 0 0 0 0 0 0 0 0 0.7 0"/>
<feBlend mode="normal" in2="BackgroundImageFix" result="effect1_dropShadow_86_156"/>
<feBlend mode="normal" in="SourceGraphic" in2="effect1_dropShadow_86_156" result="shape"/>
</filter>
<filter id="filter3_d_86_156" x="4.24286" y="4.06934" width="163.148" height="160.63" filterUnits="userSpaceOnUse" color-interpolation-filters="sRGB">
<feFlood flood-opacity="0" result="BackgroundImageFix"/>
<feColorMatrix in="SourceAlpha" type="matrix" values="0 0 0 0 0 0 0 0 0 0 0 0 0 0 0 0 0 0 127 0" result="hardAlpha"/>
<feOffset dx="-5"/>
<feGaussianBlur stdDeviation="2"/>
<feComposite in2="hardAlpha" operator="out"/>
<feColorMatrix type="matrix" values="0 0 0 0 0 0 0 0 0 0 0 0 0 0 0 0 0 0 0.7 0"/>
<feBlend mode="normal" in2="BackgroundImageFix" result="effect1_dropShadow_86_156"/>
<feBlend mode="normal" in="SourceGraphic" in2="effect1_dropShadow_86_156" result="shape"/>
</filter>
<filter id="filter4_d_86_156" x="4.24286" y="4.06934" width="163.148" height="160.63" filterUnits="userSpaceOnUse" color-interpolation-filters="sRGB">
<feFlood flood-opacity="0" result="BackgroundImageFix"/>
<feColorMatrix in="SourceAlpha" type="matrix" values="0 0 0 0 0 0 0 0 0 0 0 0 0 0 0 0 0 0 127 0" result="hardAlpha"/>
<feOffset dx="-5"/>
<feGaussianBlur stdDeviation="2"/>
<feComposite in2="hardAlpha" operator="out"/>
<feColorMatrix type="matrix" values="0 0 0 0 0 0 0 0 0 0 0 0 0 0 0 0 0 0 0.7 0"/>
<feBlend mode="normal" in2="BackgroundImageFix" result="effect1_dropShadow_86_156"/>
<feBlend mode="normal" in="SourceGraphic" in2="effect1_dropShadow_86_156" result="shape"/>
</filter>
</defs>
</svg>
