<svg width="174" height="168" viewBox="0 0 174 168" fill="none" xmlns="http://www.w3.org/2000/svg">
<g clip-path="url(#clip0_86_219)">
<g filter="url(#filter0_i_86_219)">
<path d="M112.339 81.455L91.2177 60.3346C90.0022 59.1183 88.0294 59.1183 86.812 60.3346L82.4265 64.7209L87.99 70.2843C89.2833 69.8479 90.7656 70.1406 91.796 71.1711C92.8318 72.2081 93.1223 73.703 92.6751 75.0005L98.0369 80.3628C99.3341 79.9156 100.831 80.2046 101.867 81.2423C103.315 82.6897 103.315 85.0361 101.867 86.4843C101.523 86.8287 101.114 87.1019 100.664 87.2883C100.214 87.4747 99.7319 87.5706 99.245 87.5706C98.7581 87.5706 98.2759 87.4747 97.8261 87.2883C97.3762 87.1019 96.9675 86.8287 96.6233 86.4843C96.1061 85.9668 95.7536 85.3078 95.61 84.5904C95.4665 83.873 95.5384 83.1292 95.8166 82.4525L90.8165 77.4523L90.8158 90.6123C91.1785 90.7909 91.5098 91.0275 91.7964 91.3128C93.2442 92.7602 93.2442 95.1058 91.7964 96.5563C90.3482 98.0037 88.0011 98.0037 86.5545 96.5563C85.1067 95.1062 85.1067 92.7605 86.5545 91.3128C86.9013 90.9654 87.3139 90.6905 87.7681 90.5042V77.2224C87.3135 77.0366 86.9008 76.7616 86.5545 76.4134C85.4577 75.3175 85.1937 73.708 85.7563 72.3606L80.2714 66.8757L65.7891 81.3573C65.2049 81.9417 64.8766 82.7343 64.8766 83.5608C64.8766 84.3872 65.2049 85.1798 65.7891 85.7642L86.9105 106.885C88.1268 108.101 90.0988 108.101 91.317 106.885L112.339 85.8623C112.923 85.2777 113.251 84.485 113.251 83.6586C113.251 82.8321 112.923 82.0395 112.339 81.455Z" fill="white"/>
</g>
</g>
<g filter="url(#filter1_d_86_219)">
<path d="M167.38 160.657H13.2526V7.0293H167.38V160.657ZM99.8551 43.4277C89.3122 36.3993 77.765 45.4364 68.2262 45.9385C58.6876 46.4404 54.1694 42.6754 48.8981 45.9385C43.6266 49.2018 60.1937 70.2879 56.4283 76.0615C52.663 81.8351 45.6347 85.3498 44.1285 94.6377C42.6225 103.925 45.3833 107.439 53.4156 107.941C61.4483 108.443 60.4448 123.505 79.0201 121.748C97.5956 119.991 105.378 110.954 116.422 118.233C127.467 125.513 136.505 94.136 127.468 85.0986C118.432 76.0617 133.743 53.2177 124.958 48.1973C116.172 43.177 110.398 50.4565 99.8551 43.4277Z" fill="#FDB137"/>
</g>
<g filter="url(#filter2_d_86_219)">
<path d="M167.381 160.657H13.2535V7.0293H167.381V160.657ZM120.942 35.6455C110.65 35.6455 107.386 44.4315 97.8473 40.1641C88.3086 35.8968 79.2718 38.1559 68.7291 40.1641C58.1864 42.1722 58.4368 35.6457 53.1656 35.6455C47.8942 35.6455 41.8698 40.6665 41.8698 47.9463C41.8699 55.226 49.1491 64.0121 48.8981 71.7939C48.647 79.5753 47.6426 80.3283 44.8815 86.1016C42.1202 91.8752 38.8572 98.4027 38.1041 101.917C37.3512 105.431 37.8532 113.212 44.8815 115.472C51.9101 117.731 50.1536 127.019 57.4332 125.513C64.7126 124.007 69.9844 129.781 79.2721 127.02C88.5291 124.267 97.786 122.263 97.8473 122.25C97.8473 122.25 109.394 119.99 118.682 125.513C127.97 131.035 134.748 128.776 134.999 125.513C135.249 122.25 130.732 120.994 137.258 109.698C143.785 98.4022 130.229 88.361 129.476 79.3242C128.723 70.2876 137.258 56.7327 131.485 52.2139C125.712 47.6955 131.233 35.6458 120.942 35.6455Z" fill="#F65936"/>
</g>
<g filter="url(#filter3_d_86_219)">
<path d="M167.38 160.657H13.2526V7.0293H167.38V160.657ZM124.707 29.3691C118.933 25.6038 104.373 24.3485 94.8346 29.3691C85.2959 34.3897 80.0246 35.3934 64.7125 29.3691C49.4002 23.3447 35.8446 29.369 35.3424 45.6855C34.8404 62.0022 43.6259 61.5009 41.8688 72.0439C40.1116 82.5866 35.3422 85.3482 30.5729 93.1299C25.8036 100.912 28.314 114.216 40.1119 119.487C51.91 124.759 51.408 135.302 61.4489 133.545C71.4897 131.788 81.0285 133.545 88.8102 133.545C96.5918 133.545 96.5922 127.269 105.127 127.269C113.661 127.269 124.707 133.545 134.748 133.545C144.788 133.545 140.772 121.998 140.772 117.73C140.772 113.463 149.558 109.948 143.032 98.9033C136.505 87.8582 140.772 82.0843 138.513 74.5537C136.254 67.0231 138.513 55.9775 140.772 45.6855C143.031 35.3938 130.48 33.1345 124.707 29.3691Z" fill="#0B273D"/>
</g>
<g filter="url(#filter4_d_86_219)">
<path d="M167.38 160.657H13.2526V7.0293H167.38V160.657ZM87.0533 24.3506C79.9071 24.175 59.4406 12.8025 40.6139 18.5762C21.7873 24.3498 16.2653 54.7238 21.7877 68.2793C27.3102 81.8346 16.265 102.67 19.026 117.731C21.7873 132.793 36.8485 122 40.6139 134.049C44.3794 146.098 62.4529 141.328 72.4938 141.579C82.5347 141.83 95.3375 148.106 106.131 146.098C116.925 144.089 113.16 137.312 120.188 137.312C127.217 137.312 145.291 148.106 149.809 137.312C154.328 126.517 158.093 112.962 159.097 101.164C160.101 89.3659 149.809 93.3821 149.809 76.8145C149.809 60.247 156.587 52.2142 154.328 39.4121C152.069 26.6098 143.282 18.0741 129.476 18.5762C115.67 19.0782 94.1996 24.5262 87.0533 24.3506Z" fill="#161817"/>
</g>
<path d="M173.907 167.184H0V0H173.907V167.184ZM15.7627 10.041V157.645H164.87V10.041H15.7627Z" fill="#161817"/>
<defs>
<filter id="filter0_i_86_219" x="61.8766" y="59.4224" width="51.3746" height="48.3745" filterUnits="userSpaceOnUse" color-interpolation-filters="sRGB">
<feFlood flood-opacity="0" result="BackgroundImageFix"/>
<feBlend mode="normal" in="SourceGraphic" in2="BackgroundImageFix" result="shape"/>
<feColorMatrix in="SourceAlpha" type="matrix" values="0 0 0 0 0 0 0 0 0 0 0 0 0 0 0 0 0 0 127 0" result="hardAlpha"/>
<feOffset dx="-3"/>
<feGaussianBlur stdDeviation="2"/>
<feComposite in2="hardAlpha" operator="arithmetic" k2="-1" k3="1"/>
<feColorMatrix type="matrix" values="0 0 0 0 0 0 0 0 0 0 0 0 0 0 0 0 0 0 0.7 0"/>
<feBlend mode="normal" in2="shape" result="effect1_innerShadow_86_219"/>
</filter>
<filter id="filter1_d_86_219" x="4.25256" y="3.0293" width="163.128" height="161.628" filterUnits="userSpaceOnUse" color-interpolation-filters="sRGB">
<feFlood flood-opacity="0" result="BackgroundImageFix"/>
<feColorMatrix in="SourceAlpha" type="matrix" values="0 0 0 0 0 0 0 0 0 0 0 0 0 0 0 0 0 0 127 0" result="hardAlpha"/>
<feOffset dx="-5"/>
<feGaussianBlur stdDeviation="2"/>
<feComposite in2="hardAlpha" operator="out"/>
<feColorMatrix type="matrix" values="0 0 0 0 0 0 0 0 0 0 0 0 0 0 0 0 0 0 0.7 0"/>
<feBlend mode="normal" in2="BackgroundImageFix" result="effect1_dropShadow_86_219"/>
<feBlend mode="normal" in="SourceGraphic" in2="effect1_dropShadow_86_219" result="shape"/>
</filter>
<filter id="filter2_d_86_219" x="4.25354" y="3.0293" width="163.128" height="161.628" filterUnits="userSpaceOnUse" color-interpolation-filters="sRGB">
<feFlood flood-opacity="0" result="BackgroundImageFix"/>
<feColorMatrix in="SourceAlpha" type="matrix" values="0 0 0 0 0 0 0 0 0 0 0 0 0 0 0 0 0 0 127 0" result="hardAlpha"/>
<feOffset dx="-5"/>
<feGaussianBlur stdDeviation="2"/>
<feComposite in2="hardAlpha" operator="out"/>
<feColorMatrix type="matrix" values="0 0 0 0 0 0 0 0 0 0 0 0 0 0 0 0 0 0 0.7 0"/>
<feBlend mode="normal" in2="BackgroundImageFix" result="effect1_dropShadow_86_219"/>
<feBlend mode="normal" in="SourceGraphic" in2="effect1_dropShadow_86_219" result="shape"/>
</filter>
<filter id="filter3_d_86_219" x="4.25256" y="3.0293" width="163.128" height="161.628" filterUnits="userSpaceOnUse" color-interpolation-filters="sRGB">
<feFlood flood-opacity="0" result="BackgroundImageFix"/>
<feColorMatrix in="SourceAlpha" type="matrix" values="0 0 0 0 0 0 0 0 0 0 0 0 0 0 0 0 0 0 127 0" result="hardAlpha"/>
<feOffset dx="-5"/>
<feGaussianBlur stdDeviation="2"/>
<feComposite in2="hardAlpha" operator="out"/>
<feColorMatrix type="matrix" values="0 0 0 0 0 0 0 0 0 0 0 0 0 0 0 0 0 0 0.7 0"/>
<feBlend mode="normal" in2="BackgroundImageFix" result="effect1_dropShadow_86_219"/>
<feBlend mode="normal" in="SourceGraphic" in2="effect1_dropShadow_86_219" result="shape"/>
</filter>
<filter id="filter4_d_86_219" x="4.25256" y="3.0293" width="163.128" height="161.628" filterUnits="userSpaceOnUse" color-interpolation-filters="sRGB">
<feFlood flood-opacity="0" result="BackgroundImageFix"/>
<feColorMatrix in="SourceAlpha" type="matrix" values="0 0 0 0 0 0 0 0 0 0 0 0 0 0 0 0 0 0 127 0" result="hardAlpha"/>
<feOffset dx="-5"/>
<feGaussianBlur stdDeviation="2"/>
<feComposite in2="hardAlpha" operator="out"/>
<feColorMatrix type="matrix" values="0 0 0 0 0 0 0 0 0 0 0 0 0 0 0 0 0 0 0.7 0"/>
<feBlend mode="normal" in2="BackgroundImageFix" result="effect1_dropShadow_86_219"/>
<feBlend mode="normal" in="SourceGraphic" in2="effect1_dropShadow_86_219" result="shape"/>
</filter>
<clipPath id="clip0_86_219">
<rect width="49.0507" height="49.0513" fill="white" transform="translate(64.5383 59.084)"/>
</clipPath>
</defs>
</svg>
