<svg width="174" height="168" viewBox="0 0 174 168" fill="none" xmlns="http://www.w3.org/2000/svg">
<g filter="url(#filter0_d_86_316)">
<path d="M167.38 160.657H13.2523V7.02881H167.38V160.657ZM99.8549 43.4282C89.3119 36.3995 77.7648 45.4359 68.226 45.938C58.6875 46.4399 54.1691 42.675 48.8978 45.938C43.6264 49.2013 60.1931 70.2873 56.4281 76.061C52.6628 81.8346 45.6345 85.3493 44.1283 94.6372C42.6221 103.925 45.3837 107.44 53.4164 107.942C61.4485 108.444 60.445 123.505 79.0199 121.748C97.5956 119.99 105.378 110.954 116.423 118.234C127.468 125.512 136.505 94.1351 127.468 85.0981C118.431 76.0613 133.743 53.2183 124.957 48.1978C116.172 43.1773 110.398 50.457 99.8549 43.4282Z" fill="#FDB137"/>
</g>
<g filter="url(#filter1_d_86_316)">
<path d="M167.381 160.657H13.253V7.02881H167.381V160.657ZM120.941 35.646C110.65 35.646 107.386 44.4316 97.8477 40.1646C88.3088 35.8971 79.2715 38.1563 68.7286 40.1646C58.1856 42.1728 58.4366 35.646 53.1651 35.646C47.8936 35.646 41.8692 40.667 41.8692 47.9468C41.8695 55.2263 49.1483 64.0118 48.8975 71.7935C48.6465 79.5754 47.6422 80.3285 44.8809 86.1021C42.1198 91.8754 38.8568 98.4022 38.1036 101.917C37.3505 105.431 37.8527 113.213 44.8809 115.472C51.9096 117.731 50.153 127.019 57.4327 125.513C64.7123 124.007 69.9837 129.78 79.2715 127.019C88.5594 124.258 97.8477 122.25 97.8477 122.25C97.936 122.232 109.43 120.012 118.682 125.513C127.97 131.036 134.748 128.777 134.999 125.513C135.25 122.25 130.731 120.995 137.258 109.699C143.784 98.4027 130.23 88.3615 129.477 79.3247C128.724 70.2879 137.258 56.7318 131.484 52.2134C125.711 47.6949 131.233 35.6461 120.941 35.646Z" fill="#F65936"/>
</g>
<g filter="url(#filter2_d_86_316)">
<path d="M167.38 160.657H13.2523V7.02881H167.38V160.657ZM124.706 29.3696C118.933 25.6045 104.374 24.3493 94.8353 29.3696C85.2964 34.3903 80.0247 35.3941 64.7123 29.3696C49.4 23.3452 35.8444 29.3696 35.3422 45.686C34.8401 62.0027 43.6266 61.5014 41.8695 72.0444C40.1123 82.5873 35.342 85.3486 30.5726 93.1304C25.8034 100.912 28.3139 114.216 40.1117 119.488C51.9097 124.759 51.4079 135.302 61.4486 133.545C71.4894 131.788 81.0283 133.545 88.8099 133.545C96.5917 133.545 96.5925 127.27 105.127 127.27C113.662 127.27 124.707 133.545 134.747 133.545C144.788 133.545 140.772 121.999 140.772 117.731C140.772 113.464 149.558 109.949 143.032 98.9038C136.505 87.8587 140.772 82.0849 138.513 74.5542C136.254 67.0235 138.513 55.9779 140.772 45.686C143.031 35.3943 130.48 33.1349 124.706 29.3696Z" fill="#0B273D"/>
</g>
<g filter="url(#filter3_d_86_316)">
<path d="M167.38 160.657H13.2523V7.02881H167.38V160.657ZM87.0531 24.3501C80.7773 22.3419 59.4402 12.8031 40.6136 18.5767C21.7872 24.3506 16.265 54.7244 21.7875 68.2798C27.3098 81.8352 16.2645 102.67 19.0258 117.732C21.7871 132.793 36.8483 121.999 40.6136 134.048C44.3789 146.097 62.4525 141.329 72.4935 141.58C82.5345 141.831 95.3372 148.105 106.131 146.097C116.925 144.089 113.16 137.312 120.189 137.312C127.218 137.313 145.29 148.105 149.809 137.312C154.327 126.518 158.093 112.962 159.097 101.164C160.101 89.366 149.809 93.3819 149.809 76.8149C149.809 60.2472 156.587 52.2139 154.328 39.4116C152.068 26.6093 143.282 18.0746 129.476 18.5767C115.67 19.0788 87.0531 24.3501 87.0531 24.3501Z" fill="#161817"/>
</g>
<path d="M173.907 167.184H0V0H173.907V167.184ZM15.7617 10.041V157.645H164.87V10.041H15.7617Z" fill="#161817"/>
<g clip-path="url(#clip0_86_316)">
<g filter="url(#filter4_i_86_316)">
<path d="M106.642 62.9012C106.459 62.6986 106.197 62.584 105.923 62.584H67.8722C67.5983 62.584 67.3358 62.6986 67.1532 62.9012C66.9668 63.1037 66.8755 63.375 66.9021 63.6501L70.3298 102.219C70.364 102.624 70.6456 102.96 71.0336 103.075L86.6275 107.546C86.7112 107.573 86.8025 107.584 86.8938 107.584C86.9851 107.584 87.0726 107.573 87.1601 107.546L102.765 103.075C103.153 102.96 103.431 102.624 103.469 102.219L106.893 63.6501C106.92 63.375 106.828 63.1037 106.642 62.9012ZM98.4361 76.1994H80.1145L80.552 81.1786H97.9948L96.6861 95.8945L86.89 98.8675L86.7949 98.837L77.1129 95.8907L76.5841 89.895H81.3281L81.5335 92.2222L86.947 93.361L92.2617 92.2222L92.8285 85.9247H76.2303L74.9406 71.4418H98.8583L98.4361 76.1994Z" fill="white"/>
</g>
</g>
<defs>
<filter id="filter0_d_86_316" x="4.25232" y="3.02881" width="163.128" height="161.628" filterUnits="userSpaceOnUse" color-interpolation-filters="sRGB">
<feFlood flood-opacity="0" result="BackgroundImageFix"/>
<feColorMatrix in="SourceAlpha" type="matrix" values="0 0 0 0 0 0 0 0 0 0 0 0 0 0 0 0 0 0 127 0" result="hardAlpha"/>
<feOffset dx="-5"/>
<feGaussianBlur stdDeviation="2"/>
<feComposite in2="hardAlpha" operator="out"/>
<feColorMatrix type="matrix" values="0 0 0 0 0 0 0 0 0 0 0 0 0 0 0 0 0 0 0.7 0"/>
<feBlend mode="normal" in2="BackgroundImageFix" result="effect1_dropShadow_86_316"/>
<feBlend mode="normal" in="SourceGraphic" in2="effect1_dropShadow_86_316" result="shape"/>
</filter>
<filter id="filter1_d_86_316" x="4.25299" y="3.02881" width="163.128" height="161.628" filterUnits="userSpaceOnUse" color-interpolation-filters="sRGB">
<feFlood flood-opacity="0" result="BackgroundImageFix"/>
<feColorMatrix in="SourceAlpha" type="matrix" values="0 0 0 0 0 0 0 0 0 0 0 0 0 0 0 0 0 0 127 0" result="hardAlpha"/>
<feOffset dx="-5"/>
<feGaussianBlur stdDeviation="2"/>
<feComposite in2="hardAlpha" operator="out"/>
<feColorMatrix type="matrix" values="0 0 0 0 0 0 0 0 0 0 0 0 0 0 0 0 0 0 0.7 0"/>
<feBlend mode="normal" in2="BackgroundImageFix" result="effect1_dropShadow_86_316"/>
<feBlend mode="normal" in="SourceGraphic" in2="effect1_dropShadow_86_316" result="shape"/>
</filter>
<filter id="filter2_d_86_316" x="4.25232" y="3.02881" width="163.128" height="161.628" filterUnits="userSpaceOnUse" color-interpolation-filters="sRGB">
<feFlood flood-opacity="0" result="BackgroundImageFix"/>
<feColorMatrix in="SourceAlpha" type="matrix" values="0 0 0 0 0 0 0 0 0 0 0 0 0 0 0 0 0 0 127 0" result="hardAlpha"/>
<feOffset dx="-5"/>
<feGaussianBlur stdDeviation="2"/>
<feComposite in2="hardAlpha" operator="out"/>
<feColorMatrix type="matrix" values="0 0 0 0 0 0 0 0 0 0 0 0 0 0 0 0 0 0 0.7 0"/>
<feBlend mode="normal" in2="BackgroundImageFix" result="effect1_dropShadow_86_316"/>
<feBlend mode="normal" in="SourceGraphic" in2="effect1_dropShadow_86_316" result="shape"/>
</filter>
<filter id="filter3_d_86_316" x="4.25232" y="3.02881" width="163.128" height="161.628" filterUnits="userSpaceOnUse" color-interpolation-filters="sRGB">
<feFlood flood-opacity="0" result="BackgroundImageFix"/>
<feColorMatrix in="SourceAlpha" type="matrix" values="0 0 0 0 0 0 0 0 0 0 0 0 0 0 0 0 0 0 127 0" result="hardAlpha"/>
<feOffset dx="-5"/>
<feGaussianBlur stdDeviation="2"/>
<feComposite in2="hardAlpha" operator="out"/>
<feColorMatrix type="matrix" values="0 0 0 0 0 0 0 0 0 0 0 0 0 0 0 0 0 0 0.7 0"/>
<feBlend mode="normal" in2="BackgroundImageFix" result="effect1_dropShadow_86_316"/>
<feBlend mode="normal" in="SourceGraphic" in2="effect1_dropShadow_86_316" result="shape"/>
</filter>
<filter id="filter4_i_86_316" x="63.8976" y="62.584" width="43" height="45" filterUnits="userSpaceOnUse" color-interpolation-filters="sRGB">
<feFlood flood-opacity="0" result="BackgroundImageFix"/>
<feBlend mode="normal" in="SourceGraphic" in2="BackgroundImageFix" result="shape"/>
<feColorMatrix in="SourceAlpha" type="matrix" values="0 0 0 0 0 0 0 0 0 0 0 0 0 0 0 0 0 0 127 0" result="hardAlpha"/>
<feOffset dx="-3"/>
<feGaussianBlur stdDeviation="2"/>
<feComposite in2="hardAlpha" operator="arithmetic" k2="-1" k3="1"/>
<feColorMatrix type="matrix" values="0 0 0 0 0 0 0 0 0 0 0 0 0 0 0 0 0 0 0.7 0"/>
<feBlend mode="normal" in2="shape" result="effect1_innerShadow_86_316"/>
</filter>
<clipPath id="clip0_86_316">
<rect width="49.9404" height="49.9409" fill="white" transform="translate(61.8976 57.584)"/>
</clipPath>
</defs>
</svg>
