<svg width="174" height="168" viewBox="0 0 174 168" fill="none" xmlns="http://www.w3.org/2000/svg">
<g filter="url(#filter0_i_86_276)">
<g clip-path="url(#clip0_86_276)">
<path d="M90.8054 54.1555C93.6258 60.6816 80.6858 64.7118 79.4879 70.1522C78.3822 75.144 87.1678 80.9489 87.1718 80.9489C85.8377 78.8817 84.8722 77.1751 83.5342 73.9581C81.2707 68.5177 97.3115 63.5981 90.8054 54.1555ZM99.3827 63.1975C99.3827 63.1975 88.0532 63.9146 87.4763 71.1658C87.2199 74.3948 90.4529 76.1175 90.549 78.4691C90.6211 80.3841 88.614 81.9825 88.614 81.9825C88.614 81.9825 92.2557 81.2975 93.3974 78.3689C94.6594 75.1199 90.9496 72.9005 91.3222 70.3005C91.6828 67.8126 99.3827 63.1975 99.3827 63.1975ZM102.131 79.9474C100.945 79.8953 99.627 80.2879 98.4332 81.1452C100.773 80.6445 102.752 82.0747 102.752 83.7252C102.752 87.443 97.3796 90.9564 97.3796 90.9564C97.3796 90.9564 105.696 90.0069 105.696 83.9015C105.696 81.3776 104.102 80.0395 102.131 79.9474ZM81.5711 79.9554C81.5711 79.9554 71.1911 79.8152 71.1911 82.7517C71.1911 85.8205 84.7841 86.0368 94.4911 84.1459C94.4911 84.1459 97.0831 82.3711 97.7722 81.7101C91.4103 83.0081 76.8919 83.1804 76.8919 82.0586C76.8919 81.021 81.5711 79.9554 81.5711 79.9554ZM79.0633 85.6682C77.4728 85.6682 75.0971 86.8981 75.0971 88.084C75.0971 90.4676 87.0877 92.3065 95.9654 88.8211L92.8926 86.9382C86.8753 88.8652 75.7822 88.2482 79.0633 85.6682ZM80.5416 91.0005C78.3582 91.0005 76.944 92.3465 76.944 93.3401C76.944 96.4008 89.9761 96.7093 95.1401 93.5965L91.859 91.5092C88.0011 93.1398 78.3141 93.3601 80.5416 91.0005ZM73.2703 93.7727C69.7128 93.7006 67.4012 95.2991 67.4012 96.6251C67.3972 103.676 103.834 103.336 103.834 96.1284C103.834 94.9345 102.423 94.3657 101.915 94.0932C104.891 100.984 72.1205 100.451 72.1205 96.3848C72.1205 95.4593 74.5243 94.5499 76.7597 94.9866L74.8648 93.909C74.3079 93.8248 73.7751 93.7808 73.2703 93.7727ZM107.675 98.5161C102.135 103.764 88.0972 105.679 73.9794 102.438C88.0932 108.211 107.603 104.962 107.675 98.5161Z" fill="white"/>
</g>
</g>
<g filter="url(#filter1_d_86_276)">
<path d="M167.377 160.651H13.2524V7.02832H167.377V160.651ZM99.854 43.4268C89.3112 36.3982 77.7637 45.4345 68.2251 45.9365C58.6866 46.4385 54.1682 42.6734 48.8969 45.9365C43.6256 49.1998 60.1924 70.2851 56.4272 76.0586C52.662 81.8319 45.6337 85.3463 44.1274 94.6338C42.6213 103.921 45.3829 107.437 53.4155 107.938C61.4477 108.441 60.444 123.501 79.019 121.744C97.5941 119.987 105.376 110.95 116.42 118.229C127.465 125.509 136.502 94.1324 127.465 85.0957C118.429 76.0591 133.741 53.2156 124.956 48.1953C116.17 43.1751 110.396 50.4548 99.854 43.4268Z" fill="#FDB137"/>
</g>
<g filter="url(#filter2_d_86_276)">
<path d="M167.378 160.651H13.2532V7.02832H167.378V160.651ZM120.939 35.6445C110.647 35.6447 107.384 44.4303 97.845 40.1631C88.3065 35.896 79.2702 38.155 68.7278 40.1631C58.1851 42.1712 58.4356 35.6446 53.1643 35.6445C47.8929 35.6445 41.8684 40.6648 41.8684 47.9443C41.8684 55.2238 49.1477 64.0094 48.8967 71.791C48.6457 79.5725 47.6421 80.3257 44.8811 86.0986C42.1199 91.872 38.8559 98.3989 38.1028 101.913C37.3497 105.427 37.8526 113.209 44.8811 115.468C51.9092 117.727 50.1525 127.015 57.4319 125.509C64.7112 124.003 69.9823 129.776 79.2698 127.015C88.5246 124.263 97.7795 122.259 97.845 122.245C97.845 122.245 109.392 119.986 118.68 125.509C127.968 131.031 134.745 128.772 134.996 125.509C135.247 122.246 130.729 120.99 137.255 109.694C143.781 98.3986 130.227 88.3578 129.474 79.3213C128.721 70.2848 137.255 56.7303 131.482 52.2119C125.708 47.6936 131.23 35.6445 120.939 35.6445Z" fill="#F65936"/>
</g>
<g filter="url(#filter3_d_86_276)">
<path d="M167.377 160.651H13.2524V7.02832H167.377V160.651ZM124.705 29.3691C118.931 25.604 104.372 24.3488 94.8335 29.3691C85.2948 34.3897 80.0234 35.3933 64.7114 29.3691C49.3993 23.3449 35.8443 29.3694 35.3423 45.6855C34.8402 62.0015 43.6254 61.4997 41.8686 72.042C40.1115 82.5847 35.3421 85.3464 30.5727 93.1279C25.8034 100.91 28.3139 114.213 40.1118 119.484C51.9093 124.756 51.4072 135.299 61.4477 133.542C71.4885 131.785 81.0275 133.542 88.8091 133.542C96.5904 133.542 96.5909 127.267 105.125 127.267C113.66 127.267 124.705 133.542 134.746 133.542C144.786 133.542 140.77 121.995 140.77 117.728C140.77 113.46 149.555 109.946 143.029 98.9014C136.502 87.8566 140.769 82.0831 138.51 74.5527C136.251 67.0223 138.511 55.9771 140.77 45.6855C143.029 35.394 130.478 33.1344 124.705 29.3691Z" fill="#0B273D"/>
</g>
<g filter="url(#filter4_d_86_276)">
<path d="M167.377 160.651H13.2524V7.02832H167.377V160.651ZM87.0512 24.3486C80.7753 22.3403 59.4396 12.8021 40.6137 18.5752C21.7876 24.3486 16.2645 54.7211 21.7866 68.2764C27.309 81.8314 16.2647 102.666 19.0258 117.728C21.7871 132.788 36.8485 121.995 40.6137 134.044C44.3794 146.092 62.4521 141.323 72.4926 141.574C82.5334 141.825 95.3356 148.101 106.129 146.093C116.923 144.085 113.158 137.307 120.186 137.307C127.214 137.307 145.288 148.1 149.806 137.307C154.324 126.513 158.09 112.958 159.094 101.16C160.098 89.3624 149.806 93.3785 149.806 76.8115C149.806 60.2445 156.584 52.2118 154.325 39.4102C152.066 26.6083 143.28 18.0733 129.474 18.5752C115.668 19.0772 87.0512 24.3486 87.0512 24.3486Z" fill="#161817"/>
</g>
<path d="M173.903 167.178H3.05176e-05V0H173.903V167.178ZM15.7617 10.041V157.64H164.867V10.041H15.7617Z" fill="#161817"/>
<defs>
<filter id="filter0_i_86_276" x="58.8967" y="54.1594" width="54.2792" height="51.2791" filterUnits="userSpaceOnUse" color-interpolation-filters="sRGB">
<feFlood flood-opacity="0" result="BackgroundImageFix"/>
<feBlend mode="normal" in="SourceGraphic" in2="BackgroundImageFix" result="shape"/>
<feColorMatrix in="SourceAlpha" type="matrix" values="0 0 0 0 0 0 0 0 0 0 0 0 0 0 0 0 0 0 127 0" result="hardAlpha"/>
<feOffset dx="-3"/>
<feGaussianBlur stdDeviation="2"/>
<feComposite in2="hardAlpha" operator="arithmetic" k2="-1" k3="1"/>
<feColorMatrix type="matrix" values="0 0 0 0 0 0 0 0 0 0 0 0 0 0 0 0 0 0 0.7 0"/>
<feBlend mode="normal" in2="shape" result="effect1_innerShadow_86_276"/>
</filter>
<filter id="filter1_d_86_276" x="4.25241" y="3.02832" width="163.125" height="161.623" filterUnits="userSpaceOnUse" color-interpolation-filters="sRGB">
<feFlood flood-opacity="0" result="BackgroundImageFix"/>
<feColorMatrix in="SourceAlpha" type="matrix" values="0 0 0 0 0 0 0 0 0 0 0 0 0 0 0 0 0 0 127 0" result="hardAlpha"/>
<feOffset dx="-5"/>
<feGaussianBlur stdDeviation="2"/>
<feComposite in2="hardAlpha" operator="out"/>
<feColorMatrix type="matrix" values="0 0 0 0 0 0 0 0 0 0 0 0 0 0 0 0 0 0 0.7 0"/>
<feBlend mode="normal" in2="BackgroundImageFix" result="effect1_dropShadow_86_276"/>
<feBlend mode="normal" in="SourceGraphic" in2="effect1_dropShadow_86_276" result="shape"/>
</filter>
<filter id="filter2_d_86_276" x="4.25317" y="3.02832" width="163.125" height="161.623" filterUnits="userSpaceOnUse" color-interpolation-filters="sRGB">
<feFlood flood-opacity="0" result="BackgroundImageFix"/>
<feColorMatrix in="SourceAlpha" type="matrix" values="0 0 0 0 0 0 0 0 0 0 0 0 0 0 0 0 0 0 127 0" result="hardAlpha"/>
<feOffset dx="-5"/>
<feGaussianBlur stdDeviation="2"/>
<feComposite in2="hardAlpha" operator="out"/>
<feColorMatrix type="matrix" values="0 0 0 0 0 0 0 0 0 0 0 0 0 0 0 0 0 0 0.7 0"/>
<feBlend mode="normal" in2="BackgroundImageFix" result="effect1_dropShadow_86_276"/>
<feBlend mode="normal" in="SourceGraphic" in2="effect1_dropShadow_86_276" result="shape"/>
</filter>
<filter id="filter3_d_86_276" x="4.25241" y="3.02832" width="163.125" height="161.623" filterUnits="userSpaceOnUse" color-interpolation-filters="sRGB">
<feFlood flood-opacity="0" result="BackgroundImageFix"/>
<feColorMatrix in="SourceAlpha" type="matrix" values="0 0 0 0 0 0 0 0 0 0 0 0 0 0 0 0 0 0 127 0" result="hardAlpha"/>
<feOffset dx="-5"/>
<feGaussianBlur stdDeviation="2"/>
<feComposite in2="hardAlpha" operator="out"/>
<feColorMatrix type="matrix" values="0 0 0 0 0 0 0 0 0 0 0 0 0 0 0 0 0 0 0.7 0"/>
<feBlend mode="normal" in2="BackgroundImageFix" result="effect1_dropShadow_86_276"/>
<feBlend mode="normal" in="SourceGraphic" in2="effect1_dropShadow_86_276" result="shape"/>
</filter>
<filter id="filter4_d_86_276" x="4.25241" y="3.02832" width="163.125" height="161.623" filterUnits="userSpaceOnUse" color-interpolation-filters="sRGB">
<feFlood flood-opacity="0" result="BackgroundImageFix"/>
<feColorMatrix in="SourceAlpha" type="matrix" values="0 0 0 0 0 0 0 0 0 0 0 0 0 0 0 0 0 0 127 0" result="hardAlpha"/>
<feOffset dx="-5"/>
<feGaussianBlur stdDeviation="2"/>
<feComposite in2="hardAlpha" operator="out"/>
<feColorMatrix type="matrix" values="0 0 0 0 0 0 0 0 0 0 0 0 0 0 0 0 0 0 0.7 0"/>
<feBlend mode="normal" in2="BackgroundImageFix" result="effect1_dropShadow_86_276"/>
<feBlend mode="normal" in="SourceGraphic" in2="effect1_dropShadow_86_276" result="shape"/>
</filter>
<clipPath id="clip0_86_276">
<rect width="51.2792" height="51.2792" fill="white" transform="translate(61.8967 54.1594)"/>
</clipPath>
</defs>
</svg>
