<svg width="174" height="168" viewBox="0 0 174 168" fill="none" xmlns="http://www.w3.org/2000/svg">
<rect x="19.7267" y="16.7217" width="133.775" height="133.776" fill="#161817"/>
<g clip-path="url(#clip0_86_76)">
<g filter="url(#filter0_i_86_76)">
<path d="M114.232 96.0863C111.256 96.0048 108.984 96.2831 107.04 97.1016C106.488 97.335 105.608 97.3402 105.518 98.0319C105.822 98.3503 105.868 98.8253 106.11 99.217C106.574 99.9656 107.357 100.972 108.056 101.501C108.819 102.076 109.606 102.693 110.425 103.191C111.882 104.08 113.507 104.587 114.907 105.475C115.734 106 116.554 106.661 117.361 107.253C117.76 107.544 118.028 107.999 118.544 108.183V108.1C118.273 107.753 118.203 107.276 117.953 106.915L116.852 105.814C115.777 104.387 114.412 103.134 112.962 102.093C111.805 101.262 109.214 100.14 108.732 98.7946L108.648 98.7096C109.468 98.6162 110.428 98.3196 111.186 98.116C112.458 97.7759 113.595 97.8642 114.907 97.5241L116.684 97.0175V96.6791C116.021 95.9989 115.547 95.0971 114.824 94.4804C112.929 92.8669 110.862 91.2563 108.733 89.9128C107.552 89.1677 106.094 88.6825 104.842 88.0509C104.421 87.8392 103.682 87.7274 103.404 87.374C102.747 86.5372 102.388 85.4754 101.882 84.4985C100.82 82.4531 99.7779 80.2211 98.836 78.069C98.1942 76.6022 97.776 75.155 96.9758 73.8398C93.135 67.525 89.001 63.7128 82.5963 59.9667C81.2328 59.1699 79.5923 58.855 77.8584 58.4431L75.0662 58.2746C74.4977 58.0377 73.9075 57.3425 73.3741 57.0041C71.2527 55.6628 65.8098 52.7472 64.2377 56.5812C63.2459 59.0001 65.7215 61.3605 66.6066 62.5874C67.2284 63.446 68.0234 64.4109 68.4668 65.378C68.7604 66.0147 68.8104 66.6514 69.0604 67.3236C69.6741 68.9807 70.2105 70.7842 71.006 72.3145C71.4076 73.0895 71.851 73.9051 72.3597 74.5986C72.6699 75.0236 73.2047 75.2122 73.29 75.8673C72.7664 76.5992 72.7365 77.7344 72.4433 78.6596C71.1212 82.829 71.6214 88.0099 73.5435 91.0941C74.1337 92.0428 75.5241 94.0729 77.4342 93.2945C79.1063 92.6125 78.7329 90.5039 79.2112 88.6419C79.3196 88.2203 79.2531 87.91 79.4647 87.6267V87.7116L80.9883 90.7557C82.1153 92.5711 84.1138 94.4681 85.8093 95.7483C86.688 96.412 87.3798 97.5587 88.5166 97.947V97.8621H88.4317C88.2115 97.5185 87.8667 97.3769 87.5867 97.102C86.9248 96.4521 86.1883 95.6451 85.6412 94.9017C84.0993 92.8097 82.7371 90.5188 81.4969 88.1354C80.9033 86.9968 80.3882 85.7417 79.8881 84.583C79.6948 84.1362 79.6982 83.4594 79.2962 83.2293C78.7495 84.0777 77.9425 84.7648 77.5192 85.7664C76.844 87.3685 76.7557 89.3239 76.5056 91.3493C76.3571 91.4026 76.4224 91.3659 76.3358 91.4342C75.1571 91.1492 74.744 89.9372 74.3053 88.8954C73.1983 86.2649 72.9917 82.0289 73.9668 78.9984C74.2186 78.2149 75.3589 75.7478 74.8972 75.0228C74.677 74.3011 73.9502 73.8825 73.5435 73.3307C73.0399 72.6487 72.5385 71.7504 72.1898 70.9617C71.283 68.9111 70.8613 66.6075 69.9058 64.5339C69.4492 63.5421 68.6789 62.5383 68.0456 61.6583C67.3436 60.6815 66.5588 59.9611 66.0151 58.7811C65.8218 58.3612 65.5602 57.6891 65.8453 57.2593C65.937 56.9674 66.0655 56.8458 66.3535 56.751C66.8434 56.3725 68.2108 56.8778 68.7207 57.0895C70.0778 57.6528 71.2096 58.1896 72.3597 58.9514C72.9098 59.3163 73.4684 60.0234 74.135 60.2202H74.8967C76.087 60.4937 77.4206 60.3034 78.534 60.6418C80.5009 61.2401 82.263 62.1705 83.8633 63.1806C88.7377 66.2597 92.7253 70.6404 95.4523 75.8699C95.8906 76.7119 96.0809 77.5138 96.4675 78.407C97.2459 80.2075 98.2279 82.0596 99.0029 83.8217C99.7779 85.577 100.532 87.351 101.627 88.8126C102.202 89.5812 104.422 89.9931 105.432 90.4198C106.141 90.7181 107.301 91.0301 107.971 91.4351C109.251 92.2071 110.492 93.1272 111.694 93.9722C112.292 94.3955 114.139 95.3241 114.231 96.0876L114.232 96.0863ZM76.419 63.8574C75.7989 63.8459 75.3606 63.924 74.8972 64.026V64.1109H74.9804C75.277 64.7178 75.7989 65.1096 76.1655 65.6328L77.0105 67.4098L77.0954 67.3266C77.619 66.9566 77.8589 66.3664 77.8554 65.4646C77.6455 65.2427 77.6156 64.9679 77.4321 64.7028C77.1923 64.3512 76.7237 64.1528 76.4186 63.8579L76.419 63.8574Z" fill="white"/>
</g>
</g>
<g filter="url(#filter1_d_86_76)">
<path d="M167.38 160.657H13.2525V7.02881H167.38V160.657ZM99.8551 43.4282C89.3122 36.3997 77.765 45.4369 68.2262 45.939C58.6876 46.4409 54.1694 42.6757 48.8981 45.939C43.6266 49.2023 60.1937 70.2884 56.4283 76.062C52.663 81.8354 45.6348 85.3497 44.1285 94.6372C42.6224 103.925 45.3839 107.44 53.4166 107.942C61.4488 108.444 60.4452 123.505 79.0201 121.749C97.5959 119.991 105.378 110.954 116.423 118.234C127.468 125.513 136.504 94.1365 127.468 85.0991C118.432 76.0622 133.743 53.2182 124.958 48.1978C116.172 43.1774 110.398 50.457 99.8551 43.4282Z" fill="#FDB137"/>
</g>
<g filter="url(#filter2_d_86_76)">
<path d="M167.381 160.657H13.2534V7.02881H167.381V160.657ZM120.941 35.646C110.649 35.6463 107.386 44.4319 97.8471 40.1646C88.3084 35.8972 79.2717 38.1564 68.7289 40.1646C58.1863 42.1727 58.4365 35.6463 53.1655 35.646C47.894 35.646 41.8686 40.667 41.8686 47.9468C41.8689 55.2263 49.1487 64.0118 48.8979 71.7935C48.6469 79.5753 47.6425 80.3286 44.8813 86.1021C42.1201 91.8754 38.8572 98.4021 38.1039 101.917C37.3509 105.431 37.8527 113.213 44.8813 115.472C51.9098 117.731 50.1529 127.019 57.4321 125.513C64.7117 124.007 69.984 129.78 79.2719 127.019C88.5504 124.261 97.8286 122.254 97.8471 122.25C97.8471 122.25 109.394 119.991 118.682 125.513C127.97 131.036 134.747 128.777 134.998 125.513C135.249 122.25 130.732 120.995 137.258 109.699C143.785 98.4027 130.229 88.3615 129.476 79.3247C128.723 70.2879 137.257 56.7318 131.484 52.2134C125.711 47.6946 131.233 35.646 120.941 35.646Z" fill="#F65936"/>
</g>
<g filter="url(#filter3_d_86_76)">
<path d="M167.38 160.657H13.2525V7.02881H167.38V160.657ZM124.707 29.3706C118.933 25.6054 104.374 24.3502 94.8356 29.3706C85.2967 34.3913 80.0249 35.395 64.7125 29.3706C49.4002 23.3462 35.8446 29.3706 35.3424 45.687C34.8403 62.0037 43.6269 61.5023 41.8697 72.0454C40.1126 82.5882 35.3423 85.3496 30.5729 93.1313C25.8037 100.913 28.3141 114.217 40.1119 119.489C51.9099 124.76 51.4081 135.303 61.4488 133.546C71.4896 131.789 81.0285 133.546 88.8102 133.546C96.5919 133.546 96.5927 127.271 105.128 127.271C113.662 127.271 124.707 133.546 134.748 133.546C144.788 133.546 140.772 122 140.772 117.732C140.772 113.465 149.558 109.95 143.032 98.9048C136.505 87.8596 140.772 82.0858 138.513 74.5552C136.254 67.0245 138.513 55.9789 140.772 45.687C143.031 35.3953 130.48 33.1359 124.707 29.3706Z" fill="#0B273D"/>
</g>
<g filter="url(#filter4_d_86_76)">
<path d="M167.38 160.657H13.2525V7.02881H167.38V160.657ZM87.0533 24.3511C76.5626 23.0606 59.4406 12.803 40.6139 18.5767C21.7873 24.3503 16.2653 54.7243 21.7877 68.2798C27.3102 81.8351 16.265 102.67 19.026 117.732C21.7872 132.794 36.8485 122 40.6139 134.049C44.3794 146.098 62.4529 141.329 72.4938 141.58C82.5347 141.831 95.3375 148.106 106.131 146.098C116.925 144.09 113.16 137.312 120.188 137.312C127.217 137.312 145.291 148.106 149.809 137.312C154.328 126.518 158.093 112.963 159.097 101.165C160.101 89.3664 149.809 93.3826 149.809 76.8149C149.809 60.2475 156.587 52.2146 154.328 39.4126C152.069 26.6103 143.282 18.0746 129.476 18.5767C115.67 19.0787 97.544 25.6415 87.0533 24.3511Z" fill="#161817"/>
</g>
<path d="M173.907 167.184H0V0H173.907V167.184ZM15.7627 10.041V157.645H164.87V10.041H15.7627Z" fill="#161817"/>
<defs>
<filter id="filter0_i_86_76" x="63.0072" y="54.6758" width="55.5373" height="53.5068" filterUnits="userSpaceOnUse" color-interpolation-filters="sRGB">
<feFlood flood-opacity="0" result="BackgroundImageFix"/>
<feBlend mode="normal" in="SourceGraphic" in2="BackgroundImageFix" result="shape"/>
<feColorMatrix in="SourceAlpha" type="matrix" values="0 0 0 0 0 0 0 0 0 0 0 0 0 0 0 0 0 0 127 0" result="hardAlpha"/>
<feOffset dx="-1"/>
<feGaussianBlur stdDeviation="2"/>
<feComposite in2="hardAlpha" operator="arithmetic" k2="-1" k3="1"/>
<feColorMatrix type="matrix" values="0 0 0 0 0 0 0 0 0 0 0 0 0 0 0 0 0 0 0.7 0"/>
<feBlend mode="normal" in2="shape" result="effect1_innerShadow_86_76"/>
</filter>
<filter id="filter1_d_86_76" x="4.25255" y="3.02881" width="163.128" height="161.628" filterUnits="userSpaceOnUse" color-interpolation-filters="sRGB">
<feFlood flood-opacity="0" result="BackgroundImageFix"/>
<feColorMatrix in="SourceAlpha" type="matrix" values="0 0 0 0 0 0 0 0 0 0 0 0 0 0 0 0 0 0 127 0" result="hardAlpha"/>
<feOffset dx="-5"/>
<feGaussianBlur stdDeviation="2"/>
<feComposite in2="hardAlpha" operator="out"/>
<feColorMatrix type="matrix" values="0 0 0 0 0 0 0 0 0 0 0 0 0 0 0 0 0 0 0.7 0"/>
<feBlend mode="normal" in2="BackgroundImageFix" result="effect1_dropShadow_86_76"/>
<feBlend mode="normal" in="SourceGraphic" in2="effect1_dropShadow_86_76" result="shape"/>
</filter>
<filter id="filter2_d_86_76" x="4.25336" y="3.02881" width="163.128" height="161.628" filterUnits="userSpaceOnUse" color-interpolation-filters="sRGB">
<feFlood flood-opacity="0" result="BackgroundImageFix"/>
<feColorMatrix in="SourceAlpha" type="matrix" values="0 0 0 0 0 0 0 0 0 0 0 0 0 0 0 0 0 0 127 0" result="hardAlpha"/>
<feOffset dx="-5"/>
<feGaussianBlur stdDeviation="2"/>
<feComposite in2="hardAlpha" operator="out"/>
<feColorMatrix type="matrix" values="0 0 0 0 0 0 0 0 0 0 0 0 0 0 0 0 0 0 0.7 0"/>
<feBlend mode="normal" in2="BackgroundImageFix" result="effect1_dropShadow_86_76"/>
<feBlend mode="normal" in="SourceGraphic" in2="effect1_dropShadow_86_76" result="shape"/>
</filter>
<filter id="filter3_d_86_76" x="4.25255" y="3.02881" width="163.128" height="161.628" filterUnits="userSpaceOnUse" color-interpolation-filters="sRGB">
<feFlood flood-opacity="0" result="BackgroundImageFix"/>
<feColorMatrix in="SourceAlpha" type="matrix" values="0 0 0 0 0 0 0 0 0 0 0 0 0 0 0 0 0 0 127 0" result="hardAlpha"/>
<feOffset dx="-5"/>
<feGaussianBlur stdDeviation="2"/>
<feComposite in2="hardAlpha" operator="out"/>
<feColorMatrix type="matrix" values="0 0 0 0 0 0 0 0 0 0 0 0 0 0 0 0 0 0 0.7 0"/>
<feBlend mode="normal" in2="BackgroundImageFix" result="effect1_dropShadow_86_76"/>
<feBlend mode="normal" in="SourceGraphic" in2="effect1_dropShadow_86_76" result="shape"/>
</filter>
<filter id="filter4_d_86_76" x="4.25255" y="3.02881" width="163.128" height="161.628" filterUnits="userSpaceOnUse" color-interpolation-filters="sRGB">
<feFlood flood-opacity="0" result="BackgroundImageFix"/>
<feColorMatrix in="SourceAlpha" type="matrix" values="0 0 0 0 0 0 0 0 0 0 0 0 0 0 0 0 0 0 127 0" result="hardAlpha"/>
<feOffset dx="-5"/>
<feGaussianBlur stdDeviation="2"/>
<feComposite in2="hardAlpha" operator="out"/>
<feColorMatrix type="matrix" values="0 0 0 0 0 0 0 0 0 0 0 0 0 0 0 0 0 0 0.7 0"/>
<feBlend mode="normal" in2="BackgroundImageFix" result="effect1_dropShadow_86_76"/>
<feBlend mode="normal" in="SourceGraphic" in2="effect1_dropShadow_86_76" result="shape"/>
</filter>
<clipPath id="clip0_86_76">
<rect width="54.6247" height="54.6253" fill="white" transform="translate(64.0079 54.1606)"/>
</clipPath>
</defs>
</svg>
