<svg width="174" height="168" viewBox="0 0 174 168" fill="none" xmlns="http://www.w3.org/2000/svg">
<g filter="url(#filter0_i_86_136)">
<g clip-path="url(#clip0_86_136)">
<path d="M86.3201 59.7275C77.3983 59.7275 75.5514 64.3347 75.5514 67.0028V72.0346H85.8073V73.0601H70.5197C67.1344 73.0601 63.2444 75.7283 63.2444 83.316C63.2444 90.9037 67.1344 93.5718 70.5197 93.5718H76.577V87.4183C76.577 85.1628 78.4239 83.316 80.6794 83.316H92.9864C94.7291 83.316 96.0631 81.9819 96.0631 80.2392V67.0028C96.0631 63.4132 92.6779 59.7275 86.3201 59.7275ZM81.705 64.8555C82.8347 64.8555 83.7561 65.7769 83.7561 66.9066C83.7561 68.0364 82.8347 68.9578 81.705 68.9578C80.5752 68.9578 79.6538 68.0364 79.6538 66.9066C79.6538 65.7769 80.5752 64.8555 81.705 64.8555ZM97.0887 73.0601V80.2392C97.0887 82.4947 95.2419 84.3416 92.9864 84.3416H80.6794C78.9367 84.3416 77.6026 85.6756 77.6026 87.4183V99.6292C77.6026 103.219 80.9878 106.904 87.3457 106.904C96.2675 106.904 98.1143 102.297 98.1143 99.6292V94.5974H87.8585V93.5718H103.146C106.531 93.5718 110.421 90.9037 110.421 83.316C110.421 75.7283 106.531 73.0601 103.146 73.0601H97.0887ZM91.9608 97.6742C93.0905 97.6742 94.012 98.5956 94.012 99.7253C94.012 100.855 93.0905 101.777 91.9608 101.777C90.8311 101.777 89.9096 100.855 89.9096 99.7253C89.9096 98.5956 90.8311 97.6742 91.9608 97.6742Z" fill="white"/>
</g>
</g>
<g filter="url(#filter1_d_86_136)">
<path d="M167.377 160.651H13.2522V7.02832H167.377V160.651ZM99.8538 43.4268C89.311 36.3982 77.7635 45.4345 68.2249 45.9365C58.6864 46.4385 54.1681 42.6733 48.8968 45.9365C43.6254 49.1998 60.1922 70.2852 56.427 76.0586C52.6618 81.8319 45.6335 85.3463 44.1272 94.6338C42.6211 103.921 45.3828 107.437 53.4153 107.938C61.4476 108.441 60.4438 123.501 79.0188 121.744C97.5939 119.987 105.376 110.95 116.42 118.229C127.465 125.509 136.502 94.1323 127.465 85.0957C118.428 76.0591 133.741 53.2156 124.955 48.1953C116.17 43.1752 110.396 50.4548 99.8538 43.4268Z" fill="#FDB137"/>
</g>
<g filter="url(#filter2_d_86_136)">
<path d="M167.378 160.651H13.2528V7.02832H167.378V160.651ZM120.939 35.6445C110.648 35.6445 107.384 44.43 97.8456 40.1631C88.3069 35.8958 79.2701 38.1549 68.7274 40.1631C58.1847 42.1712 58.4353 35.6445 53.1639 35.6445C47.8926 35.6446 41.8681 40.6649 41.868 47.9443C41.868 55.2238 49.1474 64.0094 48.8964 71.791C48.6453 79.5725 47.6418 80.3256 44.8807 86.0986C42.1196 91.8719 38.8565 98.3989 38.1034 101.913C37.3503 105.427 37.8522 113.209 44.8807 115.468C51.9091 117.727 50.152 127.015 57.4315 125.509C64.711 124.003 69.9827 129.776 79.2704 127.015C88.5579 124.254 97.8456 122.245 97.8456 122.245C97.918 122.231 109.421 120.004 118.68 125.509C127.967 131.031 134.745 128.772 134.996 125.509C135.247 122.246 130.728 120.99 137.255 109.694C143.781 98.3986 130.227 88.3578 129.474 79.3213C128.721 70.2847 137.255 56.7302 131.481 52.2119C125.708 47.6936 131.231 35.6448 120.939 35.6445Z" fill="#F65936"/>
</g>
<g filter="url(#filter3_d_86_136)">
<path d="M167.377 160.651H13.2522V7.02832H167.377V160.651ZM124.704 29.3691C118.931 25.604 104.372 24.3488 94.8333 29.3691C85.2946 34.3897 80.0232 35.3933 64.7112 29.3691C49.3991 23.3449 35.8441 29.3694 35.3421 45.6855C34.8401 62.0015 43.6252 61.4997 41.8684 72.042C40.1113 82.5847 35.3419 85.3464 30.5725 93.1279C25.8032 100.91 28.3138 114.213 40.1116 119.484C51.9092 124.756 51.4071 135.299 61.4475 133.542C71.4883 131.785 81.0273 133.542 88.8089 133.542C96.5903 133.542 96.5907 127.267 105.125 127.267C113.66 127.267 124.705 133.542 134.745 133.542C144.786 133.542 140.77 121.995 140.77 117.728C140.77 113.46 149.555 109.946 143.029 98.9014C136.502 87.8566 140.769 82.0831 138.51 74.5527C136.251 67.0223 138.511 55.9771 140.77 45.6855C143.029 35.394 130.478 33.1344 124.704 29.3691Z" fill="#0B273D"/>
</g>
<g filter="url(#filter4_d_86_136)">
<path d="M167.377 160.651H13.2522V7.02832H167.377V160.651ZM87.0511 24.3486C80.7751 22.3403 59.4394 12.8021 40.6136 18.5752C21.7874 24.3486 16.2644 54.7211 21.7864 68.2764C27.3088 81.8314 16.2645 102.666 19.0257 117.728C21.787 132.788 36.8483 121.995 40.6136 134.044C44.3792 146.092 62.4519 141.323 72.4925 141.574C82.5332 141.825 95.3354 148.101 106.129 146.093C116.923 144.085 113.158 137.307 120.186 137.307C127.214 137.307 145.288 148.1 149.806 137.307C154.324 126.513 158.09 112.958 159.094 101.16C160.098 89.3624 149.806 93.3785 149.806 76.8115C149.806 60.2445 156.583 52.2118 154.324 39.4102C152.065 26.6083 143.28 18.0733 129.474 18.5752C115.668 19.0772 87.0511 24.3486 87.0511 24.3486Z" fill="#161817"/>
</g>
<path d="M173.903 167.178H0V0H173.903V167.178ZM15.7617 10.041V157.64H164.867V10.041H15.7617Z" fill="#161817"/>
<defs>
<filter id="filter0_i_86_136" x="58.1933" y="57.6763" width="54.2792" height="51.2793" filterUnits="userSpaceOnUse" color-interpolation-filters="sRGB">
<feFlood flood-opacity="0" result="BackgroundImageFix"/>
<feBlend mode="normal" in="SourceGraphic" in2="BackgroundImageFix" result="shape"/>
<feColorMatrix in="SourceAlpha" type="matrix" values="0 0 0 0 0 0 0 0 0 0 0 0 0 0 0 0 0 0 127 0" result="hardAlpha"/>
<feOffset dx="-3"/>
<feGaussianBlur stdDeviation="2"/>
<feComposite in2="hardAlpha" operator="arithmetic" k2="-1" k3="1"/>
<feColorMatrix type="matrix" values="0 0 0 0 0 0 0 0 0 0 0 0 0 0 0 0 0 0 0.7 0"/>
<feBlend mode="normal" in2="shape" result="effect1_innerShadow_86_136"/>
</filter>
<filter id="filter1_d_86_136" x="4.25223" y="3.02832" width="163.125" height="161.623" filterUnits="userSpaceOnUse" color-interpolation-filters="sRGB">
<feFlood flood-opacity="0" result="BackgroundImageFix"/>
<feColorMatrix in="SourceAlpha" type="matrix" values="0 0 0 0 0 0 0 0 0 0 0 0 0 0 0 0 0 0 127 0" result="hardAlpha"/>
<feOffset dx="-5"/>
<feGaussianBlur stdDeviation="2"/>
<feComposite in2="hardAlpha" operator="out"/>
<feColorMatrix type="matrix" values="0 0 0 0 0 0 0 0 0 0 0 0 0 0 0 0 0 0 0.7 0"/>
<feBlend mode="normal" in2="BackgroundImageFix" result="effect1_dropShadow_86_136"/>
<feBlend mode="normal" in="SourceGraphic" in2="effect1_dropShadow_86_136" result="shape"/>
</filter>
<filter id="filter2_d_86_136" x="4.25281" y="3.02832" width="163.125" height="161.623" filterUnits="userSpaceOnUse" color-interpolation-filters="sRGB">
<feFlood flood-opacity="0" result="BackgroundImageFix"/>
<feColorMatrix in="SourceAlpha" type="matrix" values="0 0 0 0 0 0 0 0 0 0 0 0 0 0 0 0 0 0 127 0" result="hardAlpha"/>
<feOffset dx="-5"/>
<feGaussianBlur stdDeviation="2"/>
<feComposite in2="hardAlpha" operator="out"/>
<feColorMatrix type="matrix" values="0 0 0 0 0 0 0 0 0 0 0 0 0 0 0 0 0 0 0.7 0"/>
<feBlend mode="normal" in2="BackgroundImageFix" result="effect1_dropShadow_86_136"/>
<feBlend mode="normal" in="SourceGraphic" in2="effect1_dropShadow_86_136" result="shape"/>
</filter>
<filter id="filter3_d_86_136" x="4.25223" y="3.02832" width="163.125" height="161.623" filterUnits="userSpaceOnUse" color-interpolation-filters="sRGB">
<feFlood flood-opacity="0" result="BackgroundImageFix"/>
<feColorMatrix in="SourceAlpha" type="matrix" values="0 0 0 0 0 0 0 0 0 0 0 0 0 0 0 0 0 0 127 0" result="hardAlpha"/>
<feOffset dx="-5"/>
<feGaussianBlur stdDeviation="2"/>
<feComposite in2="hardAlpha" operator="out"/>
<feColorMatrix type="matrix" values="0 0 0 0 0 0 0 0 0 0 0 0 0 0 0 0 0 0 0.7 0"/>
<feBlend mode="normal" in2="BackgroundImageFix" result="effect1_dropShadow_86_136"/>
<feBlend mode="normal" in="SourceGraphic" in2="effect1_dropShadow_86_136" result="shape"/>
</filter>
<filter id="filter4_d_86_136" x="4.25223" y="3.02832" width="163.125" height="161.623" filterUnits="userSpaceOnUse" color-interpolation-filters="sRGB">
<feFlood flood-opacity="0" result="BackgroundImageFix"/>
<feColorMatrix in="SourceAlpha" type="matrix" values="0 0 0 0 0 0 0 0 0 0 0 0 0 0 0 0 0 0 127 0" result="hardAlpha"/>
<feOffset dx="-5"/>
<feGaussianBlur stdDeviation="2"/>
<feComposite in2="hardAlpha" operator="out"/>
<feColorMatrix type="matrix" values="0 0 0 0 0 0 0 0 0 0 0 0 0 0 0 0 0 0 0.7 0"/>
<feBlend mode="normal" in2="BackgroundImageFix" result="effect1_dropShadow_86_136"/>
<feBlend mode="normal" in="SourceGraphic" in2="effect1_dropShadow_86_136" result="shape"/>
</filter>
<clipPath id="clip0_86_136">
<rect width="51.2792" height="51.2792" fill="white" transform="translate(61.1933 57.6763)"/>
</clipPath>
</defs>
</svg>
