<svg width="174" height="168" viewBox="0 0 174 168" fill="none" xmlns="http://www.w3.org/2000/svg">
<g filter="url(#filter0_i_86_96)">
<path d="M99.0343 63.2109C102.936 63.2109 106.097 65.9234 106.097 69.2694C106.097 72.6154 102.936 75.3279 99.0343 75.3279C95.1349 75.3279 91.9714 72.6154 91.9714 69.2694C91.9714 65.9234 95.1349 63.2109 99.0343 63.2109ZM89.3188 63.8257C89.8711 63.8286 90.426 63.8495 90.9809 63.8876C89.6966 65.3017 88.9492 67.0153 88.8383 68.8001C83.2785 68.8879 78.1467 71.2419 74.968 75.1652C73.9772 74.6359 72.885 74.2585 71.741 74.0502C71.0408 73.9201 70.3262 73.8547 69.6095 73.8551C69.4319 73.8551 69.2534 73.8565 69.0732 73.8659L69.0698 73.8673C73.1908 67.631 81.0345 63.7847 89.3188 63.8257ZM108.43 72.7004C110.127 74.9048 111.294 77.3729 111.866 79.9628C112.437 82.5526 112.402 85.2131 111.761 87.7912C111.018 90.7687 109.484 93.5618 107.275 95.9561L107.277 95.9604L107.274 95.9575L107.275 95.9561C106.733 94.1873 105.551 92.6086 103.895 91.4439C104.937 89.9974 105.68 88.41 106.092 86.7503C106.946 83.3373 106.369 79.7774 104.46 76.6892C106.232 75.7371 107.618 74.3444 108.43 72.7004ZM69.618 76.4978C73.5182 76.4978 76.6808 79.2103 76.6808 82.5563C76.6808 85.9023 73.5182 88.6147 69.618 88.6147C65.7169 88.6147 62.5551 85.9023 62.5551 82.5563C62.5551 79.2103 65.7169 76.4978 69.618 76.4978ZM73.8159 90.4756C76.2063 94.4292 80.4584 97.2166 85.548 98.1517L85.5488 98.1488C86.1215 98.2549 86.7003 98.3356 87.2828 98.3907C87.329 100.222 88.052 101.995 89.3492 103.456C87.6633 103.466 85.9812 103.318 84.3333 103.014C76.8027 101.629 70.6702 97.2051 67.7782 91.1113C69.8197 91.4329 71.9281 91.2109 73.8159 90.4756ZM97.4458 92.1249C101.347 92.1249 104.509 94.8381 104.509 98.1841C104.509 101.529 101.347 104.243 97.4458 104.243C93.5455 104.243 90.3812 101.529 90.3812 98.1841C90.3812 94.8381 93.5447 92.1249 97.4458 92.1249Z" fill="white"/>
</g>
<path d="M173.907 167.184H6.10352e-05V0H173.907V167.184ZM62.3096 55.7393V110.364H114.704V55.7393H62.3096Z" fill="#161817"/>
<g filter="url(#filter1_d_86_96)">
<path d="M167.38 160.657H13.2525V7.02881H167.38V160.657ZM99.855 43.4272C89.3122 36.399 77.7649 45.4359 68.2261 45.938C58.6876 46.4399 54.1694 42.6748 48.898 45.938C43.6265 49.2013 60.1936 70.2874 56.4283 76.061C52.6629 81.8345 45.6346 85.3493 44.1285 94.6372C42.6224 103.925 45.3839 107.439 53.4166 107.941C61.4489 108.443 60.4456 123.505 79.0211 121.748C97.5965 119.99 105.379 110.953 116.423 118.233C127.468 125.512 136.505 94.1354 127.468 85.0981C118.431 76.0612 133.743 53.2173 124.958 48.1968C116.172 43.1766 110.398 50.456 99.855 43.4272Z" fill="#FDB137"/>
</g>
<g filter="url(#filter2_d_86_96)">
<path d="M167.381 160.657H13.2534V7.02881H167.381V160.657ZM120.942 35.646C110.65 35.646 107.386 44.432 97.8471 40.1646C88.3083 35.8972 79.2718 38.1564 68.7289 40.1646C58.1862 42.1727 58.4366 35.6463 53.1655 35.646C47.8941 35.646 41.8697 40.6662 41.8696 47.9458C41.8696 55.2255 49.1489 64.0116 48.8979 71.7935C48.6469 79.5754 47.6425 80.3285 44.8813 86.1021C42.1201 91.8755 38.8571 98.4022 38.1039 101.917C37.3509 105.431 37.8527 113.213 44.8813 115.472C51.9098 117.731 50.153 127.019 57.4321 125.513C64.7117 124.007 69.984 129.78 79.2719 127.019C88.538 124.264 97.8038 122.259 97.8471 122.25C97.8471 122.25 109.394 119.991 118.682 125.513C127.97 131.035 134.747 128.776 134.998 125.513C135.249 122.25 130.732 120.995 137.258 109.699C143.785 98.4026 130.229 88.3606 129.476 79.3237C128.723 70.287 137.258 56.732 131.485 52.2134C125.711 47.695 131.233 35.6463 120.942 35.646Z" fill="#F65936"/>
</g>
<g filter="url(#filter3_d_86_96)">
<path d="M167.38 160.657H13.2525V7.02881H167.38V160.657ZM124.707 29.3687C118.933 25.6035 104.374 24.3492 94.8355 29.3696C85.2966 34.3903 80.0249 35.3931 64.7125 29.3687C49.4 23.3442 35.8444 29.3694 35.3423 45.686C34.8404 62.0024 43.6258 61.5004 41.8687 72.0435C40.1116 82.5865 35.3422 85.3476 30.5728 93.1294C25.8034 100.911 28.3138 114.216 40.1119 119.488C51.9099 124.759 51.408 135.302 61.4488 133.544C71.4896 131.787 81.0285 133.544 88.8101 133.544C96.5919 133.544 96.5927 127.269 105.128 127.269C113.662 127.269 124.707 133.544 134.748 133.544C144.789 133.544 140.772 121.997 140.772 117.73C140.772 113.463 149.558 109.948 143.032 98.9028C136.505 87.8577 140.772 82.0839 138.513 74.5532C136.254 67.0226 138.513 55.9777 140.772 45.686C143.031 35.3941 130.48 33.134 124.707 29.3687Z" fill="#0B273D"/>
</g>
<g filter="url(#filter4_d_86_96)">
<path d="M167.38 160.657H13.2525V7.02881H167.38V160.657ZM87.0533 24.3491C79.3495 24.1734 59.4406 12.8011 40.6138 18.5747C21.7873 24.3484 16.2653 54.7223 21.7877 68.2778C27.3101 81.8332 16.265 102.668 19.0259 117.73C21.7872 132.792 36.8485 121.998 40.6138 134.047C44.3793 146.096 62.4528 141.327 72.4937 141.578C82.5346 141.829 95.3374 148.104 106.131 146.096C116.925 144.088 113.16 137.31 120.188 137.31C127.217 137.31 145.291 148.104 149.809 137.31C154.327 126.516 158.093 112.961 159.097 101.163C160.101 89.3645 149.809 93.3806 149.809 76.813C149.809 60.2455 156.587 52.2127 154.328 39.4106C152.068 26.6083 143.282 18.0727 129.476 18.5747C115.67 19.0768 94.757 24.5248 87.0533 24.3491Z" fill="#161817"/>
</g>
<path d="M173.907 167.184H6.10352e-05V0H173.907V167.184ZM15.7628 10.041V157.645H164.87V10.041H15.7628Z" fill="#161817"/>
<defs>
<filter id="filter0_i_86_96" x="59.5551" y="63.2109" width="52.7145" height="41.0317" filterUnits="userSpaceOnUse" color-interpolation-filters="sRGB">
<feFlood flood-opacity="0" result="BackgroundImageFix"/>
<feBlend mode="normal" in="SourceGraphic" in2="BackgroundImageFix" result="shape"/>
<feColorMatrix in="SourceAlpha" type="matrix" values="0 0 0 0 0 0 0 0 0 0 0 0 0 0 0 0 0 0 127 0" result="hardAlpha"/>
<feOffset dx="-3"/>
<feGaussianBlur stdDeviation="2"/>
<feComposite in2="hardAlpha" operator="arithmetic" k2="-1" k3="1"/>
<feColorMatrix type="matrix" values="0 0 0 0 0 0 0 0 0 0 0 0 0 0 0 0 0 0 0.7 0"/>
<feBlend mode="normal" in2="shape" result="effect1_innerShadow_86_96"/>
</filter>
<filter id="filter1_d_86_96" x="4.2525" y="3.02881" width="163.128" height="161.628" filterUnits="userSpaceOnUse" color-interpolation-filters="sRGB">
<feFlood flood-opacity="0" result="BackgroundImageFix"/>
<feColorMatrix in="SourceAlpha" type="matrix" values="0 0 0 0 0 0 0 0 0 0 0 0 0 0 0 0 0 0 127 0" result="hardAlpha"/>
<feOffset dx="-5"/>
<feGaussianBlur stdDeviation="2"/>
<feComposite in2="hardAlpha" operator="out"/>
<feColorMatrix type="matrix" values="0 0 0 0 0 0 0 0 0 0 0 0 0 0 0 0 0 0 0.7 0"/>
<feBlend mode="normal" in2="BackgroundImageFix" result="effect1_dropShadow_86_96"/>
<feBlend mode="normal" in="SourceGraphic" in2="effect1_dropShadow_86_96" result="shape"/>
</filter>
<filter id="filter2_d_86_96" x="4.25336" y="3.02881" width="163.128" height="161.628" filterUnits="userSpaceOnUse" color-interpolation-filters="sRGB">
<feFlood flood-opacity="0" result="BackgroundImageFix"/>
<feColorMatrix in="SourceAlpha" type="matrix" values="0 0 0 0 0 0 0 0 0 0 0 0 0 0 0 0 0 0 127 0" result="hardAlpha"/>
<feOffset dx="-5"/>
<feGaussianBlur stdDeviation="2"/>
<feComposite in2="hardAlpha" operator="out"/>
<feColorMatrix type="matrix" values="0 0 0 0 0 0 0 0 0 0 0 0 0 0 0 0 0 0 0.7 0"/>
<feBlend mode="normal" in2="BackgroundImageFix" result="effect1_dropShadow_86_96"/>
<feBlend mode="normal" in="SourceGraphic" in2="effect1_dropShadow_86_96" result="shape"/>
</filter>
<filter id="filter3_d_86_96" x="4.2525" y="3.02881" width="163.128" height="161.628" filterUnits="userSpaceOnUse" color-interpolation-filters="sRGB">
<feFlood flood-opacity="0" result="BackgroundImageFix"/>
<feColorMatrix in="SourceAlpha" type="matrix" values="0 0 0 0 0 0 0 0 0 0 0 0 0 0 0 0 0 0 127 0" result="hardAlpha"/>
<feOffset dx="-5"/>
<feGaussianBlur stdDeviation="2"/>
<feComposite in2="hardAlpha" operator="out"/>
<feColorMatrix type="matrix" values="0 0 0 0 0 0 0 0 0 0 0 0 0 0 0 0 0 0 0.7 0"/>
<feBlend mode="normal" in2="BackgroundImageFix" result="effect1_dropShadow_86_96"/>
<feBlend mode="normal" in="SourceGraphic" in2="effect1_dropShadow_86_96" result="shape"/>
</filter>
<filter id="filter4_d_86_96" x="4.2525" y="3.02881" width="163.128" height="161.628" filterUnits="userSpaceOnUse" color-interpolation-filters="sRGB">
<feFlood flood-opacity="0" result="BackgroundImageFix"/>
<feColorMatrix in="SourceAlpha" type="matrix" values="0 0 0 0 0 0 0 0 0 0 0 0 0 0 0 0 0 0 127 0" result="hardAlpha"/>
<feOffset dx="-5"/>
<feGaussianBlur stdDeviation="2"/>
<feComposite in2="hardAlpha" operator="out"/>
<feColorMatrix type="matrix" values="0 0 0 0 0 0 0 0 0 0 0 0 0 0 0 0 0 0 0.7 0"/>
<feBlend mode="normal" in2="BackgroundImageFix" result="effect1_dropShadow_86_96"/>
<feBlend mode="normal" in="SourceGraphic" in2="effect1_dropShadow_86_96" result="shape"/>
</filter>
</defs>
</svg>
