<svg width="1440" height="942" viewBox="0 0 1440 942" fill="none" xmlns="http://www.w3.org/2000/svg">
<path d="M-6.7356 0H1447.09V936H-6.7356V0Z" fill="#212227"/>
<path d="M-8.67749 940.374V670.446L1449.68 689.816V940.374H-8.67749Z" fill="#161817"/>
<path d="M320.795 604.839L-8.03015 613.509V727.306L320.795 718.636V604.839Z" fill="#17140F"/>
<path d="M31.4005 646.638H-8.03015V683.267H31.4005V646.638Z" fill="#E7E7DD"/>
<path d="M65.198 646.638H40.4131V701.581H65.198V646.638Z" fill="#E7E7DD"/>
<path d="M77.5906 646.638H84.35V701.581H77.5906V646.638Z" fill="#E7E7DD"/>
<path d="M105.755 646.638H95.6158V704.813H105.755V646.638Z" fill="#E7E7DD"/>
<path d="M114.768 650.948V646.638H174.477V680.034H127.161V650.948H114.768Z" fill="#E7E7DD"/>
<path d="M245.452 642.329H210.528V675.725H245.452V642.329Z" fill="#E7E7DD"/>
<path d="M287.136 642.329H264.605V698.349H287.136V642.329Z" fill="#E7E7DD"/>
<path d="M1445.15 562.35L-6.7356 546.729V311.167L69.645 281.799L101.362 290.547L142.789 281.799L228.879 299.92H246.356L264.48 311.167H313.027L369.342 331.786H407.532L470.32 382.398L621.139 324.913L670.981 299.92L709.171 311.167L748.656 299.92L773.253 290.547H799.145L830.862 281.799L855.459 274.926L883.293 281.799L917.6 267.428L995.922 274.926L1061.95 293.046L1127.97 311.167L1198.53 281.799H1236.07L1265.2 267.428H1366.18L1445.15 299.92V562.35Z" fill="#161817"/>
<path d="M335.035 406.142C337.18 406.142 338.919 407.82 338.919 409.891C338.919 411.961 337.18 413.64 335.035 413.64H331.152C329.006 413.64 327.268 411.961 327.268 409.891C327.268 407.82 329.006 406.142 331.152 406.142H335.035Z" fill="#F65936"/>
<path d="M302.874 356.934C300.73 356.989 298.946 355.354 298.889 353.285C298.832 351.215 300.525 349.493 302.669 349.438L306.552 349.34C308.696 349.285 310.48 350.919 310.536 352.989C310.593 355.058 308.9 356.78 306.756 356.835L302.874 356.934Z" fill="#F65936"/>
<path d="M654.928 392.843C652.784 392.896 651 391.263 650.943 389.194C650.887 387.124 652.579 385.402 654.723 385.347L658.606 385.248C660.751 385.193 662.535 386.827 662.591 388.897C662.647 390.967 660.955 392.689 658.81 392.744L654.928 392.843Z" fill="#F65936"/>
<path d="M985.121 390.875C982.978 390.929 981.194 389.295 981.137 387.226C981.08 385.156 982.773 383.433 984.917 383.379L988.799 383.281C990.943 383.226 992.727 384.859 992.784 386.93C992.841 388.999 991.148 390.721 989.004 390.776L985.121 390.875Z" fill="#F65936"/>
<path d="M1106.81 459.606C1104.67 459.66 1102.88 458.027 1102.83 455.957C1102.77 453.888 1104.46 452.165 1106.61 452.111L1110.49 452.012C1112.63 451.957 1114.42 453.59 1114.48 455.661C1114.53 457.731 1112.84 459.453 1110.7 459.508L1106.81 459.606Z" fill="#F65936"/>
<path d="M543.248 434.613C541.104 434.667 539.32 433.034 539.263 430.964C539.207 428.895 540.899 427.171 543.043 427.118L546.926 427.019C549.071 426.964 550.855 428.597 550.91 430.668C550.967 432.737 549.275 434.459 547.13 434.514L543.248 434.613Z" fill="#F65936"/>
<path d="M47.637 403.643C51.212 403.643 54.11 406.441 54.11 409.891C54.11 413.341 51.212 416.139 47.637 416.139H35.9858C32.4109 416.139 29.5128 413.341 29.5128 409.891C29.5128 406.441 32.4109 403.643 35.9858 403.643H47.637Z" fill="#FDB137"/>
<path d="M942.295 388.032C938.722 388.122 935.748 385.4 935.654 381.949C935.559 378.5 938.38 375.63 941.955 375.539L953.601 375.242C957.175 375.151 960.149 377.874 960.242 381.323C960.337 384.774 957.516 387.644 953.943 387.734L942.295 388.032Z" fill="#FDB137"/>
<path d="M1272.49 386.062C1268.91 386.153 1265.94 383.43 1265.85 379.981C1265.75 376.532 1268.57 373.662 1272.15 373.57L1283.79 373.274C1287.37 373.183 1290.34 375.906 1290.44 379.355C1290.53 382.805 1287.71 385.676 1284.14 385.766L1272.49 386.062Z" fill="#FDB137"/>
<path d="M1394.18 454.793C1390.6 454.885 1387.63 452.162 1387.54 448.713C1387.45 445.264 1390.27 442.393 1393.84 442.302L1405.49 442.006C1409.07 441.914 1412.03 444.637 1412.13 448.087C1412.22 451.537 1409.4 454.407 1405.83 454.497L1394.18 454.793Z" fill="#FDB137"/>
<path d="M117.545 439.883C121.12 439.883 124.018 442.681 124.018 446.131C124.018 449.581 121.12 452.379 117.545 452.379H105.893C102.319 452.379 99.4205 449.581 99.4205 446.131C99.4205 442.681 102.319 439.883 105.893 439.883H117.545Z" fill="white"/>
<path d="M871.423 353.58C867.849 353.671 864.875 350.948 864.782 347.499C864.687 344.049 867.508 341.18 871.081 341.088L882.729 340.792C886.303 340.701 889.275 343.424 889.37 346.873C889.464 350.323 886.644 353.194 883.07 353.284L871.423 353.58Z" fill="white"/>
<path d="M1201.62 351.612C1198.04 351.704 1195.07 348.981 1194.97 345.531C1194.88 342.081 1197.7 339.212 1201.27 339.121L1212.92 338.824C1216.5 338.733 1219.47 341.456 1219.56 344.905C1219.66 348.356 1216.84 351.226 1213.26 351.316L1201.62 351.612Z" fill="white"/>
<path d="M844.147 449.087C840.573 449.178 837.601 446.455 837.506 443.006C837.412 439.556 840.233 436.686 843.806 436.595L855.453 436.299C859.027 436.208 862 438.931 862.094 442.38C862.189 445.83 859.368 448.701 855.795 448.791L844.147 449.087Z" fill="white"/>
<path d="M1323.31 420.345C1319.74 420.436 1316.76 417.713 1316.67 414.264C1316.57 410.814 1319.39 407.944 1322.96 407.853L1334.61 407.557C1338.19 407.466 1341.16 410.189 1341.25 413.638C1341.35 417.088 1338.52 419.959 1334.95 420.049L1323.31 420.345Z" fill="white"/>
<path d="M947.375 316.166C950.951 316.166 953.848 318.964 953.848 322.414C953.848 325.865 950.951 328.663 947.375 328.663H935.724C932.15 328.663 929.251 325.865 929.251 322.414C929.251 318.964 932.15 316.166 935.724 316.166H947.375Z" fill="white"/>
<path d="M13.9778 427.386C17.5528 427.386 20.4507 430.184 20.4507 433.635C20.4507 437.085 17.5528 439.883 13.9778 439.883H2.32658C-1.24834 439.883 -4.14636 437.085 -4.14636 433.635C-4.14636 430.184 -1.24834 427.386 2.32658 427.386H13.9778Z" fill="white"/>
<path d="M975.296 363.439C971.721 363.53 968.747 360.807 968.654 357.358C968.56 353.908 971.381 351.038 974.954 350.948L986.601 350.65C990.174 350.56 993.148 353.282 993.242 356.732C993.337 360.181 990.516 363.052 986.942 363.143L975.296 363.439Z" fill="white"/>
<path d="M1305.49 361.471C1301.91 361.562 1298.95 358.839 1298.84 355.39C1298.75 351.94 1301.58 349.069 1305.15 348.978L1316.8 348.682C1320.37 348.592 1323.34 351.314 1323.44 354.764C1323.53 358.213 1320.71 361.084 1317.14 361.175L1305.49 361.471Z" fill="white"/>
<path d="M1427.18 430.203C1423.6 430.295 1420.64 427.572 1420.54 424.123C1420.44 420.672 1423.27 417.802 1426.84 417.71L1438.49 417.414C1442.06 417.324 1445.03 420.046 1445.13 423.496C1445.22 426.945 1442.4 429.816 1438.83 429.907L1427.18 430.203Z" fill="white"/>
<path d="M73.5288 426.136C75.6738 426.136 77.4125 427.814 77.4125 429.885C77.4125 431.955 75.6738 433.634 73.5288 433.634H69.645C67.5001 433.634 65.7612 431.955 65.7612 429.885C65.7612 427.814 67.5001 426.136 69.645 426.136H73.5288Z" fill="white"/>
<path d="M915.799 366.203C913.655 366.257 911.87 364.624 911.814 362.554C911.757 360.485 913.449 358.763 915.594 358.708L919.477 358.609C921.621 358.554 923.405 360.188 923.461 362.258C923.517 364.328 921.825 366.05 919.681 366.105L915.799 366.203Z" fill="white"/>
<path d="M1245.99 364.235C1243.85 364.289 1242.06 362.656 1242.01 360.586C1241.95 358.517 1243.64 356.793 1245.79 356.74L1249.67 356.641C1251.81 356.586 1253.6 358.219 1253.65 360.29C1253.71 362.359 1252.02 364.081 1249.87 364.136L1245.99 364.235Z" fill="white"/>
<path d="M1367.68 432.967C1365.54 433.02 1363.75 431.387 1363.7 429.318C1363.64 427.248 1365.33 425.525 1367.48 425.471L1371.37 425.372C1373.5 425.317 1375.29 426.951 1375.34 429.021C1375.41 431.091 1373.71 432.813 1371.56 432.868L1367.68 432.967Z" fill="white"/>
<path d="M210.755 357.404C212.9 357.404 214.639 359.083 214.639 361.153C214.639 363.224 212.9 364.902 210.755 364.902H197.809C195.664 364.902 193.925 363.224 193.925 361.153C193.925 359.083 195.664 357.404 197.809 357.404H210.755Z" fill="white"/>
<path d="M780.496 438.402C778.351 438.456 776.567 436.822 776.512 434.753C776.455 432.683 778.147 430.96 780.292 430.906L793.233 430.576C795.376 430.523 797.16 432.156 797.217 434.225C797.274 436.295 795.581 438.018 793.437 438.072L780.496 438.402Z" fill="white"/>
<path d="M428.441 402.492C426.297 402.545 424.513 400.912 424.456 398.843C424.401 396.773 426.093 395.051 428.237 394.996L441.179 394.666C443.322 394.613 445.106 396.246 445.163 398.315C445.219 400.386 443.527 402.108 441.383 402.162L428.441 402.492Z" fill="white"/>
<path d="M1110.69 436.434C1108.54 436.487 1106.76 434.854 1106.7 432.785C1106.65 430.714 1108.34 428.992 1110.48 428.938L1123.43 428.608C1125.57 428.554 1127.35 430.188 1127.41 432.257C1127.47 434.327 1125.77 436.049 1123.63 436.104L1110.69 436.434Z" fill="white"/>
<path d="M547.125 411.44C544.98 411.494 543.196 409.86 543.14 407.791C543.083 405.72 544.775 403.998 546.919 403.944L559.861 403.615C562.005 403.561 563.789 405.194 563.846 407.264C563.903 409.333 562.209 411.055 560.066 411.11L547.125 411.44Z" fill="white"/>
<path d="M1232.38 505.165C1230.24 505.219 1228.45 503.586 1228.4 501.516C1228.34 499.445 1230.03 497.723 1232.18 497.67L1245.12 497.34C1247.26 497.286 1249.05 498.919 1249.1 500.989C1249.16 503.058 1247.47 504.78 1245.32 504.835L1232.38 505.165Z" fill="white"/>
<path d="M279.368 362.403C281.513 362.403 283.252 364.082 283.252 366.152C283.252 368.223 281.513 369.901 279.368 369.901H275.484C273.339 369.901 271.601 368.223 271.601 366.152C271.601 364.082 273.339 362.403 275.484 362.403H279.368Z" fill="#F65936"/>
<path d="M711.771 435.15C709.625 435.204 707.841 433.57 707.786 431.501C707.729 429.43 709.421 427.708 711.566 427.654L715.448 427.556C717.592 427.501 719.376 429.134 719.433 431.205C719.489 433.274 717.797 434.996 715.653 435.051L711.771 435.15Z" fill="#F65936"/>
<path d="M359.715 399.242C357.571 399.295 355.788 397.662 355.731 395.593C355.675 393.522 357.367 391.8 359.511 391.746L363.393 391.647C365.538 391.592 367.322 393.226 367.378 395.296C367.435 397.366 365.743 399.088 363.598 399.143L359.715 399.242Z" fill="#F65936"/>
<path d="M1041.96 433.182C1039.82 433.236 1038.04 431.602 1037.98 429.533C1037.92 427.462 1039.61 425.74 1041.76 425.687L1045.64 425.588C1047.79 425.533 1049.57 427.166 1049.63 429.236C1049.68 431.306 1047.99 433.028 1045.85 433.082L1041.96 433.182Z" fill="#F65936"/>
<path d="M1163.65 501.914C1161.51 501.968 1159.73 500.334 1159.67 498.265C1159.61 496.194 1161.31 494.472 1163.45 494.418L1167.33 494.32C1169.48 494.265 1171.26 495.898 1171.32 497.967C1171.37 500.038 1169.68 501.76 1167.54 501.814L1163.65 501.914Z" fill="#F65936"/>
<path d="M279.368 429.885C281.513 429.885 283.252 431.564 283.252 433.634C283.252 435.705 281.513 437.383 279.368 437.383H275.484C273.339 437.383 271.601 435.705 271.601 433.634C271.601 431.564 273.339 429.885 275.484 429.885H279.368Z" fill="white"/>
<path d="M709.928 367.691C707.785 367.746 706.001 366.113 705.944 364.042C705.887 361.973 707.579 360.251 709.724 360.196L713.606 360.097C715.75 360.043 717.534 361.677 717.591 363.746C717.647 365.817 715.955 367.539 713.811 367.593L709.928 367.691Z" fill="white"/>
<path d="M512.597 437.578C510.453 437.633 508.669 435.999 508.612 433.929C508.555 431.86 510.249 430.138 512.392 430.083L516.275 429.984C518.419 429.929 520.203 431.564 520.26 433.633C520.317 435.703 518.623 437.425 516.479 437.48L512.597 437.578Z" fill="white"/>
<path d="M1040.12 365.722C1037.98 365.777 1036.19 364.144 1036.14 362.073C1036.08 360.004 1037.77 358.282 1039.92 358.227L1043.8 358.128C1045.94 358.075 1047.73 359.708 1047.78 361.777C1047.84 363.848 1046.15 365.57 1044 365.624L1040.12 365.722Z" fill="white"/>
<path d="M1161.81 434.454C1159.67 434.509 1157.88 432.876 1157.83 430.805C1157.77 428.735 1159.46 427.013 1161.61 426.958L1165.49 426.86C1167.63 426.806 1169.42 428.439 1169.47 430.509C1169.53 432.579 1167.84 434.301 1165.69 434.355L1161.81 434.454Z" fill="white"/>
<path d="M598.248 409.461C596.104 409.516 594.319 407.883 594.264 405.812C594.207 403.743 595.899 402.021 598.044 401.966L601.926 401.867C604.07 401.813 605.854 403.447 605.911 405.516C605.967 407.587 604.275 409.309 602.131 409.362L598.248 409.461Z" fill="white"/>
<path d="M13.9777 346.158C16.1227 346.158 17.8615 347.837 17.8615 349.907C17.8615 351.978 16.1227 353.656 13.9777 353.656H10.094C7.94909 353.656 6.21021 351.978 6.21021 349.907C6.21021 347.837 7.94909 346.158 10.094 346.158H13.9777Z" fill="white"/>
<path d="M977.512 444.64C975.368 444.694 973.584 443.061 973.527 440.991C973.47 438.921 975.163 437.199 977.307 437.145L981.19 437.046C983.334 436.991 985.118 438.625 985.175 440.694C985.23 442.765 983.538 444.487 981.394 444.54L977.512 444.64Z" fill="white"/>
<path d="M1307.7 442.671C1305.56 442.726 1303.78 441.092 1303.72 439.023C1303.66 436.952 1305.36 435.23 1307.5 435.176L1311.39 435.076C1313.52 435.023 1315.31 436.656 1315.36 438.726C1315.43 440.796 1313.73 442.518 1311.58 442.572L1307.7 442.671Z" fill="white"/>
<path d="M1429.39 511.403C1427.25 511.458 1425.47 509.824 1425.42 507.755C1425.35 505.684 1427.05 503.962 1429.2 503.908L1433.08 503.808C1435.22 503.755 1437 505.388 1437.05 507.457C1437.12 509.528 1435.42 511.25 1433.27 511.304L1429.39 511.403Z" fill="white"/>
<path d="M205.577 396.145C207.007 396.145 208.166 397.263 208.166 398.644C208.166 400.025 207.007 401.143 205.577 401.143H199.104C197.674 401.143 196.514 400.025 196.514 398.644C196.514 397.263 197.674 396.145 199.104 396.145H205.577Z" fill="#FDB137"/>
<path d="M784.616 399.543C783.186 399.58 781.997 398.491 781.959 397.11C781.922 395.731 783.049 394.583 784.478 394.546L790.95 394.382C792.379 394.346 793.569 395.434 793.607 396.814C793.644 398.195 792.515 399.342 791.086 399.378L784.616 399.543Z" fill="#FDB137"/>
<path d="M415.436 382.626C414.006 382.663 412.817 381.574 412.779 380.193C412.742 378.814 413.869 377.666 415.298 377.629L421.77 377.465C423.199 377.429 424.389 378.517 424.427 379.897C424.464 381.277 423.335 382.425 421.906 382.461L415.436 382.626Z" fill="#FDB137"/>
<path d="M1114.81 397.575C1113.38 397.611 1112.19 396.523 1112.15 395.142C1112.11 393.762 1113.24 392.615 1114.67 392.578L1121.14 392.414C1122.57 392.378 1123.76 393.466 1123.8 394.846C1123.84 396.225 1122.71 397.374 1121.28 397.41L1114.81 397.575Z" fill="#FDB137"/>
<path d="M551.244 372.582C549.814 372.618 548.625 371.53 548.588 370.149C548.55 368.769 549.678 367.622 551.107 367.584L557.579 367.421C559.008 367.385 560.196 368.473 560.235 369.853C560.273 371.232 559.144 372.381 557.715 372.417L551.244 372.582Z" fill="#FDB137"/>
<path d="M1236.5 466.307C1235.07 466.344 1233.88 465.255 1233.84 463.874C1233.81 462.495 1234.93 461.348 1236.36 461.31L1242.83 461.146C1244.26 461.11 1245.45 462.199 1245.49 463.578C1245.53 464.958 1244.4 466.106 1242.97 466.143L1236.5 466.307Z" fill="#FDB137"/>
<path d="M221.112 372.401C222.542 372.401 223.701 373.519 223.701 374.9C223.701 376.281 222.542 377.4 221.112 377.4H217.228C215.799 377.4 214.639 376.281 214.639 374.9C214.639 373.519 215.799 372.401 217.228 372.401H221.112Z" fill="white"/>
<path d="M239.236 362.403C240.666 362.403 241.825 363.522 241.825 364.903C241.825 366.284 240.666 367.402 239.236 367.402H235.352C233.923 367.402 232.763 366.284 232.763 364.903C232.763 363.522 233.923 362.403 235.352 362.403H239.236Z" fill="#F65936"/>
<path d="M751.888 434.129C750.459 434.165 749.27 433.076 749.232 431.696C749.194 430.317 750.323 429.168 751.753 429.132L755.635 429.033C757.064 428.997 758.254 430.087 758.292 431.466C758.329 432.846 757.2 433.994 755.771 434.031L751.888 434.129Z" fill="#F65936"/>
<path d="M399.835 398.22C398.405 398.256 397.216 397.166 397.178 395.786C397.141 394.407 398.268 393.258 399.697 393.222L403.58 393.123C405.01 393.087 406.199 394.177 406.236 395.557C406.275 396.936 405.146 398.085 403.717 398.121L399.835 398.22Z" fill="#F65936"/>
<path d="M1082.08 432.161C1080.65 432.197 1079.46 431.107 1079.43 429.728C1079.39 428.348 1080.52 427.2 1081.94 427.164L1085.83 427.065C1087.26 427.029 1088.45 428.117 1088.48 429.498C1088.52 430.878 1087.39 432.026 1085.96 432.062L1082.08 432.161Z" fill="#F65936"/>
<path d="M518.517 407.168C517.088 407.204 515.898 406.114 515.861 404.735C515.823 403.355 516.952 402.207 518.381 402.17L522.264 402.072C523.693 402.035 524.883 403.124 524.92 404.505C524.958 405.884 523.829 407.033 522.4 407.069L518.517 407.168Z" fill="#F65936"/>
<path d="M1203.77 500.892C1202.34 500.929 1201.15 499.839 1201.12 498.459C1201.08 497.08 1202.21 495.931 1203.64 495.895L1207.52 495.796C1208.95 495.76 1210.14 496.848 1210.18 498.229C1210.21 499.609 1209.09 500.757 1207.66 500.794L1203.77 500.892Z" fill="#F65936"/>
<path d="M261.244 396.145C262.674 396.145 263.833 397.263 263.833 398.644C263.833 400.025 262.674 401.143 261.244 401.143H257.36C255.931 401.143 254.771 400.025 254.771 398.644C254.771 397.263 255.931 396.145 257.36 396.145H261.244Z" fill="white"/>
<path d="M728.968 400.959C727.537 400.996 726.349 399.907 726.311 398.527C726.274 397.147 727.401 395.999 728.831 395.963L732.713 395.863C734.142 395.827 735.332 396.917 735.37 398.296C735.407 399.676 734.28 400.824 732.85 400.861L728.968 400.959Z" fill="white"/>
<path d="M376.913 365.05C375.483 365.086 374.294 363.998 374.256 362.618C374.219 361.237 375.347 360.09 376.777 360.054L380.659 359.955C382.088 359.918 383.278 361.007 383.316 362.387C383.353 363.767 382.224 364.915 380.795 364.951L376.913 365.05Z" fill="white"/>
<path d="M1059.16 398.991C1057.73 399.027 1056.54 397.938 1056.5 396.557C1056.47 395.178 1057.59 394.031 1059.02 393.993L1062.91 393.894C1064.34 393.858 1065.53 394.948 1065.56 396.328C1065.6 397.707 1064.47 398.856 1063.04 398.892L1059.16 398.991Z" fill="white"/>
<path d="M762.385 361.316C760.956 361.352 759.766 360.264 759.729 358.884C759.691 357.504 760.819 356.356 762.249 356.32L766.13 356.221C767.561 356.185 768.749 357.273 768.787 358.653C768.826 360.033 767.697 361.181 766.268 361.217L762.385 361.316Z" fill="white"/>
<path d="M1180.85 467.723C1179.42 467.759 1178.23 466.671 1178.19 465.29C1178.16 463.91 1179.29 462.763 1180.72 462.726L1184.6 462.627C1186.03 462.591 1187.22 463.68 1187.25 465.06C1187.29 466.44 1186.16 467.588 1184.73 467.624L1180.85 467.723Z" fill="white"/>
<path d="M617.288 442.729C615.857 442.766 614.669 441.677 614.631 440.296C614.592 438.917 615.721 437.769 617.151 437.732L621.033 437.633C622.462 437.597 623.652 438.687 623.689 440.066C623.727 441.446 622.599 442.594 621.17 442.631L617.288 442.729Z" fill="white"/>
<path d="M173.212 366.152C175.357 366.152 177.096 367.831 177.096 369.901C177.096 371.972 175.357 373.65 173.212 373.65H171.917C169.772 373.65 168.034 371.972 168.034 369.901C168.034 367.831 169.772 366.152 171.917 366.152H173.212Z" fill="white"/>
<path d="M817.787 428.702C815.643 428.757 813.859 427.123 813.802 425.053C813.747 422.984 815.439 421.262 817.582 421.207L818.877 421.174C821.021 421.119 822.805 422.753 822.862 424.823C822.919 426.893 821.225 428.615 819.082 428.67L817.787 428.702Z" fill="white"/>
<path d="M477.643 415.018C475.499 415.073 473.715 413.439 473.658 411.369C473.603 409.299 475.295 407.577 477.439 407.522L478.733 407.49C480.877 407.435 482.661 409.069 482.718 411.139C482.774 413.208 481.082 414.93 478.938 414.985L477.643 415.018Z" fill="white"/>
<path d="M1147.98 426.734C1145.84 426.789 1144.05 425.154 1144 423.085C1143.94 421.015 1145.63 419.293 1147.78 419.238L1149.07 419.206C1151.21 419.151 1153 420.784 1153.06 422.855C1153.11 424.924 1151.42 426.646 1149.28 426.701L1147.98 426.734Z" fill="white"/>
<path d="M584.416 401.741C582.272 401.796 580.488 400.161 580.431 398.092C580.375 396.022 582.067 394.3 584.211 394.245L585.506 394.213C587.649 394.158 589.433 395.791 589.49 397.862C589.546 399.931 587.854 401.653 585.71 401.708L584.416 401.741Z" fill="white"/>
<path d="M1269.67 495.465C1267.53 495.52 1265.74 493.885 1265.69 491.816C1265.63 489.746 1267.32 488.024 1269.47 487.969L1270.76 487.937C1272.91 487.882 1274.69 489.515 1274.75 491.586C1274.8 493.655 1273.11 495.377 1270.97 495.432L1269.67 495.465Z" fill="white"/>
<path d="M37.2803 354.905C39.4253 354.905 41.164 356.584 41.164 358.654C41.164 360.725 39.4253 362.403 37.2803 362.403H35.9857C33.8408 362.403 32.1019 360.725 32.1019 358.654C32.1019 356.584 33.8408 354.905 35.9857 354.905H37.2803Z" fill="#FDB137"/>
<path d="M953.979 436.487C951.835 436.542 950.051 434.909 949.994 432.838C949.937 430.769 951.63 429.047 953.774 428.992L955.069 428.959C957.213 428.904 958.997 430.539 959.054 432.608C959.109 434.678 957.417 436.4 955.273 436.455L953.979 436.487Z" fill="#FDB137"/>
<path d="M1284.17 434.519C1282.03 434.574 1280.24 432.941 1280.19 430.87C1280.13 428.801 1281.82 427.079 1283.97 427.024L1285.26 426.991C1287.4 426.936 1289.19 428.571 1289.25 430.64C1289.3 432.71 1287.61 434.432 1285.47 434.487L1284.17 434.519Z" fill="#FDB137"/>
<path d="M1405.87 503.251C1403.72 503.306 1401.93 501.672 1401.88 499.602C1401.82 497.532 1403.51 495.81 1405.66 495.755L1406.95 495.723C1409.09 495.668 1410.88 497.302 1410.94 499.372C1410.99 501.441 1409.3 503.163 1407.16 503.218L1405.87 503.251Z" fill="#FDB137"/>
<path d="M67.0559 369.902C70.6309 369.902 73.5288 372.7 73.5288 376.15C73.5288 379.601 70.6309 382.399 67.0559 382.399H60.5829C57.008 382.399 54.11 379.601 54.11 376.15C54.11 372.7 57.008 369.902 60.5829 369.902H67.0559Z" fill="#FDB137"/>
<path d="M923.805 422.253C920.23 422.344 917.257 419.621 917.163 416.172C917.069 412.722 919.89 409.853 923.463 409.761L929.933 409.596C933.507 409.505 936.481 412.228 936.574 415.679C936.669 419.128 933.848 421.998 930.275 422.089L923.805 422.253Z" fill="#FDB137"/>
<path d="M1254 420.286C1250.42 420.377 1247.45 417.654 1247.36 414.205C1247.26 410.755 1250.08 407.885 1253.66 407.794L1260.13 407.629C1263.7 407.538 1266.67 410.261 1266.77 413.711C1266.86 417.16 1264.04 420.031 1260.47 420.122L1254 420.286Z" fill="#FDB137"/>
<path d="M1375.69 489.017C1372.12 489.108 1369.14 486.385 1369.05 482.936C1368.96 479.486 1371.77 476.617 1375.34 476.526L1381.81 476.361C1385.39 476.269 1388.36 478.992 1388.46 482.443C1388.56 485.892 1385.74 488.762 1382.16 488.854L1375.69 489.017Z" fill="#FDB137"/>
<path d="M223.701 403.643C226.56 403.643 228.879 405.881 228.879 408.641C228.879 411.402 226.56 413.64 223.701 413.64H218.522C215.663 413.64 213.344 411.402 213.344 408.641C213.344 405.881 215.663 403.643 218.522 403.643H223.701Z" fill="#F65936"/>
<path d="M766.292 392.509C763.434 392.582 761.054 390.403 760.979 387.644C760.904 384.884 763.161 382.588 766.019 382.516L771.196 382.383C774.054 382.311 776.434 384.489 776.509 387.249C776.584 390.009 774.328 392.304 771.469 392.378L766.292 392.509Z" fill="#F65936"/>
<path d="M819.483 362.663C816.623 362.735 814.245 360.557 814.17 357.798C814.093 355.037 816.35 352.742 819.21 352.669L824.385 352.537C827.245 352.464 829.623 354.643 829.698 357.403C829.775 360.162 827.518 362.458 824.659 362.532L819.483 362.663Z" fill="#F65936"/>
<path d="M1096.49 390.541C1093.63 390.613 1091.25 388.435 1091.17 385.676C1091.1 382.915 1093.35 380.62 1096.21 380.547L1101.39 380.415C1104.25 380.342 1106.63 382.521 1106.7 385.281C1106.78 388.04 1104.52 390.336 1101.66 390.41L1096.49 390.541Z" fill="#F65936"/>
<path d="M530.79 395.155C527.93 395.228 525.552 393.049 525.477 390.29C525.401 387.53 527.657 385.234 530.517 385.162L535.692 385.029C538.552 384.957 540.93 387.135 541.005 389.895C541.082 392.655 538.825 394.95 535.966 395.024L530.79 395.155Z" fill="#F65936"/>
<path d="M1218.18 459.273C1215.32 459.345 1212.94 457.167 1212.86 454.408C1212.79 451.647 1215.05 449.352 1217.9 449.279L1223.08 449.147C1225.94 449.074 1228.32 451.252 1228.39 454.013C1228.47 456.772 1226.21 459.068 1223.35 459.142L1218.18 459.273Z" fill="#F65936"/>
<path d="M654.612 434.279C651.754 434.352 649.374 432.173 649.299 429.414C649.224 426.654 651.48 424.358 654.339 424.286L659.516 424.153C662.374 424.081 664.754 426.259 664.829 429.019C664.904 431.779 662.647 434.074 659.789 434.148L654.612 434.279Z" fill="#F65936"/>
<path d="M327.268 408.641C330.128 408.641 332.446 410.879 332.446 413.639C332.446 416.4 330.128 418.638 327.268 418.638H322.089C319.23 418.638 316.911 416.4 316.911 413.639C316.911 410.879 319.23 408.641 322.089 408.641H327.268Z" fill="white"/>
<path d="M662.625 390.146C659.766 390.22 657.388 388.042 657.312 385.281C657.236 382.522 659.493 380.225 662.352 380.153L667.528 380.021C670.388 379.949 672.766 382.127 672.841 384.886C672.917 387.646 670.661 389.942 667.801 390.015L662.625 390.146Z" fill="white"/>
<path d="M310.57 354.237C307.712 354.311 305.332 352.132 305.257 349.372C305.182 346.613 307.439 344.316 310.297 344.243L315.474 344.112C318.333 344.04 320.712 346.218 320.787 348.977C320.862 351.736 318.606 354.033 315.747 354.106L310.57 354.237Z" fill="white"/>
<path d="M992.818 388.178C989.959 388.252 987.58 386.073 987.505 383.313C987.43 380.554 989.686 378.257 992.545 378.184L997.722 378.053C1000.58 377.981 1002.96 380.159 1003.03 382.918C1003.11 385.677 1000.85 387.974 997.995 388.047L992.818 388.178Z" fill="white"/>
<path d="M1114.51 456.91C1111.65 456.983 1109.27 454.805 1109.2 452.045C1109.12 449.286 1111.38 446.989 1114.24 446.916L1119.41 446.785C1122.27 446.712 1124.65 448.891 1124.73 451.65C1124.8 454.409 1122.54 456.706 1119.69 456.779L1114.51 456.91Z" fill="white"/>
<path d="M550.944 431.916C548.086 431.99 545.707 429.812 545.631 427.051C545.556 424.292 547.812 421.995 550.672 421.922L555.848 421.791C558.708 421.719 561.086 423.897 561.161 426.656C561.236 429.415 558.979 431.712 556.121 431.785L550.944 431.916Z" fill="white"/>
<path d="M162.855 397.394C165.715 397.394 168.034 399.632 168.034 402.393C168.034 405.153 165.715 407.391 162.855 407.391H157.677C154.817 407.391 152.499 405.153 152.499 402.393C152.499 399.632 154.817 397.394 157.677 397.394H162.855Z" fill="white"/>
<path d="M827.288 397.208C824.429 397.28 822.05 395.102 821.975 392.343C821.9 389.582 824.156 387.287 827.015 387.214L832.192 387.082C835.05 387.009 837.43 389.188 837.505 391.948C837.58 394.707 835.323 397.003 832.464 397.077L827.288 397.208Z" fill="white"/>
<path d="M1157.48 395.24C1154.62 395.312 1152.24 393.134 1152.17 390.375C1152.09 387.614 1154.35 385.319 1157.21 385.246L1162.38 385.114C1165.24 385.041 1167.62 387.219 1167.7 389.979C1167.77 392.739 1165.52 395.035 1162.66 395.107L1157.48 395.24Z" fill="white"/>
<path d="M593.917 370.246C591.057 370.318 588.679 368.14 588.604 365.381C588.528 362.62 590.785 360.325 593.643 360.252L598.82 360.12C601.679 360.047 604.057 362.226 604.133 364.985C604.209 367.745 601.952 370.041 599.092 370.114L593.917 370.246Z" fill="white"/>
<path d="M1279.17 463.972C1276.31 464.044 1273.93 461.866 1273.86 459.107C1273.78 456.346 1276.04 454.05 1278.9 453.978L1284.08 453.846C1286.93 453.773 1289.32 455.951 1289.39 458.71C1289.46 461.471 1287.21 463.767 1284.35 463.839L1279.17 463.972Z" fill="white"/>
<path d="M204.282 416.139C207.142 416.139 209.46 418.377 209.46 421.138C209.46 423.898 207.142 426.136 204.282 426.136H199.104C196.244 426.136 193.925 423.898 193.925 421.138C193.925 418.377 196.244 416.139 199.104 416.139H204.282Z" fill="white"/>
<path d="M785.364 379.522C782.504 379.596 780.126 377.416 780.051 374.657C779.975 371.898 782.231 369.601 785.091 369.529L790.267 369.397C793.126 369.324 795.504 371.503 795.58 374.262C795.656 377.022 793.399 379.318 790.54 379.391L785.364 379.522Z" fill="white"/>
<path d="M845.375 338.919C842.515 338.992 840.137 336.814 840.062 334.054C839.985 331.294 842.242 328.998 845.101 328.926L850.277 328.793C853.137 328.721 855.515 330.899 855.59 333.659C855.667 336.419 853.41 338.714 850.55 338.788L845.375 338.919Z" fill="white"/>
<path d="M1115.56 377.554C1112.7 377.627 1110.32 375.449 1110.24 372.689C1110.17 369.93 1112.42 367.633 1115.28 367.561L1120.46 367.43C1123.32 367.356 1125.7 369.534 1125.77 372.295C1125.85 375.054 1123.59 377.351 1120.73 377.423L1115.56 377.554Z" fill="white"/>
<path d="M888.096 435.144C885.236 435.216 882.858 433.038 882.783 430.279C882.707 427.518 884.963 425.223 887.823 425.15L892.999 425.018C895.858 424.945 898.236 427.124 898.312 429.884C898.388 432.643 896.131 434.939 893.272 435.013L888.096 435.144Z" fill="white"/>
<path d="M1237.25 446.286C1234.39 446.358 1232.01 444.18 1231.93 441.421C1231.86 438.662 1234.12 436.365 1236.97 436.292L1242.15 436.161C1245.01 436.087 1247.39 438.265 1247.46 441.026C1247.54 443.785 1245.28 446.082 1242.42 446.155L1237.25 446.286Z" fill="white"/>
<path d="M105.893 393.646C108.753 393.646 111.072 395.884 111.072 398.644C111.072 401.405 108.753 403.643 105.893 403.643H96.8313C93.9714 403.643 91.653 401.405 91.653 398.644C91.653 395.884 93.9714 393.646 96.8313 393.646H105.893Z" fill="#F65936"/>
<path d="M884.333 399.506C881.473 399.58 879.095 397.402 879.02 394.641C878.943 391.882 881.201 389.585 884.059 389.512L893.118 389.283C895.977 389.21 898.356 391.388 898.431 394.147C898.507 396.907 896.251 399.204 893.391 399.276L884.333 399.506Z" fill="#F65936"/>
<path d="M1214.52 397.537C1211.67 397.611 1209.29 395.433 1209.21 392.672C1209.14 389.913 1211.39 387.616 1214.25 387.544L1223.31 387.314C1226.17 387.241 1228.55 389.419 1228.62 392.179C1228.7 394.938 1226.44 397.235 1223.58 397.307L1214.52 397.537Z" fill="#F65936"/>
<path d="M650.961 372.545C648.101 372.618 645.723 370.44 645.648 367.68C645.572 364.92 647.828 362.624 650.688 362.551L659.746 362.321C662.606 362.249 664.984 364.427 665.059 367.186C665.136 369.945 662.879 372.242 660.019 372.315L650.961 372.545Z" fill="#F65936"/>
<path d="M1336.22 466.269C1333.36 466.343 1330.98 464.165 1330.9 461.404C1330.83 458.645 1333.09 456.348 1335.95 456.276L1345.01 456.046C1347.86 455.973 1350.24 458.151 1350.32 460.911C1350.39 463.67 1348.13 465.967 1345.28 466.039L1336.22 466.269Z" fill="#F65936"/>
<path d="M143.436 381.148C146.296 381.148 148.615 383.386 148.615 386.147C148.615 388.907 146.296 391.145 143.436 391.145H139.553C136.693 391.145 134.374 388.907 134.374 386.147C134.374 383.386 136.693 381.148 139.553 381.148H143.436Z" fill="#FDB137"/>
<path d="M847.143 412.953C844.285 413.026 841.905 410.848 841.83 408.089C841.755 405.329 844.011 403.032 846.87 402.96L850.752 402.861C853.612 402.789 855.99 404.967 856.065 407.726C856.142 410.485 853.885 412.782 851.025 412.855L847.143 412.953Z" fill="#FDB137"/>
<path d="M1177.34 410.985C1174.48 411.058 1172.1 408.88 1172.02 406.12C1171.95 403.361 1174.21 401.064 1177.06 400.992L1180.95 400.893C1183.8 400.82 1186.18 402.999 1186.26 405.758C1186.33 408.517 1184.08 410.814 1181.22 410.886L1177.34 410.985Z" fill="#FDB137"/>
<path d="M613.772 385.993C610.913 386.065 608.534 383.887 608.459 381.128C608.384 378.368 610.64 376.071 613.498 375.999L617.381 375.9C620.241 375.828 622.619 378.006 622.694 380.765C622.769 383.524 620.513 385.821 617.654 385.894L613.772 385.993Z" fill="#FDB137"/>
<path d="M1299.03 479.717C1296.16 479.79 1293.8 477.611 1293.72 474.852C1293.64 472.093 1295.89 469.796 1298.75 469.724L1302.64 469.625C1305.5 469.552 1307.88 471.73 1307.94 474.49C1308.02 477.249 1305.77 479.546 1302.91 479.618L1299.03 479.717Z" fill="#FDB137"/>
<path d="M300.081 397.394C302.941 397.394 305.26 399.632 305.26 402.393C305.26 405.153 302.941 407.391 300.081 407.391H293.609C290.749 407.391 288.43 405.153 288.43 402.393C288.43 399.632 290.749 397.394 293.609 397.394H300.081Z" fill="#FDB137"/>
<path d="M690.11 400.698C687.25 400.771 684.872 398.593 684.797 395.833C684.72 393.073 686.977 390.777 689.836 390.705L696.307 390.54C699.165 390.467 701.545 392.646 701.62 395.405C701.695 398.165 699.438 400.461 696.58 400.533L690.11 400.698Z" fill="#FDB137"/>
<path d="M338.054 364.789C335.196 364.862 332.816 362.684 332.741 359.924C332.666 357.164 334.923 354.868 337.781 354.796L344.253 354.631C347.111 354.558 349.491 356.736 349.566 359.496C349.641 362.256 347.384 364.552 344.526 364.624L338.054 364.789Z" fill="#FDB137"/>
<path d="M1020.3 398.73C1017.44 398.803 1015.06 396.624 1014.99 393.865C1014.91 391.105 1017.17 388.809 1020.03 388.737L1026.5 388.572C1029.36 388.499 1031.74 390.677 1031.81 393.437C1031.89 396.197 1029.63 398.493 1026.77 398.565L1020.3 398.73Z" fill="#FDB137"/>
<path d="M1141.99 467.461C1139.13 467.534 1136.76 465.355 1136.68 462.596C1136.6 459.836 1138.86 457.54 1141.72 457.467L1148.19 457.303C1151.05 457.23 1153.43 459.408 1153.5 462.167C1153.58 464.928 1151.32 467.224 1148.46 467.296L1141.99 467.461Z" fill="#FDB137"/>
<path d="M578.429 442.469C575.57 442.541 573.191 440.363 573.116 437.604C573.04 434.843 575.296 432.548 578.156 432.475L584.627 432.31C587.485 432.238 589.864 434.416 589.94 437.175C590.015 439.936 587.758 442.231 584.9 442.304L578.429 442.469Z" fill="#FDB137"/>
<path d="M143.436 422.388C146.296 422.388 148.615 424.626 148.615 427.386C148.615 430.147 146.296 432.385 143.436 432.385H134.374C131.515 432.385 129.196 430.147 129.196 427.386C129.196 424.626 131.515 422.388 134.374 422.388H143.436Z" fill="white"/>
<path d="M846.017 371.729C843.158 371.802 840.78 369.624 840.704 366.863C840.629 364.104 842.885 361.808 845.745 361.735L854.803 361.505C857.663 361.432 860.041 363.61 860.116 366.37C860.191 369.129 857.935 371.426 855.076 371.498L846.017 371.729Z" fill="white"/>
<path d="M1176.21 369.76C1173.35 369.834 1170.97 367.656 1170.9 364.895C1170.82 362.136 1173.08 359.839 1175.94 359.767L1185 359.537C1187.86 359.464 1190.23 361.643 1190.31 364.402C1190.38 367.161 1188.13 369.458 1185.27 369.531L1176.21 369.76Z" fill="white"/>
<path d="M1044.74 458.986C1041.88 459.059 1039.5 456.881 1039.43 454.121C1039.35 451.361 1041.61 449.065 1044.47 448.993L1053.53 448.762C1056.39 448.689 1058.76 450.867 1058.84 453.628C1058.92 456.387 1056.66 458.683 1053.8 458.756L1044.74 458.986Z" fill="white"/>
<path d="M1297.9 438.492C1295.04 438.566 1292.67 436.387 1292.59 433.627C1292.51 430.868 1294.77 428.571 1297.63 428.498L1306.69 428.268C1309.55 428.196 1311.92 430.374 1312 433.133C1312.07 435.893 1309.82 438.189 1306.96 438.262L1297.9 438.492Z" fill="white"/>
<path d="M269.011 434.884C271.871 434.884 274.19 437.122 274.19 439.883C274.19 442.643 271.871 444.882 269.011 444.882H259.949C257.089 444.882 254.771 442.643 254.771 439.883C254.771 437.122 257.089 434.884 259.949 434.884H269.011Z" fill="#F65936"/>
<path d="M720.145 362.431C717.286 362.504 714.907 360.325 714.832 357.566C714.757 354.806 717.014 352.51 719.872 352.438L728.932 352.206C731.79 352.134 734.168 354.312 734.245 357.073C734.32 359.832 732.063 362.127 729.204 362.201L720.145 362.431Z" fill="#F65936"/>
<path d="M372.85 430.244C369.99 430.317 367.612 428.138 367.537 425.379C367.461 422.619 369.717 420.323 372.577 420.251L381.635 420.019C384.495 419.947 386.873 422.125 386.948 424.886C387.025 427.645 384.767 429.94 381.908 430.014L372.85 430.244Z" fill="#F65936"/>
<path d="M1050.34 360.463C1047.48 360.535 1045.1 358.357 1045.02 355.598C1044.95 352.837 1047.21 350.542 1050.07 350.469L1059.12 350.238C1061.98 350.166 1064.36 352.344 1064.44 355.103C1064.51 357.864 1062.26 360.159 1059.4 360.233L1050.34 360.463Z" fill="#F65936"/>
<path d="M407.804 432.743C404.944 432.816 402.566 430.637 402.491 427.878C402.415 425.118 404.671 422.822 407.531 422.75L416.589 422.518C419.449 422.446 421.827 424.624 421.902 427.385C421.978 430.144 419.721 432.439 416.862 432.513L407.804 432.743Z" fill="#F65936"/>
<path d="M1172.03 429.195C1169.17 429.267 1166.79 427.089 1166.72 424.33C1166.64 421.569 1168.9 419.274 1171.76 419.201L1180.82 418.97C1183.67 418.898 1186.05 421.076 1186.13 423.835C1186.2 426.595 1183.95 428.891 1181.09 428.965L1172.03 429.195Z" fill="#F65936"/>
<path d="M608.465 404.201C605.605 404.274 603.227 402.095 603.152 399.336C603.076 396.576 605.332 394.28 608.192 394.208L617.25 393.976C620.11 393.904 622.488 396.082 622.563 398.841C622.64 401.602 620.383 403.897 617.523 403.971L608.465 404.201Z" fill="#F65936"/>
<path d="M10.094 374.9C13.669 374.9 16.5669 377.698 16.5669 381.149C16.5669 384.599 13.669 387.397 10.094 387.397H3.62113C0.0462184 387.397 -2.85181 384.599 -2.85181 381.149C-2.85181 377.698 0.0462184 374.9 3.62113 374.9H10.094Z" fill="#F65936"/>
<path d="M980.61 415.808C977.035 415.899 974.063 413.176 973.969 409.727C973.874 406.277 976.695 403.407 980.268 403.316L986.74 403.151C990.313 403.06 993.286 405.783 993.381 409.233C993.474 412.682 990.655 415.553 987.08 415.644L980.61 415.808Z" fill="#F65936"/>
<path d="M1310.81 413.84C1307.23 413.931 1304.26 411.208 1304.16 407.759C1304.06 404.309 1306.88 401.44 1310.46 401.348L1316.93 401.183C1320.5 401.092 1323.48 403.815 1323.57 407.265C1323.67 410.715 1320.85 413.585 1317.28 413.676L1310.81 413.84Z" fill="#F65936"/>
<path d="M1432.5 482.571C1428.92 482.662 1425.95 479.939 1425.86 476.49C1425.75 473.04 1428.57 470.171 1432.15 470.079L1438.62 469.914C1442.19 469.823 1445.17 472.546 1445.26 475.996C1445.37 479.446 1442.54 482.316 1438.97 482.407L1432.5 482.571Z" fill="#F65936"/>
<path d="M1448.59 772.332L1449.68 787.291L345.392 862.271L344.302 847.312L1448.59 772.332Z" fill="#565D65"/>
<path d="M91.6512 940.74L72.2342 940.998L69.645 759.797L89.062 759.538L91.6512 940.74Z" fill="white"/>
<path d="M180.978 940.74L161.561 940.998L158.971 759.797L178.389 759.538L180.978 940.74Z" fill="white"/>
<path d="M349.274 940.74L329.857 940.998L327.268 759.797L346.685 759.538L349.274 940.74Z" fill="white"/>
<path d="M428.244 940.74L408.827 940.998L406.238 759.797L425.655 759.538L428.244 940.74Z" fill="white"/>
<path d="M507.208 940.481L487.797 940.998L482.618 759.797L502.029 759.279L507.208 940.481Z" fill="white"/>
<path d="M586.183 940.694L566.766 940.999L564.177 727.306L583.593 727.001L586.183 940.694Z" fill="white"/>
<path d="M665.153 940.694L645.736 940.999L643.147 727.306L662.563 727.001L665.153 940.694Z" fill="white"/>
<path d="M744.122 940.694L724.706 940.999L722.117 727.306L741.533 727.001L744.122 940.694Z" fill="white"/>
<path d="M823.092 940.694L803.676 940.999L801.087 727.306L820.503 727.001L823.092 940.694Z" fill="white"/>
<path d="M902.062 940.694L882.646 940.999L880.057 727.306L899.473 727.001L902.062 940.694Z" fill="white"/>
<path d="M981.032 940.694L961.616 940.999L959.026 727.306L978.443 727.001L981.032 940.694Z" fill="white"/>
<path d="M1060 940.694L1040.59 940.999L1038 727.306L1057.41 727.001L1060 940.694Z" fill="white"/>
<path d="M1138.97 940.694L1119.56 940.999L1116.97 727.306L1136.38 727.001L1138.97 940.694Z" fill="white"/>
<path d="M1217.94 940.694L1198.53 940.999L1195.94 727.306L1215.35 727.001L1217.94 940.694Z" fill="white"/>
<path d="M1296.9 940.452L1277.5 941L1271.02 727.307L1290.43 726.759L1296.9 940.452Z" fill="white"/>
<path d="M1375.87 940.398L1356.47 941L1348.7 707.311L1368.1 706.71L1375.87 940.398Z" fill="white"/>
<path d="M1449.68 940.799L1430.26 940.999L1427.67 707.311L1447.09 707.111L1449.68 940.799Z" fill="white"/>
<path d="M270.305 940.74L250.887 940.998L248.298 759.797L267.716 759.538L270.305 940.74Z" fill="white"/>
<path d="M1444.65 664.824L1444.5 671.071L-5.44104 637.33L-5.28504 631.083L1444.65 664.824Z" fill="#685940"/>
<path d="M1447.18 684.818L1447.09 691.066L-6.73547 671.072L-6.64326 664.823L1447.18 684.818Z" fill="#555C62"/>
<path d="M1448.78 722.328L1449.68 741.053L-8.11083 805.554L-9 786.829L1448.78 722.328Z" fill="#161817" fill-opacity="0.46"/>
<path d="M1447.19 704.813L1447.09 711.06L91.0054 691.113C89.2182 691.086 87.7914 689.667 87.8186 687.941C87.8459 686.216 89.3168 684.839 91.104 684.866L1447.19 704.813Z" fill="#6C4538"/>
<path d="M648.325 738.553L639.263 548.604H683.927L692.341 738.553H648.325Z" fill="#BBBBBB"/>
<path d="M692.341 739.803L684.574 559.851H670.333L678.748 739.803H692.341Z" fill="#DCDEDD"/>
<path d="M683.927 549.854L684.574 559.695H670.334L641.205 587.344L639.263 549.854H683.927Z" fill="#8B8B8B"/>
<path d="M710.466 739.803L701.404 549.854H746.067L754.482 739.803H710.466Z" fill="#BBBBBB"/>
<path d="M754.482 741.052L746.714 561.1H732.474L740.889 741.052H754.482Z" fill="#DCDEDD"/>
<path d="M746.067 551.103L746.714 560.944H732.474L703.345 588.593L701.404 551.103H746.067Z" fill="#8B8B8B"/>
<path d="M1121.04 714.809L1113.08 559.851H1152.3L1159.69 714.809H1121.04Z" fill="#BBBBBB"/>
<path d="M1166.16 707.311L1158.39 559.851H1144.15L1152.57 707.311H1166.16Z" fill="#DCDEDD"/>
<path d="M1152.64 561.1L1153.21 568.973H1140.6L1114.8 591.092L1113.08 561.1H1152.64Z" fill="#8B8B8B"/>
<path d="M-5.44104 533.607V474.873L1447.09 533.607V567.348L-5.44104 533.607Z" fill="#646A6E"/>
<path d="M1446.63 559.852L1446.45 567.348L-6.7356 533.607L-6.55419 526.111L1446.63 559.852Z" fill="#D5D6D8"/>
<path d="M1446.88 538.614L1446.45 549.853L330.086 508.614L330.52 497.375L1446.88 538.614Z" fill="#D5D6D8"/>
<path d="M280.797 492.995C284.014 493.067 286.561 495.643 286.487 498.747C286.412 501.853 283.744 504.311 280.528 504.239L-4.927 497.861L-4.65737 486.617L280.797 492.995Z" fill="#EDEFEE"/>
<path d="M1449.03 696.064L-6.7356 734.179V786.665L1449.03 723.557V696.064Z" fill="#DCDCDA"/>
<path d="M-6.7356 759.797V735.827L1449.68 693.565V704.288L-6.7356 759.797Z" fill="#F7F7F7"/>
<rect x="-9" y="254" width="1449" height="688" fill="url(#paint0_linear_131_8)"/>
<defs>
<linearGradient id="paint0_linear_131_8" x1="715.5" y1="254" x2="715.5" y2="942" gradientUnits="userSpaceOnUse">
<stop offset="0.177885" stop-color="#212227"/>
<stop offset="0.913462" stop-color="#212227" stop-opacity="0.83"/>
</linearGradient>
</defs>
</svg>
