<svg width="42" height="42" viewBox="0 0 42 42" fill="none" xmlns="http://www.w3.org/2000/svg">
<path fill-rule="evenodd" clip-rule="evenodd" d="M20.6515 1.64648C9.89112 1.64648 1.16553 10.3701 1.16553 21.1325C1.16553 29.7422 6.74886 37.0461 14.4912 39.623C15.4648 39.8037 15.8223 39.2003 15.8223 38.6856C15.8223 38.221 15.8042 36.686 15.7958 35.0577C10.3748 36.2365 9.23091 32.7586 9.23091 32.7586C8.34451 30.5063 7.06734 29.9074 7.06734 29.9074C5.29906 28.698 7.20061 28.7232 7.20061 28.7232C9.15702 28.8603 10.1877 30.7312 10.1877 30.7312C11.9256 33.7096 14.7462 32.8487 15.8581 32.3511C16.033 31.0917 16.538 30.2317 17.0953 29.7451C12.7672 29.253 8.21705 27.5819 8.21705 20.1154C8.21705 17.988 8.97858 16.2497 10.2251 14.8848C10.0224 14.3943 9.35547 12.4124 10.4135 9.72833C10.4135 9.72833 12.0495 9.20462 15.7732 11.7257C17.3279 11.2936 18.9952 11.0765 20.6515 11.0691C22.3069 11.0765 23.9751 11.293 25.5327 11.7251C29.2519 9.20397 30.886 9.72768 30.886 9.72768C31.9466 12.4114 31.2796 14.3936 31.0773 14.8841C32.3267 16.249 33.0828 17.9873 33.0828 20.1147C33.0828 27.599 28.5243 29.2466 24.1852 29.7293C24.8844 30.334 25.5072 31.5202 25.5072 33.3379C25.5072 35.9451 25.4846 38.0435 25.4846 38.6853C25.4846 39.2038 25.8357 39.8115 26.8231 39.6201C34.561 37.0406 40.1378 29.739 40.1378 21.1325C40.1375 10.3708 31.4129 1.64648 20.6515 1.64648Z" fill="#FDB137"/>
<path d="M8.54589 29.6238C8.50297 29.7206 8.35067 29.7496 8.21192 29.6835C8.06994 29.6203 7.99088 29.4883 8.0367 29.3911C8.07865 29.2911 8.23128 29.2637 8.37229 29.3305C8.51427 29.3941 8.59494 29.5273 8.54557 29.6241L8.54589 29.6238ZM9.33517 30.5044C9.24256 30.5906 9.06089 30.5505 8.93762 30.414C8.80984 30.2785 8.78597 30.0968 8.88051 30.0094C8.97667 29.9236 9.15285 29.9642 9.28063 30.0998C9.40777 30.2372 9.43294 30.4173 9.33549 30.5047L9.33517 30.5044ZM10.1038 31.6264C9.9844 31.7096 9.78885 31.6318 9.66817 31.4586C9.54878 31.285 9.54878 31.0768 9.6714 30.9939C9.79176 30.9106 9.9844 30.9858 10.107 31.1575C10.2258 31.3334 10.2258 31.5418 10.1038 31.6264ZM11.156 32.7109C11.0496 32.8287 10.8218 32.797 10.6553 32.6367C10.4852 32.4795 10.4378 32.2559 10.5446 32.1384C10.653 32.0203 10.8818 32.0533 11.0492 32.2127C11.2193 32.3695 11.2706 32.5934 11.1567 32.7106L11.156 32.7109ZM12.6081 33.3404C12.5607 33.4931 12.3419 33.5624 12.1209 33.4973C11.9005 33.4305 11.7562 33.252 11.8014 33.0978C11.8466 32.9439 12.067 32.8719 12.2893 32.9413C12.5097 33.0077 12.6539 33.1852 12.6081 33.3404ZM14.2031 33.4569C14.2086 33.6176 14.0214 33.7506 13.7901 33.7538C13.5568 33.7593 13.368 33.6289 13.3658 33.4708C13.3658 33.3085 13.549 33.1772 13.782 33.1726C14.0134 33.1684 14.2034 33.2975 14.2034 33.4566L14.2031 33.4569ZM15.6868 33.2046C15.7145 33.3611 15.5535 33.5221 15.3235 33.565C15.0976 33.607 14.8878 33.5095 14.8588 33.3543C14.8311 33.1936 14.995 33.0326 15.2208 32.991C15.4512 32.9513 15.6578 33.0455 15.6868 33.2046Z" fill="#FDB137"/>
</svg>
