<svg width="42" height="42" viewBox="0 0 42 42" fill="none" xmlns="http://www.w3.org/2000/svg">
<path fill-rule="evenodd" clip-rule="evenodd" d="M8.72243 26.3917L20.6515 41.303L32.5805 26.3917C34.8848 23.5114 36.1401 19.9327 36.1401 16.2441V15.4886C36.1401 6.9345 29.2056 0 20.6515 0C12.0973 0 5.16284 6.9345 5.16284 15.4886V16.2441C5.16284 19.9327 6.4182 23.5114 8.72243 26.3917ZM20.6515 20.6515C23.5029 20.6515 25.8144 18.34 25.8144 15.4886C25.8144 12.6373 23.5029 10.3258 20.6515 10.3258C17.8001 10.3258 15.4886 12.6373 15.4886 15.4886C15.4886 18.34 17.8001 20.6515 20.6515 20.6515Z" fill="#FDB137"/>
</svg>
