<svg width="42" height="42" viewBox="0 0 42 42" fill="none" xmlns="http://www.w3.org/2000/svg">
<path d="M38.2561 0.000156409H3.04694C2.24807 -0.00797373 1.4786 0.30114 0.907376 0.859669C0.336149 1.4182 0.00982175 2.18052 0 2.97937V38.3304C0.011598 39.1281 0.338706 39.8887 0.90974 40.4458C1.48077 41.0028 2.24923 41.311 3.04694 41.3029H38.2561C39.055 41.3092 39.824 40.999 40.3949 40.4402C40.9658 39.8813 41.2923 39.1191 41.303 38.3203V2.96921C41.2888 2.17271 40.9607 1.41402 40.3902 0.858054C39.8196 0.302088 39.0527 -0.0062156 38.2561 0.000156409ZM12.2453 35.209H6.1142V15.4819H12.2453V35.209ZM9.19839 12.7938C8.49518 12.7945 7.80757 12.5866 7.22254 12.1964C6.63752 11.8062 6.18137 11.2513 5.9118 10.6018C5.64223 9.9523 5.57135 9.23746 5.70813 8.54768C5.8449 7.85791 6.1832 7.2242 6.6802 6.72672C7.17721 6.22924 7.81061 5.89035 8.50026 5.75291C9.18991 5.61548 9.90482 5.68567 10.5546 5.95462C11.2043 6.22357 11.7597 6.67919 12.1504 7.26384C12.5412 7.84849 12.7498 8.5359 12.7498 9.2391C12.7489 9.70649 12.6558 10.1691 12.4759 10.6005C12.2961 11.0319 12.0329 11.4236 11.7014 11.7531C11.37 12.0826 10.9768 12.3436 10.5444 12.521C10.112 12.6984 9.64885 12.7889 9.18146 12.7871L9.19839 12.7938ZM35.2091 35.209H29.078V25.6112C29.078 23.326 29.0374 20.3841 25.8923 20.3841C22.7471 20.3841 22.2122 22.8758 22.2122 25.4623V35.209H16.0913V15.4819H21.9685V18.1903H22.0497C22.869 16.6397 24.8665 15.0046 27.8491 15.0046C34.0581 14.991 35.2091 19.0773 35.2091 24.3755V35.209Z" fill="#FDB137"/>
</svg>
