<svg width="25" height="28" viewBox="0 0 25 28" fill="none" xmlns="http://www.w3.org/2000/svg">
<path d="M15.709 19.8545C15.9636 20.0746 16.4248 20.7278 16.4248 22.0898C16.4248 23.3028 16.4193 24.3981 16.4141 25.2656C16.4134 25.3749 16.4128 25.4808 16.4121 25.583H10.3691C10.3643 25.0168 10.3579 24.3552 10.3545 23.6875L10.3457 21.8369L10.333 21.8389L10.3984 21.374C10.5212 20.4909 10.8524 20.0409 11.0547 19.8643L13.376 17.8369L15.709 19.8545ZM21.8613 1.60742C22.1843 3.09471 21.8168 4.09956 21.7402 4.28516L21.377 5.16699L22.0205 5.87012C22.9439 6.87869 23.4999 8.14397 23.5 9.74121C23.5 12.9072 22.5528 14.5694 21.4023 15.5322C20.1778 16.557 18.4658 17.0135 16.5244 17.2295L13.2793 17.5889L10.2383 17.2441C8.30477 17.0243 6.59606 16.5621 5.37305 15.5332C4.22256 14.5651 3.27637 12.8996 3.27637 9.74219C3.27639 8.14748 3.83602 6.8805 4.75977 5.86914L5.40234 5.16602L5.03809 4.28516C4.96155 4.09994 4.59243 3.09472 4.91406 1.60742C5.5291 1.7683 6.54213 2.16813 7.99316 3.15039L8.56738 3.53906L9.23535 3.35352C10.5469 2.98906 11.9681 2.80188 13.3896 2.79492C14.8108 2.80184 16.2333 2.98793 17.5479 3.35254L18.2158 3.53809L18.79 3.14941C20.2366 2.16898 21.2471 1.76875 21.8613 1.60742Z" stroke="#FDB137" stroke-width="3"/>
<path d="M2.54455 19.5406C2.50665 19.6198 2.37213 19.6435 2.24959 19.5894C2.12419 19.5377 2.05437 19.4299 2.09484 19.3505C2.13188 19.2687 2.26669 19.2463 2.39123 19.3009C2.51662 19.3528 2.58787 19.4618 2.54427 19.5409L2.54455 19.5406ZM3.24164 20.2605C3.15985 20.3309 2.9994 20.2982 2.89053 20.1866C2.77768 20.0758 2.75659 19.9273 2.84009 19.8558C2.92502 19.7857 3.08062 19.8189 3.19348 19.9297C3.30577 20.0421 3.328 20.1893 3.24193 20.2607L3.24164 20.2605ZM3.92049 21.1776C3.81505 21.2457 3.64234 21.1821 3.53575 21.0405C3.43031 20.8985 3.43031 20.7284 3.5386 20.6606C3.64491 20.5926 3.81505 20.654 3.92334 20.7944C4.02822 20.9381 4.02822 21.1085 3.92049 21.1776ZM4.84985 22.0642C4.75581 22.1604 4.5546 22.1346 4.40755 22.0035C4.25735 21.875 4.21546 21.6922 4.30979 21.5962C4.40555 21.4997 4.60761 21.5266 4.75552 21.6569C4.90571 21.7851 4.95103 21.9682 4.85042 22.0639L4.84985 22.0642ZM6.13232 22.5788C6.09042 22.7036 5.8972 22.7603 5.70198 22.707C5.50733 22.6524 5.37994 22.5065 5.41984 22.3804C5.45974 22.2546 5.65438 22.1958 5.85074 22.2525C6.04539 22.3068 6.17279 22.4519 6.13232 22.5788ZM7.54103 22.674C7.54588 22.8054 7.38058 22.9141 7.17624 22.9167C6.97019 22.9212 6.80347 22.8146 6.80148 22.6854C6.80148 22.5527 6.96335 22.4453 7.16912 22.4416C7.37346 22.4382 7.54132 22.5437 7.54132 22.6738L7.54103 22.674ZM8.85142 22.4677C8.87593 22.5957 8.73372 22.7273 8.53052 22.7624C8.33103 22.7967 8.14578 22.717 8.12013 22.5901C8.09563 22.4588 8.2404 22.3272 8.43989 22.2931C8.64338 22.2607 8.82577 22.3377 8.85142 22.4677Z" fill="#FDB137"/>
</svg>
