<svg width="26" height="26" viewBox="0 0 26 26" fill="none" xmlns="http://www.w3.org/2000/svg">
<path d="M23.8359 9.74533e-05H1.89844C1.40069 -0.00496817 0.921263 0.18763 0.565352 0.535632C0.209442 0.883633 0.00611956 1.35861 0 1.85635V23.8824C0.00722626 24.3794 0.211035 24.8533 0.566825 25.2004C0.922615 25.5475 1.40141 25.7395 1.89844 25.7345H23.8359C24.3337 25.7384 24.8128 25.5452 25.1685 25.197C25.5243 24.8487 25.7277 24.3739 25.7344 23.8761V1.85002C25.7255 1.35374 25.5211 0.881029 25.1656 0.534625C24.8101 0.188221 24.3323 -0.00387274 23.8359 9.74533e-05ZM7.62961 21.9376H3.80953V9.64627H7.62961V21.9376ZM5.73117 7.97143C5.29303 7.97184 4.8646 7.8423 4.5001 7.59918C4.13559 7.35607 3.85138 7.0103 3.68342 6.60563C3.51546 6.20096 3.4713 5.75556 3.55652 5.32578C3.64174 4.89601 3.85252 4.50116 4.16219 4.1912C4.47185 3.88124 4.8665 3.67008 5.29619 3.58445C5.72589 3.49882 6.17133 3.54256 6.57616 3.71013C6.98099 3.87771 7.32703 4.16159 7.57049 4.52586C7.81395 4.89014 7.94391 5.31844 7.94391 5.75658C7.94335 6.0478 7.88538 6.33604 7.7733 6.60482C7.66121 6.8736 7.49723 7.11764 7.29072 7.32297C7.08421 7.5283 6.83924 7.6909 6.56983 7.80144C6.30041 7.91199 6.01184 7.96832 5.72063 7.96721L5.73117 7.97143ZM21.9375 21.9376H18.1174V15.9575C18.1174 14.5337 18.0921 12.7006 16.1325 12.7006C14.1729 12.7006 13.8396 14.2531 13.8396 15.8647V21.9376H10.0259V9.64627H13.6877V11.3338H13.7384C14.2488 10.3677 15.4934 9.34885 17.3517 9.34885C21.2203 9.34041 21.9375 11.8864 21.9375 15.1876V21.9376Z" fill="#FDB137"/>
</svg>
