<svg width="881" height="571" viewBox="0 0 881 571" fill="none" xmlns="http://www.w3.org/2000/svg">
<path d="M881 571.001H0V0H881V571.001ZM756.132 105.07C704.378 71.9488 605.013 117.906 528.832 117.906C452.651 117.906 342.519 95.5487 280.829 105.071C219.14 114.594 208.375 105.07 142.131 96.376C75.8867 87.6815 118.117 170.073 105.282 223.482C92.4474 276.892 79.6125 379.986 92.8613 439.605C106.11 499.225 148.755 458.65 232.389 466.103C316.022 473.555 371.087 480.593 426.98 477.695C482.874 474.797 597.146 454.51 668.358 466.103C739.571 477.696 780.145 473.555 770.209 380.813C760.272 288.071 807.885 138.193 756.132 105.07Z" fill="#FDB137"/>
</svg>
