<svg width="881" height="571" viewBox="0 0 881 571" fill="none" xmlns="http://www.w3.org/2000/svg">
<path d="M881 571.001H0V0H881V571.001ZM490.741 81.0566C373.572 68.2218 161.176 25.163 108.181 55.3867C55.1853 85.6107 65.9493 128.256 67.1914 165.104C68.4333 201.953 46.9045 285.586 49.3887 340.237C51.8728 394.889 39.866 463.617 91.6191 500.466C143.373 537.314 163.66 523.237 232.389 523.237C301.117 523.237 420.771 495.498 503.162 500.466C585.553 505.434 678.709 561.327 768.967 500.466C859.225 439.604 796.707 391.163 809.542 310.014C822.377 228.865 840.18 154.753 809.542 90.9932C778.904 27.2334 607.911 93.8915 490.741 81.0566Z" fill="#0B273D"/>
</svg>
