<svg width="881" height="571" viewBox="0 0 881 571" fill="none" xmlns="http://www.w3.org/2000/svg">
<path d="M881 571H0V0H881V571ZM300.832 27.6475C227.135 9.84436 170.414 7.35978 97.5449 45.4502C24.6763 83.5407 59.0404 145.646 52.8301 213.132C46.6196 280.618 -0.579029 523.237 103.755 543.524C208.09 563.811 345.133 531.104 440.773 531.104C536.414 531.104 700.368 564.225 747.153 551.391C793.938 538.556 818.366 526.963 834.927 444.572C851.488 362.181 799.32 391.162 834.927 293.452C870.533 195.742 863.908 182.493 841.137 89.751C818.365 -2.99065 613.422 45.4505 538.483 60.7695C463.545 76.0886 374.529 45.4506 300.832 27.6475Z" fill="#161817"/>
</svg>
