<svg width="890" height="581" viewBox="0 0 890 581" fill="none" xmlns="http://www.w3.org/2000/svg">
<path d="M890 581H0V0H890V581ZM304.832 31.6475C231.135 13.8444 174.414 11.3598 101.545 49.4502C28.6763 87.5407 63.0404 149.646 56.8301 217.132C50.6196 284.618 3.42097 527.237 107.755 547.524C212.09 567.811 349.133 535.104 444.773 535.104C540.414 535.104 704.368 568.225 751.153 555.391C797.938 542.556 822.366 530.963 838.927 448.572C855.488 366.181 803.32 395.162 838.927 297.452C874.533 199.742 867.908 186.493 845.137 93.751C822.365 1.00935 617.422 49.4505 542.483 64.7695C467.545 80.0886 378.529 49.4506 304.832 31.6475Z" fill="#161817"/>
</svg>
