<svg width="1131" height="754" viewBox="0 0 1131 754" fill="none" xmlns="http://www.w3.org/2000/svg">
<path d="M0 0H1131V753H0V0Z" fill="#212227"/>
<path d="M2 753V537L1124 552.5V753H2Z" fill="#161817"/>
<path d="M256.749 484L2.74915 490.938V582L256.749 575.062V484Z" fill="#17140F"/>
<path d="M33.2072 517.448H2.74915V546.759H33.2072V517.448Z" fill="#E7E7DD"/>
<path d="M59.314 517.448H40.169V561.414H59.314V517.448Z" fill="#E7E7DD"/>
<path d="M68.8866 517.448H74.1079V561.414H68.8866V517.448Z" fill="#E7E7DD"/>
<path d="M90.6423 517.448H82.8102V564H90.6423V517.448Z" fill="#E7E7DD"/>
<path d="M97.6041 520.897V517.448H143.726V544.172H107.177V520.897H97.6041Z" fill="#E7E7DD"/>
<path d="M198.551 514H171.574V540.724H198.551V514Z" fill="#E7E7DD"/>
<path d="M230.749 514H213.345V558.828H230.749V514Z" fill="#E7E7DD"/>
<path d="M1125.25 450L3.74915 437.5V249L62.7491 225.5L87.2491 232.5L119.249 225.5L185.749 240H199.249L213.249 249H250.749L294.249 265.5H323.749L372.249 306L488.749 260L527.249 240L556.749 249L587.249 240L606.249 232.5H626.249L650.749 225.5L669.749 220L691.249 225.5L717.749 214L778.249 220L829.249 234.5L880.249 249L934.749 225.5H963.749L986.249 214H1064.25L1125.25 240V450Z" fill="#161817"/>
<path d="M267.749 325C269.406 325 270.749 326.343 270.749 328C270.749 329.657 269.406 331 267.749 331H264.749C263.092 331 261.749 329.657 261.749 328C261.749 326.343 263.092 325 264.749 325H267.749Z" fill="#F65936"/>
<path d="M242.906 285.623C241.25 285.667 239.872 284.359 239.828 282.703C239.784 281.047 241.092 279.669 242.748 279.625L245.747 279.546C247.403 279.502 248.781 280.81 248.825 282.466C248.869 284.122 247.561 285.5 245.905 285.544L242.906 285.623Z" fill="#F65936"/>
<path d="M514.849 314.358C513.193 314.401 511.815 313.094 511.771 311.438C511.728 309.782 513.035 308.404 514.691 308.36L517.69 308.281C519.347 308.237 520.725 309.544 520.768 311.201C520.812 312.857 519.505 314.235 517.848 314.279L514.849 314.358Z" fill="#F65936"/>
<path d="M769.906 312.783C768.25 312.826 766.872 311.519 766.828 309.863C766.784 308.207 768.092 306.828 769.748 306.785L772.747 306.706C774.403 306.662 775.781 307.969 775.825 309.626C775.869 311.282 774.561 312.66 772.905 312.704L769.906 312.783Z" fill="#F65936"/>
<path d="M863.906 367.783C862.25 367.826 860.872 366.519 860.828 364.863C860.784 363.207 862.092 361.828 863.748 361.785L866.747 361.706C868.403 361.662 869.781 362.969 869.825 364.626C869.869 366.282 868.561 367.66 866.905 367.704L863.906 367.783Z" fill="#F65936"/>
<path d="M428.582 347.783C426.926 347.826 425.548 346.519 425.504 344.863C425.461 343.207 426.768 341.828 428.424 341.785L431.423 341.706C433.08 341.662 434.458 342.969 434.501 344.626C434.545 346.282 433.238 347.66 431.581 347.704L428.582 347.783Z" fill="#F65936"/>
<path d="M45.7491 323C48.5106 323 50.7491 325.239 50.7491 328C50.7491 330.761 48.5106 333 45.7491 333H36.7491C33.9877 333 31.7491 330.761 31.7491 328C31.7491 325.239 33.9877 323 36.7491 323H45.7491Z" fill="#FDB137"/>
<path d="M736.825 310.508C734.065 310.58 731.768 308.402 731.695 305.641C731.622 302.881 733.801 300.584 736.562 300.511L745.558 300.274C748.319 300.201 750.616 302.38 750.689 305.14C750.761 307.901 748.582 310.198 745.822 310.27L736.825 310.508Z" fill="#FDB137"/>
<path d="M991.882 308.932C989.121 309.005 986.825 306.826 986.752 304.066C986.679 301.306 988.858 299.009 991.618 298.936L1000.62 298.699C1003.38 298.626 1005.67 300.805 1005.75 303.565C1005.82 306.326 1003.64 308.623 1000.88 308.695L991.882 308.932Z" fill="#FDB137"/>
<path d="M1085.88 363.932C1083.12 364.005 1080.82 361.826 1080.75 359.066C1080.68 356.306 1082.86 354.009 1085.62 353.936L1094.62 353.699C1097.38 353.626 1099.67 355.805 1099.75 358.565C1099.82 361.326 1097.64 363.623 1094.88 363.695L1085.88 363.932Z" fill="#FDB137"/>
<path d="M99.7491 352C102.511 352 104.749 354.239 104.749 357C104.749 359.761 102.511 362 99.7491 362H90.7491C87.9877 362 85.7491 359.761 85.7491 357C85.7491 354.239 87.9877 352 90.7491 352H99.7491Z" fill="white"/>
<path d="M682.08 282.94C679.319 283.013 677.023 280.834 676.95 278.074C676.877 275.313 679.056 273.017 681.816 272.944L690.813 272.707C693.574 272.634 695.87 274.813 695.943 277.573C696.016 280.334 693.837 282.631 691.077 282.703L682.08 282.94Z" fill="white"/>
<path d="M937.136 281.365C934.376 281.438 932.079 279.259 932.006 276.499C931.934 273.738 934.112 271.442 936.873 271.369L945.87 271.132C948.63 271.059 950.927 273.238 951 275.998C951.073 278.759 948.894 281.056 946.133 281.128L937.136 281.365Z" fill="white"/>
<path d="M661.011 359.365C658.25 359.438 655.954 357.259 655.881 354.499C655.808 351.738 657.987 349.442 660.747 349.369L669.744 349.132C672.505 349.059 674.802 351.238 674.874 353.998C674.947 356.759 672.768 359.056 670.008 359.128L661.011 359.365Z" fill="white"/>
<path d="M1031.14 336.365C1028.38 336.438 1026.08 334.259 1026.01 331.499C1025.93 328.738 1028.11 326.442 1030.87 326.369L1039.87 326.132C1042.63 326.059 1044.93 328.238 1045 330.998C1045.07 333.759 1042.89 336.056 1040.13 336.128L1031.14 336.365Z" fill="white"/>
<path d="M740.749 253C743.511 253 745.749 255.239 745.749 258C745.749 260.761 743.511 263 740.749 263H731.749C728.988 263 726.749 260.761 726.749 258C726.749 255.239 728.988 253 731.749 253H740.749Z" fill="white"/>
<path d="M19.7491 342C22.5106 342 24.7491 344.239 24.7491 347C24.7491 349.761 22.5106 352 19.7491 352H10.7491C7.98772 352 5.74915 349.761 5.74915 347C5.74915 344.239 7.98772 342 10.7491 342H19.7491Z" fill="white"/>
<path d="M762.316 290.829C759.555 290.902 757.258 288.723 757.186 285.963C757.113 283.202 759.292 280.905 762.052 280.833L771.049 280.595C773.809 280.523 776.106 282.701 776.179 285.462C776.252 288.222 774.073 290.519 771.312 290.592L762.316 290.829Z" fill="white"/>
<path d="M1017.37 289.254C1014.61 289.327 1012.32 287.148 1012.24 284.388C1012.17 281.627 1014.35 279.33 1017.11 279.257L1026.11 279.02C1028.87 278.948 1031.16 281.126 1031.24 283.887C1031.31 286.647 1029.13 288.944 1026.37 289.017L1017.37 289.254Z" fill="white"/>
<path d="M1111.37 344.254C1108.61 344.327 1106.32 342.148 1106.24 339.388C1106.17 336.627 1108.35 334.33 1111.11 334.257L1120.11 334.02C1122.87 333.948 1125.16 336.126 1125.24 338.887C1125.31 341.647 1123.13 343.944 1120.37 344.017L1111.37 344.254Z" fill="white"/>
<path d="M65.7491 341C67.406 341 68.7491 342.343 68.7491 344C68.7491 345.657 67.406 347 65.7491 347H62.7491C61.0923 347 59.7491 345.657 59.7491 344C59.7491 342.343 61.0923 341 62.7491 341H65.7491Z" fill="white"/>
<path d="M716.358 293.041C714.702 293.084 713.323 291.777 713.28 290.121C713.236 288.465 714.543 287.087 716.2 287.043L719.199 286.964C720.855 286.92 722.233 288.227 722.277 289.884C722.32 291.54 721.013 292.918 719.357 292.962L716.358 293.041Z" fill="white"/>
<path d="M971.414 291.466C969.758 291.509 968.38 290.202 968.336 288.546C968.293 286.89 969.6 285.511 971.256 285.468L974.255 285.389C975.912 285.345 977.29 286.652 977.333 288.309C977.377 289.965 976.07 291.343 974.413 291.387L971.414 291.466Z" fill="white"/>
<path d="M1065.41 346.466C1063.76 346.509 1062.38 345.202 1062.34 343.546C1062.29 341.89 1063.6 340.511 1065.26 340.468L1068.26 340.389C1069.91 340.345 1071.29 341.652 1071.33 343.309C1071.38 344.965 1070.07 346.343 1068.41 346.387L1065.41 346.466Z" fill="white"/>
<path d="M171.749 286C173.406 286 174.749 287.343 174.749 289C174.749 290.657 173.406 292 171.749 292H161.749C160.092 292 158.749 290.657 158.749 289C158.749 287.343 160.092 286 161.749 286H171.749Z" fill="white"/>
<path d="M611.844 350.815C610.187 350.858 608.809 349.551 608.766 347.895C608.722 346.239 610.029 344.86 611.686 344.817L621.682 344.553C623.338 344.51 624.716 345.817 624.76 347.473C624.804 349.129 623.496 350.508 621.84 350.551L611.844 350.815Z" fill="white"/>
<path d="M339.9 322.08C338.244 322.123 336.866 320.816 336.822 319.16C336.779 317.504 338.086 316.126 339.742 316.082L349.739 315.818C351.395 315.775 352.773 317.082 352.817 318.738C352.86 320.395 351.553 321.773 349.897 321.816L339.9 322.08Z" fill="white"/>
<path d="M866.9 349.24C865.244 349.283 863.866 347.976 863.822 346.32C863.779 344.663 865.086 343.285 866.742 343.242L876.739 342.978C878.395 342.935 879.773 344.242 879.817 345.898C879.86 347.554 878.553 348.932 876.897 348.976L866.9 349.24Z" fill="white"/>
<path d="M431.577 329.24C429.92 329.283 428.542 327.976 428.499 326.32C428.455 324.663 429.762 323.285 431.418 323.242L441.415 322.978C443.071 322.935 444.449 324.242 444.493 325.898C444.537 327.554 443.229 328.932 441.573 328.976L431.577 329.24Z" fill="white"/>
<path d="M960.9 404.24C959.244 404.283 957.866 402.976 957.822 401.32C957.779 399.663 959.086 398.285 960.742 398.242L970.739 397.978C972.395 397.935 973.773 399.242 973.817 400.898C973.86 402.554 972.553 403.932 970.897 403.976L960.9 404.24Z" fill="white"/>
<path d="M224.749 290C226.406 290 227.749 291.343 227.749 293C227.749 294.657 226.406 296 224.749 296H221.749C220.092 296 218.749 294.657 218.749 293C218.749 291.343 220.092 290 221.749 290H224.749Z" fill="#F65936"/>
<path d="M558.757 348.213C557.1 348.256 555.722 346.949 555.679 345.293C555.635 343.636 556.942 342.258 558.599 342.215L561.598 342.136C563.254 342.092 564.632 343.399 564.676 345.056C564.719 346.712 563.412 348.09 561.756 348.134L558.757 348.213Z" fill="#F65936"/>
<path d="M286.813 319.478C285.157 319.521 283.779 318.214 283.735 316.558C283.692 314.901 284.999 313.523 286.655 313.48L289.654 313.401C291.311 313.357 292.689 314.664 292.732 316.321C292.776 317.977 291.469 319.355 289.812 319.399L286.813 319.478Z" fill="#F65936"/>
<path d="M813.813 346.638C812.157 346.681 810.779 345.374 810.735 343.718C810.692 342.061 811.999 340.683 813.655 340.64L816.654 340.561C818.311 340.517 819.689 341.824 819.732 343.48C819.776 345.137 818.469 346.515 816.812 346.558L813.813 346.638Z" fill="#F65936"/>
<path d="M907.813 401.638C906.157 401.681 904.779 400.374 904.735 398.718C904.692 397.061 905.999 395.683 907.655 395.64L910.654 395.561C912.311 395.517 913.689 396.824 913.732 398.48C913.776 400.137 912.469 401.515 910.812 401.558L907.813 401.638Z" fill="#F65936"/>
<path d="M224.749 344C226.406 344 227.749 345.343 227.749 347C227.749 348.657 226.406 350 224.749 350H221.749C220.092 350 218.749 348.657 218.749 347C218.749 345.343 220.092 344 221.749 344H224.749Z" fill="white"/>
<path d="M557.334 294.231C555.678 294.275 554.3 292.968 554.256 291.311C554.212 289.655 555.519 288.277 557.176 288.233L560.175 288.154C561.831 288.111 563.209 289.418 563.253 291.074C563.296 292.731 561.989 294.109 560.333 294.152L557.334 294.231Z" fill="white"/>
<path d="M404.906 350.156C403.25 350.2 401.872 348.892 401.828 347.236C401.784 345.58 403.092 344.202 404.748 344.158L407.747 344.079C409.403 344.035 410.781 345.343 410.825 346.999C410.869 348.655 409.561 350.033 407.905 350.077L404.906 350.156Z" fill="white"/>
<path d="M812.391 292.656C810.734 292.7 809.356 291.393 809.313 289.736C809.269 288.08 810.576 286.702 812.232 286.658L815.231 286.579C816.888 286.536 818.266 287.843 818.309 289.499C818.353 291.156 817.046 292.534 815.389 292.577L812.391 292.656Z" fill="white"/>
<path d="M906.391 347.656C904.734 347.7 903.356 346.393 903.313 344.736C903.269 343.08 904.576 341.702 906.232 341.658L909.231 341.579C910.888 341.536 912.266 342.843 912.309 344.499C912.353 346.156 911.046 347.534 909.389 347.577L906.391 347.656Z" fill="white"/>
<path d="M471.067 327.656C469.411 327.7 468.032 326.393 467.989 324.736C467.945 323.08 469.252 321.702 470.909 321.658L473.908 321.579C475.564 321.536 476.942 322.843 476.986 324.499C477.029 326.156 475.722 327.534 474.066 327.577L471.067 327.656Z" fill="white"/>
<path d="M19.7491 277C21.406 277 22.7491 278.343 22.7491 280C22.7491 281.657 21.406 283 19.7491 283H16.7491C15.0923 283 13.7491 281.657 13.7491 280C13.7491 278.343 15.0923 277 16.7491 277H19.7491Z" fill="white"/>
<path d="M764.028 355.807C762.372 355.85 760.994 354.543 760.95 352.887C760.906 351.23 762.214 349.852 763.87 349.809L766.869 349.73C768.525 349.686 769.903 350.993 769.947 352.649C769.99 354.306 768.683 355.684 767.027 355.727L764.028 355.807Z" fill="white"/>
<path d="M1019.08 354.231C1017.43 354.275 1016.05 352.968 1016.01 351.312C1015.96 349.655 1017.27 348.277 1018.93 348.234L1021.93 348.154C1023.58 348.111 1024.96 349.418 1025 351.074C1025.05 352.731 1023.74 354.109 1022.08 354.152L1019.08 354.231Z" fill="white"/>
<path d="M1113.08 409.231C1111.43 409.275 1110.05 407.968 1110.01 406.312C1109.96 404.655 1111.27 403.277 1112.93 403.234L1115.93 403.154C1117.58 403.111 1118.96 404.418 1119 406.074C1119.05 407.731 1117.74 409.109 1116.08 409.152L1113.08 409.231Z" fill="white"/>
<path d="M167.749 317C168.854 317 169.749 317.895 169.749 319C169.749 320.105 168.854 321 167.749 321H162.749C161.645 321 160.749 320.105 160.749 319C160.749 317.895 161.645 317 162.749 317H167.749Z" fill="#FDB137"/>
<path d="M615.026 319.72C613.921 319.749 613.003 318.878 612.974 317.773C612.945 316.669 613.816 315.751 614.92 315.721L619.919 315.59C621.023 315.561 621.941 316.432 621.971 317.536C622 318.641 621.128 319.559 620.024 319.588L615.026 319.72Z" fill="#FDB137"/>
<path d="M329.854 306.183C328.75 306.212 327.831 305.341 327.802 304.236C327.773 303.132 328.644 302.214 329.748 302.184L334.747 302.053C335.851 302.024 336.77 302.895 336.799 303.999C336.828 305.103 335.956 306.022 334.852 306.051L329.854 306.183Z" fill="#FDB137"/>
<path d="M870.082 318.145C868.978 318.174 868.059 317.303 868.03 316.198C868.001 315.094 868.873 314.176 869.977 314.146L874.975 314.015C876.079 313.986 876.998 314.857 877.027 315.961C877.056 317.065 876.185 317.984 875.081 318.013L870.082 318.145Z" fill="#FDB137"/>
<path d="M434.759 298.145C433.654 298.174 432.736 297.303 432.707 296.198C432.677 295.094 433.549 294.176 434.653 294.146L439.651 294.015C440.756 293.986 441.674 294.857 441.703 295.961C441.733 297.065 440.861 297.984 439.757 298.013L434.759 298.145Z" fill="#FDB137"/>
<path d="M964.082 373.145C962.978 373.174 962.059 372.303 962.03 371.198C962.001 370.094 962.873 369.176 963.977 369.146L968.975 369.015C970.079 368.986 970.998 369.857 971.027 370.961C971.056 372.065 970.185 372.984 969.081 373.013L964.082 373.145Z" fill="#FDB137"/>
<path d="M179.749 298C180.854 298 181.749 298.895 181.749 300C181.749 301.105 180.854 302 179.749 302H176.749C175.645 302 174.749 301.105 174.749 300C174.749 298.895 175.645 298 176.749 298H179.749Z" fill="white"/>
<path d="M193.749 290C194.854 290 195.749 290.895 195.749 292C195.749 293.105 194.854 294 193.749 294H190.749C189.645 294 188.749 293.105 188.749 292C188.749 290.895 189.645 290 190.749 290H193.749Z" fill="#F65936"/>
<path d="M589.746 347.396C588.642 347.425 587.723 346.553 587.694 345.449C587.665 344.345 588.537 343.426 589.641 343.397L592.64 343.318C593.744 343.289 594.663 344.161 594.692 345.265C594.721 346.369 593.849 347.288 592.745 347.317L589.746 347.396Z" fill="#F65936"/>
<path d="M317.803 318.661C316.699 318.69 315.78 317.818 315.751 316.714C315.722 315.61 316.593 314.691 317.697 314.662L320.696 314.583C321.801 314.554 322.719 315.426 322.748 316.53C322.777 317.634 321.906 318.553 320.802 318.582L317.803 318.661Z" fill="#F65936"/>
<path d="M844.803 345.821C843.699 345.85 842.78 344.978 842.751 343.874C842.722 342.77 843.593 341.851 844.697 341.822L847.696 341.743C848.801 341.714 849.719 342.585 849.748 343.69C849.777 344.794 848.906 345.713 847.802 345.742L844.803 345.821Z" fill="#F65936"/>
<path d="M409.479 325.821C408.375 325.85 407.456 324.978 407.427 323.874C407.398 322.77 408.27 321.851 409.374 321.822L412.373 321.743C413.477 321.714 414.396 322.585 414.425 323.69C414.454 324.794 413.582 325.713 412.478 325.742L409.479 325.821Z" fill="#F65936"/>
<path d="M938.803 400.821C937.699 400.85 936.78 399.978 936.751 398.874C936.722 397.77 937.593 396.851 938.697 396.822L941.696 396.743C942.801 396.714 943.719 397.585 943.748 398.69C943.777 399.794 942.906 400.713 941.802 400.742L938.803 400.821Z" fill="#F65936"/>
<path d="M210.749 317C211.854 317 212.749 317.895 212.749 319C212.749 320.105 211.854 321 210.749 321H207.749C206.645 321 205.749 320.105 205.749 319C205.749 317.895 206.645 317 207.749 317H210.749Z" fill="white"/>
<path d="M572.041 320.853C570.936 320.882 570.018 320.011 569.989 318.907C569.96 317.802 570.831 316.884 571.935 316.855L574.934 316.775C576.038 316.746 576.957 317.618 576.986 318.722C577.015 319.826 576.144 320.745 575.04 320.774L572.041 320.853Z" fill="white"/>
<path d="M300.097 292.118C298.993 292.147 298.074 291.276 298.045 290.172C298.016 289.067 298.888 288.149 299.992 288.12L302.991 288.041C304.095 288.011 305.014 288.883 305.043 289.987C305.072 291.091 304.2 292.01 303.096 292.039L300.097 292.118Z" fill="white"/>
<path d="M827.097 319.278C825.993 319.307 825.074 318.436 825.045 317.331C825.016 316.227 825.888 315.309 826.992 315.279L829.991 315.2C831.095 315.171 832.014 316.043 832.043 317.147C832.072 318.251 831.2 319.17 830.096 319.199L827.097 319.278Z" fill="white"/>
<path d="M597.854 289.13C596.75 289.159 595.831 288.288 595.802 287.184C595.773 286.08 596.644 285.161 597.748 285.132L600.747 285.053C601.852 285.024 602.77 285.895 602.799 286.999C602.829 288.103 601.957 289.022 600.853 289.051L597.854 289.13Z" fill="white"/>
<path d="M921.097 374.278C919.993 374.307 919.074 373.436 919.045 372.331C919.016 371.227 919.888 370.309 920.992 370.279L923.991 370.2C925.095 370.171 926.014 371.043 926.043 372.147C926.072 373.251 925.2 374.17 924.096 374.199L921.097 374.278Z" fill="white"/>
<path d="M485.774 354.278C484.669 354.307 483.751 353.436 483.722 352.331C483.692 351.227 484.564 350.309 485.668 350.279L488.667 350.2C489.771 350.171 490.69 351.043 490.719 352.147C490.748 353.251 489.877 354.17 488.772 354.199L485.774 354.278Z" fill="white"/>
<path d="M142.749 293C144.406 293 145.749 294.343 145.749 296C145.749 297.657 144.406 299 142.749 299H141.749C140.092 299 138.749 297.657 138.749 296C138.749 294.343 140.092 293 141.749 293H142.749Z" fill="white"/>
<path d="M640.649 343.053C638.993 343.097 637.615 341.789 637.571 340.133C637.528 338.477 638.835 337.099 640.491 337.055L641.491 337.029C643.147 336.985 644.525 338.292 644.569 339.949C644.613 341.605 643.305 342.983 641.649 343.027L640.649 343.053Z" fill="white"/>
<path d="M377.906 332.103C376.25 332.147 374.872 330.84 374.828 329.183C374.785 327.527 376.092 326.149 377.748 326.105L378.748 326.079C380.404 326.035 381.782 327.343 381.826 328.999C381.869 330.655 380.562 332.033 378.906 332.077L377.906 332.103Z" fill="white"/>
<path d="M895.706 341.478C894.05 341.522 892.672 340.214 892.628 338.558C892.584 336.902 893.892 335.524 895.548 335.48L896.548 335.454C898.204 335.41 899.582 336.717 899.626 338.374C899.669 340.03 898.362 341.408 896.706 341.452L895.706 341.478Z" fill="white"/>
<path d="M460.382 321.478C458.726 321.522 457.348 320.214 457.304 318.558C457.261 316.902 458.568 315.524 460.224 315.48L461.224 315.454C462.88 315.41 464.258 316.717 464.302 318.374C464.345 320.03 463.038 321.408 461.382 321.452L460.382 321.478Z" fill="white"/>
<path d="M989.706 396.478C988.05 396.522 986.672 395.214 986.628 393.558C986.584 391.902 987.892 390.524 989.548 390.48L990.548 390.454C992.204 390.41 993.582 391.717 993.626 393.374C993.669 395.03 992.362 396.408 990.706 396.452L989.706 396.478Z" fill="white"/>
<path d="M37.7491 284C39.406 284 40.7491 285.343 40.7491 287C40.7491 288.657 39.406 290 37.7491 290H36.7491C35.0923 290 33.7491 288.657 33.7491 287C33.7491 285.343 35.0923 284 36.7491 284H37.7491Z" fill="#FDB137"/>
<path d="M745.85 349.283C744.194 349.327 742.816 348.02 742.772 346.363C742.728 344.707 744.036 343.329 745.692 343.285L746.692 343.259C748.348 343.215 749.726 344.523 749.77 346.179C749.813 347.835 748.506 349.213 746.85 349.257L745.85 349.283Z" fill="#FDB137"/>
<path d="M1000.91 347.708C999.25 347.752 997.872 346.445 997.829 344.788C997.785 343.132 999.092 341.754 1000.75 341.71L1001.75 341.684C1003.4 341.64 1004.78 342.948 1004.83 344.604C1004.87 346.26 1003.56 347.638 1001.91 347.682L1000.91 347.708Z" fill="#FDB137"/>
<path d="M1094.91 402.708C1093.25 402.752 1091.87 401.445 1091.83 399.788C1091.78 398.132 1093.09 396.754 1094.75 396.71L1095.75 396.684C1097.4 396.64 1098.78 397.948 1098.83 399.604C1098.87 401.26 1097.56 402.638 1095.91 402.682L1094.91 402.708Z" fill="#FDB137"/>
<path d="M60.7491 296C63.5106 296 65.7491 298.239 65.7491 301C65.7491 303.761 63.5106 306 60.7491 306H55.7491C52.9877 306 50.7491 303.761 50.7491 301C50.7491 298.239 52.9877 296 55.7491 296H60.7491Z" fill="#FDB137"/>
<path d="M722.542 337.893C719.781 337.966 717.484 335.787 717.412 333.027C717.339 330.266 719.518 327.97 722.278 327.897L727.277 327.765C730.037 327.692 732.334 329.871 732.407 332.632C732.479 335.392 730.3 337.689 727.54 337.762L722.542 337.893Z" fill="#FDB137"/>
<path d="M977.598 336.318C974.838 336.391 972.541 334.212 972.468 331.452C972.396 328.691 974.574 326.395 977.335 326.322L982.333 326.19C985.094 326.117 987.39 328.296 987.463 331.057C987.536 333.817 985.357 336.114 982.597 336.187L977.598 336.318Z" fill="#FDB137"/>
<path d="M1071.6 391.318C1068.84 391.391 1066.54 389.212 1066.47 386.452C1066.4 383.691 1068.57 381.395 1071.33 381.322L1076.33 381.19C1079.09 381.117 1081.39 383.296 1081.46 386.057C1081.54 388.817 1079.36 391.114 1076.6 391.187L1071.6 391.318Z" fill="#FDB137"/>
<path d="M181.749 323C183.958 323 185.749 324.791 185.749 327C185.749 329.209 183.958 331 181.749 331H177.749C175.54 331 173.749 329.209 173.749 327C173.749 324.791 175.54 323 177.749 323H181.749Z" fill="#F65936"/>
<path d="M600.872 314.091C598.664 314.149 596.826 312.406 596.768 310.198C596.71 307.989 598.453 306.152 600.661 306.094L604.66 305.988C606.868 305.93 608.706 307.673 608.764 309.882C608.822 312.09 607.079 313.927 604.871 313.986L600.872 314.091Z" fill="#F65936"/>
<path d="M641.959 290.208C639.75 290.266 637.913 288.523 637.855 286.315C637.796 284.106 639.539 282.269 641.748 282.211L645.746 282.105C647.955 282.047 649.792 283.79 649.85 285.999C649.909 288.207 648.166 290.044 645.957 290.103L641.959 290.208Z" fill="#F65936"/>
<path d="M855.929 312.516C853.72 312.574 851.883 310.831 851.825 308.623C851.767 306.414 853.51 304.577 855.718 304.519L859.717 304.413C861.925 304.355 863.762 306.098 863.821 308.307C863.879 310.515 862.136 312.352 859.927 312.411L855.929 312.516Z" fill="#F65936"/>
<path d="M418.959 316.208C416.75 316.266 414.913 314.523 414.855 312.315C414.796 310.106 416.539 308.269 418.748 308.211L422.746 308.105C424.955 308.047 426.792 309.79 426.85 311.999C426.909 314.207 425.166 316.044 422.957 316.103L418.959 316.208Z" fill="#F65936"/>
<path d="M949.929 367.516C947.72 367.574 945.883 365.831 945.825 363.623C945.767 361.414 947.51 359.577 949.718 359.519L953.717 359.413C955.925 359.355 957.762 361.098 957.821 363.307C957.879 365.515 956.136 367.352 953.927 367.411L949.929 367.516Z" fill="#F65936"/>
<path d="M514.605 347.516C512.397 347.574 510.559 345.831 510.501 343.623C510.443 341.414 512.186 339.577 514.394 339.519L518.393 339.413C520.601 339.355 522.439 341.098 522.497 343.307C522.555 345.515 520.812 347.352 518.604 347.411L514.605 347.516Z" fill="#F65936"/>
<path d="M261.749 327C263.958 327 265.749 328.791 265.749 331C265.749 333.209 263.958 335 261.749 335H257.749C255.54 335 253.749 333.209 253.749 331C253.749 328.791 255.54 327 257.749 327H261.749Z" fill="white"/>
<path d="M520.795 312.2C518.586 312.259 516.749 310.516 516.691 308.307C516.632 306.099 518.375 304.261 520.584 304.203L524.582 304.098C526.791 304.04 528.628 305.783 528.686 307.991C528.745 310.199 527.002 312.037 524.793 312.095L520.795 312.2Z" fill="white"/>
<path d="M248.851 283.465C246.643 283.524 244.805 281.781 244.747 279.572C244.689 277.364 246.432 275.526 248.64 275.468L252.639 275.363C254.847 275.305 256.685 277.048 256.743 279.256C256.801 281.464 255.058 283.302 252.85 283.36L248.851 283.465Z" fill="white"/>
<path d="M775.851 310.625C773.643 310.684 771.805 308.94 771.747 306.732C771.689 304.524 773.432 302.686 775.64 302.628L779.639 302.523C781.847 302.464 783.685 304.208 783.743 306.416C783.801 308.624 782.058 310.462 779.85 310.52L775.851 310.625Z" fill="white"/>
<path d="M869.851 365.625C867.643 365.684 865.805 363.94 865.747 361.732C865.689 359.524 867.432 357.686 869.64 357.628L873.639 357.523C875.847 357.464 877.685 359.208 877.743 361.416C877.801 363.624 876.058 365.462 873.85 365.52L869.851 365.625Z" fill="white"/>
<path d="M434.527 345.625C432.319 345.684 430.482 343.94 430.423 341.732C430.365 339.524 432.108 337.686 434.317 337.628L438.315 337.523C440.524 337.464 442.361 339.208 442.419 341.416C442.477 343.624 440.734 345.462 438.526 345.52L434.527 345.625Z" fill="white"/>
<path d="M134.749 318C136.958 318 138.749 319.791 138.749 322C138.749 324.209 136.958 326 134.749 326H130.749C128.54 326 126.749 324.209 126.749 322C126.749 319.791 128.54 318 130.749 318H134.749Z" fill="white"/>
<path d="M647.988 317.851C645.78 317.909 643.942 316.166 643.884 313.958C643.826 311.749 645.569 309.912 647.777 309.854L651.776 309.748C653.984 309.69 655.822 311.433 655.88 313.641C655.938 315.85 654.195 317.687 651.986 317.746L647.988 317.851Z" fill="white"/>
<path d="M903.045 316.276C900.836 316.334 898.999 314.591 898.941 312.383C898.882 310.174 900.625 308.337 902.834 308.279L906.832 308.173C909.041 308.115 910.878 309.858 910.936 312.066C910.995 314.275 909.252 316.112 907.043 316.17L903.045 316.276Z" fill="white"/>
<path d="M467.721 296.276C465.512 296.334 463.675 294.591 463.617 292.383C463.559 290.174 465.302 288.337 467.51 288.279L471.509 288.173C473.717 288.115 475.554 289.858 475.613 292.066C475.671 294.275 473.928 296.112 471.719 296.17L467.721 296.276Z" fill="white"/>
<path d="M997.045 371.276C994.836 371.334 992.999 369.591 992.941 367.383C992.882 365.174 994.625 363.337 996.834 363.279L1000.83 363.173C1003.04 363.115 1004.88 364.858 1004.94 367.066C1004.99 369.275 1003.25 371.112 1001.04 371.17L997.045 371.276Z" fill="white"/>
<path d="M166.749 333C168.958 333 170.749 334.791 170.749 337C170.749 339.209 168.958 341 166.749 341H162.749C160.54 341 158.749 339.209 158.749 337C158.749 334.791 160.54 333 162.749 333H166.749Z" fill="white"/>
<path d="M615.604 303.699C613.395 303.758 611.558 302.015 611.5 299.806C611.441 297.598 613.184 295.76 615.393 295.702L619.391 295.597C621.6 295.539 623.437 297.282 623.495 299.49C623.554 301.698 621.811 303.536 619.602 303.594L615.604 303.699Z" fill="white"/>
<path d="M661.959 271.208C659.75 271.266 657.913 269.523 657.855 267.315C657.796 265.106 659.539 263.269 661.748 263.211L665.746 263.105C667.955 263.047 669.792 264.79 669.85 266.999C669.909 269.207 668.166 271.044 665.957 271.103L661.959 271.208Z" fill="white"/>
<path d="M870.66 302.124C868.452 302.182 866.614 300.439 866.556 298.231C866.498 296.023 868.241 294.185 870.449 294.127L874.448 294.022C876.656 293.963 878.494 295.706 878.552 297.915C878.61 300.123 876.867 301.961 874.659 302.019L870.66 302.124Z" fill="white"/>
<path d="M694.959 348.208C692.75 348.266 690.913 346.523 690.855 344.315C690.796 342.106 692.539 340.269 694.748 340.211L698.746 340.105C700.955 340.047 702.792 341.79 702.85 343.999C702.909 346.207 701.166 348.044 698.957 348.103L694.959 348.208Z" fill="white"/>
<path d="M964.66 357.124C962.452 357.182 960.614 355.439 960.556 353.231C960.498 351.023 962.241 349.185 964.449 349.127L968.448 349.022C970.656 348.963 972.494 350.706 972.552 352.915C972.61 355.123 970.867 356.961 968.659 357.019L964.66 357.124Z" fill="white"/>
<path d="M90.7491 315C92.9583 315 94.7491 316.791 94.7491 319C94.7491 321.209 92.9583 323 90.7491 323H83.7491C81.54 323 79.7491 321.209 79.7491 319C79.7491 316.791 81.54 315 83.7491 315H90.7491Z" fill="#F65936"/>
<path d="M692.052 319.691C689.843 319.749 688.006 318.006 687.948 315.797C687.889 313.589 689.633 311.751 691.841 311.693L698.838 311.509C701.047 311.451 702.884 313.194 702.942 315.402C703.001 317.61 701.258 319.448 699.049 319.506L692.052 319.691Z" fill="#F65936"/>
<path d="M947.108 318.115C944.9 318.174 943.063 316.431 943.004 314.222C942.946 312.014 944.689 310.176 946.898 310.118L953.895 309.934C956.103 309.876 957.941 311.619 957.999 313.827C958.057 316.035 956.314 317.873 954.106 317.931L947.108 318.115Z" fill="#F65936"/>
<path d="M511.785 298.115C509.576 298.174 507.739 296.431 507.681 294.222C507.622 292.014 509.365 290.176 511.574 290.118L518.571 289.934C520.78 289.876 522.617 291.619 522.675 293.827C522.734 296.035 520.991 297.873 518.782 297.931L511.785 298.115Z" fill="#F65936"/>
<path d="M1041.11 373.115C1038.9 373.174 1037.06 371.431 1037 369.222C1036.95 367.014 1038.69 365.176 1040.9 365.118L1047.9 364.934C1050.1 364.876 1051.94 366.619 1052 368.827C1052.06 371.035 1050.31 372.873 1048.11 372.931L1041.11 373.115Z" fill="#F65936"/>
<path d="M119.749 305C121.958 305 123.749 306.791 123.749 309C123.749 311.209 121.958 313 119.749 313H116.749C114.54 313 112.749 311.209 112.749 309C112.749 306.791 114.54 305 116.749 305H119.749Z" fill="#FDB137"/>
<path d="M663.325 330.451C661.117 330.509 659.279 328.766 659.221 326.558C659.163 324.35 660.906 322.512 663.114 322.454L666.113 322.375C668.322 322.317 670.159 324.06 670.217 326.268C670.276 328.477 668.533 330.314 666.324 330.372L663.325 330.451Z" fill="#FDB137"/>
<path d="M918.382 328.876C916.173 328.934 914.336 327.191 914.278 324.983C914.22 322.775 915.963 320.937 918.171 320.879L921.17 320.8C923.378 320.742 925.216 322.485 925.274 324.693C925.332 326.901 923.589 328.739 921.381 328.797L918.382 328.876Z" fill="#FDB137"/>
<path d="M483.058 308.876C480.85 308.934 479.012 307.191 478.954 304.983C478.896 302.775 480.639 300.937 482.847 300.879L485.846 300.8C488.055 300.742 489.892 302.485 489.95 304.693C490.008 306.901 488.265 308.739 486.057 308.797L483.058 308.876Z" fill="#FDB137"/>
<path d="M1012.38 383.876C1010.17 383.934 1008.34 382.191 1008.28 379.983C1008.22 377.775 1009.96 375.937 1012.17 375.879L1015.17 375.8C1017.38 375.742 1019.22 377.485 1019.27 379.693C1019.33 381.901 1017.59 383.739 1015.38 383.797L1012.38 383.876Z" fill="#FDB137"/>
<path d="M240.749 318C242.958 318 244.749 319.791 244.749 322C244.749 324.209 242.958 326 240.749 326H235.749C233.54 326 231.749 324.209 231.749 322C231.749 319.791 233.54 318 235.749 318H240.749Z" fill="#FDB137"/>
<path d="M542.025 320.644C539.816 320.702 537.979 318.959 537.921 316.751C537.862 314.542 539.605 312.705 541.814 312.647L546.812 312.515C549.02 312.457 550.858 314.2 550.916 316.408C550.974 318.617 549.231 320.454 547.023 320.512L542.025 320.644Z" fill="#FDB137"/>
<path d="M270.081 291.909C267.873 291.967 266.035 290.224 265.977 288.016C265.919 285.807 267.662 283.97 269.87 283.912L274.869 283.78C277.077 283.722 278.915 285.465 278.973 287.673C279.031 289.882 277.288 291.719 275.08 291.777L270.081 291.909Z" fill="#FDB137"/>
<path d="M797.081 319.069C794.873 319.127 793.035 317.384 792.977 315.176C792.919 312.967 794.662 311.13 796.87 311.072L801.869 310.94C804.077 310.882 805.915 312.625 805.973 314.833C806.031 317.042 804.288 318.879 802.08 318.937L797.081 319.069Z" fill="#FDB137"/>
<path d="M891.081 374.069C888.873 374.127 887.035 372.384 886.977 370.176C886.919 367.967 888.662 366.13 890.87 366.072L895.869 365.94C898.077 365.882 899.915 367.625 899.973 369.833C900.031 372.042 898.288 373.879 896.08 373.937L891.081 374.069Z" fill="#FDB137"/>
<path d="M455.758 354.069C453.549 354.127 451.712 352.384 451.654 350.176C451.595 347.967 453.338 346.13 455.547 346.072L460.545 345.94C462.753 345.882 464.591 347.625 464.649 349.833C464.707 352.042 462.964 353.879 460.756 353.937L455.758 354.069Z" fill="#FDB137"/>
<path d="M119.749 338C121.958 338 123.749 339.791 123.749 342C123.749 344.209 121.958 346 119.749 346H112.749C110.54 346 108.749 344.209 108.749 342C108.749 339.791 110.54 338 112.749 338H119.749Z" fill="white"/>
<path d="M662.455 297.463C660.247 297.521 658.41 295.778 658.351 293.569C658.293 291.361 660.036 289.524 662.245 289.465L669.242 289.281C671.451 289.223 673.288 290.966 673.346 293.174C673.404 295.383 671.661 297.22 669.453 297.278L662.455 297.463Z" fill="white"/>
<path d="M917.512 295.888C915.304 295.946 913.466 294.203 913.408 291.994C913.35 289.786 915.093 287.949 917.301 287.89L924.299 287.706C926.507 287.648 928.345 289.391 928.403 291.599C928.461 293.807 926.718 295.645 924.51 295.703L917.512 295.888Z" fill="white"/>
<path d="M815.959 367.287C813.75 367.345 811.913 365.602 811.855 363.394C811.796 361.185 813.539 359.348 815.748 359.29L822.745 359.105C824.954 359.047 826.791 360.79 826.849 362.999C826.908 365.207 825.165 367.044 822.956 367.103L815.959 367.287Z" fill="white"/>
<path d="M1011.51 350.888C1009.3 350.946 1007.47 349.203 1007.41 346.994C1007.35 344.786 1009.09 342.949 1011.3 342.89L1018.3 342.706C1020.51 342.648 1022.34 344.391 1022.4 346.599C1022.46 348.807 1020.72 350.645 1018.51 350.703L1011.51 350.888Z" fill="white"/>
<path d="M216.749 348C218.958 348 220.749 349.791 220.749 352C220.749 354.209 218.958 356 216.749 356H209.749C207.54 356 205.749 354.209 205.749 352C205.749 349.791 207.54 348 209.749 348H216.749Z" fill="#F65936"/>
<path d="M565.226 290.022C563.017 290.08 561.18 288.337 561.122 286.129C561.064 283.92 562.807 282.083 565.015 282.025L572.013 281.84C574.221 281.782 576.058 283.525 576.117 285.734C576.175 287.942 574.432 289.779 572.223 289.838L565.226 290.022Z" fill="#F65936"/>
<path d="M296.959 344.287C294.75 344.345 292.913 342.602 292.855 340.394C292.796 338.185 294.539 336.348 296.748 336.29L303.745 336.105C305.954 336.047 307.791 337.79 307.849 339.999C307.908 342.207 306.164 344.044 303.956 344.103L296.959 344.287Z" fill="#F65936"/>
<path d="M820.282 288.447C818.074 288.505 816.237 286.762 816.178 284.554C816.12 282.345 817.863 280.508 820.072 280.45L827.069 280.265C829.278 280.207 831.115 281.95 831.173 284.158C831.231 286.367 829.488 288.204 827.28 288.262L820.282 288.447Z" fill="#F65936"/>
<path d="M323.959 346.287C321.75 346.345 319.913 344.602 319.855 342.394C319.796 340.185 321.539 338.348 323.748 338.29L330.745 338.105C332.954 338.047 334.791 339.79 334.849 341.999C334.908 344.207 333.164 346.044 330.956 346.103L323.959 346.287Z" fill="#F65936"/>
<path d="M914.282 343.447C912.074 343.505 910.237 341.762 910.178 339.554C910.12 337.345 911.863 335.508 914.072 335.45L921.069 335.265C923.278 335.207 925.115 336.95 925.173 339.158C925.231 341.367 923.488 343.204 921.28 343.262L914.282 343.447Z" fill="#F65936"/>
<path d="M478.959 323.447C476.75 323.505 474.913 321.762 474.855 319.554C474.796 317.345 476.539 315.508 478.748 315.45L485.745 315.265C487.954 315.207 489.791 316.95 489.849 319.158C489.908 321.367 488.165 323.204 485.956 323.262L478.959 323.447Z" fill="#F65936"/>
<path d="M16.7491 300C19.5106 300 21.7491 302.239 21.7491 305C21.7491 307.761 19.5106 310 16.7491 310H11.7491C8.98772 310 6.74915 307.761 6.74915 305C6.74915 302.239 8.98772 300 11.7491 300H16.7491Z" fill="#F65936"/>
<path d="M766.421 332.735C763.66 332.808 761.364 330.629 761.291 327.869C761.218 325.108 763.397 322.812 766.157 322.739L771.156 322.607C773.916 322.534 776.213 324.713 776.286 327.474C776.358 330.234 774.18 332.531 771.419 332.604L766.421 332.735Z" fill="#F65936"/>
<path d="M1021.48 331.16C1018.72 331.233 1016.42 329.054 1016.35 326.294C1016.27 323.533 1018.45 321.237 1021.21 321.164L1026.21 321.032C1028.97 320.959 1031.27 323.138 1031.34 325.899C1031.42 328.659 1029.24 330.956 1026.48 331.029L1021.48 331.16Z" fill="#F65936"/>
<path d="M1115.48 386.16C1112.72 386.233 1110.42 384.054 1110.35 381.294C1110.27 378.533 1112.45 376.237 1115.21 376.164L1120.21 376.032C1122.97 375.959 1125.27 378.138 1125.34 380.899C1125.42 383.659 1123.24 385.956 1120.48 386.029L1115.48 386.16Z" fill="#F65936"/>
<path d="M1123.19 618.362L1124.03 630.332L275.749 690L274.907 678.03L1123.19 618.362Z" fill="#565D65"/>
<path d="M79.7477 752.793L64.7491 753L62.7491 608L77.7477 607.793L79.7477 752.793Z" fill="white"/>
<path d="M148.748 752.793L133.749 753L131.749 608L146.748 607.793L148.748 752.793Z" fill="white"/>
<path d="M278.748 752.793L263.749 753L261.749 608L276.748 607.793L278.748 752.793Z" fill="white"/>
<path d="M339.748 752.793L324.749 753L322.749 608L337.748 607.793L339.748 752.793Z" fill="white"/>
<path d="M400.743 752.586L385.749 753L381.749 608L396.743 607.586L400.743 752.586Z" fill="white"/>
<path d="M461.747 752.756L446.749 753L444.749 582L459.747 581.756L461.747 752.756Z" fill="white"/>
<path d="M522.747 752.756L507.749 753L505.749 582L520.747 581.756L522.747 752.756Z" fill="white"/>
<path d="M583.747 752.756L568.749 753L566.749 582L581.747 581.756L583.747 752.756Z" fill="white"/>
<path d="M644.747 752.756L629.749 753L627.749 582L642.747 581.756L644.747 752.756Z" fill="white"/>
<path d="M705.747 752.756L690.749 753L688.749 582L703.747 581.756L705.747 752.756Z" fill="white"/>
<path d="M766.747 752.756L751.749 753L749.749 582L764.747 581.756L766.747 752.756Z" fill="white"/>
<path d="M827.747 752.756L812.749 753L810.749 582L825.747 581.756L827.747 752.756Z" fill="white"/>
<path d="M888.747 752.756L873.749 753L871.749 582L886.747 581.756L888.747 752.756Z" fill="white"/>
<path d="M949.747 752.756L934.749 753L932.749 582L947.747 581.756L949.747 752.756Z" fill="white"/>
<path d="M1010.74 752.562L995.749 753L990.749 582L1005.74 581.562L1010.74 752.562Z" fill="white"/>
<path d="M1071.74 752.519L1056.75 753L1050.75 566L1065.74 565.519L1071.74 752.519Z" fill="white"/>
<path d="M1125 753L1113.75 753.12L1111.75 566L1123 565.88L1125 753Z" fill="white"/>
<path d="M217.748 752.793L202.749 753L200.749 608L215.748 607.793L217.748 752.793Z" fill="white"/>
<path d="M1124.87 532.001L1124.75 537L4.74913 510L4.86963 505.001L1124.87 532.001Z" fill="#685940"/>
<path d="M1126.82 548L1126.75 553L3.7492 537L3.82043 532L1126.82 548Z" fill="#555C62"/>
<path d="M1128.06 578.016L1128.75 593L2.68684 644.615L2 629.631L1128.06 578.016Z" fill="#161817" fill-opacity="0.46"/>
<path d="M1126.83 564.001L1126.75 569L79.2488 553.038C77.8683 553.017 76.7662 551.881 76.7872 550.5C76.8083 549.12 77.9445 548.018 79.325 548.039L1126.83 564.001Z" fill="#6C4538"/>
<path d="M509.749 591L502.749 439H537.249L543.749 591H509.749Z" fill="#BBBBBB"/>
<path d="M543.749 592L537.749 448H526.749L533.249 592H543.749Z" fill="#DCDEDD"/>
<path d="M537.249 440L537.749 447.875H526.749L504.249 470L502.749 440H537.249Z" fill="#8B8B8B"/>
<path d="M557.749 592L550.749 440H585.249L591.749 592H557.749Z" fill="#BBBBBB"/>
<path d="M591.749 593L585.749 449H574.749L581.249 593H591.749Z" fill="#DCDEDD"/>
<path d="M585.249 441L585.749 448.875H574.749L552.249 471L550.749 441H585.249Z" fill="#8B8B8B"/>
<path d="M874.895 572L868.749 448H899.042L904.749 572H874.895Z" fill="#BBBBBB"/>
<path d="M909.749 566L903.749 448H892.749L899.249 566H909.749Z" fill="#DCDEDD"/>
<path d="M899.306 449L899.749 455.3H890.006L870.078 473L868.749 449H899.306Z" fill="#8B8B8B"/>
<path d="M4.74915 427V380L1126.75 427V454L4.74915 427Z" fill="#646A6E"/>
<path d="M1126.4 448.002L1126.26 454L3.74915 427L3.88928 421.002L1126.4 448.002Z" fill="#D5D6D8"/>
<path d="M1126.59 431.006L1126.26 440L263.926 407L264.261 398.006L1126.59 431.006Z" fill="#D5D6D8"/>
<path d="M225.853 394.501C228.338 394.559 230.305 396.62 230.248 399.104C230.19 401.589 228.129 403.556 225.645 403.499L5.14621 398.395L5.35449 389.397L225.853 394.501Z" fill="#EDEFEE"/>
<path d="M1125 557L4 587.71V630L1125 579.152V557Z" fill="#DCDCDA"/>
<path d="M4 608V588.819L1125 555V563.581L4 608Z" fill="#F7F7F7"/>
</svg>
