<svg width="1127" height="753" viewBox="0 0 1127 753" fill="none" xmlns="http://www.w3.org/2000/svg">
<g clip-path="url(#clip0_42_107)">
<path d="M1.74915 0H1124.75V749H1.74915V0Z" fill="#212227"/>
<path d="M0.249146 752.5V536.5L1126.75 552V752.5H0.249146Z" fill="#161817"/>
<path d="M254.749 484L0.749146 490.938V582L254.749 575.062V484Z" fill="#17140F"/>
<path d="M31.2072 517.448H0.749146V546.759H31.2072V517.448Z" fill="#E7E7DD"/>
<path d="M57.314 517.448H38.169V561.414H57.314V517.448Z" fill="#E7E7DD"/>
<path d="M66.8866 517.448H72.1079V561.414H66.8866V517.448Z" fill="#E7E7DD"/>
<path d="M88.6423 517.448H80.8102V564H88.6423V517.448Z" fill="#E7E7DD"/>
<path d="M95.6041 520.897V517.448H141.726V544.172H105.177V520.897H95.6041Z" fill="#E7E7DD"/>
<path d="M196.551 514H169.574V540.724H196.551V514Z" fill="#E7E7DD"/>
<path d="M228.749 514H211.345V558.828H228.749V514Z" fill="#E7E7DD"/>
<path d="M1123.25 450L1.74915 437.5V249L60.7491 225.5L85.2491 232.5L117.249 225.5L183.749 240H197.249L211.249 249H248.749L292.249 265.5H321.749L370.249 306L486.749 260L525.249 240L554.749 249L585.249 240L604.249 232.5H624.249L648.749 225.5L667.749 220L689.249 225.5L715.749 214L776.249 220L827.249 234.5L878.249 249L932.749 225.5H961.749L984.249 214H1062.25L1123.25 240V450Z" fill="#161817"/>
<path d="M265.749 325C267.406 325 268.749 326.343 268.749 328C268.749 329.657 267.406 331 265.749 331H262.749C261.092 331 259.749 329.657 259.749 328C259.749 326.343 261.092 325 262.749 325H265.749Z" fill="#F65936"/>
<path d="M240.906 285.623C239.25 285.667 237.872 284.359 237.828 282.703C237.784 281.047 239.092 279.669 240.748 279.625L243.747 279.546C245.403 279.502 246.781 280.81 246.825 282.466C246.869 284.122 245.561 285.5 243.905 285.544L240.906 285.623Z" fill="#F65936"/>
<path d="M512.849 314.358C511.193 314.401 509.815 313.094 509.771 311.438C509.728 309.782 511.035 308.404 512.691 308.36L515.69 308.281C517.347 308.237 518.725 309.544 518.768 311.201C518.812 312.857 517.505 314.235 515.848 314.279L512.849 314.358Z" fill="#F65936"/>
<path d="M767.906 312.783C766.25 312.826 764.872 311.519 764.828 309.863C764.784 308.207 766.092 306.828 767.748 306.785L770.747 306.706C772.403 306.662 773.781 307.969 773.825 309.626C773.869 311.282 772.561 312.66 770.905 312.704L767.906 312.783Z" fill="#F65936"/>
<path d="M861.906 367.783C860.25 367.826 858.872 366.519 858.828 364.863C858.784 363.207 860.092 361.828 861.748 361.785L864.747 361.706C866.403 361.662 867.781 362.969 867.825 364.626C867.869 366.282 866.561 367.66 864.905 367.704L861.906 367.783Z" fill="#F65936"/>
<path d="M426.582 347.783C424.926 347.826 423.548 346.519 423.504 344.863C423.461 343.207 424.768 341.828 426.424 341.785L429.423 341.706C431.08 341.662 432.458 342.969 432.501 344.626C432.545 346.282 431.238 347.66 429.581 347.704L426.582 347.783Z" fill="#F65936"/>
<path d="M43.7491 323C46.5106 323 48.7491 325.239 48.7491 328C48.7491 330.761 46.5106 333 43.7491 333H34.7491C31.9877 333 29.7491 330.761 29.7491 328C29.7491 325.239 31.9877 323 34.7491 323H43.7491Z" fill="#FDB137"/>
<path d="M734.825 310.508C732.065 310.58 729.768 308.402 729.695 305.641C729.622 302.881 731.801 300.584 734.562 300.511L743.558 300.274C746.319 300.201 748.616 302.38 748.688 305.14C748.761 307.901 746.582 310.198 743.822 310.27L734.825 310.508Z" fill="#FDB137"/>
<path d="M989.882 308.932C987.121 309.005 984.825 306.826 984.752 304.066C984.679 301.306 986.858 299.009 989.618 298.936L998.615 298.699C1001.38 298.626 1003.67 300.805 1003.75 303.565C1003.82 306.326 1001.64 308.623 998.879 308.695L989.882 308.932Z" fill="#FDB137"/>
<path d="M1083.88 363.932C1081.12 364.005 1078.82 361.826 1078.75 359.066C1078.68 356.306 1080.86 354.009 1083.62 353.936L1092.62 353.699C1095.38 353.626 1097.67 355.805 1097.75 358.565C1097.82 361.326 1095.64 363.623 1092.88 363.695L1083.88 363.932Z" fill="#FDB137"/>
<path d="M97.7491 352C100.511 352 102.749 354.239 102.749 357C102.749 359.761 100.511 362 97.7491 362H88.7491C85.9877 362 83.7491 359.761 83.7491 357C83.7491 354.239 85.9877 352 88.7491 352H97.7491Z" fill="white"/>
<path d="M680.08 282.94C677.319 283.013 675.022 280.834 674.95 278.074C674.877 275.313 677.056 273.017 679.816 272.944L688.813 272.707C691.574 272.634 693.87 274.813 693.943 277.573C694.016 280.334 691.837 282.631 689.077 282.703L680.08 282.94Z" fill="white"/>
<path d="M935.136 281.365C932.376 281.438 930.079 279.259 930.006 276.499C929.934 273.738 932.112 271.442 934.873 271.369L943.87 271.132C946.63 271.059 948.927 273.238 949 275.998C949.073 278.759 946.894 281.056 944.133 281.128L935.136 281.365Z" fill="white"/>
<path d="M659.011 359.365C656.25 359.438 653.954 357.259 653.881 354.499C653.808 351.738 655.987 349.442 658.747 349.369L667.744 349.132C670.505 349.059 672.801 351.238 672.874 353.998C672.947 356.759 670.768 359.056 668.008 359.128L659.011 359.365Z" fill="white"/>
<path d="M1029.14 336.365C1026.38 336.438 1024.08 334.259 1024.01 331.499C1023.93 328.738 1026.11 326.442 1028.87 326.369L1037.87 326.132C1040.63 326.059 1042.93 328.238 1043 330.998C1043.07 333.759 1040.89 336.056 1038.13 336.128L1029.14 336.365Z" fill="white"/>
<path d="M738.749 253C741.511 253 743.749 255.239 743.749 258C743.749 260.761 741.511 263 738.749 263H729.749C726.988 263 724.749 260.761 724.749 258C724.749 255.239 726.988 253 729.749 253H738.749Z" fill="white"/>
<path d="M17.7491 342C20.5106 342 22.7491 344.239 22.7491 347C22.7491 349.761 20.5106 352 17.7491 352H8.74915C5.98772 352 3.74915 349.761 3.74915 347C3.74915 344.239 5.98772 342 8.74915 342H17.7491Z" fill="white"/>
<path d="M760.316 290.829C757.555 290.902 755.258 288.723 755.186 285.963C755.113 283.202 757.292 280.905 760.052 280.833L769.049 280.595C771.809 280.523 774.106 282.701 774.179 285.462C774.252 288.222 772.073 290.519 769.312 290.592L760.316 290.829Z" fill="white"/>
<path d="M1015.37 289.254C1012.61 289.327 1010.32 287.148 1010.24 284.388C1010.17 281.627 1012.35 279.33 1015.11 279.257L1024.11 279.02C1026.87 278.948 1029.16 281.126 1029.24 283.887C1029.31 286.647 1027.13 288.944 1024.37 289.017L1015.37 289.254Z" fill="white"/>
<path d="M1109.37 344.254C1106.61 344.327 1104.32 342.148 1104.24 339.388C1104.17 336.627 1106.35 334.33 1109.11 334.257L1118.11 334.02C1120.87 333.948 1123.16 336.126 1123.24 338.887C1123.31 341.647 1121.13 343.944 1118.37 344.017L1109.37 344.254Z" fill="white"/>
<path d="M63.7491 341C65.406 341 66.7491 342.343 66.7491 344C66.7491 345.657 65.406 347 63.7491 347H60.7491C59.0923 347 57.7491 345.657 57.7491 344C57.7491 342.343 59.0923 341 60.7491 341H63.7491Z" fill="white"/>
<path d="M714.358 293.041C712.702 293.084 711.323 291.777 711.28 290.121C711.236 288.465 712.543 287.087 714.2 287.043L717.199 286.964C718.855 286.92 720.233 288.227 720.277 289.884C720.32 291.54 719.013 292.918 717.357 292.962L714.358 293.041Z" fill="white"/>
<path d="M969.414 291.466C967.758 291.509 966.38 290.202 966.336 288.546C966.293 286.89 967.6 285.511 969.256 285.468L972.255 285.389C973.912 285.345 975.29 286.652 975.333 288.309C975.377 289.965 974.07 291.343 972.413 291.387L969.414 291.466Z" fill="white"/>
<path d="M1063.41 346.466C1061.76 346.509 1060.38 345.202 1060.34 343.546C1060.29 341.89 1061.6 340.511 1063.26 340.468L1066.26 340.389C1067.91 340.345 1069.29 341.652 1069.33 343.309C1069.38 344.965 1068.07 346.343 1066.41 346.387L1063.41 346.466Z" fill="white"/>
<path d="M169.749 286C171.406 286 172.749 287.343 172.749 289C172.749 290.657 171.406 292 169.749 292H159.749C158.092 292 156.749 290.657 156.749 289C156.749 287.343 158.092 286 159.749 286H169.749Z" fill="white"/>
<path d="M609.844 350.815C608.187 350.858 606.809 349.551 606.766 347.895C606.722 346.239 608.029 344.86 609.686 344.817L619.682 344.553C621.338 344.51 622.716 345.817 622.76 347.473C622.804 349.129 621.496 350.508 619.84 350.551L609.844 350.815Z" fill="white"/>
<path d="M337.9 322.08C336.244 322.123 334.866 320.816 334.822 319.16C334.779 317.504 336.086 316.126 337.742 316.082L347.739 315.818C349.395 315.775 350.773 317.082 350.817 318.738C350.86 320.395 349.553 321.773 347.897 321.816L337.9 322.08Z" fill="white"/>
<path d="M864.9 349.24C863.244 349.283 861.866 347.976 861.822 346.32C861.779 344.663 863.086 343.285 864.742 343.242L874.739 342.978C876.395 342.935 877.773 344.242 877.817 345.898C877.86 347.554 876.553 348.932 874.897 348.976L864.9 349.24Z" fill="white"/>
<path d="M429.577 329.24C427.92 329.283 426.542 327.976 426.499 326.32C426.455 324.663 427.762 323.285 429.418 323.242L439.415 322.978C441.071 322.935 442.449 324.242 442.493 325.898C442.537 327.554 441.229 328.932 439.573 328.976L429.577 329.24Z" fill="white"/>
<path d="M958.9 404.24C957.244 404.283 955.866 402.976 955.822 401.32C955.779 399.663 957.086 398.285 958.742 398.242L968.739 397.978C970.395 397.935 971.773 399.242 971.817 400.898C971.86 402.554 970.553 403.932 968.897 403.976L958.9 404.24Z" fill="white"/>
<path d="M222.749 290C224.406 290 225.749 291.343 225.749 293C225.749 294.657 224.406 296 222.749 296H219.749C218.092 296 216.749 294.657 216.749 293C216.749 291.343 218.092 290 219.749 290H222.749Z" fill="#F65936"/>
<path d="M556.757 348.213C555.1 348.256 553.722 346.949 553.679 345.293C553.635 343.636 554.942 342.258 556.599 342.215L559.598 342.136C561.254 342.092 562.632 343.399 562.676 345.056C562.719 346.712 561.412 348.09 559.756 348.134L556.757 348.213Z" fill="#F65936"/>
<path d="M284.813 319.478C283.157 319.521 281.779 318.214 281.735 316.558C281.692 314.901 282.999 313.523 284.655 313.48L287.654 313.401C289.311 313.357 290.689 314.664 290.732 316.321C290.776 317.977 289.469 319.355 287.812 319.399L284.813 319.478Z" fill="#F65936"/>
<path d="M811.813 346.638C810.157 346.681 808.779 345.374 808.735 343.718C808.692 342.061 809.999 340.683 811.655 340.64L814.654 340.561C816.311 340.517 817.689 341.824 817.732 343.48C817.776 345.137 816.469 346.515 814.812 346.558L811.813 346.638Z" fill="#F65936"/>
<path d="M905.813 401.638C904.157 401.681 902.779 400.374 902.735 398.718C902.692 397.061 903.999 395.683 905.655 395.64L908.654 395.561C910.311 395.517 911.689 396.824 911.732 398.48C911.776 400.137 910.469 401.515 908.812 401.558L905.813 401.638Z" fill="#F65936"/>
<path d="M222.749 344C224.406 344 225.749 345.343 225.749 347C225.749 348.657 224.406 350 222.749 350H219.749C218.092 350 216.749 348.657 216.749 347C216.749 345.343 218.092 344 219.749 344H222.749Z" fill="white"/>
<path d="M555.334 294.231C553.678 294.275 552.3 292.968 552.256 291.311C552.212 289.655 553.519 288.277 555.176 288.233L558.175 288.154C559.831 288.111 561.209 289.418 561.253 291.074C561.296 292.731 559.989 294.109 558.333 294.152L555.334 294.231Z" fill="white"/>
<path d="M402.906 350.156C401.25 350.2 399.872 348.892 399.828 347.236C399.784 345.58 401.092 344.202 402.748 344.158L405.747 344.079C407.403 344.035 408.781 345.343 408.825 346.999C408.869 348.655 407.561 350.033 405.905 350.077L402.906 350.156Z" fill="white"/>
<path d="M810.391 292.656C808.734 292.7 807.356 291.393 807.313 289.736C807.269 288.08 808.576 286.702 810.232 286.658L813.231 286.579C814.888 286.536 816.266 287.843 816.309 289.499C816.353 291.156 815.046 292.534 813.389 292.577L810.391 292.656Z" fill="white"/>
<path d="M904.391 347.656C902.734 347.7 901.356 346.393 901.313 344.736C901.269 343.08 902.576 341.702 904.232 341.658L907.231 341.579C908.888 341.536 910.266 342.843 910.309 344.499C910.353 346.156 909.046 347.534 907.389 347.577L904.391 347.656Z" fill="white"/>
<path d="M469.067 327.656C467.411 327.7 466.032 326.393 465.989 324.736C465.945 323.08 467.252 321.702 468.909 321.658L471.908 321.579C473.564 321.536 474.942 322.843 474.986 324.499C475.029 326.156 473.722 327.534 472.066 327.577L469.067 327.656Z" fill="white"/>
<path d="M17.7491 277C19.406 277 20.7491 278.343 20.7491 280C20.7491 281.657 19.406 283 17.7491 283H14.7491C13.0923 283 11.7491 281.657 11.7491 280C11.7491 278.343 13.0923 277 14.7491 277H17.7491Z" fill="white"/>
<path d="M762.028 355.807C760.372 355.85 758.994 354.543 758.95 352.887C758.906 351.23 760.214 349.852 761.87 349.809L764.869 349.73C766.525 349.686 767.903 350.993 767.947 352.649C767.99 354.306 766.683 355.684 765.027 355.727L762.028 355.807Z" fill="white"/>
<path d="M1017.08 354.231C1015.43 354.275 1014.05 352.968 1014.01 351.312C1013.96 349.655 1015.27 348.277 1016.93 348.234L1019.93 348.154C1021.58 348.111 1022.96 349.418 1023 351.074C1023.05 352.731 1021.74 354.109 1020.08 354.152L1017.08 354.231Z" fill="white"/>
<path d="M1111.08 409.231C1109.43 409.275 1108.05 407.968 1108.01 406.312C1107.96 404.655 1109.27 403.277 1110.93 403.234L1113.93 403.154C1115.58 403.111 1116.96 404.418 1117 406.074C1117.05 407.731 1115.74 409.109 1114.08 409.152L1111.08 409.231Z" fill="white"/>
<path d="M165.749 317C166.854 317 167.749 317.895 167.749 319C167.749 320.105 166.854 321 165.749 321H160.749C159.645 321 158.749 320.105 158.749 319C158.749 317.895 159.645 317 160.749 317H165.749Z" fill="#FDB137"/>
<path d="M613.026 319.72C611.922 319.749 611.003 318.878 610.974 317.773C610.945 316.669 611.816 315.751 612.92 315.721L617.919 315.59C619.023 315.561 619.942 316.432 619.971 317.536C620 318.641 619.128 319.559 618.024 319.588L613.026 319.72Z" fill="#FDB137"/>
<path d="M327.854 306.183C326.75 306.212 325.831 305.341 325.802 304.236C325.773 303.132 326.644 302.214 327.748 302.184L332.747 302.053C333.851 302.024 334.77 302.895 334.799 303.999C334.828 305.103 333.956 306.022 332.852 306.051L327.854 306.183Z" fill="#FDB137"/>
<path d="M868.082 318.145C866.978 318.174 866.059 317.303 866.03 316.198C866.001 315.094 866.873 314.176 867.977 314.146L872.975 314.015C874.079 313.986 874.998 314.857 875.027 315.961C875.056 317.065 874.185 317.984 873.081 318.013L868.082 318.145Z" fill="#FDB137"/>
<path d="M432.759 298.145C431.654 298.174 430.736 297.303 430.707 296.198C430.678 295.094 431.549 294.176 432.653 294.146L437.652 294.015C438.756 293.986 439.674 294.857 439.704 295.961C439.733 297.065 438.861 297.984 437.757 298.013L432.759 298.145Z" fill="#FDB137"/>
<path d="M962.082 373.145C960.978 373.174 960.059 372.303 960.03 371.198C960.001 370.094 960.873 369.176 961.977 369.146L966.975 369.015C968.079 368.986 968.998 369.857 969.027 370.961C969.056 372.065 968.185 372.984 967.081 373.013L962.082 373.145Z" fill="#FDB137"/>
<path d="M177.749 298C178.854 298 179.749 298.895 179.749 300C179.749 301.105 178.854 302 177.749 302H174.749C173.645 302 172.749 301.105 172.749 300C172.749 298.895 173.645 298 174.749 298H177.749Z" fill="white"/>
<path d="M191.749 290C192.854 290 193.749 290.895 193.749 292C193.749 293.105 192.854 294 191.749 294H188.749C187.645 294 186.749 293.105 186.749 292C186.749 290.895 187.645 290 188.749 290H191.749Z" fill="#F65936"/>
<path d="M587.746 347.396C586.642 347.425 585.723 346.553 585.694 345.449C585.665 344.345 586.537 343.426 587.641 343.397L590.64 343.318C591.744 343.289 592.663 344.161 592.692 345.265C592.721 346.369 591.849 347.288 590.745 347.317L587.746 347.396Z" fill="#F65936"/>
<path d="M315.803 318.661C314.699 318.69 313.78 317.818 313.751 316.714C313.722 315.61 314.593 314.691 315.697 314.662L318.696 314.583C319.801 314.554 320.719 315.426 320.748 316.53C320.778 317.634 319.906 318.553 318.802 318.582L315.803 318.661Z" fill="#F65936"/>
<path d="M842.803 345.821C841.699 345.85 840.78 344.978 840.751 343.874C840.722 342.77 841.593 341.851 842.697 341.822L845.696 341.743C846.801 341.714 847.719 342.585 847.748 343.69C847.777 344.794 846.906 345.713 845.802 345.742L842.803 345.821Z" fill="#F65936"/>
<path d="M407.479 325.821C406.375 325.85 405.456 324.978 405.427 323.874C405.398 322.77 406.27 321.851 407.374 321.822L410.373 321.743C411.477 321.714 412.396 322.585 412.425 323.69C412.454 324.794 411.582 325.713 410.478 325.742L407.479 325.821Z" fill="#F65936"/>
<path d="M936.803 400.821C935.699 400.85 934.78 399.978 934.751 398.874C934.722 397.77 935.593 396.851 936.697 396.822L939.696 396.743C940.801 396.714 941.719 397.585 941.748 398.69C941.777 399.794 940.906 400.713 939.802 400.742L936.803 400.821Z" fill="#F65936"/>
<path d="M208.749 317C209.854 317 210.749 317.895 210.749 319C210.749 320.105 209.854 321 208.749 321H205.749C204.645 321 203.749 320.105 203.749 319C203.749 317.895 204.645 317 205.749 317H208.749Z" fill="white"/>
<path d="M570.041 320.853C568.936 320.882 568.018 320.011 567.989 318.907C567.96 317.802 568.831 316.884 569.935 316.855L572.934 316.775C574.038 316.746 574.957 317.618 574.986 318.722C575.015 319.826 574.144 320.745 573.04 320.774L570.041 320.853Z" fill="white"/>
<path d="M298.097 292.118C296.993 292.147 296.074 291.276 296.045 290.172C296.016 289.067 296.888 288.149 297.992 288.12L300.991 288.041C302.095 288.011 303.014 288.883 303.043 289.987C303.072 291.091 302.2 292.01 301.096 292.039L298.097 292.118Z" fill="white"/>
<path d="M825.097 319.278C823.993 319.307 823.074 318.436 823.045 317.331C823.016 316.227 823.888 315.309 824.992 315.279L827.991 315.2C829.095 315.171 830.014 316.043 830.043 317.147C830.072 318.251 829.2 319.17 828.096 319.199L825.097 319.278Z" fill="white"/>
<path d="M595.854 289.13C594.75 289.159 593.831 288.288 593.802 287.184C593.773 286.08 594.644 285.161 595.749 285.132L598.747 285.053C599.852 285.024 600.77 285.895 600.799 286.999C600.829 288.103 599.957 289.022 598.853 289.051L595.854 289.13Z" fill="white"/>
<path d="M919.097 374.278C917.993 374.307 917.074 373.436 917.045 372.331C917.016 371.227 917.888 370.309 918.992 370.279L921.991 370.2C923.095 370.171 924.014 371.043 924.043 372.147C924.072 373.251 923.2 374.17 922.096 374.199L919.097 374.278Z" fill="white"/>
<path d="M483.774 354.278C482.669 354.307 481.751 353.436 481.722 352.331C481.692 351.227 482.564 350.309 483.668 350.279L486.667 350.2C487.771 350.171 488.69 351.043 488.719 352.147C488.748 353.251 487.877 354.17 486.773 354.199L483.774 354.278Z" fill="white"/>
<path d="M140.749 293C142.406 293 143.749 294.343 143.749 296C143.749 297.657 142.406 299 140.749 299H139.749C138.092 299 136.749 297.657 136.749 296C136.749 294.343 138.092 293 139.749 293H140.749Z" fill="white"/>
<path d="M638.649 343.053C636.993 343.097 635.615 341.789 635.571 340.133C635.528 338.477 636.835 337.099 638.491 337.055L639.491 337.029C641.147 336.985 642.525 338.292 642.569 339.949C642.613 341.605 641.305 342.983 639.649 343.027L638.649 343.053Z" fill="white"/>
<path d="M375.906 332.103C374.25 332.147 372.872 330.84 372.828 329.183C372.785 327.527 374.092 326.149 375.748 326.105L376.748 326.079C378.404 326.035 379.782 327.343 379.826 328.999C379.869 330.655 378.562 332.033 376.906 332.077L375.906 332.103Z" fill="white"/>
<path d="M893.706 341.478C892.05 341.522 890.672 340.214 890.628 338.558C890.584 336.902 891.892 335.524 893.548 335.48L894.548 335.454C896.204 335.41 897.582 336.717 897.626 338.374C897.669 340.03 896.362 341.408 894.706 341.452L893.706 341.478Z" fill="white"/>
<path d="M458.382 321.478C456.726 321.522 455.348 320.214 455.304 318.558C455.261 316.902 456.568 315.524 458.224 315.48L459.224 315.454C460.88 315.41 462.258 316.717 462.302 318.374C462.345 320.03 461.038 321.408 459.382 321.452L458.382 321.478Z" fill="white"/>
<path d="M987.706 396.478C986.05 396.522 984.672 395.214 984.628 393.558C984.584 391.902 985.892 390.524 987.548 390.48L988.548 390.454C990.204 390.41 991.582 391.717 991.626 393.374C991.669 395.03 990.362 396.408 988.706 396.452L987.706 396.478Z" fill="white"/>
<path d="M35.7491 284C37.406 284 38.7491 285.343 38.7491 287C38.7491 288.657 37.406 290 35.7491 290H34.7491C33.0923 290 31.7491 288.657 31.7491 287C31.7491 285.343 33.0923 284 34.7491 284H35.7491Z" fill="#FDB137"/>
<path d="M743.85 349.283C742.194 349.327 740.816 348.02 740.772 346.363C740.728 344.707 742.036 343.329 743.692 343.285L744.692 343.259C746.348 343.215 747.726 344.523 747.77 346.179C747.813 347.835 746.506 349.213 744.85 349.257L743.85 349.283Z" fill="#FDB137"/>
<path d="M998.907 347.708C997.25 347.752 995.872 346.445 995.829 344.788C995.785 343.132 997.092 341.754 998.749 341.71L999.748 341.684C1001.4 341.64 1002.78 342.948 1002.83 344.604C1002.87 346.26 1001.56 347.638 999.906 347.682L998.907 347.708Z" fill="#FDB137"/>
<path d="M1092.91 402.708C1091.25 402.752 1089.87 401.445 1089.83 399.788C1089.78 398.132 1091.09 396.754 1092.75 396.71L1093.75 396.684C1095.4 396.64 1096.78 397.948 1096.83 399.604C1096.87 401.26 1095.56 402.638 1093.91 402.682L1092.91 402.708Z" fill="#FDB137"/>
<path d="M58.7491 296C61.5106 296 63.7491 298.239 63.7491 301C63.7491 303.761 61.5106 306 58.7491 306H53.7491C50.9877 306 48.7491 303.761 48.7491 301C48.7491 298.239 50.9877 296 53.7491 296H58.7491Z" fill="#FDB137"/>
<path d="M720.542 337.893C717.781 337.966 715.484 335.787 715.412 333.027C715.339 330.266 717.518 327.97 720.278 327.897L725.276 327.765C728.037 327.692 730.334 329.871 730.406 332.632C730.479 335.392 728.3 337.689 725.54 337.762L720.542 337.893Z" fill="#FDB137"/>
<path d="M975.598 336.318C972.838 336.391 970.541 334.212 970.468 331.452C970.396 328.691 972.574 326.395 975.335 326.322L980.333 326.19C983.094 326.117 985.39 328.296 985.463 331.057C985.536 333.817 983.357 336.114 980.597 336.187L975.598 336.318Z" fill="#FDB137"/>
<path d="M1069.6 391.318C1066.84 391.391 1064.54 389.212 1064.47 386.452C1064.4 383.691 1066.57 381.395 1069.33 381.322L1074.33 381.19C1077.09 381.117 1079.39 383.296 1079.46 386.057C1079.54 388.817 1077.36 391.114 1074.6 391.187L1069.6 391.318Z" fill="#FDB137"/>
<path d="M179.749 323C181.958 323 183.749 324.791 183.749 327C183.749 329.209 181.958 331 179.749 331H175.749C173.54 331 171.749 329.209 171.749 327C171.749 324.791 173.54 323 175.749 323H179.749Z" fill="#F65936"/>
<path d="M598.872 314.091C596.664 314.149 594.826 312.406 594.768 310.198C594.71 307.989 596.453 306.152 598.661 306.094L602.66 305.988C604.868 305.93 606.706 307.673 606.764 309.882C606.822 312.09 605.079 313.927 602.871 313.986L598.872 314.091Z" fill="#F65936"/>
<path d="M639.959 290.208C637.75 290.266 635.913 288.523 635.855 286.315C635.796 284.106 637.539 282.269 639.748 282.211L643.746 282.105C645.955 282.047 647.792 283.79 647.85 285.999C647.909 288.207 646.166 290.044 643.957 290.103L639.959 290.208Z" fill="#F65936"/>
<path d="M853.929 312.516C851.72 312.574 849.883 310.831 849.825 308.623C849.767 306.414 851.51 304.577 853.718 304.519L857.717 304.413C859.925 304.355 861.762 306.098 861.821 308.307C861.879 310.515 860.136 312.352 857.927 312.411L853.929 312.516Z" fill="#F65936"/>
<path d="M416.959 316.208C414.75 316.266 412.913 314.523 412.855 312.315C412.796 310.106 414.539 308.269 416.748 308.211L420.746 308.105C422.955 308.047 424.792 309.79 424.85 311.999C424.909 314.207 423.166 316.044 420.957 316.103L416.959 316.208Z" fill="#F65936"/>
<path d="M947.929 367.516C945.72 367.574 943.883 365.831 943.825 363.623C943.767 361.414 945.51 359.577 947.718 359.519L951.717 359.413C953.925 359.355 955.762 361.098 955.821 363.307C955.879 365.515 954.136 367.352 951.927 367.411L947.929 367.516Z" fill="#F65936"/>
<path d="M512.605 347.516C510.397 347.574 508.559 345.831 508.501 343.623C508.443 341.414 510.186 339.577 512.394 339.519L516.393 339.413C518.601 339.355 520.439 341.098 520.497 343.307C520.555 345.515 518.812 347.352 516.604 347.411L512.605 347.516Z" fill="#F65936"/>
<path d="M259.749 327C261.958 327 263.749 328.791 263.749 331C263.749 333.209 261.958 335 259.749 335H255.749C253.54 335 251.749 333.209 251.749 331C251.749 328.791 253.54 327 255.749 327H259.749Z" fill="white"/>
<path d="M518.795 312.2C516.586 312.259 514.749 310.516 514.691 308.307C514.632 306.099 516.375 304.261 518.584 304.203L522.582 304.098C524.791 304.04 526.628 305.783 526.686 307.991C526.745 310.199 525.002 312.037 522.793 312.095L518.795 312.2Z" fill="white"/>
<path d="M246.851 283.465C244.643 283.524 242.805 281.781 242.747 279.572C242.689 277.364 244.432 275.526 246.64 275.468L250.639 275.363C252.847 275.305 254.685 277.048 254.743 279.256C254.801 281.464 253.058 283.302 250.85 283.36L246.851 283.465Z" fill="white"/>
<path d="M773.851 310.625C771.643 310.684 769.805 308.941 769.747 306.732C769.689 304.524 771.432 302.686 773.64 302.628L777.639 302.523C779.847 302.465 781.685 304.208 781.743 306.416C781.801 308.624 780.058 310.462 777.85 310.52L773.851 310.625Z" fill="white"/>
<path d="M867.851 365.625C865.643 365.684 863.805 363.941 863.747 361.732C863.689 359.524 865.432 357.686 867.64 357.628L871.639 357.523C873.847 357.465 875.685 359.208 875.743 361.416C875.801 363.624 874.058 365.462 871.85 365.52L867.851 365.625Z" fill="white"/>
<path d="M432.527 345.625C430.319 345.684 428.482 343.941 428.423 341.732C428.365 339.524 430.108 337.686 432.317 337.628L436.315 337.523C438.524 337.465 440.361 339.208 440.419 341.416C440.477 343.624 438.734 345.462 436.526 345.52L432.527 345.625Z" fill="white"/>
<path d="M132.749 318C134.958 318 136.749 319.791 136.749 322C136.749 324.209 134.958 326 132.749 326H128.749C126.54 326 124.749 324.209 124.749 322C124.749 319.791 126.54 318 128.749 318H132.749Z" fill="white"/>
<path d="M645.988 317.851C643.78 317.909 641.942 316.166 641.884 313.958C641.826 311.749 643.569 309.912 645.777 309.854L649.776 309.748C651.984 309.69 653.822 311.433 653.88 313.642C653.938 315.85 652.195 317.687 649.986 317.746L645.988 317.851Z" fill="white"/>
<path d="M901.045 316.276C898.836 316.334 896.999 314.591 896.941 312.383C896.882 310.174 898.625 308.337 900.834 308.279L904.832 308.173C907.041 308.115 908.878 309.858 908.936 312.066C908.995 314.275 907.252 316.112 905.043 316.17L901.045 316.276Z" fill="white"/>
<path d="M465.721 296.276C463.512 296.334 461.675 294.591 461.617 292.383C461.559 290.174 463.302 288.337 465.51 288.279L469.509 288.173C471.717 288.115 473.554 289.858 473.613 292.066C473.671 294.275 471.928 296.112 469.719 296.17L465.721 296.276Z" fill="white"/>
<path d="M995.045 371.276C992.836 371.334 990.999 369.591 990.941 367.383C990.882 365.174 992.625 363.337 994.834 363.279L998.832 363.173C1001.04 363.115 1002.88 364.858 1002.94 367.066C1002.99 369.275 1001.25 371.112 999.043 371.17L995.045 371.276Z" fill="white"/>
<path d="M164.749 333C166.958 333 168.749 334.791 168.749 337C168.749 339.209 166.958 341 164.749 341H160.749C158.54 341 156.749 339.209 156.749 337C156.749 334.791 158.54 333 160.749 333H164.749Z" fill="white"/>
<path d="M613.604 303.699C611.395 303.758 609.558 302.014 609.5 299.806C609.441 297.598 611.184 295.76 613.393 295.702L617.391 295.597C619.6 295.538 621.437 297.282 621.495 299.49C621.554 301.698 619.811 303.536 617.602 303.594L613.604 303.699Z" fill="white"/>
<path d="M659.959 271.208C657.75 271.266 655.913 269.523 655.855 267.315C655.796 265.106 657.539 263.269 659.748 263.211L663.746 263.105C665.955 263.047 667.792 264.79 667.85 266.999C667.909 269.207 666.166 271.044 663.957 271.103L659.959 271.208Z" fill="white"/>
<path d="M868.66 302.124C866.452 302.182 864.614 300.439 864.556 298.231C864.498 296.023 866.241 294.185 868.449 294.127L872.448 294.022C874.656 293.963 876.494 295.706 876.552 297.915C876.61 300.123 874.867 301.961 872.659 302.019L868.66 302.124Z" fill="white"/>
<path d="M692.959 348.208C690.75 348.266 688.913 346.523 688.855 344.315C688.796 342.106 690.539 340.269 692.748 340.211L696.746 340.105C698.955 340.047 700.792 341.79 700.85 343.999C700.909 346.207 699.166 348.044 696.957 348.103L692.959 348.208Z" fill="white"/>
<path d="M962.66 357.124C960.452 357.182 958.614 355.439 958.556 353.231C958.498 351.023 960.241 349.185 962.449 349.127L966.448 349.022C968.656 348.963 970.494 350.706 970.552 352.915C970.61 355.123 968.867 356.961 966.659 357.019L962.66 357.124Z" fill="white"/>
<path d="M88.7491 315C90.9583 315 92.7491 316.791 92.7491 319C92.7491 321.209 90.9583 323 88.7491 323H81.7491C79.54 323 77.7491 321.209 77.7491 319C77.7491 316.791 79.54 315 81.7491 315H88.7491Z" fill="#F65936"/>
<path d="M690.052 319.69C687.843 319.749 686.006 318.006 685.948 315.797C685.889 313.589 687.633 311.751 689.841 311.693L696.838 311.509C699.047 311.451 700.884 313.194 700.942 315.402C701.001 317.61 699.258 319.448 697.049 319.506L690.052 319.69Z" fill="#F65936"/>
<path d="M945.108 318.115C942.9 318.174 941.063 316.431 941.004 314.222C940.946 312.014 942.689 310.176 944.898 310.118L951.895 309.934C954.103 309.876 955.941 311.619 955.999 313.827C956.057 316.035 954.314 317.873 952.106 317.931L945.108 318.115Z" fill="#F65936"/>
<path d="M509.785 298.115C507.576 298.174 505.739 296.431 505.681 294.222C505.622 292.014 507.365 290.176 509.574 290.118L516.571 289.934C518.78 289.876 520.617 291.619 520.675 293.827C520.734 296.035 518.991 297.873 516.782 297.931L509.785 298.115Z" fill="#F65936"/>
<path d="M1039.11 373.115C1036.9 373.174 1035.06 371.431 1035 369.222C1034.95 367.014 1036.69 365.176 1038.9 365.118L1045.9 364.934C1048.1 364.876 1049.94 366.619 1050 368.827C1050.06 371.035 1048.31 372.873 1046.11 372.931L1039.11 373.115Z" fill="#F65936"/>
<path d="M117.749 305C119.958 305 121.749 306.791 121.749 309C121.749 311.209 119.958 313 117.749 313H114.749C112.54 313 110.749 311.209 110.749 309C110.749 306.791 112.54 305 114.749 305H117.749Z" fill="#FDB137"/>
<path d="M661.325 330.451C659.117 330.509 657.279 328.766 657.221 326.558C657.163 324.35 658.906 322.512 661.114 322.454L664.113 322.375C666.322 322.317 668.159 324.06 668.217 326.268C668.276 328.476 666.533 330.314 664.324 330.372L661.325 330.451Z" fill="#FDB137"/>
<path d="M916.382 328.876C914.173 328.934 912.336 327.191 912.278 324.983C912.22 322.775 913.963 320.937 916.171 320.879L919.17 320.8C921.378 320.742 923.216 322.485 923.274 324.693C923.332 326.901 921.589 328.739 919.381 328.797L916.382 328.876Z" fill="#FDB137"/>
<path d="M481.058 308.876C478.85 308.934 477.012 307.191 476.954 304.983C476.896 302.775 478.639 300.937 480.847 300.879L483.846 300.8C486.055 300.742 487.892 302.485 487.95 304.693C488.008 306.901 486.265 308.739 484.057 308.797L481.058 308.876Z" fill="#FDB137"/>
<path d="M1010.38 383.876C1008.17 383.934 1006.34 382.191 1006.28 379.983C1006.22 377.775 1007.96 375.937 1010.17 375.879L1013.17 375.8C1015.38 375.742 1017.22 377.485 1017.27 379.693C1017.33 381.901 1015.59 383.739 1013.38 383.797L1010.38 383.876Z" fill="#FDB137"/>
<path d="M238.749 318C240.958 318 242.749 319.791 242.749 322C242.749 324.209 240.958 326 238.749 326H233.749C231.54 326 229.749 324.209 229.749 322C229.749 319.791 231.54 318 233.749 318H238.749Z" fill="#FDB137"/>
<path d="M540.025 320.644C537.816 320.702 535.979 318.959 535.921 316.751C535.862 314.542 537.605 312.705 539.814 312.647L544.812 312.515C547.02 312.457 548.858 314.2 548.916 316.408C548.974 318.617 547.231 320.454 545.023 320.512L540.025 320.644Z" fill="#FDB137"/>
<path d="M268.081 291.909C265.873 291.967 264.035 290.224 263.977 288.016C263.919 285.807 265.662 283.97 267.87 283.912L272.869 283.78C275.077 283.722 276.915 285.465 276.973 287.673C277.031 289.882 275.288 291.719 273.08 291.777L268.081 291.909Z" fill="#FDB137"/>
<path d="M795.081 319.069C792.873 319.127 791.035 317.384 790.977 315.176C790.919 312.967 792.662 311.13 794.87 311.072L799.869 310.94C802.077 310.882 803.915 312.625 803.973 314.833C804.031 317.042 802.288 318.879 800.08 318.937L795.081 319.069Z" fill="#FDB137"/>
<path d="M889.081 374.069C886.873 374.127 885.035 372.384 884.977 370.176C884.919 367.967 886.662 366.13 888.87 366.072L893.869 365.94C896.077 365.882 897.915 367.625 897.973 369.833C898.031 372.042 896.288 373.879 894.08 373.937L889.081 374.069Z" fill="#FDB137"/>
<path d="M453.758 354.069C451.549 354.127 449.712 352.384 449.654 350.176C449.595 347.967 451.338 346.13 453.547 346.072L458.545 345.94C460.753 345.882 462.591 347.625 462.649 349.833C462.707 352.042 460.964 353.879 458.756 353.937L453.758 354.069Z" fill="#FDB137"/>
<path d="M117.749 338C119.958 338 121.749 339.791 121.749 342C121.749 344.209 119.958 346 117.749 346H110.749C108.54 346 106.749 344.209 106.749 342C106.749 339.791 108.54 338 110.749 338H117.749Z" fill="white"/>
<path d="M660.455 297.463C658.247 297.521 656.41 295.778 656.351 293.569C656.293 291.361 658.036 289.524 660.245 289.465L667.242 289.281C669.451 289.223 671.288 290.966 671.346 293.174C671.404 295.382 669.661 297.22 667.453 297.278L660.455 297.463Z" fill="white"/>
<path d="M915.512 295.887C913.304 295.946 911.466 294.203 911.408 291.994C911.35 289.786 913.093 287.948 915.301 287.89L922.299 287.706C924.507 287.648 926.345 289.391 926.403 291.599C926.461 293.807 924.718 295.645 922.51 295.703L915.512 295.887Z" fill="white"/>
<path d="M813.959 367.287C811.75 367.345 809.913 365.602 809.855 363.394C809.796 361.185 811.539 359.348 813.748 359.29L820.745 359.105C822.954 359.047 824.791 360.79 824.849 362.999C824.908 365.207 823.165 367.044 820.956 367.103L813.959 367.287Z" fill="white"/>
<path d="M1009.51 350.887C1007.3 350.946 1005.47 349.203 1005.41 346.994C1005.35 344.786 1007.09 342.948 1009.3 342.89L1016.3 342.706C1018.51 342.648 1020.34 344.391 1020.4 346.599C1020.46 348.807 1018.72 350.645 1016.51 350.703L1009.51 350.887Z" fill="white"/>
<path d="M214.749 348C216.958 348 218.749 349.791 218.749 352C218.749 354.209 216.958 356 214.749 356H207.749C205.54 356 203.749 354.209 203.749 352C203.749 349.791 205.54 348 207.749 348H214.749Z" fill="#F65936"/>
<path d="M563.226 290.022C561.017 290.08 559.18 288.337 559.122 286.129C559.064 283.92 560.807 282.083 563.015 282.025L570.013 281.84C572.221 281.782 574.058 283.525 574.117 285.734C574.175 287.942 572.432 289.779 570.223 289.838L563.226 290.022Z" fill="#F65936"/>
<path d="M294.959 344.287C292.75 344.345 290.913 342.602 290.855 340.394C290.796 338.185 292.539 336.348 294.748 336.29L301.745 336.105C303.954 336.047 305.791 337.79 305.849 339.999C305.908 342.207 304.164 344.044 301.956 344.103L294.959 344.287Z" fill="#F65936"/>
<path d="M818.282 288.447C816.074 288.505 814.237 286.762 814.178 284.554C814.12 282.345 815.863 280.508 818.072 280.45L825.069 280.265C827.278 280.207 829.115 281.95 829.173 284.158C829.231 286.367 827.488 288.204 825.28 288.263L818.282 288.447Z" fill="#F65936"/>
<path d="M321.959 346.287C319.75 346.345 317.913 344.602 317.855 342.394C317.796 340.185 319.539 338.348 321.748 338.29L328.745 338.105C330.954 338.047 332.791 339.79 332.849 341.999C332.908 344.207 331.164 346.044 328.956 346.103L321.959 346.287Z" fill="#F65936"/>
<path d="M912.282 343.447C910.074 343.505 908.237 341.762 908.178 339.554C908.12 337.345 909.863 335.508 912.072 335.45L919.069 335.265C921.278 335.207 923.115 336.95 923.173 339.158C923.231 341.367 921.488 343.204 919.28 343.263L912.282 343.447Z" fill="#F65936"/>
<path d="M476.959 323.447C474.75 323.505 472.913 321.762 472.855 319.554C472.796 317.345 474.539 315.508 476.748 315.45L483.745 315.265C485.954 315.207 487.791 316.95 487.849 319.158C487.908 321.367 486.165 323.204 483.956 323.263L476.959 323.447Z" fill="#F65936"/>
<path d="M14.7491 300C17.5106 300 19.7491 302.239 19.7491 305C19.7491 307.761 17.5106 310 14.7491 310H9.74915C6.98772 310 4.74915 307.761 4.74915 305C4.74915 302.239 6.98772 300 9.74915 300H14.7491Z" fill="#F65936"/>
<path d="M764.421 332.735C761.66 332.808 759.364 330.629 759.291 327.869C759.218 325.108 761.397 322.812 764.157 322.739L769.156 322.607C771.916 322.534 774.213 324.713 774.286 327.474C774.358 330.234 772.18 332.531 769.419 332.604L764.421 332.735Z" fill="#F65936"/>
<path d="M1019.48 331.16C1016.72 331.233 1014.42 329.054 1014.35 326.294C1014.27 323.533 1016.45 321.237 1019.21 321.164L1024.21 321.032C1026.97 320.959 1029.27 323.138 1029.34 325.899C1029.42 328.659 1027.24 330.956 1024.48 331.029L1019.48 331.16Z" fill="#F65936"/>
<path d="M1113.48 386.16C1110.72 386.233 1108.42 384.054 1108.35 381.294C1108.27 378.533 1110.45 376.237 1113.21 376.164L1118.21 376.032C1120.97 375.959 1123.27 378.138 1123.34 380.899C1123.42 383.659 1121.24 385.956 1118.48 386.029L1113.48 386.16Z" fill="#F65936"/>
<path d="M1125.91 618.03L1126.75 630L273.749 690L272.907 678.03L1125.91 618.03Z" fill="#565D65"/>
<path d="M77.7477 752.793L62.7491 753L60.7491 608L75.7477 607.793L77.7477 752.793Z" fill="white"/>
<path d="M146.748 752.793L131.749 753L129.749 608L144.748 607.793L146.748 752.793Z" fill="white"/>
<path d="M276.748 752.793L261.749 753L259.749 608L274.748 607.793L276.748 752.793Z" fill="white"/>
<path d="M337.748 752.793L322.749 753L320.749 608L335.748 607.793L337.748 752.793Z" fill="white"/>
<path d="M398.743 752.586L383.749 753L379.749 608L394.743 607.586L398.743 752.586Z" fill="white"/>
<path d="M459.747 752.756L444.749 753L442.749 582L457.747 581.756L459.747 752.756Z" fill="white"/>
<path d="M520.747 752.756L505.749 753L503.749 582L518.747 581.756L520.747 752.756Z" fill="white"/>
<path d="M581.747 752.756L566.749 753L564.749 582L579.747 581.756L581.747 752.756Z" fill="white"/>
<path d="M642.747 752.756L627.749 753L625.749 582L640.747 581.756L642.747 752.756Z" fill="white"/>
<path d="M703.747 752.756L688.749 753L686.749 582L701.747 581.756L703.747 752.756Z" fill="white"/>
<path d="M764.747 752.756L749.749 753L747.749 582L762.747 581.756L764.747 752.756Z" fill="white"/>
<path d="M825.747 752.756L810.749 753L808.749 582L823.747 581.756L825.747 752.756Z" fill="white"/>
<path d="M886.747 752.756L871.749 753L869.749 582L884.747 581.756L886.747 752.756Z" fill="white"/>
<path d="M947.747 752.756L932.749 753L930.749 582L945.747 581.756L947.747 752.756Z" fill="white"/>
<path d="M1008.74 752.562L993.749 753L988.749 582L1003.74 581.562L1008.74 752.562Z" fill="white"/>
<path d="M1069.74 752.519L1054.75 753.001L1048.75 566L1063.74 565.519L1069.74 752.519Z" fill="white"/>
<path d="M1126.75 752.84L1111.75 753L1109.75 566L1124.75 565.84L1126.75 752.84Z" fill="white"/>
<path d="M215.748 752.793L200.749 753L198.749 608L213.748 607.793L215.748 752.793Z" fill="white"/>
<path d="M1122.87 532.001L1122.75 537L2.74913 510L2.86963 505.001L1122.87 532.001Z" fill="#685940"/>
<path d="M1124.82 548L1124.75 553L1.7492 537L1.82043 532L1124.82 548Z" fill="#555C62"/>
<path d="M1126.06 578.016L1126.75 593L0.686836 644.615L0 629.631L1126.06 578.016Z" fill="#161817" fill-opacity="0.46"/>
<path d="M1124.83 564.001L1124.75 569L77.2488 553.038C75.8683 553.017 74.7662 551.881 74.7872 550.5C74.8083 549.12 75.9445 548.018 77.325 548.039L1124.83 564.001Z" fill="#6C4538"/>
<path d="M507.749 591L500.749 439H535.249L541.749 591H507.749Z" fill="#BBBBBB"/>
<path d="M541.749 592L535.749 448H524.749L531.249 592H541.749Z" fill="#DCDEDD"/>
<path d="M535.249 440L535.749 447.875H524.749L502.249 470L500.749 440H535.249Z" fill="#8B8B8B"/>
<path d="M555.749 592L548.749 440H583.249L589.749 592H555.749Z" fill="#BBBBBB"/>
<path d="M589.749 593L583.749 449H572.749L579.249 593H589.749Z" fill="#DCDEDD"/>
<path d="M583.249 441L583.749 448.875H572.749L550.249 471L548.749 441H583.249Z" fill="#8B8B8B"/>
<path d="M759.249 0H645.749L1124.25 98V77.5L759.249 0Z" fill="#D4D6D5"/>
<path d="M1123.75 18L1041.75 0H1123.75V18Z" fill="#D2D4D2"/>
<path d="M872.895 572L866.749 448H897.042L902.749 572H872.895Z" fill="#BBBBBB"/>
<path d="M907.749 566L901.749 448H890.749L897.249 566H907.749Z" fill="#DCDEDD"/>
<path d="M897.306 449L897.749 455.3H888.006L868.078 473L866.749 449H897.306Z" fill="#8B8B8B"/>
<path d="M2.74915 427V380L1124.75 427V454L2.74915 427Z" fill="#646A6E"/>
<path d="M1124.4 448.002L1124.26 454L1.74915 427L1.88928 421.002L1124.4 448.002Z" fill="#D5D6D8"/>
<path d="M1124.59 431.006L1124.26 440L261.926 407L262.261 398.006L1124.59 431.006Z" fill="#D5D6D8"/>
<path d="M223.853 394.501C226.338 394.559 228.305 396.62 228.248 399.104C228.19 401.589 226.129 403.556 223.645 403.499L3.14621 398.395L3.35449 389.397L223.853 394.501Z" fill="#EDEFEE"/>
<path d="M1126.25 557L1.74915 587.5V629.5L1126.25 579V557Z" fill="#DCDCDA"/>
<path d="M1.74915 608V588.819L1126.75 555V563.581L1.74915 608Z" fill="#F7F7F7"/>
</g>
<defs>
<clipPath id="clip0_42_107">
<rect width="1126.75" height="753.001" fill="white"/>
</clipPath>
</defs>
</svg>
