<svg width="1128" height="754" viewBox="0 0 1128 754" fill="none" xmlns="http://www.w3.org/2000/svg">
<path d="M0 0H1125V753H0V0Z" fill="#212227"/>
<path d="M1 753V537L1123 552.5V753H1Z" fill="#161817"/>
<path d="M255.749 484L1.74915 490.938V582L255.749 575.062V484Z" fill="#17140F"/>
<path d="M32.2072 517.448H1.74915V546.759H32.2072V517.448Z" fill="#E7E7DD"/>
<path d="M58.314 517.448H39.169V561.414H58.314V517.448Z" fill="#E7E7DD"/>
<path d="M67.8866 517.448H73.1079V561.414H67.8866V517.448Z" fill="#E7E7DD"/>
<path d="M89.6423 517.448H81.8102V564H89.6423V517.448Z" fill="#E7E7DD"/>
<path d="M96.6041 520.897V517.448H142.726V544.172H106.177V520.897H96.6041Z" fill="#E7E7DD"/>
<path d="M197.551 514H170.574V540.724H197.551V514Z" fill="#E7E7DD"/>
<path d="M229.749 514H212.345V558.828H229.749V514Z" fill="#E7E7DD"/>
<path d="M1124.25 450L2.74915 437.5V249L61.7491 225.5L86.2491 232.5L118.249 225.5L184.749 240H198.249L212.249 249H249.749L293.249 265.5H322.749L371.249 306L487.749 260L526.249 240L555.749 249L586.249 240L605.249 232.5H625.249L649.749 225.5L668.749 220L690.249 225.5L716.749 214L777.249 220L828.249 234.5L879.249 249L933.749 225.5H962.749L985.249 214H1063.25L1124.25 240V450Z" fill="#161817"/>
<path d="M266.749 325C268.406 325 269.749 326.343 269.749 328C269.749 329.657 268.406 331 266.749 331H263.749C262.092 331 260.749 329.657 260.749 328C260.749 326.343 262.092 325 263.749 325H266.749Z" fill="#F65936"/>
<path d="M241.906 285.623C240.25 285.667 238.872 284.359 238.828 282.703C238.784 281.047 240.092 279.669 241.748 279.625L244.747 279.546C246.403 279.502 247.781 280.81 247.825 282.466C247.869 284.122 246.561 285.5 244.905 285.544L241.906 285.623Z" fill="#F65936"/>
<path d="M513.849 314.358C512.193 314.401 510.815 313.094 510.771 311.438C510.728 309.782 512.035 308.404 513.691 308.36L516.69 308.281C518.347 308.237 519.725 309.544 519.768 311.201C519.812 312.857 518.505 314.235 516.848 314.279L513.849 314.358Z" fill="#F65936"/>
<path d="M768.906 312.783C767.25 312.826 765.872 311.519 765.828 309.863C765.784 308.207 767.092 306.828 768.748 306.785L771.747 306.706C773.403 306.662 774.781 307.969 774.825 309.626C774.869 311.282 773.561 312.66 771.905 312.704L768.906 312.783Z" fill="#F65936"/>
<path d="M862.906 367.783C861.25 367.826 859.872 366.519 859.828 364.863C859.784 363.207 861.092 361.828 862.748 361.785L865.747 361.706C867.403 361.662 868.781 362.969 868.825 364.626C868.869 366.282 867.561 367.66 865.905 367.704L862.906 367.783Z" fill="#F65936"/>
<path d="M427.582 347.783C425.926 347.826 424.548 346.519 424.504 344.863C424.461 343.207 425.768 341.828 427.424 341.785L430.423 341.706C432.08 341.662 433.458 342.969 433.501 344.626C433.545 346.282 432.238 347.66 430.581 347.704L427.582 347.783Z" fill="#F65936"/>
<path d="M44.7491 323C47.5106 323 49.7491 325.239 49.7491 328C49.7491 330.761 47.5106 333 44.7491 333H35.7491C32.9877 333 30.7491 330.761 30.7491 328C30.7491 325.239 32.9877 323 35.7491 323H44.7491Z" fill="#FDB137"/>
<path d="M735.825 310.508C733.065 310.58 730.768 308.402 730.695 305.641C730.622 302.881 732.801 300.584 735.562 300.511L744.558 300.274C747.319 300.201 749.616 302.38 749.689 305.14C749.761 307.901 747.582 310.198 744.822 310.27L735.825 310.508Z" fill="#FDB137"/>
<path d="M990.882 308.932C988.121 309.005 985.825 306.826 985.752 304.066C985.679 301.306 987.858 299.009 990.618 298.936L999.615 298.699C1002.38 298.626 1004.67 300.805 1004.75 303.565C1004.82 306.326 1002.64 308.623 999.879 308.695L990.882 308.932Z" fill="#FDB137"/>
<path d="M1084.88 363.932C1082.12 364.005 1079.82 361.826 1079.75 359.066C1079.68 356.306 1081.86 354.009 1084.62 353.936L1093.62 353.699C1096.38 353.626 1098.67 355.805 1098.75 358.565C1098.82 361.326 1096.64 363.623 1093.88 363.695L1084.88 363.932Z" fill="#FDB137"/>
<path d="M98.7491 352C101.511 352 103.749 354.239 103.749 357C103.749 359.761 101.511 362 98.7491 362H89.7491C86.9877 362 84.7491 359.761 84.7491 357C84.7491 354.239 86.9877 352 89.7491 352H98.7491Z" fill="white"/>
<path d="M681.08 282.94C678.319 283.013 676.023 280.834 675.95 278.074C675.877 275.313 678.056 273.017 680.816 272.944L689.813 272.707C692.574 272.634 694.87 274.813 694.943 277.573C695.016 280.334 692.837 282.631 690.077 282.703L681.08 282.94Z" fill="white"/>
<path d="M936.136 281.365C933.376 281.438 931.079 279.259 931.006 276.499C930.934 273.738 933.112 271.442 935.873 271.369L944.87 271.132C947.63 271.059 949.927 273.238 950 275.998C950.073 278.759 947.894 281.056 945.133 281.128L936.136 281.365Z" fill="white"/>
<path d="M660.011 359.365C657.25 359.438 654.954 357.259 654.881 354.499C654.808 351.738 656.987 349.442 659.747 349.369L668.744 349.132C671.505 349.059 673.802 351.238 673.874 353.998C673.947 356.759 671.768 359.056 669.008 359.128L660.011 359.365Z" fill="white"/>
<path d="M1030.14 336.365C1027.38 336.438 1025.08 334.259 1025.01 331.499C1024.93 328.738 1027.11 326.442 1029.87 326.369L1038.87 326.132C1041.63 326.059 1043.93 328.238 1044 330.998C1044.07 333.759 1041.89 336.056 1039.13 336.128L1030.14 336.365Z" fill="white"/>
<path d="M739.749 253C742.511 253 744.749 255.239 744.749 258C744.749 260.761 742.511 263 739.749 263H730.749C727.988 263 725.749 260.761 725.749 258C725.749 255.239 727.988 253 730.749 253H739.749Z" fill="white"/>
<path d="M18.7491 342C21.5106 342 23.7491 344.239 23.7491 347C23.7491 349.761 21.5106 352 18.7491 352H9.74915C6.98772 352 4.74915 349.761 4.74915 347C4.74915 344.239 6.98772 342 9.74915 342H18.7491Z" fill="white"/>
<path d="M761.316 290.829C758.555 290.902 756.258 288.723 756.186 285.963C756.113 283.202 758.292 280.905 761.052 280.833L770.049 280.595C772.809 280.523 775.106 282.701 775.179 285.462C775.252 288.222 773.073 290.519 770.312 290.592L761.316 290.829Z" fill="white"/>
<path d="M1016.37 289.254C1013.61 289.327 1011.32 287.148 1011.24 284.388C1011.17 281.627 1013.35 279.33 1016.11 279.257L1025.11 279.02C1027.87 278.948 1030.16 281.126 1030.24 283.887C1030.31 286.647 1028.13 288.944 1025.37 289.017L1016.37 289.254Z" fill="white"/>
<path d="M1110.37 344.254C1107.61 344.327 1105.32 342.148 1105.24 339.388C1105.17 336.627 1107.35 334.33 1110.11 334.257L1119.11 334.02C1121.87 333.948 1124.16 336.126 1124.24 338.887C1124.31 341.647 1122.13 343.944 1119.37 344.017L1110.37 344.254Z" fill="white"/>
<path d="M64.7491 341C66.406 341 67.7491 342.343 67.7491 344C67.7491 345.657 66.406 347 64.7491 347H61.7491C60.0923 347 58.7491 345.657 58.7491 344C58.7491 342.343 60.0923 341 61.7491 341H64.7491Z" fill="white"/>
<path d="M715.358 293.041C713.702 293.084 712.323 291.777 712.28 290.121C712.236 288.465 713.543 287.087 715.2 287.043L718.199 286.964C719.855 286.92 721.233 288.227 721.277 289.884C721.32 291.54 720.013 292.918 718.357 292.962L715.358 293.041Z" fill="white"/>
<path d="M970.414 291.466C968.758 291.509 967.38 290.202 967.336 288.546C967.293 286.89 968.6 285.511 970.256 285.468L973.255 285.389C974.912 285.345 976.29 286.652 976.333 288.309C976.377 289.965 975.07 291.343 973.413 291.387L970.414 291.466Z" fill="white"/>
<path d="M1064.41 346.466C1062.76 346.509 1061.38 345.202 1061.34 343.546C1061.29 341.89 1062.6 340.511 1064.26 340.468L1067.26 340.389C1068.91 340.345 1070.29 341.652 1070.33 343.309C1070.38 344.965 1069.07 346.343 1067.41 346.387L1064.41 346.466Z" fill="white"/>
<path d="M170.749 286C172.406 286 173.749 287.343 173.749 289C173.749 290.657 172.406 292 170.749 292H160.749C159.092 292 157.749 290.657 157.749 289C157.749 287.343 159.092 286 160.749 286H170.749Z" fill="white"/>
<path d="M610.844 350.815C609.187 350.858 607.809 349.551 607.766 347.895C607.722 346.239 609.029 344.86 610.686 344.817L620.682 344.553C622.338 344.51 623.716 345.817 623.76 347.473C623.804 349.129 622.496 350.508 620.84 350.551L610.844 350.815Z" fill="white"/>
<path d="M338.9 322.08C337.244 322.123 335.866 320.816 335.822 319.16C335.779 317.504 337.086 316.126 338.742 316.082L348.739 315.818C350.395 315.775 351.773 317.082 351.817 318.738C351.86 320.395 350.553 321.773 348.897 321.816L338.9 322.08Z" fill="white"/>
<path d="M865.9 349.24C864.244 349.283 862.866 347.976 862.822 346.32C862.779 344.663 864.086 343.285 865.742 343.242L875.739 342.978C877.395 342.935 878.773 344.242 878.817 345.898C878.86 347.554 877.553 348.932 875.897 348.976L865.9 349.24Z" fill="white"/>
<path d="M430.577 329.24C428.92 329.283 427.542 327.976 427.499 326.32C427.455 324.663 428.762 323.285 430.418 323.242L440.415 322.978C442.071 322.935 443.449 324.242 443.493 325.898C443.537 327.554 442.229 328.932 440.573 328.976L430.577 329.24Z" fill="white"/>
<path d="M959.9 404.24C958.244 404.283 956.866 402.976 956.822 401.32C956.779 399.663 958.086 398.285 959.742 398.242L969.739 397.978C971.395 397.935 972.773 399.242 972.817 400.898C972.86 402.554 971.553 403.932 969.897 403.976L959.9 404.24Z" fill="white"/>
<path d="M223.749 290C225.406 290 226.749 291.343 226.749 293C226.749 294.657 225.406 296 223.749 296H220.749C219.092 296 217.749 294.657 217.749 293C217.749 291.343 219.092 290 220.749 290H223.749Z" fill="#F65936"/>
<path d="M557.757 348.213C556.1 348.256 554.722 346.949 554.679 345.293C554.635 343.636 555.942 342.258 557.599 342.215L560.598 342.136C562.254 342.092 563.632 343.399 563.676 345.056C563.719 346.712 562.412 348.09 560.756 348.134L557.757 348.213Z" fill="#F65936"/>
<path d="M285.813 319.478C284.157 319.521 282.779 318.214 282.735 316.558C282.692 314.901 283.999 313.523 285.655 313.48L288.654 313.401C290.311 313.357 291.689 314.664 291.732 316.321C291.776 317.977 290.469 319.355 288.812 319.399L285.813 319.478Z" fill="#F65936"/>
<path d="M812.813 346.638C811.157 346.681 809.779 345.374 809.735 343.718C809.692 342.061 810.999 340.683 812.655 340.64L815.654 340.561C817.311 340.517 818.689 341.824 818.732 343.48C818.776 345.137 817.469 346.515 815.812 346.558L812.813 346.638Z" fill="#F65936"/>
<path d="M906.813 401.638C905.157 401.681 903.779 400.374 903.735 398.718C903.692 397.061 904.999 395.683 906.655 395.64L909.654 395.561C911.311 395.517 912.689 396.824 912.732 398.48C912.776 400.137 911.469 401.515 909.812 401.558L906.813 401.638Z" fill="#F65936"/>
<path d="M223.749 344C225.406 344 226.749 345.343 226.749 347C226.749 348.657 225.406 350 223.749 350H220.749C219.092 350 217.749 348.657 217.749 347C217.749 345.343 219.092 344 220.749 344H223.749Z" fill="white"/>
<path d="M556.334 294.231C554.678 294.275 553.3 292.968 553.256 291.311C553.212 289.655 554.519 288.277 556.176 288.233L559.175 288.154C560.831 288.111 562.209 289.418 562.253 291.074C562.296 292.731 560.989 294.109 559.333 294.152L556.334 294.231Z" fill="white"/>
<path d="M403.906 350.156C402.25 350.2 400.872 348.892 400.828 347.236C400.784 345.58 402.092 344.202 403.748 344.158L406.747 344.079C408.403 344.035 409.781 345.343 409.825 346.999C409.869 348.655 408.561 350.033 406.905 350.077L403.906 350.156Z" fill="white"/>
<path d="M811.391 292.656C809.734 292.7 808.356 291.393 808.313 289.736C808.269 288.08 809.576 286.702 811.232 286.658L814.231 286.579C815.888 286.536 817.266 287.843 817.309 289.499C817.353 291.156 816.046 292.534 814.389 292.577L811.391 292.656Z" fill="white"/>
<path d="M905.391 347.656C903.734 347.7 902.356 346.393 902.313 344.736C902.269 343.08 903.576 341.702 905.232 341.658L908.231 341.579C909.888 341.536 911.266 342.843 911.309 344.499C911.353 346.156 910.046 347.534 908.389 347.577L905.391 347.656Z" fill="white"/>
<path d="M470.067 327.656C468.411 327.7 467.032 326.393 466.989 324.736C466.945 323.08 468.252 321.702 469.909 321.658L472.908 321.579C474.564 321.536 475.942 322.843 475.986 324.499C476.029 326.156 474.722 327.534 473.066 327.577L470.067 327.656Z" fill="white"/>
<path d="M18.7491 277C20.406 277 21.7491 278.343 21.7491 280C21.7491 281.657 20.406 283 18.7491 283H15.7491C14.0923 283 12.7491 281.657 12.7491 280C12.7491 278.343 14.0923 277 15.7491 277H18.7491Z" fill="white"/>
<path d="M763.028 355.807C761.372 355.85 759.994 354.543 759.95 352.887C759.906 351.23 761.214 349.852 762.87 349.809L765.869 349.73C767.525 349.686 768.903 350.993 768.947 352.649C768.99 354.306 767.683 355.684 766.027 355.727L763.028 355.807Z" fill="white"/>
<path d="M1018.08 354.231C1016.43 354.275 1015.05 352.968 1015.01 351.312C1014.96 349.655 1016.27 348.277 1017.93 348.234L1020.93 348.154C1022.58 348.111 1023.96 349.418 1024 351.074C1024.05 352.731 1022.74 354.109 1021.08 354.152L1018.08 354.231Z" fill="white"/>
<path d="M1112.08 409.231C1110.43 409.275 1109.05 407.968 1109.01 406.312C1108.96 404.655 1110.27 403.277 1111.93 403.234L1114.93 403.154C1116.58 403.111 1117.96 404.418 1118 406.074C1118.05 407.731 1116.74 409.109 1115.08 409.152L1112.08 409.231Z" fill="white"/>
<path d="M166.749 317C167.854 317 168.749 317.895 168.749 319C168.749 320.105 167.854 321 166.749 321H161.749C160.645 321 159.749 320.105 159.749 319C159.749 317.895 160.645 317 161.749 317H166.749Z" fill="#FDB137"/>
<path d="M614.026 319.72C612.921 319.749 612.003 318.878 611.974 317.773C611.945 316.669 612.816 315.751 613.92 315.721L618.919 315.59C620.023 315.561 620.941 316.432 620.971 317.536C621 318.641 620.128 319.559 619.024 319.588L614.026 319.72Z" fill="#FDB137"/>
<path d="M328.854 306.183C327.75 306.212 326.831 305.341 326.802 304.236C326.773 303.132 327.644 302.214 328.748 302.184L333.747 302.053C334.851 302.024 335.77 302.895 335.799 303.999C335.828 305.103 334.956 306.022 333.852 306.051L328.854 306.183Z" fill="#FDB137"/>
<path d="M869.082 318.145C867.978 318.174 867.059 317.303 867.03 316.198C867.001 315.094 867.873 314.176 868.977 314.146L873.975 314.015C875.079 313.986 875.998 314.857 876.027 315.961C876.056 317.065 875.185 317.984 874.081 318.013L869.082 318.145Z" fill="#FDB137"/>
<path d="M433.759 298.145C432.654 298.174 431.736 297.303 431.707 296.198C431.677 295.094 432.549 294.176 433.653 294.146L438.651 294.015C439.756 293.986 440.674 294.857 440.703 295.961C440.733 297.065 439.861 297.984 438.757 298.013L433.759 298.145Z" fill="#FDB137"/>
<path d="M963.082 373.145C961.978 373.174 961.059 372.303 961.03 371.198C961.001 370.094 961.873 369.176 962.977 369.146L967.975 369.015C969.079 368.986 969.998 369.857 970.027 370.961C970.056 372.065 969.185 372.984 968.081 373.013L963.082 373.145Z" fill="#FDB137"/>
<path d="M178.749 298C179.854 298 180.749 298.895 180.749 300C180.749 301.105 179.854 302 178.749 302H175.749C174.645 302 173.749 301.105 173.749 300C173.749 298.895 174.645 298 175.749 298H178.749Z" fill="white"/>
<path d="M192.749 290C193.854 290 194.749 290.895 194.749 292C194.749 293.105 193.854 294 192.749 294H189.749C188.645 294 187.749 293.105 187.749 292C187.749 290.895 188.645 290 189.749 290H192.749Z" fill="#F65936"/>
<path d="M588.746 347.396C587.642 347.425 586.723 346.553 586.694 345.449C586.665 344.345 587.537 343.426 588.641 343.397L591.64 343.318C592.744 343.289 593.663 344.161 593.692 345.265C593.721 346.369 592.849 347.288 591.745 347.317L588.746 347.396Z" fill="#F65936"/>
<path d="M316.803 318.661C315.699 318.69 314.78 317.818 314.751 316.714C314.722 315.61 315.593 314.691 316.697 314.662L319.696 314.583C320.801 314.554 321.719 315.426 321.748 316.53C321.777 317.634 320.906 318.553 319.802 318.582L316.803 318.661Z" fill="#F65936"/>
<path d="M843.803 345.821C842.699 345.85 841.78 344.978 841.751 343.874C841.722 342.77 842.593 341.851 843.697 341.822L846.696 341.743C847.801 341.714 848.719 342.585 848.748 343.69C848.777 344.794 847.906 345.713 846.802 345.742L843.803 345.821Z" fill="#F65936"/>
<path d="M408.479 325.821C407.375 325.85 406.456 324.978 406.427 323.874C406.398 322.77 407.27 321.851 408.374 321.822L411.373 321.743C412.477 321.714 413.396 322.585 413.425 323.69C413.454 324.794 412.582 325.713 411.478 325.742L408.479 325.821Z" fill="#F65936"/>
<path d="M937.803 400.821C936.699 400.85 935.78 399.978 935.751 398.874C935.722 397.77 936.593 396.851 937.697 396.822L940.696 396.743C941.801 396.714 942.719 397.585 942.748 398.69C942.777 399.794 941.906 400.713 940.802 400.742L937.803 400.821Z" fill="#F65936"/>
<path d="M209.749 317C210.854 317 211.749 317.895 211.749 319C211.749 320.105 210.854 321 209.749 321H206.749C205.645 321 204.749 320.105 204.749 319C204.749 317.895 205.645 317 206.749 317H209.749Z" fill="white"/>
<path d="M571.041 320.853C569.936 320.882 569.018 320.011 568.989 318.907C568.96 317.802 569.831 316.884 570.935 316.855L573.934 316.775C575.038 316.746 575.957 317.618 575.986 318.722C576.015 319.826 575.144 320.745 574.04 320.774L571.041 320.853Z" fill="white"/>
<path d="M299.097 292.118C297.993 292.147 297.074 291.276 297.045 290.172C297.016 289.067 297.888 288.149 298.992 288.12L301.991 288.041C303.095 288.011 304.014 288.883 304.043 289.987C304.072 291.091 303.2 292.01 302.096 292.039L299.097 292.118Z" fill="white"/>
<path d="M826.097 319.278C824.993 319.307 824.074 318.436 824.045 317.331C824.016 316.227 824.888 315.309 825.992 315.279L828.991 315.2C830.095 315.171 831.014 316.043 831.043 317.147C831.072 318.251 830.2 319.17 829.096 319.199L826.097 319.278Z" fill="white"/>
<path d="M596.854 289.13C595.75 289.159 594.831 288.288 594.802 287.184C594.773 286.08 595.644 285.161 596.748 285.132L599.747 285.053C600.852 285.024 601.77 285.895 601.799 286.999C601.829 288.103 600.957 289.022 599.853 289.051L596.854 289.13Z" fill="white"/>
<path d="M920.097 374.278C918.993 374.307 918.074 373.436 918.045 372.331C918.016 371.227 918.888 370.309 919.992 370.279L922.991 370.2C924.095 370.171 925.014 371.043 925.043 372.147C925.072 373.251 924.2 374.17 923.096 374.199L920.097 374.278Z" fill="white"/>
<path d="M484.774 354.278C483.669 354.307 482.751 353.436 482.722 352.331C482.692 351.227 483.564 350.309 484.668 350.279L487.667 350.2C488.771 350.171 489.69 351.043 489.719 352.147C489.748 353.251 488.877 354.17 487.772 354.199L484.774 354.278Z" fill="white"/>
<path d="M141.749 293C143.406 293 144.749 294.343 144.749 296C144.749 297.657 143.406 299 141.749 299H140.749C139.092 299 137.749 297.657 137.749 296C137.749 294.343 139.092 293 140.749 293H141.749Z" fill="white"/>
<path d="M639.649 343.053C637.993 343.097 636.615 341.789 636.571 340.133C636.528 338.477 637.835 337.099 639.491 337.055L640.491 337.029C642.147 336.985 643.525 338.292 643.569 339.949C643.613 341.605 642.305 342.983 640.649 343.027L639.649 343.053Z" fill="white"/>
<path d="M376.906 332.103C375.25 332.147 373.872 330.84 373.828 329.183C373.785 327.527 375.092 326.149 376.748 326.105L377.748 326.079C379.404 326.035 380.782 327.343 380.826 328.999C380.869 330.655 379.562 332.033 377.906 332.077L376.906 332.103Z" fill="white"/>
<path d="M894.706 341.478C893.05 341.522 891.672 340.214 891.628 338.558C891.584 336.902 892.892 335.524 894.548 335.48L895.548 335.454C897.204 335.41 898.582 336.717 898.626 338.374C898.669 340.03 897.362 341.408 895.706 341.452L894.706 341.478Z" fill="white"/>
<path d="M459.382 321.478C457.726 321.522 456.348 320.214 456.304 318.558C456.261 316.902 457.568 315.524 459.224 315.48L460.224 315.454C461.88 315.41 463.258 316.717 463.302 318.374C463.345 320.03 462.038 321.408 460.382 321.452L459.382 321.478Z" fill="white"/>
<path d="M988.706 396.478C987.05 396.522 985.672 395.214 985.628 393.558C985.584 391.902 986.892 390.524 988.548 390.48L989.548 390.454C991.204 390.41 992.582 391.717 992.626 393.374C992.669 395.03 991.362 396.408 989.706 396.452L988.706 396.478Z" fill="white"/>
<path d="M36.7491 284C38.406 284 39.7491 285.343 39.7491 287C39.7491 288.657 38.406 290 36.7491 290H35.7491C34.0923 290 32.7491 288.657 32.7491 287C32.7491 285.343 34.0923 284 35.7491 284H36.7491Z" fill="#FDB137"/>
<path d="M744.85 349.283C743.194 349.327 741.816 348.02 741.772 346.363C741.728 344.707 743.036 343.329 744.692 343.285L745.692 343.259C747.348 343.215 748.726 344.523 748.77 346.179C748.813 347.835 747.506 349.213 745.85 349.257L744.85 349.283Z" fill="#FDB137"/>
<path d="M999.907 347.708C998.25 347.752 996.872 346.445 996.829 344.788C996.785 343.132 998.092 341.754 999.749 341.71L1000.75 341.684C1002.4 341.64 1003.78 342.948 1003.83 344.604C1003.87 346.26 1002.56 347.638 1000.91 347.682L999.907 347.708Z" fill="#FDB137"/>
<path d="M1093.91 402.708C1092.25 402.752 1090.87 401.445 1090.83 399.788C1090.78 398.132 1092.09 396.754 1093.75 396.71L1094.75 396.684C1096.4 396.64 1097.78 397.948 1097.83 399.604C1097.87 401.26 1096.56 402.638 1094.91 402.682L1093.91 402.708Z" fill="#FDB137"/>
<path d="M59.7491 296C62.5106 296 64.7491 298.239 64.7491 301C64.7491 303.761 62.5106 306 59.7491 306H54.7491C51.9877 306 49.7491 303.761 49.7491 301C49.7491 298.239 51.9877 296 54.7491 296H59.7491Z" fill="#FDB137"/>
<path d="M721.542 337.893C718.781 337.966 716.484 335.787 716.412 333.027C716.339 330.266 718.518 327.97 721.278 327.897L726.277 327.765C729.037 327.692 731.334 329.871 731.407 332.632C731.479 335.392 729.3 337.689 726.54 337.762L721.542 337.893Z" fill="#FDB137"/>
<path d="M976.598 336.318C973.838 336.391 971.541 334.212 971.468 331.452C971.396 328.691 973.574 326.395 976.335 326.322L981.333 326.19C984.094 326.117 986.39 328.296 986.463 331.057C986.536 333.817 984.357 336.114 981.597 336.187L976.598 336.318Z" fill="#FDB137"/>
<path d="M1070.6 391.318C1067.84 391.391 1065.54 389.212 1065.47 386.452C1065.4 383.691 1067.57 381.395 1070.33 381.322L1075.33 381.19C1078.09 381.117 1080.39 383.296 1080.46 386.057C1080.54 388.817 1078.36 391.114 1075.6 391.187L1070.6 391.318Z" fill="#FDB137"/>
<path d="M180.749 323C182.958 323 184.749 324.791 184.749 327C184.749 329.209 182.958 331 180.749 331H176.749C174.54 331 172.749 329.209 172.749 327C172.749 324.791 174.54 323 176.749 323H180.749Z" fill="#F65936"/>
<path d="M599.872 314.091C597.664 314.149 595.826 312.406 595.768 310.198C595.71 307.989 597.453 306.152 599.661 306.094L603.66 305.988C605.868 305.93 607.706 307.673 607.764 309.882C607.822 312.09 606.079 313.927 603.871 313.986L599.872 314.091Z" fill="#F65936"/>
<path d="M640.959 290.208C638.75 290.266 636.913 288.523 636.855 286.315C636.796 284.106 638.539 282.269 640.748 282.211L644.746 282.105C646.955 282.047 648.792 283.79 648.85 285.999C648.909 288.207 647.166 290.044 644.957 290.103L640.959 290.208Z" fill="#F65936"/>
<path d="M854.929 312.516C852.72 312.574 850.883 310.831 850.825 308.623C850.767 306.414 852.51 304.577 854.718 304.519L858.717 304.413C860.925 304.355 862.762 306.098 862.821 308.307C862.879 310.515 861.136 312.352 858.927 312.411L854.929 312.516Z" fill="#F65936"/>
<path d="M417.959 316.208C415.75 316.266 413.913 314.523 413.855 312.315C413.796 310.106 415.539 308.269 417.748 308.211L421.746 308.105C423.955 308.047 425.792 309.79 425.85 311.999C425.909 314.207 424.166 316.044 421.957 316.103L417.959 316.208Z" fill="#F65936"/>
<path d="M948.929 367.516C946.72 367.574 944.883 365.831 944.825 363.623C944.767 361.414 946.51 359.577 948.718 359.519L952.717 359.413C954.925 359.355 956.762 361.098 956.821 363.307C956.879 365.515 955.136 367.352 952.927 367.411L948.929 367.516Z" fill="#F65936"/>
<path d="M513.605 347.516C511.397 347.574 509.559 345.831 509.501 343.623C509.443 341.414 511.186 339.577 513.394 339.519L517.393 339.413C519.601 339.355 521.439 341.098 521.497 343.307C521.555 345.515 519.812 347.352 517.604 347.411L513.605 347.516Z" fill="#F65936"/>
<path d="M260.749 327C262.958 327 264.749 328.791 264.749 331C264.749 333.209 262.958 335 260.749 335H256.749C254.54 335 252.749 333.209 252.749 331C252.749 328.791 254.54 327 256.749 327H260.749Z" fill="white"/>
<path d="M519.795 312.2C517.586 312.259 515.749 310.516 515.691 308.307C515.632 306.099 517.375 304.261 519.584 304.203L523.582 304.098C525.791 304.04 527.628 305.783 527.686 307.991C527.745 310.199 526.002 312.037 523.793 312.095L519.795 312.2Z" fill="white"/>
<path d="M247.851 283.465C245.643 283.524 243.805 281.781 243.747 279.572C243.689 277.364 245.432 275.526 247.64 275.468L251.639 275.363C253.847 275.305 255.685 277.048 255.743 279.256C255.801 281.464 254.058 283.302 251.85 283.36L247.851 283.465Z" fill="white"/>
<path d="M774.851 310.625C772.643 310.684 770.805 308.94 770.747 306.732C770.689 304.524 772.432 302.686 774.64 302.628L778.639 302.523C780.847 302.464 782.685 304.208 782.743 306.416C782.801 308.624 781.058 310.462 778.85 310.52L774.851 310.625Z" fill="white"/>
<path d="M868.851 365.625C866.643 365.684 864.805 363.94 864.747 361.732C864.689 359.524 866.432 357.686 868.64 357.628L872.639 357.523C874.847 357.464 876.685 359.208 876.743 361.416C876.801 363.624 875.058 365.462 872.85 365.52L868.851 365.625Z" fill="white"/>
<path d="M433.527 345.625C431.319 345.684 429.482 343.94 429.423 341.732C429.365 339.524 431.108 337.686 433.317 337.628L437.315 337.523C439.524 337.464 441.361 339.208 441.419 341.416C441.477 343.624 439.734 345.462 437.526 345.52L433.527 345.625Z" fill="white"/>
<path d="M133.749 318C135.958 318 137.749 319.791 137.749 322C137.749 324.209 135.958 326 133.749 326H129.749C127.54 326 125.749 324.209 125.749 322C125.749 319.791 127.54 318 129.749 318H133.749Z" fill="white"/>
<path d="M646.988 317.851C644.78 317.909 642.942 316.166 642.884 313.958C642.826 311.749 644.569 309.912 646.777 309.854L650.776 309.748C652.984 309.69 654.822 311.433 654.88 313.641C654.938 315.85 653.195 317.687 650.986 317.746L646.988 317.851Z" fill="white"/>
<path d="M902.045 316.276C899.836 316.334 897.999 314.591 897.941 312.383C897.882 310.174 899.625 308.337 901.834 308.279L905.832 308.173C908.041 308.115 909.878 309.858 909.936 312.066C909.995 314.275 908.252 316.112 906.043 316.17L902.045 316.276Z" fill="white"/>
<path d="M466.721 296.276C464.512 296.334 462.675 294.591 462.617 292.383C462.559 290.174 464.302 288.337 466.51 288.279L470.509 288.173C472.717 288.115 474.554 289.858 474.613 292.066C474.671 294.275 472.928 296.112 470.719 296.17L466.721 296.276Z" fill="white"/>
<path d="M996.045 371.276C993.836 371.334 991.999 369.591 991.941 367.383C991.882 365.174 993.625 363.337 995.834 363.279L999.832 363.173C1002.04 363.115 1003.88 364.858 1003.94 367.066C1003.99 369.275 1002.25 371.112 1000.04 371.17L996.045 371.276Z" fill="white"/>
<path d="M165.749 333C167.958 333 169.749 334.791 169.749 337C169.749 339.209 167.958 341 165.749 341H161.749C159.54 341 157.749 339.209 157.749 337C157.749 334.791 159.54 333 161.749 333H165.749Z" fill="white"/>
<path d="M614.604 303.699C612.395 303.758 610.558 302.015 610.5 299.806C610.441 297.598 612.184 295.76 614.393 295.702L618.391 295.597C620.6 295.539 622.437 297.282 622.495 299.49C622.554 301.698 620.811 303.536 618.602 303.594L614.604 303.699Z" fill="white"/>
<path d="M660.959 271.208C658.75 271.266 656.913 269.523 656.855 267.315C656.796 265.106 658.539 263.269 660.748 263.211L664.746 263.105C666.955 263.047 668.792 264.79 668.85 266.999C668.909 269.207 667.166 271.044 664.957 271.103L660.959 271.208Z" fill="white"/>
<path d="M869.66 302.124C867.452 302.182 865.614 300.439 865.556 298.231C865.498 296.023 867.241 294.185 869.449 294.127L873.448 294.022C875.656 293.963 877.494 295.706 877.552 297.915C877.61 300.123 875.867 301.961 873.659 302.019L869.66 302.124Z" fill="white"/>
<path d="M693.959 348.208C691.75 348.266 689.913 346.523 689.855 344.315C689.796 342.106 691.539 340.269 693.748 340.211L697.746 340.105C699.955 340.047 701.792 341.79 701.85 343.999C701.909 346.207 700.166 348.044 697.957 348.103L693.959 348.208Z" fill="white"/>
<path d="M963.66 357.124C961.452 357.182 959.614 355.439 959.556 353.231C959.498 351.023 961.241 349.185 963.449 349.127L967.448 349.022C969.656 348.963 971.494 350.706 971.552 352.915C971.61 355.123 969.867 356.961 967.659 357.019L963.66 357.124Z" fill="white"/>
<path d="M89.7491 315C91.9583 315 93.7491 316.791 93.7491 319C93.7491 321.209 91.9583 323 89.7491 323H82.7491C80.54 323 78.7491 321.209 78.7491 319C78.7491 316.791 80.54 315 82.7491 315H89.7491Z" fill="#F65936"/>
<path d="M691.052 319.691C688.843 319.749 687.006 318.006 686.948 315.797C686.889 313.589 688.633 311.751 690.841 311.693L697.838 311.509C700.047 311.451 701.884 313.194 701.942 315.402C702.001 317.61 700.258 319.448 698.049 319.506L691.052 319.691Z" fill="#F65936"/>
<path d="M946.108 318.115C943.9 318.174 942.063 316.431 942.004 314.222C941.946 312.014 943.689 310.176 945.898 310.118L952.895 309.934C955.103 309.876 956.941 311.619 956.999 313.827C957.057 316.035 955.314 317.873 953.106 317.931L946.108 318.115Z" fill="#F65936"/>
<path d="M510.785 298.115C508.576 298.174 506.739 296.431 506.681 294.222C506.622 292.014 508.365 290.176 510.574 290.118L517.571 289.934C519.78 289.876 521.617 291.619 521.675 293.827C521.734 296.035 519.991 297.873 517.782 297.931L510.785 298.115Z" fill="#F65936"/>
<path d="M1040.11 373.115C1037.9 373.174 1036.06 371.431 1036 369.222C1035.95 367.014 1037.69 365.176 1039.9 365.118L1046.9 364.934C1049.1 364.876 1050.94 366.619 1051 368.827C1051.06 371.035 1049.31 372.873 1047.11 372.931L1040.11 373.115Z" fill="#F65936"/>
<path d="M118.749 305C120.958 305 122.749 306.791 122.749 309C122.749 311.209 120.958 313 118.749 313H115.749C113.54 313 111.749 311.209 111.749 309C111.749 306.791 113.54 305 115.749 305H118.749Z" fill="#FDB137"/>
<path d="M662.325 330.451C660.117 330.509 658.279 328.766 658.221 326.558C658.163 324.35 659.906 322.512 662.114 322.454L665.113 322.375C667.322 322.317 669.159 324.06 669.217 326.268C669.276 328.477 667.533 330.314 665.324 330.372L662.325 330.451Z" fill="#FDB137"/>
<path d="M917.382 328.876C915.173 328.934 913.336 327.191 913.278 324.983C913.22 322.775 914.963 320.937 917.171 320.879L920.17 320.8C922.378 320.742 924.216 322.485 924.274 324.693C924.332 326.901 922.589 328.739 920.381 328.797L917.382 328.876Z" fill="#FDB137"/>
<path d="M482.058 308.876C479.85 308.934 478.012 307.191 477.954 304.983C477.896 302.775 479.639 300.937 481.847 300.879L484.846 300.8C487.055 300.742 488.892 302.485 488.95 304.693C489.008 306.901 487.265 308.739 485.057 308.797L482.058 308.876Z" fill="#FDB137"/>
<path d="M1011.38 383.876C1009.17 383.934 1007.34 382.191 1007.28 379.983C1007.22 377.775 1008.96 375.937 1011.17 375.879L1014.17 375.8C1016.38 375.742 1018.22 377.485 1018.27 379.693C1018.33 381.901 1016.59 383.739 1014.38 383.797L1011.38 383.876Z" fill="#FDB137"/>
<path d="M239.749 318C241.958 318 243.749 319.791 243.749 322C243.749 324.209 241.958 326 239.749 326H234.749C232.54 326 230.749 324.209 230.749 322C230.749 319.791 232.54 318 234.749 318H239.749Z" fill="#FDB137"/>
<path d="M541.025 320.644C538.816 320.702 536.979 318.959 536.921 316.751C536.862 314.542 538.605 312.705 540.814 312.647L545.812 312.515C548.02 312.457 549.858 314.2 549.916 316.408C549.974 318.617 548.231 320.454 546.023 320.512L541.025 320.644Z" fill="#FDB137"/>
<path d="M269.081 291.909C266.873 291.967 265.035 290.224 264.977 288.016C264.919 285.807 266.662 283.97 268.87 283.912L273.869 283.78C276.077 283.722 277.915 285.465 277.973 287.673C278.031 289.882 276.288 291.719 274.08 291.777L269.081 291.909Z" fill="#FDB137"/>
<path d="M796.081 319.069C793.873 319.127 792.035 317.384 791.977 315.176C791.919 312.967 793.662 311.13 795.87 311.072L800.869 310.94C803.077 310.882 804.915 312.625 804.973 314.833C805.031 317.042 803.288 318.879 801.08 318.937L796.081 319.069Z" fill="#FDB137"/>
<path d="M890.081 374.069C887.873 374.127 886.035 372.384 885.977 370.176C885.919 367.967 887.662 366.13 889.87 366.072L894.869 365.94C897.077 365.882 898.915 367.625 898.973 369.833C899.031 372.042 897.288 373.879 895.08 373.937L890.081 374.069Z" fill="#FDB137"/>
<path d="M454.758 354.069C452.549 354.127 450.712 352.384 450.654 350.176C450.595 347.967 452.338 346.13 454.547 346.072L459.545 345.94C461.753 345.882 463.591 347.625 463.649 349.833C463.707 352.042 461.964 353.879 459.756 353.937L454.758 354.069Z" fill="#FDB137"/>
<path d="M118.749 338C120.958 338 122.749 339.791 122.749 342C122.749 344.209 120.958 346 118.749 346H111.749C109.54 346 107.749 344.209 107.749 342C107.749 339.791 109.54 338 111.749 338H118.749Z" fill="white"/>
<path d="M661.455 297.463C659.247 297.521 657.41 295.778 657.351 293.569C657.293 291.361 659.036 289.524 661.245 289.465L668.242 289.281C670.451 289.223 672.288 290.966 672.346 293.174C672.404 295.383 670.661 297.22 668.453 297.278L661.455 297.463Z" fill="white"/>
<path d="M916.512 295.888C914.304 295.946 912.466 294.203 912.408 291.994C912.35 289.786 914.093 287.949 916.301 287.89L923.299 287.706C925.507 287.648 927.345 289.391 927.403 291.599C927.461 293.807 925.718 295.645 923.51 295.703L916.512 295.888Z" fill="white"/>
<path d="M814.959 367.287C812.75 367.345 810.913 365.602 810.855 363.394C810.796 361.185 812.539 359.348 814.748 359.29L821.745 359.105C823.954 359.047 825.791 360.79 825.849 362.999C825.908 365.207 824.165 367.044 821.956 367.103L814.959 367.287Z" fill="white"/>
<path d="M1010.51 350.888C1008.3 350.946 1006.47 349.203 1006.41 346.994C1006.35 344.786 1008.09 342.949 1010.3 342.89L1017.3 342.706C1019.51 342.648 1021.34 344.391 1021.4 346.599C1021.46 348.807 1019.72 350.645 1017.51 350.703L1010.51 350.888Z" fill="white"/>
<path d="M215.749 348C217.958 348 219.749 349.791 219.749 352C219.749 354.209 217.958 356 215.749 356H208.749C206.54 356 204.749 354.209 204.749 352C204.749 349.791 206.54 348 208.749 348H215.749Z" fill="#F65936"/>
<path d="M564.226 290.022C562.017 290.08 560.18 288.337 560.122 286.129C560.064 283.92 561.807 282.083 564.015 282.025L571.013 281.84C573.221 281.782 575.058 283.525 575.117 285.734C575.175 287.942 573.432 289.779 571.223 289.838L564.226 290.022Z" fill="#F65936"/>
<path d="M295.959 344.287C293.75 344.345 291.913 342.602 291.855 340.394C291.796 338.185 293.539 336.348 295.748 336.29L302.745 336.105C304.954 336.047 306.791 337.79 306.849 339.999C306.908 342.207 305.164 344.044 302.956 344.103L295.959 344.287Z" fill="#F65936"/>
<path d="M819.282 288.447C817.074 288.505 815.237 286.762 815.178 284.554C815.12 282.345 816.863 280.508 819.072 280.45L826.069 280.265C828.278 280.207 830.115 281.95 830.173 284.158C830.231 286.367 828.488 288.204 826.28 288.262L819.282 288.447Z" fill="#F65936"/>
<path d="M322.959 346.287C320.75 346.345 318.913 344.602 318.855 342.394C318.796 340.185 320.539 338.348 322.748 338.29L329.745 338.105C331.954 338.047 333.791 339.79 333.849 341.999C333.908 344.207 332.164 346.044 329.956 346.103L322.959 346.287Z" fill="#F65936"/>
<path d="M913.282 343.447C911.074 343.505 909.237 341.762 909.178 339.554C909.12 337.345 910.863 335.508 913.072 335.45L920.069 335.265C922.278 335.207 924.115 336.95 924.173 339.158C924.231 341.367 922.488 343.204 920.28 343.262L913.282 343.447Z" fill="#F65936"/>
<path d="M477.959 323.447C475.75 323.505 473.913 321.762 473.855 319.554C473.796 317.345 475.539 315.508 477.748 315.45L484.745 315.265C486.954 315.207 488.791 316.95 488.849 319.158C488.908 321.367 487.165 323.204 484.956 323.262L477.959 323.447Z" fill="#F65936"/>
<path d="M15.7491 300C18.5106 300 20.7491 302.239 20.7491 305C20.7491 307.761 18.5106 310 15.7491 310H10.7491C7.98772 310 5.74915 307.761 5.74915 305C5.74915 302.239 7.98772 300 10.7491 300H15.7491Z" fill="#F65936"/>
<path d="M765.421 332.735C762.66 332.808 760.364 330.629 760.291 327.869C760.218 325.108 762.397 322.812 765.157 322.739L770.156 322.607C772.916 322.534 775.213 324.713 775.286 327.474C775.358 330.234 773.18 332.531 770.419 332.604L765.421 332.735Z" fill="#F65936"/>
<path d="M1020.48 331.16C1017.72 331.233 1015.42 329.054 1015.35 326.294C1015.27 323.533 1017.45 321.237 1020.21 321.164L1025.21 321.032C1027.97 320.959 1030.27 323.138 1030.34 325.899C1030.42 328.659 1028.24 330.956 1025.48 331.029L1020.48 331.16Z" fill="#F65936"/>
<path d="M1114.48 386.16C1111.72 386.233 1109.42 384.054 1109.35 381.294C1109.27 378.533 1111.45 376.237 1114.21 376.164L1119.21 376.032C1121.97 375.959 1124.27 378.138 1124.34 380.899C1124.42 383.659 1122.24 385.956 1119.48 386.029L1114.48 386.16Z" fill="#F65936"/>
<path d="M1122.19 618.362L1123.03 630.332L274.749 690L273.907 678.03L1122.19 618.362Z" fill="#565D65"/>
<path d="M78.7477 752.793L63.7491 753L61.7491 608L76.7477 607.793L78.7477 752.793Z" fill="white"/>
<path d="M147.748 752.793L132.749 753L130.749 608L145.748 607.793L147.748 752.793Z" fill="white"/>
<path d="M277.748 752.793L262.749 753L260.749 608L275.748 607.793L277.748 752.793Z" fill="white"/>
<path d="M338.748 752.793L323.749 753L321.749 608L336.748 607.793L338.748 752.793Z" fill="white"/>
<path d="M399.743 752.586L384.749 753L380.749 608L395.743 607.586L399.743 752.586Z" fill="white"/>
<path d="M460.747 752.756L445.749 753L443.749 582L458.747 581.756L460.747 752.756Z" fill="white"/>
<path d="M521.747 752.756L506.749 753L504.749 582L519.747 581.756L521.747 752.756Z" fill="white"/>
<path d="M582.747 752.756L567.749 753L565.749 582L580.747 581.756L582.747 752.756Z" fill="white"/>
<path d="M643.747 752.756L628.749 753L626.749 582L641.747 581.756L643.747 752.756Z" fill="white"/>
<path d="M704.747 752.756L689.749 753L687.749 582L702.747 581.756L704.747 752.756Z" fill="white"/>
<path d="M765.747 752.756L750.749 753L748.749 582L763.747 581.756L765.747 752.756Z" fill="white"/>
<path d="M826.747 752.756L811.749 753L809.749 582L824.747 581.756L826.747 752.756Z" fill="white"/>
<path d="M887.747 752.756L872.749 753L870.749 582L885.747 581.756L887.747 752.756Z" fill="white"/>
<path d="M948.747 752.756L933.749 753L931.749 582L946.747 581.756L948.747 752.756Z" fill="white"/>
<path d="M1009.74 752.562L994.749 753L989.749 582L1004.74 581.562L1009.74 752.562Z" fill="white"/>
<path d="M1070.74 752.519L1055.75 753L1049.75 566L1064.74 565.519L1070.74 752.519Z" fill="white"/>
<path d="M1124 753L1112.75 753.12L1110.75 566L1122 565.88L1124 753Z" fill="white"/>
<path d="M216.748 752.793L201.749 753L199.749 608L214.748 607.793L216.748 752.793Z" fill="white"/>
<path d="M1123.87 532.001L1123.75 537L3.74913 510L3.86963 505.001L1123.87 532.001Z" fill="#685940"/>
<path d="M1125.82 548L1125.75 553L2.7492 537L2.82043 532L1125.82 548Z" fill="#555C62"/>
<path d="M1127.06 578.016L1127.75 593L1.68684 644.615L1 629.631L1127.06 578.016Z" fill="#161817" fill-opacity="0.46"/>
<path d="M1125.83 564.001L1125.75 569L78.2488 553.038C76.8683 553.017 75.7662 551.881 75.7872 550.5C75.8083 549.12 76.9445 548.018 78.325 548.039L1125.83 564.001Z" fill="#6C4538"/>
<path d="M508.749 591L501.749 439H536.249L542.749 591H508.749Z" fill="#BBBBBB"/>
<path d="M542.749 592L536.749 448H525.749L532.249 592H542.749Z" fill="#DCDEDD"/>
<path d="M536.249 440L536.749 447.875H525.749L503.249 470L501.749 440H536.249Z" fill="#8B8B8B"/>
<path d="M556.749 592L549.749 440H584.249L590.749 592H556.749Z" fill="#BBBBBB"/>
<path d="M590.749 593L584.749 449H573.749L580.249 593H590.749Z" fill="#DCDEDD"/>
<path d="M584.249 441L584.749 448.875H573.749L551.249 471L549.749 441H584.249Z" fill="#8B8B8B"/>
<path d="M760.249 0H646.749L1125.25 98V77.5L760.249 0Z" fill="#D4D6D5"/>
<path d="M1124.75 18L1042.75 0H1124.75V18Z" fill="#D2D4D2"/>
<path d="M873.895 572L867.749 448H898.042L903.749 572H873.895Z" fill="#BBBBBB"/>
<path d="M908.749 566L902.749 448H891.749L898.249 566H908.749Z" fill="#DCDEDD"/>
<path d="M898.306 449L898.749 455.3H889.006L869.078 473L867.749 449H898.306Z" fill="#8B8B8B"/>
<path d="M3.74915 427V380L1125.75 427V454L3.74915 427Z" fill="#646A6E"/>
<path d="M1125.4 448.002L1125.26 454L2.74915 427L2.88928 421.002L1125.4 448.002Z" fill="#D5D6D8"/>
<path d="M1125.59 431.006L1125.26 440L262.926 407L263.261 398.006L1125.59 431.006Z" fill="#D5D6D8"/>
<path d="M224.853 394.501C227.338 394.559 229.305 396.62 229.248 399.104C229.19 401.589 227.129 403.556 224.645 403.499L4.14621 398.395L4.35449 389.397L224.853 394.501Z" fill="#EDEFEE"/>
<path d="M1124 557L3 587.71V630L1124 579.152V557Z" fill="#DCDCDA"/>
<path d="M3 608V588.819L1124 555V563.581L3 608Z" fill="#F7F7F7"/>
</svg>
