<svg width="778" height="724" viewBox="0 0 778 724" fill="none" xmlns="http://www.w3.org/2000/svg">
<path d="M230.834 297.037L224.975 289.421L301.139 213.258L306.997 216.187L281.805 264.228L230.834 297.037Z" fill="#FCB877"/>
<path d="M280.266 253.406C291.983 240.516 304.873 210.051 304.873 210.051C304.873 210.051 313.661 216.496 323.035 212.394C332.995 206.536 331.823 205.364 338.853 200.677C350.571 189.545 349.985 189.545 356.429 176.07C360.531 157.908 357.601 148.534 355.258 144.433C352.914 140.332 347.641 126.857 334.166 132.13C320.691 137.403 311.903 153.221 311.903 153.221C311.903 153.221 304.873 158.494 301.943 153.221C299.014 147.949 298.348 144.433 296.67 132.13C296.351 129.786 287.03 125.099 276.165 115.14C269.134 108.695 263.276 98.7352 257.417 91.7047C252.73 88.1895 238.083 80.5731 230.467 74.7144C222.85 68.8557 219.335 65.3405 209.961 57.1382C207.374 54.8742 201.759 54.2088 201.759 54.2088C201.759 54.2088 211.133 46.5925 207.032 43.6632C202.931 40.7338 196.486 54.2088 196.486 54.2088C196.486 54.2088 176.566 60.6535 168.95 63.5828C161.334 66.5122 149.616 73.5427 145.515 80.5731C143.28 84.4057 143.001 95.3769 140.828 106.937C139.015 116.583 134.597 125.468 133.798 132.13C133.798 149.12 139.071 145.605 139.071 155.565C139.071 165.525 137.313 166.696 134.97 173.141C132.626 184.273 132.04 193.061 134.97 200.677C139.476 212.394 160.553 238.173 167.193 258.093C171.294 270.396 171.88 279.184 177.152 289.144C182.425 299.104 204.688 301.447 221.679 292.073L222.304 291.728C239.393 282.301 268.691 266.138 280.266 253.406Z" fill="#FCB877"/>
<path d="M159.412 194.51C159.998 191.58 168.2 177.519 168.2 177.519C168.2 177.519 160.583 192.752 162.927 197.439C164.392 200.368 168.2 200.368 172.301 200.954C176.402 201.54 180.503 198.611 185.19 198.611C189.877 198.611 191.635 199.197 194.564 199.197H199.837C199.837 199.197 198.548 205.055 195.736 206.813C193.392 208.278 185.19 207.399 181.675 208.571C176.402 210.328 174.644 211.061 169.371 209.742C164.099 208.424 163.513 206.227 161.169 203.884C158.826 201.54 158.826 197.439 159.412 194.51Z" fill="#E2733B" fill-opacity="0.63"/>
<path d="M172.301 147.64C173.472 152.327 172.301 162.755 172.301 164.63C172.301 164.63 172.301 157.014 169.957 152.913C167.614 148.812 164.099 145.809 161.169 144.711C156.482 142.953 157.654 138.266 162.341 138.266C167.028 138.266 171.129 142.953 172.301 147.64Z" fill="#E2733B" fill-opacity="0.63"/>
<path d="M324.042 168.145C323.456 171.075 323.456 170.489 321.698 173.418C319.941 176.348 320.527 188.065 321.698 190.409C322.87 192.752 326.385 188.651 328.143 187.479C329.901 186.308 332.244 187.479 334.002 186.308C335.759 185.136 339.86 182.792 341.032 179.277L341.032 179.277C342.204 175.762 342.204 175.762 340.446 172.832C338.689 169.903 335.759 166.388 334.002 166.974C332.244 167.56 338.103 174.59 335.759 175.762C333.416 176.934 324.628 165.216 324.042 168.145Z" fill="#E2733B" fill-opacity="0.63"/>
<path d="M332.244 158.772C329.9 160.529 326.385 160.529 326.385 160.529C326.385 160.529 333.416 148.812 337.517 147.054C341.618 145.296 348.648 146.468 350.406 148.226C352.164 149.983 353.921 160.529 352.164 161.701C350.406 162.873 342.79 151.155 341.032 150.569C339.274 149.983 334.588 157.014 332.244 158.772Z" fill="#E2733B" fill-opacity="0.63"/>
<path d="M229.716 296.452L224.225 289.698C224.225 289.698 247.824 276.532 252.511 273.603C255.498 271.736 270.385 260.587 280.79 252.746C285.351 245.031 291.292 234.884 292.35 232.591C294.108 228.783 302.896 213.844 302.896 213.844L307.052 216.187C307.052 216.187 297.678 237.278 295.334 241.38C294.254 243.27 289.925 247.775 285.572 252.082C279.247 260.159 269.534 272.452 267.212 274.774C263.697 278.29 229.716 296.452 229.716 296.452Z" fill="#E2733B" fill-opacity="0.63"/>
<path d="M198.244 271.568C200.197 268.638 201.759 259.265 200.002 255.749L174.223 261.022C178.324 277.427 196.291 274.497 198.244 271.568Z" fill="#F0864A"/>
<path d="M222.85 142.676C233.396 141.504 249.215 146.777 249.215 150.292C249.215 157.323 241.012 163.767 226.366 164.939C211.719 166.111 208.204 156.151 208.204 156.151C208.204 156.151 212.305 143.848 222.85 142.676Z" fill="#F6F2EF"/>
<path d="M146.687 167.868C151.96 169.626 159.576 167.868 159.576 167.868L161.92 150.878L149.03 148.534L142.586 152.636C142.586 152.636 140.828 155.565 141.414 159.666C141.414 162.595 141.414 166.111 146.687 167.868Z" fill="#FAF7F0" stroke="#FAF7F0" stroke-width="0.1"/>
<path d="M243.942 318.438C236.911 304.377 225 289.5 225 289.5C225 289.5 219.5 293.5 215.5 295C211.5 296.5 205 297.5 205 297.5C205 297.5 209.375 302.619 213.477 319.609C217.578 336.6 200.002 378.197 200.002 378.197C200.002 378.197 250.972 332.499 243.942 318.438Z" fill="#171918"/>
<path d="M133.212 147.363C133.212 147.363 128.735 145.019 125.596 133.302C122.456 121.585 125.596 89.3614 128.525 71.7852C140.829 34.8754 199.416 -10.2368 267.963 2.0665C336.51 14.3698 363.46 65.3407 363.46 65.3407C363.46 65.3407 373.42 65.3407 381.622 69.4418C389.824 73.543 415.016 106.352 419.118 133.302C423.219 160.252 415.603 188.96 419.118 221.183C422.633 253.406 436.108 282.114 436.108 282.114C450.169 296.175 480.049 303.205 480.049 303.205C480.049 303.205 469.503 317.852 463.644 319.609C457.785 321.367 444.896 323.71 436.108 321.367C427.32 319.023 400.37 297.346 389.238 289.73C378.107 282.114 366.389 279.184 360.53 266.295C358.933 262.78 357.601 261.608 358.187 259.85C358.773 258.093 340.025 225.284 335.338 223.526C330.651 221.769 311.403 232.057 310.231 229.713C309.526 228.303 307.442 221.642 305.5 217.5C304.215 214.76 302.534 213.967 303 213.5C303.629 212.87 304.684 210 304.684 210C304.684 210 318 216.5 324.5 212C331 207.5 348.227 195.404 352.328 184.273C356.429 173.141 359.359 138.575 340.025 137.403C320.691 136.231 317.176 158.494 307.216 160.838C294.327 162.01 299.149 140.332 293.741 135.645C279.68 126.857 263.861 112.21 253.902 96.3919C244.528 89.9473 236.911 86.4322 231.638 82.3311C205.86 59.482 204.102 61.2396 202.345 59.482C200.587 57.7244 204.103 54.795 205.86 53.6233C207.618 52.4515 207.032 47.7646 204.102 49.5222C201.173 51.2798 200.001 55.9668 195.9 59.482C191.799 62.9972 152.428 69.4419 146.101 85.2603C139.774 101.079 138.485 123.928 136.141 127.443C142 127.443 151.96 126.857 158.404 130.372C163.091 133.302 164.849 136.231 163.091 138.575C161.334 140.918 144.929 134.474 139.071 134.474C133.212 134.474 133.212 138.575 133.212 138.575V147.363Z" fill="#171918"/>
<path d="M171.294 234.072C170.708 234.658 173.051 240.517 173.637 244.618C174.223 248.719 176.566 252.234 177.152 252.82C177.738 253.406 183.597 256.921 191.799 254.577C200.001 252.234 209.961 238.759 208.789 239.345C207.618 239.931 198.244 235.83 195.314 235.244C192.385 234.658 189.456 233.486 187.112 233.486C184.769 233.486 181.839 231.728 179.496 231.728C177.152 231.728 171.879 233.486 171.294 234.072Z" fill="#171918"/>
<path d="M139.656 150.292C137.313 152.636 137.313 154.979 134.97 153.807C132.626 152.636 135.555 156.151 136.727 157.908C137.899 159.666 140.242 162.01 140.828 161.424C141.414 160.838 140.828 154.393 146.687 150.878C149.843 148.984 153.132 150.292 153.132 150.292C153.132 150.292 149.03 153.807 149.03 159.08C149.03 164.353 149.616 167.282 154.889 169.04C160.162 170.798 170.122 166.697 170.708 166.111C171.294 165.525 171.294 153.222 164.263 149.12C157.233 145.019 153.132 145.019 148.445 145.605C143.758 146.191 142 147.949 139.656 150.292Z" fill="#171918"/>
<path d="M216.992 141.504C207.032 145.019 205.274 160.252 205.274 160.252C205.274 160.252 212.891 149.706 215.82 147.363C218.749 145.019 226.366 145.019 226.366 145.019C226.366 145.019 221.093 147.949 221.093 154.393C221.093 160.838 224.608 164.939 226.952 166.111C229.295 167.282 235.154 166.697 239.255 165.525C243.356 164.353 246.871 157.323 246.871 157.323C246.871 157.323 245.699 157.323 245.114 156.737C244.528 156.151 244.528 154.393 245.699 153.807C246.285 153.514 246.871 154.393 246.871 154.393C247.457 154.979 249.801 154.979 252.144 153.807C254.488 152.636 258.003 148.535 258.003 148.535C258.003 148.535 253.316 149.12 249.801 147.949C246.285 146.777 239.255 141.504 236.325 140.918C233.396 140.332 226.952 137.989 216.992 141.504Z" fill="#171918"/>
<path d="M236.325 125.686C243.942 125.1 258.589 131.544 258.589 131.544C258.589 131.544 243.942 118.655 235.154 117.483C226.366 116.312 203.517 123.342 200.587 125.686C197.658 128.029 195.314 133.302 200.587 134.474C205.86 135.645 228.709 126.271 236.325 125.686Z" fill="#171918"/>
<path d="M102.161 367.065C103.332 363.55 100.989 350.661 100.989 350.661C100.989 350.661 100.989 362.964 99.2313 365.893C97.474 368.823 95.1301 370.58 93.3725 372.338C91.6149 374.095 91.6152 377.611 92.787 377.025C93.9587 376.439 100.989 370.58 102.161 367.065Z" fill="#B95A1A"/>
<path d="M125.596 336.6H129.111V367.065C129.111 367.065 131.454 395.773 131.454 402.803C131.454 409.834 133.212 436.198 133.212 436.198H131.454L125.596 336.6Z" fill="#B95A1A"/>
<path d="M40.0582 481.31C56.4626 493.614 68 497 68 497L75 488L35.6643 465.492L0.218981 444.986C0.218981 444.986 -1.53877 448.501 4.90583 456.704C11.3504 464.906 23.6538 469.007 40.0582 481.31Z" fill="#E97C41"/>
<path d="M130 378L132.626 436.198L126.182 437.37C126.182 437.37 123.121 418.904 124 411.874C124.879 404.844 130 378 130 378Z" fill="#E97C41"/>
<path d="M243.941 321.953C243.941 321.953 236.91 314.923 235.153 309.064C233.395 303.205 228.709 295.003 228.709 295.003C228.709 295.003 241.012 289.144 248.629 284.457C256.245 279.77 277.921 261.022 277.921 261.022C279.477 258.823 280.851 256.953 282.072 255.355C284.405 252.102 287.406 247.808 290.226 243.446L296.918 231.735C297.04 231.518 297.153 231.32 297.256 231.143C301.357 224.112 304.873 215.324 304.873 215.324C304.873 215.324 311.903 217.082 312.489 218.254C313.075 219.425 311.317 224.112 311.317 228.213C310.966 229.971 306.747 229.408 299.014 237.002C297.019 238.96 295.499 240.517 293.155 243.446C291.15 245.952 289.307 245.886 282.072 255.355C279.63 258.76 277.921 261.022 277.921 261.022C263.719 273.326 243.941 321.953 243.941 321.953Z" fill="#E26231"/>
<path d="M316.003 185.445C320.69 182.515 314.831 171.384 318.347 173.142C321.862 174.899 324.205 188.96 321.276 191.889C318.347 194.819 314.831 197.162 313.074 194.819C311.316 192.475 311.316 188.374 316.003 185.445Z" fill="#E26231"/>
<path d="M324.205 170.212C325.963 171.97 334.165 181.344 335.923 177.828C342.953 167.283 324.205 164.939 325.377 162.01C334.165 158.495 336.509 149.707 340.024 149.707C343.539 149.707 349.398 162.01 351.156 162.01C352.913 162.01 349.984 135.06 334.165 145.606C318.347 156.151 322.448 168.454 324.205 170.212Z" fill="#E26231"/>
<path d="M194.729 250.477C200.88 246.961 207.032 242.274 207.032 242.274L203.517 255.164C203.517 255.164 197.072 266.881 190.627 266.881C184.183 266.881 175.396 267.467 173.051 261.022C170.707 254.578 170.708 249.891 170.122 245.204C169.536 240.517 166.389 240.428 164.263 236.416C162.506 231.143 163.092 227.628 166.607 225.284C170.708 225.284 173.051 227.042 173.051 227.042C177.152 227.042 177.151 225.284 182.424 225.284C184.801 225.284 190.738 230.479 195.9 233.486C202.192 237.151 207.617 239.345 207.617 239.345C207.617 239.345 196.631 238.729 194.729 237.587C191.799 235.83 182.424 234.658 182.424 234.658C182.424 234.658 174.082 234.026 173.051 235.83C171.712 238.173 175.981 240.517 175.981 244.032C175.981 247.547 174.809 249.305 178.91 251.648C183.011 253.992 190.627 252.82 194.729 250.477Z" fill="#E26231"/>
<path d="M177.738 207.122C177.738 207.122 188.87 208.294 190.042 207.122C191.213 205.95 188.87 203.021 185.355 203.021C181.839 203.021 177.738 207.122 177.738 207.122Z" fill="#E26231"/>
<path d="M162.506 204.779C163.677 204.779 169.536 209.466 168.364 209.466C167.193 209.466 166.021 208.88 164.849 208.294C163.678 207.708 161.334 204.779 162.506 204.779Z" fill="#E26231"/>
<path d="M399.784 292.659C402.128 295.003 434.351 320.195 434.351 320.195C434.351 320.195 390.996 279.77 388.067 275.669C385.137 271.568 380.45 236.415 378.693 229.971C376.935 223.526 369.319 213.566 368.733 210.637C368.147 207.708 364.632 192.475 364.632 192.475C364.632 192.475 364.046 205.95 364.632 208.879C365.218 211.809 374.006 232.314 375.177 236.415C376.349 240.517 379.864 271.568 382.208 275.669C384.551 279.77 397.441 290.316 399.784 292.659Z" fill="#0C0C0C"/>
<path d="M202 54C200.828 56.3435 201.759 55.3808 201.759 57.7243C201.759 60.0678 211.134 64.1689 220.507 72.957C229.88 81.7451 251.397 94.2102 252.144 93.4626C253.316 92.2908 244.528 81.1592 246.286 79.4016C248.043 77.644 293.155 102.251 295.499 99.3213C297.842 96.3919 262.69 65.9265 262.69 63.583C262.69 61.2396 272.064 61.8254 273.236 58.8961C274.408 55.9667 234.568 55.9667 232.225 53.0373C229.881 50.108 242.184 41.3199 240.427 38.9764C238.669 36.6329 215.234 49.5221 214.063 48.3504C212.891 47.1786 216.406 38.3905 214.648 36.6329C212.891 34.8753 202.931 47.1786 202.345 48.3504C201.76 49.5221 208.564 49.5221 207.032 49.5221C205.5 49.5221 203.172 51.6565 202 54Z" fill="#2E2E2C"/>
<path d="M366.389 77.644C364.791 73.5429 358.187 58.8961 358.187 58.8961C358.187 58.8961 374.006 79.4016 375.177 94.6343C376.349 109.867 374.006 120.413 374.006 120.413L369.905 99.3213C369.905 99.3213 367.988 81.7451 366.389 77.644Z" fill="#2E2E2C"/>
<path d="M381.036 231.143C374.006 208.88 377.521 169.626 381.036 169.626C384.551 169.626 416.188 275.669 431.421 286.801C446.654 297.932 476.533 303.205 476.533 303.205C476.533 303.205 455.442 310.821 442.553 306.134C438.452 304.643 428.091 295.589 426.148 291.488C420.875 280.356 388.067 253.406 381.036 231.143Z" fill="#2E2E2C"/>
<path d="M6.66364 429.168C6.6633 433.855 -0.367021 432.683 0.804552 444.4C1.5075 451.431 34.1993 464.906 43.5734 471.35C52.9476 477.795 72.5 490 72.5 490C72.5 490 83.5956 475.733 100 460.5C116.404 445.267 126.767 436.784 126.767 436.784C126.767 436.784 129.697 384.641 129.697 377.025C129.697 369.409 128.525 355.933 127.939 349.489C127.353 343.044 125.595 338.943 125.595 337.186C125.596 335.428 129.111 338.357 129.697 337.186C130.283 336.014 130.282 330.155 132.626 322.539C134.97 314.922 142.196 306.134 140.828 302.033C140.242 300.276 120.323 289.73 104.504 324.296C96.302 342.219 104.504 368.655 98.6455 368.237C90.4431 367.651 70.5236 353.004 58.2201 353.59C52.9474 353.841 44.7452 355.348 41.2298 360.035C37.7144 364.722 40.0584 374.681 35.3712 375.853C30.6841 377.025 11.9363 374.095 17.209 402.217C15.4512 406.318 2.56253 408.662 6.66364 429.168Z" fill="#FCB877"/>
<path d="M240.427 318.438L242.77 319.023L297.842 293.245L327.136 270.982L361.116 256.921C361.116 256.921 364.632 268.638 371.662 273.325C378.693 278.012 385.137 281.528 385.137 281.528C385.137 281.528 396.269 285.629 399.198 287.972C402.128 290.316 407.4 297.346 412.087 300.275C416.774 303.205 429.664 311.993 433.179 314.336C436.694 316.68 457.785 348.317 460.715 352.418C463.644 356.519 453.684 404.561 456.614 418.622C457.142 421.157 455.902 431.511 456.614 435.612L465.881 477.006C468.834 489.338 471.864 502.194 474.19 514.119C479.524 541.468 481.22 548.685 481.22 563.918C481.22 579.151 515.787 691.638 514.615 698.669C513.443 705.699 508.756 706.97 508.756 714V722.69H375.763H265.033H235.154V701.598L204.688 682.264L166.021 647.112L126.181 611.374L105.09 594.384L83.9986 569.777L47.6745 529.938V514.119L62.3213 492.442L65.8366 490.098L83.9986 480.138L140.242 433.269L190.627 490.098L187.112 500.058C187.112 500.058 195.314 508.26 200.001 512.361C204.688 516.462 209.375 524.665 212.891 527.594C216.406 530.523 232.224 535.796 232.224 535.796L231.639 506.503C231.639 506.503 233.396 495.371 232.224 494.199C231.053 493.028 221.093 494.785 219.335 494.199C217.578 493.613 217.578 475.451 221.679 470.764C225.78 466.077 226.952 469.007 234.568 461.976C242.184 454.946 246.285 444.986 246.285 444.986L245.114 386.399L246.285 376.439C246.285 376.439 241.985 386.833 238.669 392.843C229.295 409.834 222.851 422.137 221.093 425.066C219.335 427.996 215.82 434.44 213.476 436.198C211.133 437.956 208.204 438.541 206.446 436.198C204.688 433.854 204.103 430.925 205.86 426.238C207.618 421.551 215.82 405.733 215.82 405.733C215.82 405.733 222.265 396.359 224.022 389.328C225.78 382.298 225.194 385.227 225.194 381.126C225.194 377.025 205.86 389.328 203.517 389.328C201.173 389.328 198.83 381.126 199.416 378.197C200.001 375.267 226.952 352.418 231.053 345.388C235.154 338.357 240.427 318.438 240.427 318.438Z" fill="#0B273D"/>
<path d="M362.288 259.265C363.46 255.163 337.096 220.597 332.409 218.253C330.651 217.375 301.357 228.213 278.508 259.265C255.659 290.316 252.144 293.245 243.356 318.438C234.568 343.63 228.709 382.298 225.194 392.258C221.679 402.217 208.204 423.309 207.032 427.996C205.86 432.683 211.133 434.44 211.133 434.44C211.133 434.44 231.053 405.733 232.81 398.702C234.568 391.672 249.801 366.479 249.801 366.479C249.801 366.479 249.784 354.496 251.558 343.63C253.038 334.566 256.298 326.481 256.831 324.882C258.003 321.367 281.438 306.134 287.296 303.205C293.155 300.276 303.115 294.417 305.459 292.659C307.802 290.902 310.554 284.009 321.277 275.669C342.368 259.265 361.116 263.366 362.288 259.265Z" fill="#073C64"/>
<path d="M250.386 365.893V354.762C250.386 354.762 235.154 383.469 232.224 387.57C229.295 391.672 224.022 406.318 221.093 410.419C218.163 414.521 207.783 425.077 206.025 426.835C204.267 428.593 206.611 438.553 211.884 436.209C215.047 434.803 226.952 413.349 235.154 394.601C242.018 381.286 250.386 365.893 250.386 365.893Z" fill="#3981A9"/>
<path d="M358.773 251.648L362.874 259.85C362.874 259.85 341.197 262.78 325.378 273.325C309.56 283.871 307.802 290.901 304.287 293.245C300.771 295.588 289.054 301.447 289.054 301.447L313.661 269.224L358.773 251.648Z" fill="#3981A9"/>
<path d="M322.449 268.053C327.722 263.366 359.945 253.406 359.945 253.406C359.945 253.406 352.914 242.86 349.985 238.759C347.055 234.658 332.994 217.667 332.994 217.667C332.994 217.667 328.307 218.839 316.59 224.698C304.873 230.557 296.67 239.345 293.741 242.274C290.812 245.203 281.438 255.749 281.438 255.749C281.438 255.749 287.296 255.749 287.296 257.507C287.296 259.264 286.711 261.608 287.296 262.78C287.882 263.951 303.115 277.426 303.115 279.184C303.115 280.942 299.014 283.285 297.842 284.457C296.67 285.629 297.256 289.144 296.67 290.902C296.085 292.659 290.226 295.003 289.054 297.346C287.882 299.69 289.054 301.447 289.054 301.447C289.054 301.447 317.176 272.74 322.449 268.053Z" fill="#0B4B79"/>
<path d="M283.195 675.234C293.155 676.406 307.802 692.81 313.075 691.053C315.68 690.184 317.329 669.865 313.075 643.011C308.72 615.522 298.427 592.626 302.528 593.212C306.629 593.798 331.236 614.889 337.095 620.748C342.954 626.607 361.116 662.345 366.388 671.719C371.661 681.093 371.075 710.386 378.692 704.528C386.308 698.669 382.207 671.719 376.934 659.415C371.661 647.112 361.702 631.294 349.398 616.647C337.095 602 296.67 570.363 276.75 568.605C276.75 568.605 260.932 505.331 265.619 502.987C270.306 500.644 342.954 589.111 349.985 579.737C357.016 570.363 293.155 505.917 293.155 505.917L371.662 511.19C371.662 511.19 318.348 454.946 331.237 447.33C344.126 439.713 370.49 467.249 377.521 473.694C379.994 475.961 384.662 466.685 377.521 447.33C372.888 434.771 360.34 429.304 354.672 416.864C344.247 393.986 339.438 367.651 342.368 368.237C345.299 368.823 387.48 429.168 391.582 434.44C395.684 439.713 398.611 532.867 398.611 532.867L396.855 603.758L398.611 637.738L420.875 653.557C420.875 653.557 433.177 652.971 432.006 648.87C430.835 644.769 411.5 598.485 415.016 594.384C418.532 590.283 452.513 591.454 457.2 583.838C461.886 576.222 468.917 566.848 468.917 560.989C468.917 555.13 435.523 542.827 430.835 543.999C426.148 545.17 410.916 564.504 405.643 564.504C400.369 564.504 403.885 493.614 403.885 483.654C403.885 473.694 398.611 452.017 398.611 452.017L393.925 416.864V404.561C393.925 404.561 419.703 473.108 426.148 480.724C432.594 488.341 469.501 512.361 473.603 517.048C477.705 521.735 480.047 553.373 480.048 560.989C480.049 568.605 458.958 641.253 460.129 647.112C461.3 652.971 508.17 668.789 508.17 668.789L513.443 698.083L508.17 710.386V722.69H420.875L393.925 664.102L375.177 722.69H359.944C359.944 722.69 367.56 713.902 362.873 691.053C360.41 679.045 351.345 669.137 344.125 658.244C337.606 648.408 333.033 636.904 328.307 637.738C318.347 639.496 340.024 717.417 331.236 719.76C322.448 722.104 291.983 698.083 291.983 698.083C286.71 695.154 273.235 674.062 283.195 675.234Z" fill="#0D507D" stroke="#0D507D" stroke-width="0.1"/>
<path d="M50.604 518.806C50.0181 515.876 58.2204 500.644 60.5639 499.472C62.9074 498.3 69.9378 502.401 69.9378 505.331C69.9378 506.857 67.8669 509.268 65.2508 514.119C62.8447 518.58 59.929 525.556 58.8062 525.836C56.4627 526.422 51.1899 521.735 50.604 518.806Z" fill="#2573A1"/>
<path d="M94.5445 551.029C95.1304 555.13 100.403 559.231 102.161 559.231C103.918 559.231 123.838 527.008 137.313 517.048C150.788 507.088 156.061 500.058 163.677 495.957C171.294 491.856 186.526 490.098 186.526 490.098C186.526 490.098 175.981 476.037 173.637 476.037C171.294 476.037 156.061 482.482 150.788 485.411C145.515 488.34 128.525 504.159 128.525 504.159C128.525 504.159 106.848 525.836 103.918 529.352C100.989 532.867 96.3021 542.827 96.3021 542.827C96.3021 542.827 93.9586 546.928 94.5445 551.029Z" fill="#2573A1"/>
<path d="M394.511 644.768C393.34 649.455 388.067 671.719 388.067 671.719L386.895 666.446C386.895 666.446 381.622 664.102 381.622 662.345C381.622 660.587 381.622 654.728 382.794 654.142C383.966 653.557 386.895 654.142 387.481 653.557C388.067 652.971 388.653 648.284 388.067 647.112C387.481 645.94 383.38 647.112 382.794 645.94C382.208 644.768 381.622 639.757 383.38 638.324C385.137 636.89 388.653 638.324 389.238 637.738C389.824 637.152 389.824 630.122 389.238 628.95C388.653 627.778 384.551 628.364 383.966 627.192C383.38 626.021 383.38 620.748 384.551 620.162C385.723 619.576 389.824 620.162 390.41 619.576C390.996 618.99 390.996 616.647 390.41 614.889C389.824 613.131 385.137 613.131 383.966 612.545C382.794 611.96 383.38 606.101 384.551 604.929C385.723 603.757 389.238 604.929 390.41 603.757C391.582 602.586 390.996 598.484 390.41 597.313C389.824 596.141 385.723 596.727 384.551 595.555C383.38 594.383 384.551 587.939 385.723 586.767C386.895 585.595 391.582 587.353 392.168 586.181C392.754 585.009 392.754 580.908 391.582 579.737C390.41 578.565 386.309 579.151 385.137 577.979C383.966 576.807 384.551 572.706 385.723 570.948C386.895 569.191 391.582 569.777 392.168 568.605C392.754 567.433 392.754 563.332 390.996 561.575C389.238 559.817 385.723 560.989 385.137 558.645C384.551 556.302 385.137 552.786 386.309 551.615C387.481 550.443 392.754 551.029 393.34 548.685C393.925 546.342 393.925 543.998 393.34 542.241C392.754 540.483 385.723 541.069 385.723 538.725C385.723 536.382 389.824 536.968 390.41 535.796C390.996 534.624 391.582 531.695 390.41 530.523C389.238 529.352 388.067 529.352 387.481 527.594C386.895 525.836 387.481 522.321 389.238 521.149C390.996 519.978 393.925 520.563 395.097 519.392C396.269 518.22 396.269 515.291 395.097 513.533C393.925 511.775 392.168 513.533 390.41 511.775C388.653 510.018 388.067 505.917 390.41 503.573C391.582 502.401 393.34 502.987 394.511 501.816C395.683 500.644 395.097 496.543 394.511 495.371C393.925 494.199 390.41 494.785 389.238 493.027C388.067 491.27 388.067 489.512 389.238 488.34C390.41 487.169 393.925 487.169 394.511 485.997C395.097 484.825 395.097 482.482 393.925 480.138C393.34 478.966 389.238 478.966 388.067 477.795C386.895 476.623 387.481 474.279 388.067 473.108C388.653 471.936 392.754 471.35 393.34 470.178C393.925 469.007 393.925 463.734 393.34 461.976C392.754 460.219 386.895 456.703 385.723 454.36C384.551 452.016 384.551 449.087 385.723 448.501C386.895 447.915 390.996 448.501 391.582 447.915C392.168 447.329 392.168 443.228 390.996 442.057C389.824 440.885 382.208 438.541 383.38 436.784C384.551 435.026 389.238 436.784 389.824 435.026C390.41 433.268 381.036 418.622 379.279 414.52C377.521 410.419 365.218 391.758 361.702 386.399C358.187 381.04 342.369 362.964 337.096 357.105C331.823 351.246 319.52 343.044 309.56 338.943C299.6 334.842 288.468 334.842 279.68 335.428C270.892 336.014 264.448 344.802 262.69 343.044C260.932 341.286 263.862 336.014 266.791 333.084C269.72 330.155 274.407 327.225 276.165 326.054C277.923 324.882 286.711 317.266 304.873 317.266C323.035 317.266 333.581 322.538 339.439 324.882C345.298 327.225 367.561 338.943 375.177 345.973C382.794 353.004 412.087 377.025 412.673 379.368C413.259 381.712 382.794 399.288 381.036 401.045C379.279 402.803 379.864 404.561 379.864 404.561H383.38C383.38 404.561 384.551 401.631 385.723 402.217C386.895 402.803 394.511 414.52 394.511 418.036C394.511 421.551 396.269 435.026 396.269 439.127C396.269 443.228 403.299 474.865 402.714 488.34C402.128 501.816 400.956 534.624 400.956 534.624L396.855 605.515C396.855 605.515 395.683 640.081 394.511 644.768Z" fill="#2573A1"/>
<path d="M453.099 430.339C453.099 436.784 474.19 518.22 474.19 518.22C474.19 518.22 424.977 487.169 423.219 482.482C421.461 477.795 392.754 402.217 393.34 398.116C393.925 394.015 413.845 382.297 415.603 382.883C417.36 383.469 454.27 415.692 454.856 419.207C455.442 422.723 453.099 423.894 453.099 430.339Z" fill="#2573A1"/>
<path d="M412.087 303.791C415.017 307.892 428.492 336.014 428.492 336.014C428.492 336.014 385.723 301.447 379.864 298.518C374.006 295.588 358.187 287.972 348.227 286.8C338.268 285.628 317.762 288.558 317.762 286.8C317.762 285.043 331.823 276.255 339.439 274.497C347.056 272.739 363.46 271.568 368.147 274.497C372.834 277.426 394.511 287.972 397.441 290.315C400.37 292.659 409.158 299.689 412.087 303.791Z" fill="#2573A1"/>
<path d="M65.8365 520.564C62.7119 526.422 62.3215 537.554 59.9778 539.311C57.6342 541.069 47.0886 531.695 49.432 520.564C51.7755 509.432 61.1493 498.3 61.1493 498.3L76.9679 480.724C76.9679 480.724 97.4738 456.703 102.161 452.602C106.847 448.501 116.807 441.471 120.323 439.713C123.838 437.955 130.282 436.198 130.282 436.198C130.282 436.198 136.141 433.268 139.071 435.026C142 436.784 147.272 441.471 146.687 444.986C146.101 448.501 140.828 450.845 140.828 450.845C140.828 450.845 138.485 453.774 134.384 453.774C130.283 453.774 127.939 455.532 128.525 459.047C129.111 462.562 136.727 464.32 136.727 464.32C136.727 464.32 144.343 467.249 146.687 469.593C149.03 471.936 147.859 474.865 150.202 476.623C152.546 478.381 149.616 476.623 153.132 477.795C156.647 478.967 167.193 469.593 167.193 469.593L173.637 476.623L96.3017 543.413C96.3017 543.413 96.3015 538.726 96.3017 535.796C96.3018 534.313 90.598 527.38 84.5844 520.564C78.7176 513.914 72.5561 509.128 71.1094 508.26C68.1798 506.503 65.8365 520.564 65.8365 520.564Z" fill="#105687"/>
<path d="M139.656 606.101C136.727 600.828 113.878 560.989 113.878 551.615C113.878 542.241 133.798 528.766 148.445 515.291C163.091 501.816 178.324 495.957 184.183 498.886C190.042 501.816 192.97 508.26 194.728 510.604C196.486 512.947 205.86 515.877 208.789 522.907C211.719 529.937 205.86 573.292 205.86 573.292C205.86 573.292 198.829 604.343 205.86 606.101C212.891 607.859 208.79 569.777 208.789 563.332C208.789 556.888 215.234 534.039 218.163 531.695C221.093 529.352 225.779 530.523 229.295 534.624C232.81 538.726 241.598 555.716 244.527 560.403C247.457 565.09 259.175 573.878 264.447 575.05C269.72 576.221 278.508 575.636 283.781 580.908C289.054 586.181 294.327 599.07 294.327 599.07C294.327 599.07 301.943 623.091 299.014 625.435C296.084 627.778 276.751 597.313 273.821 599.07C270.892 600.828 286.711 689.881 286.711 689.881C286.711 689.881 232.225 658.244 226.366 652.385C220.507 646.526 209.961 637.152 202.931 630.708C195.9 624.263 175.395 604.929 175.395 604.929C175.395 604.929 150.202 568.019 146.101 571.534C142 575.05 158.404 593.798 160.748 599.07C163.092 604.343 170.708 616.061 174.223 621.919C177.738 627.778 189.456 643.597 189.456 643.597C189.456 643.597 181.839 646.526 178.324 643.597C174.809 640.667 166.607 637.738 163.091 632.465C159.576 627.192 154.303 626.606 150.202 621.919C146.101 617.233 142.586 611.374 139.656 606.101Z" fill="#105687"/>
<path d="M451.341 346.559C451.341 348.903 446.068 353.59 446.068 353.59C446.068 353.59 431.421 341.872 427.32 336.6C423.219 331.327 410.915 302.619 410.915 302.619L424.976 311.993C424.976 311.993 434.35 320.781 437.28 323.71C440.209 326.64 451.341 344.216 451.341 346.559Z" fill="#105687"/>
<path d="M373.42 385.227C371.076 385.813 369.904 382.298 371.076 380.54C372.248 378.782 393.339 364.136 396.269 364.721C399.198 365.307 398.026 367.651 396.269 369.408C394.511 371.166 375.763 384.641 373.42 385.227Z" fill="#105687"/>
<path d="M173.051 475.451C174.809 474.279 147.859 444.4 147.859 444.4C147.859 444.4 143.758 448.501 140.828 449.673C137.899 450.844 126.767 449.087 126.767 456.117C126.767 463.148 134.97 467.249 134.97 467.249C134.97 467.249 142.586 472.522 144.343 475.451C146.101 478.38 148.152 481.603 150.788 483.067C153.425 484.532 160.162 480.724 160.162 480.724C160.162 480.724 171.294 476.623 173.051 475.451Z" fill="#063760"/>
<path d="M82.241 500.058C81.0692 496.542 93.3726 481.31 99.8172 483.067C106.262 484.825 120.909 501.815 120.323 506.502C119.737 511.189 108.019 526.422 103.918 526.422C99.8172 526.422 83.4127 503.573 82.241 500.058Z" fill="#063760"/>
<path d="M210.433 523.059C210.49 522.604 210.547 522.321 210.547 522.321C210.547 522.321 210.507 522.579 210.433 523.059C210.23 524.671 210.02 528.437 212.305 529.351C215.234 530.523 215.82 528.765 218.163 530.523C220.507 532.281 213.953 551.393 212.305 571.534C210.883 588.9 209.972 605.873 206.446 606.687C198.83 608.444 202.931 580.908 202.931 576.221C202.931 571.873 209.484 529.212 210.433 523.059Z" fill="#063760"/>
<path d="M277.337 680.506C276.751 674.648 262.104 592.04 269.72 591.454C277.337 590.868 296.085 626.606 299.014 626.606C301.943 626.606 292.569 596.727 294.913 597.898C297.256 599.07 310.731 634.223 313.075 634.223C315.418 634.223 316.59 631.293 318.348 634.223C320.105 637.152 321.277 699.84 318.348 701.598C315.418 703.355 291.398 680.506 288.468 680.506C285.539 680.506 289.054 684.022 286.711 687.537C284.367 691.052 277.922 686.365 277.337 680.506Z" fill="#063760"/>
<path d="M247.457 419.793C249.215 427.995 259.175 454.945 259.175 454.945V411.591C259.175 411.591 280.852 430.925 283.195 426.238C285.539 421.551 264.447 367.065 264.447 367.065L279.094 345.387C279.094 345.387 287.296 339.529 286.711 336.599C286.125 333.67 270.892 331.912 266.791 334.842C262.69 337.771 259.76 343.63 256.831 350.074C253.902 356.519 247.457 367.065 247.457 380.54C247.457 394.015 245.699 411.591 247.457 419.793Z" fill="#063760"/>
<path d="M57.0485 537.554C57.0485 531.695 67.0083 505.331 72.2812 506.502C74.7558 507.052 80.7146 516.219 86.3421 522.321C92.7055 529.221 98.6454 533.273 98.6454 536.382C98.6454 539.158 95.3128 544.97 92.7867 551.615C89.9811 558.994 87.8835 567.125 86.3421 567.433C83.4127 568.019 79.4912 562.903 72.2812 555.13C65.662 547.994 57.0485 540.358 57.0485 537.554Z" fill="#063760"/>
<path d="M222.85 472.522C220.507 477.795 219.335 485.997 220.507 490.098C221.679 494.199 240.427 472.522 240.427 472.522C240.427 472.522 250.972 452.602 249.801 449.673C248.629 446.743 238.083 457.289 233.982 462.562C229.881 467.835 223.893 470.175 222.85 472.522Z" fill="#063760"/>
<path d="M233.982 499.472C233.982 496.542 238.669 488.34 240.427 490.098C242.184 491.855 242.184 501.229 243.942 506.502C245.699 511.775 253.316 526.422 254.488 534.038C255.659 541.655 259.175 568.605 259.175 571.534C259.175 574.464 246.285 565.09 242.77 559.231C239.255 553.372 233.982 545.17 233.982 536.968V499.472Z" fill="#063760"/>
<path d="M260.933 367.065C260.346 361.206 260.347 354.176 262.104 351.832C263.862 349.489 271.478 343.044 276.165 340.7C280.852 338.357 291.398 340.7 295.499 340.7C299.6 340.7 313.076 344.802 319.52 349.489C325.964 354.176 338.268 365.307 342.369 371.166C346.47 377.025 352.915 400.459 356.43 407.49C359.945 414.52 377.521 442.056 379.279 447.915C381.036 453.774 380.45 460.219 381.036 463.148C381.623 466.077 384.551 471.936 385.138 476.623C385.724 481.31 385.138 484.825 383.38 488.34C381.622 491.856 368.733 472.522 368.733 472.522C368.733 472.522 355.258 461.976 351.743 459.047C348.228 456.117 332.995 447.915 332.995 447.915C332.995 447.915 330.066 446.158 330.066 449.673C330.065 453.188 333.58 456.117 334.752 459.047C335.924 461.976 352.915 484.825 352.915 484.825C352.915 484.825 375.177 510.018 374.592 513.533C374.006 517.048 301.943 509.432 295.499 507.088C289.055 504.745 260.346 472.522 257.417 466.663C254.488 460.804 252.144 413.935 253.902 406.318C255.66 398.702 258.003 401.631 258.003 401.631L265.62 410.419C265.62 410.419 277.923 426.824 280.852 425.652C281.199 425.513 281.464 425.44 281.661 425.409C281.292 425.05 280.852 424.049 280.852 421.551C280.852 415.106 273.236 401.631 273.236 401.631C273.236 401.631 263.862 383.469 262.104 379.368C260.347 375.267 261.519 372.923 260.933 367.065Z" fill="#2976A2"/>
<path d="M407.987 598.485C406.815 594.969 409.158 582.08 413.259 582.08C415.273 582.08 416.189 589.111 416.189 592.626C416.189 596.141 416.775 602 417.946 603.757C419.118 605.515 422.048 612.545 422.633 614.889C423.219 617.232 423.805 619.576 424.391 621.334C424.977 623.091 426.149 626.021 427.32 628.364C428.492 630.708 429.078 636.566 429.664 639.496C430.25 642.425 435.523 654.728 435.523 654.728C435.523 654.728 423.805 644.768 422.633 643.011C421.462 641.253 421.462 641.253 420.876 638.324C420.29 635.395 417.361 631.293 416.775 628.364C416.189 625.435 416.189 622.505 415.017 618.99C413.845 615.475 410.33 606.687 410.33 606.687C410.33 606.687 409.158 602 407.987 598.485Z" fill="#2976A2"/>
<path d="M125.01 529.352C125.01 529.352 116.222 548.685 116.808 552.201C117.394 555.716 136.142 594.383 140.243 601.414C144.344 608.444 154.889 619.576 158.405 625.435C161.92 631.293 180.082 645.94 184.183 643.011C186.342 641.469 170.532 621.907 158.405 601.414C147.498 582.984 137.899 566.262 140.243 564.504C142.586 562.746 208.79 630.708 219.921 639.496C231.053 648.284 277.923 684.608 289.64 689.295C301.357 693.982 307.802 706.871 315.418 712.73C323.035 718.588 327.722 720.346 332.995 718.588C335.755 717.668 331.237 687.537 328.893 673.476C326.55 659.415 324.207 637.152 327.722 636.566C331.237 635.98 338.268 648.284 344.126 656.486C349.985 664.688 358.773 676.406 361.702 684.022C364.632 691.638 364.046 699.255 364.046 708.043C364.046 716.831 359.945 722.104 359.945 722.104H265.619L242.77 703.942C242.77 703.942 209.961 685.194 202.345 678.749C194.729 672.305 164.263 645.354 164.263 645.354C164.263 645.354 97.4738 589.111 96.302 584.424C95.1303 579.737 102.161 559.817 106.848 552.201C111.535 544.584 125.01 529.352 125.01 529.352Z" fill="#042C50"/>
<path d="M375.177 722.104L426.148 722.69C426.148 722.69 393.925 647.112 392.754 650.627C391.582 654.142 385.137 694.568 382.794 701.598C380.45 708.629 375.177 722.104 375.177 722.104Z" fill="#042C50"/>
<path d="M446.654 703.942C450.169 708.043 456.028 722.69 456.028 722.69H446.654L427.32 685.194C427.32 685.194 443.139 699.841 446.654 703.942Z" fill="#042C50"/>
<path d="M240.427 422.723L245.7 406.318L248.629 445.572L238.669 456.703V450.845L240.427 445.572V422.723Z" fill="#0B1E25"/>
<path d="M241.598 471.35C243.942 469.007 249.801 453.188 250.386 454.946C250.972 456.703 253.316 484.825 252.144 487.169C250.972 489.512 248.629 489.512 248.629 491.27C248.629 493.028 256.245 505.917 256.245 505.917C256.245 505.917 258.003 518.806 258.589 521.735C259.175 524.665 272.65 557.474 272.064 560.403C271.478 563.332 268.549 563.332 267.963 566.262C267.377 569.191 272.064 575.05 270.306 576.221C268.549 577.393 260.932 572.706 258.589 570.363C256.245 568.019 256.245 540.483 256.245 540.483L249.801 518.806L243.942 505.917C243.942 505.917 242.184 490.684 241.013 489.512C239.841 488.341 235.154 493.028 233.396 493.028C231.639 493.028 224.608 494.785 222.85 493.028C221.093 491.27 239.255 473.694 241.598 471.35Z" fill="#0B1E25"/>
<path d="M292.569 586.181C289.054 582.666 283.781 581.494 283.781 581.494C283.781 581.494 301.357 609.03 303.701 616.647C306.044 624.263 314.247 637.152 314.247 637.152C314.247 637.152 313.661 634.223 313.661 628.364C313.661 622.505 310.146 613.717 307.802 609.03C305.459 604.343 296.085 589.697 292.569 586.181Z" fill="#0B1E25"/>
<path d="M394.511 654.143C392.754 652.385 396.269 618.99 396.269 618.99L506.999 719.761C506.999 719.761 506.999 712.144 508.17 708.629C509.342 705.114 511.686 705.114 513.443 699.255C515.201 693.396 480.634 568 480.634 568V546.928C480.634 546.928 453.684 432.097 453.684 429.168C453.684 426.238 456.614 422.723 456.614 420.38C456.614 418.036 432.593 398.116 432.593 398.116L385.723 355.348C385.723 355.348 366.975 338.943 357.015 333.085C347.055 327.226 329.479 320.195 323.621 319.61C317.762 319.024 298.428 315.508 291.983 317.852C285.539 320.195 275.579 323.711 268.548 331.913C261.518 340.115 249.215 364.722 249.215 364.722C249.215 364.722 248.629 358.277 249.215 354.176C249.801 350.075 253.316 329.569 256.831 326.054C260.346 322.539 273.235 310.821 278.508 307.306C283.781 303.791 306.63 291.488 313.075 289.73C319.519 287.972 331.823 285.043 347.055 287.387C362.288 289.73 376.349 299.69 383.38 302.619C390.41 305.549 422.633 331.913 422.633 331.913C422.633 331.913 444.31 352.418 446.068 353.004C447.826 353.59 451.341 348.903 451.927 346.56C452.513 344.216 436.108 317.852 436.108 317.852C436.108 317.852 460.129 351.833 463.058 351.247C465.988 350.661 458.176 313.751 461.301 311.407C464.425 309.064 485.321 317.852 487.665 317.852C490.008 317.852 490.008 306.72 491.18 307.306C492.352 307.892 505.827 337.772 505.241 346.56C504.655 355.348 491.18 382.298 491.18 382.298C491.18 382.298 502.312 382.298 504.069 383.47C505.827 384.641 506.999 394.601 506.999 394.601C506.999 394.601 531.019 393.43 534.535 394.601C538.05 395.773 552.697 405.733 557.384 406.319C562.071 406.905 584.92 411.592 584.92 411.592C584.92 411.592 617.143 419.208 620.658 421.551C624.173 423.895 652.295 452.603 654.639 453.774C656.982 454.946 662.841 453.774 662.841 453.774C662.841 453.774 666.356 450.845 667.528 450.845C668.7 450.845 676.316 453.774 676.316 453.774C676.316 453.774 680.417 451.431 682.76 451.431C685.104 451.431 684.518 453.774 684.518 453.774C684.518 453.774 691.549 450.259 694.478 450.845C697.407 451.431 702.68 457.29 704.438 457.875C706.195 458.461 709.711 459.633 712.054 461.391C714.398 463.148 717.913 473.108 722.014 475.452C726.115 477.795 734.317 478.381 736.075 480.139C737.833 481.896 746.035 494.2 746.035 494.2L761.267 524.665C761.267 524.665 771.227 550.443 771.813 557.474C772.399 564.504 770.056 567.434 768.884 577.979C767.712 588.525 769.47 604.344 769.47 604.344V637.738C769.47 643.597 776.5 667.618 777.672 676.406C778.844 685.194 776.5 722.69 776.5 722.69H511.1H462.472C462.472 722.69 448.411 705.7 445.482 702.77C442.553 699.841 434.936 693.982 431.421 689.881C427.906 685.78 426.734 682.265 424.391 679.921C422.047 677.578 409.158 668.79 405.057 664.689L394.511 654.143Z" fill="#181818"/>
<path d="M539.807 658.244C547.814 679.14 564.063 721.518 565 723.862H614.213L586.677 670.547L603.668 662.931L590.778 652.971L549.767 662.931L539.807 658.244Z" fill="#2A2A28"/>
<path d="M649.952 661.759C649.952 663.517 623.001 661.759 617.729 656.486C612.456 651.213 586.677 568.019 586.677 568.019C586.677 568.019 584.334 559.231 584.92 556.888C585.506 554.544 589.021 553.373 591.364 554.544C593.708 555.716 648.78 650.042 649.952 652.971C651.123 655.9 649.952 660.001 649.952 661.759Z" fill="#2A2A28"/>
<path d="M579.061 585.01C581.99 590.283 600.738 624.849 596.637 631.294C592.536 637.738 562.657 644.183 556.212 640.082C549.767 635.981 503.483 502.402 503.483 502.402C503.483 502.402 467.745 413.349 465.402 412.177C463.058 411.006 460.129 416.278 458.957 415.107C457.785 413.935 456.028 412.177 457.199 410.42C458.371 408.662 464.816 406.904 466.573 405.147C468.331 403.389 470.089 393.429 475.361 392.258C480.634 391.086 509.928 401.046 511.686 400.46C513.443 399.874 503.483 393.429 506.413 392.258C509.342 391.086 534.535 395.187 536.878 395.773C539.222 396.359 556.798 407.49 557.97 407.49C559.141 407.49 557.969 406.319 560.899 406.319C563.828 406.319 590.778 413.349 590.778 413.349C590.778 413.349 611.284 416.864 614.213 419.208C617.143 421.551 620.072 432.683 621.244 434.44C622.416 436.198 647.608 461.391 651.123 461.391C654.639 461.391 662.841 455.532 667.528 456.704C672.215 457.875 673.386 461.391 673.386 461.391L699.165 549.272H710.296C710.296 549.272 682.76 464.906 684.518 463.734C686.276 462.562 690.963 460.805 693.306 461.391C695.65 461.976 710.296 485.411 710.296 485.411C710.296 485.411 722.6 491.856 724.943 493.614C727.287 495.371 737.832 505.331 738.418 508.846C739.004 512.362 730.802 555.716 730.802 555.716V596.727C730.802 599.657 732.56 603.758 731.388 604.929C730.216 606.101 722.014 606.687 719.085 604.929C716.155 603.172 682.76 524.665 681.003 524.665C679.245 524.665 692.72 566.848 689.791 569.191C686.861 571.535 647.022 517.049 644.093 518.22C641.163 519.392 662.841 599.071 662.841 599.071L687.447 689.295H679.245L667.528 652.971L651.123 603.172L632.375 526.422L610.698 445.572L626.517 515.877L564.414 461.391L560.899 451.431L547.424 456.704L543.909 461.391C543.909 461.391 492.352 423.309 487.665 427.41C482.978 431.511 529.262 513.533 532.777 518.22C536.292 522.907 576.132 579.737 579.061 585.01Z" fill="#2A2A28"/>
<path d="M766.54 576.222C766.54 578.565 768.884 602 766.54 603.172C764.197 604.344 745.449 585.01 744.277 581.495C743.105 577.979 745.449 555.716 746.035 551.615C746.621 547.514 748.964 530.524 748.964 526.422C748.964 522.321 744.863 513.533 744.277 512.362C743.691 511.19 747.206 507.089 748.964 508.846C750.722 510.604 764.197 532.281 765.368 535.211C766.54 538.14 772.399 552.787 772.399 558.645C772.399 564.504 766.54 573.878 766.54 576.222Z" fill="#2A2A28"/>
<path d="M546.252 411.592C543.909 408.076 531.605 405.147 531.605 405.147L541.565 435.026L555.04 433.855C555.04 433.855 548.596 415.107 546.252 411.592Z" fill="#878785"/>
<path d="M612.456 419.208C608.941 416.279 589.607 413.349 589.607 413.349C589.607 413.349 603.082 423.895 604.839 427.41C606.597 430.925 615.385 456.118 619.486 467.835C623.587 479.553 630.618 512.948 632.375 514.119C634.133 515.291 641.749 511.776 641.749 511.776C641.749 511.776 629.446 469.007 627.688 460.219C625.931 451.431 615.971 422.137 612.456 419.208Z" fill="#878785"/>
<path d="M668.7 455.532C666.942 454.946 664.013 457.289 664.013 455.532C664.013 453.774 667.528 450.845 668.7 450.845C669.871 450.845 672.923 450.969 675.73 452.602C678.537 454.236 681.003 450.845 682.175 452.602C683.346 454.36 689.205 484.825 693.306 497.129C697.407 509.432 707.953 541.655 707.953 541.655C707.953 541.655 709.711 546.928 708.539 549.271C707.367 551.615 698.579 551.029 697.993 548.685C697.407 546.342 683.932 500.058 683.932 500.058C683.932 500.058 675.73 466.663 673.972 463.148C672.215 459.633 670.457 456.118 668.7 455.532Z" fill="#F3F3F3"/>
<path d="M553.283 427.996C552.111 426.824 540.393 427.996 540.393 427.996L546.252 447.329C546.252 447.329 555.626 480.138 556.798 484.825C557.97 489.512 573.202 552.787 574.96 555.13C576.718 557.473 586.092 555.716 587.263 553.372C588.435 551.029 577.889 518.22 577.889 518.22C577.889 518.22 567.344 479.552 566.758 475.451C566.172 471.35 554.454 429.167 553.283 427.996Z" fill="#F3F3F3"/>
<path d="M735.489 566.847C736.075 563.332 741.934 539.897 744.277 540.483C746.621 541.069 743.105 561.575 743.105 561.575L742.52 580.323C742.52 580.323 741.934 603.757 740.762 605.515C739.59 607.273 737.247 604.929 737.247 604.929C737.247 604.929 733.731 596.727 733.731 593.212C733.731 589.697 734.903 570.363 735.489 566.847Z" fill="#F3F3F3"/>
</svg>
