<svg width="664" height="618" viewBox="0 0 664 618" fill="none" xmlns="http://www.w3.org/2000/svg">
<path d="M197 253.5L192 247L257 182L262 184.5L240.5 225.5L197 253.5Z" fill="#FCB877"/>
<path d="M239.187 216.263C249.187 205.263 260.187 179.263 260.187 179.263C260.187 179.263 267.687 184.763 275.687 181.263C284.187 176.263 283.187 175.263 289.187 171.263C299.187 161.763 298.687 161.763 304.187 150.263C307.687 134.763 305.187 126.763 303.187 123.263C301.187 119.763 296.687 108.263 285.187 112.763C273.687 117.263 266.187 130.763 266.187 130.763C266.187 130.763 260.187 135.263 257.687 130.763C255.187 126.263 254.619 123.263 253.187 112.763C252.914 110.763 244.96 106.763 235.687 98.2635C229.687 92.7635 224.687 84.2635 219.687 78.2635C215.687 75.2635 203.187 68.7635 196.687 63.7635C190.187 58.7635 187.187 55.7635 179.187 48.7635C176.979 46.8312 172.187 46.2634 172.187 46.2634C172.187 46.2634 180.187 39.7634 176.687 37.2635C173.187 34.7635 167.687 46.2634 167.687 46.2634C167.687 46.2634 150.687 51.7635 144.187 54.2635C137.687 56.7635 127.687 62.7635 124.187 68.7635C122.279 72.0343 122.041 81.3974 120.187 91.2635C118.64 99.4955 114.869 107.078 114.187 112.763C114.187 127.263 118.687 124.263 118.687 132.763C118.687 141.263 117.187 142.263 115.187 147.763C113.187 157.263 112.687 164.763 115.187 171.263C119.033 181.263 137.02 203.263 142.687 220.263C146.187 230.763 146.687 238.263 151.187 246.763C155.687 255.263 174.687 257.263 189.187 249.263L189.721 248.969C204.305 240.923 229.308 227.13 239.187 216.263Z" fill="#FCB877"/>
<path d="M136.046 166C136.546 163.5 143.546 151.5 143.546 151.5C143.546 151.5 137.046 164.5 139.046 168.5C140.296 171 143.546 171 147.046 171.5C150.546 172 154.046 169.5 158.046 169.5C162.046 169.5 163.546 170 166.046 170H170.546C170.546 170 169.446 175 167.046 176.5C165.046 177.75 158.046 177 155.046 178C150.546 179.5 149.046 180.125 144.546 179C140.046 177.875 139.546 176 137.546 174C135.546 172 135.546 168.5 136.046 166Z" fill="#E2733B" fill-opacity="0.63"/>
<path d="M147.046 126C148.046 130 147.046 138.9 147.046 140.5C147.046 140.5 147.046 134 145.046 130.5C143.046 127 140.046 124.437 137.546 123.5C133.546 122 134.546 118 138.546 118C142.546 118 146.046 122 147.046 126Z" fill="#E2733B" fill-opacity="0.63"/>
<path d="M276.546 143.5C276.046 146 276.046 145.5 274.546 148C273.046 150.5 273.546 160.5 274.546 162.5C275.546 164.5 278.546 161 280.046 160C281.547 159 283.546 160 285.046 159C286.546 158 290.046 156 291.046 153L291.046 153C292.047 150 292.047 150 290.546 147.5C289.046 145 286.546 142 285.046 142.5C283.546 143 288.546 149 286.546 150C284.546 151 277.046 141 276.546 143.5Z" fill="#E2733B" fill-opacity="0.63"/>
<path d="M283.546 135.5C281.546 137 278.546 137 278.546 137C278.546 137 284.546 127 288.046 125.5C291.547 124 297.546 125 299.046 126.5C300.547 128 302.046 137 300.546 138C299.046 139 292.547 129 291.046 128.5C289.546 128 285.546 134 283.546 135.5Z" fill="#E2733B" fill-opacity="0.63"/>
<path d="M196.046 253L191.36 247.237C191.36 247.237 211.5 236 215.5 233.5C218.049 231.907 230.754 222.392 239.634 215.701C243.527 209.116 248.597 200.456 249.5 198.5C251 195.25 258.5 182.5 258.5 182.5L262.046 184.5C262.046 184.5 254.046 202.5 252.046 206C251.125 207.613 247.43 211.458 243.716 215.134C238.317 222.027 230.028 232.518 228.046 234.5C225.046 237.5 196.046 253 196.046 253Z" fill="#E2733B" fill-opacity="0.63"/>
<path d="M169.187 231.763C170.853 229.264 172.187 221.263 170.687 218.263L148.687 222.764C152.187 236.763 167.52 234.263 169.187 231.763Z" fill="#F0864A"/>
<path d="M190.187 121.764C199.187 120.764 212.687 125.263 212.687 128.264C212.687 134.264 205.687 139.764 193.187 140.764C180.687 141.764 177.687 133.264 177.687 133.264C177.687 133.264 181.187 122.764 190.187 121.764Z" fill="#F6F2EF"/>
<path d="M125.187 143.263C129.687 144.763 136.187 143.263 136.187 143.263L138.187 128.763L127.187 126.763L121.687 130.263C121.687 130.263 120.187 132.763 120.687 136.263C120.687 138.763 120.687 141.763 125.187 143.263Z" fill="#FAF7F0" stroke="#FAF7F0" stroke-width="0.1"/>
<path d="M208.187 271.763C202.187 259.763 193.687 249.763 193.687 249.763L175.687 256.763C175.687 256.763 178.687 258.264 182.187 272.764C185.687 287.264 170.687 322.764 170.687 322.764C170.687 322.764 214.187 283.763 208.187 271.763Z" fill="#171918"/>
<path d="M113.687 125.764C113.687 125.764 109.866 123.764 107.187 113.764C104.508 103.764 107.187 76.2635 109.687 61.2635C120.187 29.7637 170.187 -8.73639 228.687 1.76361C287.187 12.2636 310.187 55.7636 310.187 55.7636C310.187 55.7636 318.687 55.7636 325.687 59.2636C332.687 62.7636 354.187 90.7636 357.687 113.764C361.187 136.764 354.687 161.264 357.687 188.764C360.687 216.264 372.187 240.764 372.187 240.764C384.186 252.764 409.687 258.764 409.687 258.764C409.687 258.764 400.687 271.264 395.687 272.764C390.687 274.264 379.687 276.263 372.187 274.263C364.687 272.263 341.687 253.763 332.187 247.263C322.687 240.763 312.687 238.263 307.687 227.263C306.323 224.263 305.187 223.263 305.687 221.763C306.187 220.263 290.187 192.263 286.187 190.763C282.187 189.263 266.187 196.763 265.187 194.763C264.187 192.763 266.187 187.764 267.187 186.764C268.187 185.764 270.187 185.263 273.187 184.263C276.187 183.263 297.187 166.763 300.687 157.263C304.187 147.763 306.687 118.263 290.187 117.263C273.687 116.263 270.687 135.263 262.187 137.263C251.187 138.263 255.302 119.763 250.687 115.763C238.687 108.263 225.187 95.7635 216.687 82.2635C208.687 76.7635 202.187 73.7636 197.687 70.2636C175.687 50.7636 174.187 52.2636 172.687 50.7636C171.187 49.2636 174.187 46.7636 175.687 45.7636C177.187 44.7636 176.687 40.7636 174.187 42.2636C171.687 43.7636 170.687 47.7636 167.187 50.7636C163.687 53.7636 130.087 59.2636 124.687 72.7635C119.287 86.2634 118.187 105.763 116.187 108.764C121.187 108.763 129.687 108.263 135.187 111.263C139.187 113.764 140.687 116.263 139.187 118.263C137.687 120.263 123.687 114.763 118.687 114.764C113.687 114.764 113.687 118.263 113.687 118.263V125.764Z" fill="#171918"/>
<path d="M146.187 199.763C145.687 200.263 147.687 205.263 148.187 208.763C148.687 212.263 150.687 215.263 151.187 215.763C151.687 216.263 156.687 219.263 163.687 217.263C170.687 215.263 179.187 203.763 178.187 204.263C177.187 204.763 169.187 201.263 166.687 200.763C164.187 200.263 161.687 199.263 159.687 199.263C157.687 199.263 155.187 197.763 153.187 197.763C151.187 197.763 146.687 199.263 146.187 199.763Z" fill="#171918"/>
<path d="M119.187 128.263C117.187 130.263 117.187 132.263 115.187 131.263C113.187 130.263 115.687 133.263 116.687 134.763C117.687 136.263 119.687 138.263 120.187 137.763C120.687 137.263 120.187 131.763 125.187 128.763C127.88 127.148 130.687 128.263 130.687 128.263C130.687 128.263 127.187 131.263 127.187 135.763C127.187 140.263 127.687 142.763 132.187 144.263C136.687 145.763 145.187 142.263 145.687 141.763C146.187 141.263 146.187 130.763 140.187 127.263C134.187 123.763 130.687 123.763 126.687 124.263C122.687 124.763 121.187 126.263 119.187 128.263Z" fill="#171918"/>
<path d="M185.187 120.763C176.687 123.763 175.187 136.763 175.187 136.763C175.187 136.763 181.687 127.763 184.187 125.763C186.687 123.763 193.187 123.763 193.187 123.763C193.187 123.763 188.687 126.263 188.687 131.763C188.687 137.263 191.687 140.763 193.687 141.763C195.687 142.763 200.687 142.263 204.187 141.263C207.687 140.263 210.687 134.263 210.687 134.263C210.687 134.263 209.687 134.263 209.187 133.763C208.687 133.263 208.687 131.763 209.687 131.263C210.187 131.013 210.687 131.763 210.687 131.763C211.187 132.263 213.187 132.263 215.187 131.263C217.187 130.263 220.187 126.763 220.187 126.763C220.187 126.763 216.187 127.263 213.187 126.263C210.187 125.263 204.187 120.763 201.687 120.263C199.187 119.763 193.687 117.763 185.187 120.763Z" fill="#171918"/>
<path d="M201.687 107.263C208.187 106.763 220.687 112.263 220.687 112.263C220.687 112.263 208.187 101.263 200.687 100.263C193.187 99.2635 173.687 105.263 171.187 107.263C168.687 109.263 166.687 113.763 171.187 114.763C175.687 115.763 195.187 107.763 201.687 107.263Z" fill="#171918"/>
<path d="M87.1868 313.263C88.1865 310.263 86.1868 299.263 86.1868 299.263C86.1868 299.263 86.1865 309.763 84.6868 312.263C83.187 314.763 81.1868 316.263 79.6868 317.763C78.1868 319.263 78.1871 322.263 79.1871 321.763C80.1871 321.263 86.1871 316.263 87.1868 313.263Z" fill="#B95A1A"/>
<path d="M107.187 287.263H110.187V313.263C110.187 313.263 112.187 337.763 112.187 343.763C112.187 349.763 113.687 372.263 113.687 372.263H112.187L107.187 287.263Z" fill="#B95A1A"/>
<path d="M34.1868 410.763C48.1868 421.263 56.6868 421.263 56.6868 421.263L60.6869 414.763L30.4369 397.263L0.186885 379.763C0.186885 379.763 -1.31323 382.763 4.18677 389.763C9.68677 396.763 20.1868 400.263 34.1868 410.763Z" fill="#E97C41"/>
<path d="M111.187 325.263L113.187 372.263L107.687 373.263C107.687 373.263 108.437 359.263 109.187 353.263C109.937 347.263 111.187 325.263 111.187 325.263Z" fill="#E97C41"/>
<path d="M208.186 274.763C208.186 274.763 202.186 268.764 200.686 263.764C199.186 258.764 195.187 251.763 195.187 251.763C195.187 251.763 205.687 246.763 212.187 242.763C218.687 238.763 237.186 222.764 237.186 222.764C238.513 220.886 239.686 219.29 240.728 217.927C242.719 215.151 245.28 211.486 247.687 207.763L253.398 197.769C253.502 197.584 253.598 197.415 253.687 197.263C257.187 191.263 260.187 183.763 260.187 183.763C260.187 183.763 266.187 185.263 266.687 186.263C267.187 187.264 265.687 191.263 265.687 194.763C265.387 196.263 261.787 195.783 255.187 202.263C253.484 203.935 252.187 205.263 250.187 207.763C248.476 209.902 246.903 209.845 240.728 217.927C238.644 220.833 237.186 222.764 237.186 222.764C225.065 233.264 208.186 274.763 208.186 274.763Z" fill="#E26231"/>
<path d="M269.686 158.264C273.686 155.764 268.686 146.264 271.686 147.764C274.686 149.264 276.686 161.264 274.186 163.764C271.686 166.264 268.686 168.264 267.186 166.264C265.686 164.264 265.686 160.764 269.686 158.264Z" fill="#E26231"/>
<path d="M276.686 145.263C278.186 146.763 285.186 154.763 286.686 151.763C292.686 142.763 276.686 140.763 277.686 138.264C285.186 135.263 287.186 127.764 290.186 127.764C293.186 127.763 298.186 138.264 299.686 138.264C301.186 138.264 298.686 115.264 285.186 124.264C271.686 133.264 275.186 143.763 276.686 145.263Z" fill="#E26231"/>
<path d="M166.187 213.763C171.437 210.763 176.687 206.763 176.687 206.763L173.687 217.763C173.687 217.763 168.187 227.763 162.687 227.763C157.187 227.763 149.688 228.263 147.687 222.763C145.686 217.263 145.687 213.263 145.187 209.263C144.687 205.263 142.001 205.188 140.187 201.763C138.687 197.263 139.187 194.264 142.187 192.263C145.687 192.263 147.687 193.763 147.687 193.763C151.187 193.763 151.185 192.263 155.686 192.263C157.714 192.263 162.781 196.697 167.187 199.263C172.556 202.391 177.186 204.263 177.186 204.263C177.186 204.263 167.81 203.738 166.187 202.763C163.687 201.263 155.686 200.263 155.686 200.263C155.686 200.263 148.567 199.724 147.687 201.263C146.544 203.263 150.187 205.263 150.187 208.263C150.187 211.263 149.187 212.763 152.687 214.763C156.187 216.763 162.687 215.763 166.187 213.763Z" fill="#E26231"/>
<path d="M151.687 176.763C151.687 176.763 161.187 177.763 162.187 176.763C163.187 175.763 161.187 173.263 158.187 173.263C155.187 173.263 151.687 176.763 151.687 176.763Z" fill="#E26231"/>
<path d="M138.687 174.763C139.687 174.763 144.687 178.763 143.687 178.763C142.687 178.763 141.687 178.263 140.687 177.763C139.687 177.263 137.687 174.763 138.687 174.763Z" fill="#E26231"/>
<path d="M341.187 249.763C343.187 251.763 370.687 273.263 370.687 273.263C370.687 273.263 333.687 238.763 331.187 235.263C328.687 231.763 324.687 201.763 323.187 196.263C321.687 190.763 315.187 182.263 314.687 179.763C314.187 177.263 311.187 164.263 311.187 164.263C311.187 164.263 310.687 175.763 311.187 178.263C311.687 180.763 319.187 198.263 320.187 201.763C321.187 205.263 324.187 231.763 326.187 235.263C328.187 238.763 339.187 247.763 341.187 249.763Z" fill="#0C0C0C"/>
<path d="M175.687 45.2635C174.687 47.2635 172.187 47.2635 172.187 49.2635C172.187 51.2635 180.187 54.7635 188.187 62.2635C196.186 69.7635 214.549 80.4015 215.187 79.7635C216.187 78.7635 208.687 69.2635 210.187 67.7635C211.687 66.2635 250.187 87.2635 252.187 84.7635C254.187 82.2635 224.187 56.2635 224.187 54.2635C224.187 52.2635 232.187 52.7635 233.187 50.2635C234.187 47.7635 200.187 47.7635 198.187 45.2635C196.187 42.7635 206.687 35.2635 205.187 33.2635C203.687 31.2635 183.687 42.2635 182.687 41.2635C181.687 40.2635 184.687 32.7635 183.187 31.2635C181.687 29.7635 173.187 40.2635 172.687 41.2635C172.187 42.2635 176.687 40.7635 176.687 42.2635C176.687 43.7635 176.687 43.2635 175.687 45.2635Z" fill="#2E2E2C"/>
<path d="M312.687 66.2635C311.323 62.7635 305.687 50.2635 305.687 50.2635C305.687 50.2635 319.187 67.7635 320.187 80.7635C321.187 93.7635 319.187 102.763 319.187 102.763L315.687 84.7635C315.687 84.7635 314.051 69.7635 312.687 66.2635Z" fill="#2E2E2C"/>
<path d="M325.187 197.263C319.187 178.263 322.187 144.763 325.187 144.763C328.187 144.763 355.187 235.263 368.187 244.763C381.187 254.263 406.687 258.763 406.687 258.763C406.687 258.763 388.687 265.263 377.687 261.263C374.187 259.991 365.345 252.263 363.687 248.763C359.187 239.263 331.187 216.263 325.187 197.263Z" fill="#2E2E2C"/>
<path d="M5.68692 366.263C5.68664 370.263 -0.313237 369.263 0.686615 379.263C1.28653 385.263 29.1866 396.764 37.1868 402.263C45.1869 407.763 60.6866 415.264 60.6866 415.264C60.6866 415.264 69.6866 402.764 83.6866 389.764C97.6866 376.764 108.187 372.763 108.187 372.763C108.187 372.763 110.687 328.263 110.687 321.763C110.687 315.263 109.687 303.763 109.187 298.263C108.686 292.764 107.186 289.263 107.187 287.763C107.187 286.263 110.186 288.763 110.687 287.763C111.187 286.763 111.187 281.763 113.187 275.263C115.187 268.763 121.354 261.263 120.187 257.763C119.686 256.263 102.687 247.264 89.1866 276.763C82.1868 292.059 89.1866 314.621 84.1868 314.263C77.1866 313.763 60.1868 301.263 49.6866 301.763C45.1868 301.978 38.1868 303.263 35.1866 307.263C32.1865 311.263 34.1869 319.763 30.1868 320.763C26.1866 321.763 10.1868 319.263 14.6866 343.263C13.1865 346.763 2.18692 348.763 5.68692 366.263Z" fill="#FCB877"/>
<path d="M205.187 271.764L207.187 272.264L254.187 250.263L279.187 231.263L308.187 219.263C308.187 219.263 311.187 229.263 317.187 233.263C323.187 237.263 328.687 240.263 328.687 240.263C328.687 240.263 338.187 243.763 340.687 245.763C343.187 247.763 347.687 253.763 351.687 256.263C355.687 258.763 366.687 266.263 369.687 268.263C372.687 270.263 390.687 297.263 393.187 300.763C395.687 304.263 387.187 345.263 389.687 357.263C390.138 359.427 389.079 368.263 389.687 371.763L397.596 407.091C400.116 417.615 402.702 428.587 404.687 438.763C409.239 462.104 410.687 468.263 410.687 481.263C410.687 494.263 440.187 590.263 439.187 596.263C438.187 602.263 435.187 601.763 435.187 607.763C435.187 613.763 434.187 616.763 434.187 616.763H320.687H226.187H200.687V598.763L174.687 582.263L141.687 552.263L107.687 521.763L89.6868 507.263L71.6868 486.263L40.6868 452.263V438.763L53.1868 420.263L56.1868 418.263L71.6868 409.763L119.687 369.763L162.687 418.263L159.687 426.763C159.687 426.763 166.687 433.763 170.687 437.263C174.687 440.763 178.687 447.763 181.687 450.263C184.687 452.763 198.187 457.263 198.187 457.263L197.687 432.263C197.687 432.263 199.187 422.763 198.187 421.763C197.187 420.763 188.687 422.263 187.187 421.763C185.687 421.263 185.687 405.763 189.187 401.763C192.687 397.763 193.687 400.263 200.187 394.263C206.687 388.263 210.187 379.763 210.187 379.763L209.187 329.763L210.187 321.263C210.187 321.263 206.517 330.134 203.687 335.264C195.687 349.764 190.187 360.264 188.687 362.764C187.187 365.264 184.187 370.764 182.187 372.264C180.187 373.764 177.687 374.264 176.187 372.264C174.687 370.264 174.187 367.764 175.687 363.764C177.187 359.764 184.187 346.264 184.187 346.264C184.187 346.264 189.687 338.264 191.187 332.264C192.687 326.264 192.187 328.764 192.187 325.264C192.187 321.764 175.687 332.264 173.687 332.264C171.687 332.264 169.687 325.264 170.187 322.764C170.687 320.264 193.687 300.764 197.187 294.764C200.687 288.764 205.187 271.764 205.187 271.764Z" fill="#0B273D"/>
<path d="M309.187 221.264C310.187 217.763 287.687 188.263 283.687 186.263C282.187 185.513 257.187 194.764 237.687 221.264C218.187 247.764 215.187 250.263 207.687 271.763C200.187 293.263 195.187 326.263 192.187 334.763C189.187 343.264 177.687 361.263 176.687 365.263C175.687 369.264 180.187 370.763 180.187 370.763C180.187 370.763 197.187 346.263 198.687 340.263C200.187 334.263 213.187 312.763 213.187 312.763C213.187 312.763 213.173 302.536 214.687 293.263C215.95 285.528 218.732 278.628 219.187 277.263C220.187 274.264 240.187 261.263 245.187 258.763C250.187 256.264 258.687 251.263 260.687 249.763C262.687 248.263 265.036 242.381 274.187 235.263C292.187 221.264 308.187 224.764 309.187 221.264Z" fill="#073C64"/>
<path d="M213.687 312.263V302.763C213.687 302.763 200.687 327.263 198.187 330.763C195.687 334.263 191.187 346.763 188.687 350.263C186.187 353.763 177.327 362.773 175.827 364.273C174.327 365.773 176.327 374.273 180.827 372.273C183.527 371.073 193.687 352.763 200.687 336.763C206.545 325.4 213.687 312.263 213.687 312.263Z" fill="#3981A9"/>
<path d="M306.187 214.763L309.687 221.763C309.687 221.763 291.187 224.263 277.687 233.263C264.187 242.263 262.687 248.263 259.687 250.263C256.687 252.263 246.687 257.263 246.687 257.263L267.687 229.763L306.187 214.763Z" fill="#3981A9"/>
<path d="M275.187 228.763C279.687 224.763 307.187 216.263 307.187 216.263C307.187 216.263 301.187 207.263 298.687 203.763C296.187 200.263 284.187 185.763 284.187 185.763C284.187 185.763 280.187 186.763 270.187 191.763C260.187 196.763 253.187 204.263 250.687 206.763C248.187 209.263 240.187 218.263 240.187 218.263C240.187 218.263 245.187 218.263 245.187 219.763C245.187 221.263 244.687 223.263 245.187 224.263C245.687 225.263 258.687 236.763 258.687 238.263C258.687 239.763 255.187 241.763 254.187 242.763C253.187 243.763 253.687 246.763 253.187 248.263C252.687 249.763 247.687 251.764 246.687 253.763C245.687 255.763 246.687 257.263 246.687 257.263C246.687 257.263 270.687 232.763 275.187 228.763Z" fill="#0B4B79"/>
<path d="M241.687 576.263C250.187 577.263 262.687 591.263 267.187 589.763C269.41 589.022 270.818 571.681 267.187 548.763C263.47 525.304 254.686 505.763 258.186 506.263C261.686 506.763 282.686 524.763 287.686 529.763C292.686 534.763 308.186 565.263 312.686 573.263C317.186 581.263 316.686 606.263 323.186 601.263C329.686 596.263 326.186 573.263 321.686 562.763C317.186 552.263 308.686 538.763 298.186 526.263C287.686 513.763 253.186 486.763 236.186 485.263C236.186 485.263 222.687 431.263 226.687 429.263C230.687 427.263 292.686 502.763 298.687 494.763C304.687 486.763 250.187 431.764 250.187 431.764L317.187 436.264C317.187 436.264 271.687 388.263 282.687 381.763C293.687 375.264 316.187 398.764 322.187 404.264C324.298 406.199 328.281 398.282 322.187 381.763C318.233 371.046 307.524 366.38 302.687 355.763C293.79 336.239 289.686 313.764 292.187 314.264C294.687 314.764 330.686 366.263 334.187 370.764C337.687 375.264 340.186 454.763 340.186 454.763L338.687 515.264L340.186 544.263L359.187 557.764C359.187 557.764 369.685 557.263 368.686 553.763C367.687 550.264 351.185 510.763 354.186 507.263C357.187 503.764 386.187 504.764 390.187 498.264C394.187 491.764 400.187 483.763 400.187 478.763C400.187 473.764 371.687 463.264 367.687 464.264C363.686 465.263 350.687 481.764 346.187 481.764C341.686 481.764 344.687 421.264 344.687 412.764C344.687 404.263 340.186 385.763 340.186 385.763L336.186 355.763V345.263C336.186 345.263 358.186 403.763 363.687 410.264C369.187 416.764 400.685 437.263 404.186 441.263C407.687 445.264 409.685 472.263 409.686 478.763C409.687 485.263 391.687 547.264 392.687 552.264C393.686 557.263 433.686 570.764 433.686 570.764L438.186 595.763L433.686 606.263V616.763H359.187L336.186 566.763L320.186 616.763H307.186C307.186 616.763 313.686 609.263 309.686 589.763C307.584 579.516 299.848 571.06 293.686 561.763C288.122 553.369 284.219 543.552 280.186 544.263C271.686 545.763 290.186 612.263 282.686 614.263C275.186 616.263 249.186 595.763 249.186 595.763C244.686 593.263 233.187 575.263 241.687 576.263Z" fill="#0D507D" stroke="#0D507D" stroke-width="0.1"/>
<path d="M43.1869 442.763C42.6869 440.263 49.6869 427.263 51.6869 426.263C53.6869 425.263 59.6869 428.763 59.6869 431.263C59.6869 432.566 57.9195 434.624 55.6869 438.763C53.6334 442.571 51.1451 448.524 50.1869 448.763C48.1869 449.263 43.6869 445.263 43.1869 442.763Z" fill="#2573A1"/>
<path d="M80.6869 470.263C81.1869 473.763 85.6869 477.263 87.1869 477.263C88.6869 477.263 105.687 449.763 117.187 441.263C128.687 432.763 133.187 426.763 139.687 423.263C146.187 419.763 159.187 418.263 159.187 418.263C159.187 418.263 150.187 406.263 148.187 406.263C146.187 406.263 133.187 411.763 128.687 414.263C124.187 416.763 109.687 430.263 109.687 430.263C109.687 430.263 91.1868 448.763 88.6869 451.763C86.1869 454.763 82.1869 463.263 82.1869 463.263C82.1869 463.263 80.1868 466.763 80.6869 470.263Z" fill="#2573A1"/>
<path d="M336.687 550.263C335.687 554.263 331.187 573.263 331.187 573.263L330.187 568.763C330.187 568.763 325.687 566.763 325.687 565.263C325.687 563.763 325.687 558.763 326.687 558.263C327.687 557.763 330.187 558.263 330.687 557.763C331.187 557.263 331.687 553.263 331.187 552.263C330.687 551.263 327.187 552.263 326.687 551.263C326.187 550.263 325.687 545.987 327.187 544.763C328.687 543.54 331.687 544.763 332.187 544.263C332.687 543.763 332.687 537.763 332.187 536.763C331.687 535.763 328.187 536.263 327.687 535.263C327.187 534.263 327.187 529.763 328.187 529.263C329.187 528.763 332.687 529.263 333.187 528.763C333.687 528.263 333.687 526.263 333.187 524.763C332.687 523.263 328.687 523.263 327.687 522.763C326.687 522.263 327.187 517.263 328.187 516.263C329.187 515.263 332.187 516.263 333.187 515.263C334.187 514.263 333.687 510.763 333.187 509.763C332.687 508.763 329.187 509.263 328.187 508.263C327.187 507.263 328.187 501.763 329.187 500.763C330.187 499.763 334.187 501.263 334.687 500.263C335.187 499.263 335.187 495.763 334.187 494.763C333.187 493.763 329.687 494.263 328.687 493.263C327.687 492.263 328.187 488.763 329.187 487.263C330.187 485.763 334.187 486.263 334.687 485.263C335.187 484.263 335.187 480.763 333.687 479.263C332.187 477.763 329.187 478.763 328.687 476.763C328.187 474.763 328.687 471.763 329.687 470.763C330.687 469.763 335.187 470.263 335.687 468.263C336.187 466.263 336.187 464.263 335.687 462.763C335.187 461.263 329.187 461.763 329.187 459.763C329.187 457.763 332.687 458.263 333.187 457.263C333.687 456.263 334.187 453.763 333.187 452.763C332.187 451.763 331.187 451.763 330.687 450.263C330.187 448.763 330.687 445.763 332.187 444.763C333.687 443.763 336.187 444.263 337.187 443.263C338.187 442.263 338.187 439.763 337.187 438.263C336.187 436.763 334.687 438.263 333.187 436.763C331.687 435.263 331.187 431.763 333.187 429.763C334.187 428.763 335.687 429.263 336.687 428.263C337.687 427.263 337.187 423.763 336.687 422.763C336.187 421.763 333.187 422.263 332.187 420.763C331.187 419.263 331.187 417.763 332.187 416.763C333.187 415.763 336.187 415.763 336.687 414.763C337.187 413.763 337.187 411.763 336.187 409.763C335.687 408.763 332.187 408.763 331.187 407.763C330.187 406.763 330.687 404.763 331.187 403.763C331.687 402.763 335.187 402.263 335.687 401.263C336.187 400.263 336.187 395.763 335.687 394.263C335.187 392.763 330.187 389.763 329.187 387.763C328.187 385.763 328.187 383.263 329.187 382.763C330.187 382.263 333.687 382.763 334.187 382.263C334.687 381.763 334.687 378.263 333.687 377.263C332.687 376.263 326.187 374.263 327.187 372.763C328.187 371.263 332.187 372.763 332.687 371.263C333.187 369.763 325.187 357.263 323.687 353.763C322.187 350.263 311.687 334.337 308.687 329.763C305.687 325.19 292.187 309.763 287.687 304.763C283.187 299.763 272.687 292.763 264.187 289.263C255.687 285.763 246.187 285.763 238.687 286.263C231.187 286.763 225.687 294.263 224.187 292.763C222.687 291.263 225.187 286.763 227.687 284.263C230.187 281.763 234.187 279.263 235.687 278.263C237.187 277.263 244.687 270.763 260.187 270.763C275.687 270.763 284.687 275.263 289.687 277.263C294.687 279.263 313.687 289.263 320.187 295.263C326.687 301.263 351.687 321.763 352.187 323.763C352.687 325.763 326.687 340.763 325.187 342.263C323.687 343.763 324.187 345.263 324.187 345.263H327.187C327.187 345.263 328.187 342.763 329.187 343.263C330.187 343.763 336.687 353.763 336.687 356.763C336.687 359.763 338.187 371.263 338.187 374.763C338.187 378.263 344.187 405.263 343.687 416.763C343.187 428.263 342.187 456.263 342.187 456.263L338.687 516.763C338.687 516.763 337.687 546.263 336.687 550.263Z" fill="#2573A1"/>
<path d="M386.687 367.263C386.687 372.763 404.687 442.263 404.687 442.263C404.687 442.263 362.687 415.763 361.187 411.763C359.687 407.763 335.187 343.263 335.687 339.763C336.187 336.263 353.187 326.263 354.687 326.763C356.187 327.263 387.687 354.763 388.187 357.763C388.687 360.763 386.687 361.763 386.687 367.263Z" fill="#2573A1"/>
<path d="M351.687 259.263C354.187 262.763 365.687 286.763 365.687 286.763C365.687 286.763 329.187 257.263 324.187 254.763C319.187 252.263 305.687 245.763 297.187 244.763C288.687 243.763 271.187 246.263 271.187 244.763C271.187 243.263 283.187 235.763 289.687 234.263C296.187 232.763 310.187 231.763 314.187 234.263C318.187 236.763 336.687 245.763 339.187 247.763C341.687 249.763 349.187 255.763 351.687 259.263Z" fill="#2573A1"/>
<path d="M56.1867 444.263C53.5201 449.263 53.1869 458.763 51.1868 460.263C49.1866 461.763 40.1867 453.763 42.1867 444.263C44.1867 434.763 52.1866 425.263 52.1866 425.263L65.6866 410.263C65.6866 410.263 83.1869 389.763 87.1867 386.263C91.1866 382.763 99.6867 376.763 102.687 375.263C105.687 373.763 111.187 372.263 111.187 372.263C111.187 372.263 116.187 369.763 118.687 371.263C121.187 372.763 125.686 376.763 125.187 379.763C124.687 382.763 120.187 384.763 120.187 384.763C120.187 384.763 118.187 387.263 114.687 387.263C111.187 387.263 109.187 388.763 109.687 391.763C110.187 394.763 116.687 396.263 116.687 396.263C116.687 396.263 123.186 398.763 125.187 400.763C127.187 402.763 126.187 405.263 128.187 406.763C130.187 408.263 127.687 406.763 130.687 407.763C133.687 408.763 142.687 400.763 142.687 400.763L148.187 406.763L82.1866 463.763C82.1866 463.763 82.1864 459.763 82.1866 457.263C82.1867 455.998 77.3189 450.081 72.1867 444.263C67.1798 438.588 61.9214 434.504 60.6867 433.763C58.1866 432.263 56.1867 444.263 56.1867 444.263Z" fill="#105687"/>
<path d="M119.187 517.263C116.687 512.763 97.1869 478.763 97.1868 470.763C97.1866 462.763 114.187 451.263 126.687 439.763C139.187 428.263 152.187 423.263 157.187 425.763C162.187 428.263 164.686 433.763 166.187 435.763C167.687 437.763 175.687 440.263 178.187 446.263C180.687 452.263 175.687 489.263 175.687 489.263C175.687 489.263 169.686 515.763 175.687 517.263C181.687 518.763 178.187 486.263 178.187 480.763C178.187 475.263 183.687 455.763 186.187 453.763C188.687 451.763 192.686 452.763 195.687 456.263C198.687 459.763 206.186 474.263 208.687 478.263C211.187 482.263 221.187 489.763 225.687 490.763C230.187 491.763 237.687 491.263 242.187 495.763C246.687 500.263 251.187 511.263 251.187 511.263C251.187 511.263 257.687 531.763 255.187 533.763C252.687 535.763 236.187 509.763 233.687 511.263C231.187 512.763 244.687 588.763 244.687 588.763C244.687 588.763 198.187 561.763 193.187 556.763C188.187 551.763 179.186 543.763 173.187 538.263C167.187 532.763 149.687 516.263 149.687 516.263C149.687 516.263 128.187 484.763 124.687 487.763C121.187 490.763 135.187 506.763 137.187 511.263C139.187 515.763 145.687 525.763 148.687 530.763C151.687 535.763 161.687 549.263 161.687 549.263C161.687 549.263 155.187 551.763 152.187 549.263C149.187 546.763 142.187 544.263 139.187 539.763C136.187 535.263 131.687 534.763 128.187 530.763C124.687 526.763 121.687 521.763 119.187 517.263Z" fill="#105687"/>
<path d="M385.187 295.763C385.187 297.763 380.687 301.763 380.687 301.763C380.687 301.763 368.187 291.763 364.687 287.263C361.187 282.763 350.687 258.263 350.687 258.263L362.687 266.263C362.687 266.263 370.687 273.763 373.187 276.263C375.687 278.763 385.187 293.763 385.187 295.763Z" fill="#105687"/>
<path d="M318.687 328.763C316.687 329.263 315.687 326.263 316.687 324.763C317.687 323.263 335.687 310.763 338.187 311.263C340.687 311.763 339.687 313.763 338.187 315.263C336.687 316.763 320.687 328.263 318.687 328.763Z" fill="#105687"/>
<path d="M147.687 405.763C149.187 404.763 126.187 379.263 126.187 379.263C126.187 379.263 122.687 382.763 120.187 383.763C117.687 384.763 108.187 383.263 108.187 389.263C108.187 395.263 115.187 398.763 115.187 398.763C115.187 398.763 121.687 403.263 123.187 405.763C124.687 408.263 126.437 411.013 128.687 412.263C130.937 413.513 136.687 410.263 136.687 410.263C136.687 410.263 146.187 406.763 147.687 405.763Z" fill="#063760"/>
<path d="M70.1868 426.763C69.1868 423.763 79.6868 410.763 85.1868 412.263C90.6868 413.763 103.187 428.263 102.687 432.263C102.187 436.263 92.1868 449.263 88.6868 449.263C85.1868 449.263 71.1868 429.763 70.1868 426.763Z" fill="#063760"/>
<path d="M179.59 446.393C179.638 446.005 179.687 445.763 179.687 445.763C179.687 445.763 179.653 445.984 179.59 446.393C179.416 447.769 179.237 450.983 181.187 451.763C183.687 452.763 184.187 451.263 186.187 452.763C188.187 454.264 182.594 470.575 181.187 487.763C179.974 502.584 179.196 517.069 176.187 517.763C169.687 519.263 173.187 495.763 173.187 491.763C173.187 488.053 178.78 451.645 179.59 446.393Z" fill="#063760"/>
<path d="M236.687 580.763C236.187 575.763 223.687 505.263 230.187 504.763C236.687 504.263 252.687 534.763 255.187 534.763C257.687 534.763 249.687 509.263 251.687 510.263C253.687 511.263 265.187 541.263 267.187 541.263C269.187 541.263 270.187 538.763 271.687 541.263C273.187 543.763 274.187 597.263 271.687 598.763C269.187 600.263 248.687 580.763 246.187 580.763C243.687 580.763 246.687 583.764 244.687 586.763C242.687 589.763 237.187 585.763 236.687 580.763Z" fill="#063760"/>
<path d="M211.187 358.263C212.687 365.263 221.187 388.263 221.187 388.263V351.263C221.187 351.263 239.687 367.763 241.687 363.763C243.687 359.763 225.687 313.263 225.687 313.263L238.187 294.763C238.187 294.763 245.187 289.763 244.687 287.263C244.187 284.763 231.187 283.264 227.687 285.763C224.187 288.263 221.687 293.263 219.187 298.763C216.687 304.263 211.187 313.263 211.187 324.763C211.187 336.263 209.687 351.263 211.187 358.263Z" fill="#063760"/>
<path d="M48.6868 458.763C48.6868 453.763 57.1868 431.263 61.6868 432.263C63.7987 432.733 68.8841 440.556 73.6868 445.763C79.1175 451.652 84.1868 455.11 84.1868 457.763C84.1868 460.132 81.3426 465.093 79.1868 470.763C76.7924 477.061 75.0023 484 73.6868 484.263C71.1868 484.763 67.84 480.397 61.6868 473.763C56.0378 467.673 48.6868 461.157 48.6868 458.763Z" fill="#063760"/>
<path d="M190.187 403.263C188.187 407.763 187.187 414.763 188.187 418.263C189.187 421.763 205.187 403.263 205.187 403.263C205.187 403.263 214.187 386.263 213.187 383.763C212.187 381.263 203.187 390.263 199.687 394.763C196.187 399.263 191.077 401.261 190.187 403.263Z" fill="#063760"/>
<path d="M199.687 426.263C199.687 423.763 203.687 416.763 205.187 418.263C206.687 419.763 206.687 427.763 208.187 432.263C209.687 436.763 216.187 449.263 217.187 455.763C218.187 462.263 221.187 485.263 221.187 487.763C221.187 490.263 210.187 482.263 207.187 477.263C204.187 472.263 199.687 465.263 199.687 458.263V426.263Z" fill="#063760"/>
<path d="M222.687 313.263C222.187 308.263 222.187 302.263 223.687 300.263C225.187 298.263 231.687 292.763 235.687 290.763C239.687 288.763 248.687 290.763 252.187 290.763C255.687 290.763 267.187 294.263 272.687 298.263C278.187 302.263 288.687 311.763 292.187 316.763C295.687 321.763 301.187 341.763 304.187 347.763C307.187 353.763 322.187 377.263 323.687 382.263C325.187 387.263 324.687 392.763 325.187 395.263C325.687 397.763 328.187 402.763 328.687 406.763C329.187 410.763 328.687 413.763 327.187 416.763C325.687 419.763 314.687 403.263 314.687 403.263C314.687 403.263 303.187 394.263 300.187 391.763C297.187 389.263 284.187 382.263 284.187 382.263C284.187 382.263 281.687 380.763 281.687 383.763C281.687 386.763 284.687 389.263 285.687 391.763C286.687 394.263 301.187 413.763 301.187 413.763C301.187 413.763 320.187 435.263 319.687 438.263C319.187 441.263 257.687 434.763 252.187 432.763C246.687 430.763 222.187 403.263 219.687 398.263C217.187 393.263 215.187 353.263 216.687 346.763C218.187 340.263 220.187 342.763 220.187 342.763L226.687 350.263C226.687 350.263 237.187 364.263 239.687 363.263C239.983 363.145 240.209 363.083 240.377 363.056C240.063 362.75 239.687 361.895 239.687 359.763C239.687 354.263 233.187 342.763 233.187 342.763C233.187 342.763 225.187 327.263 223.687 323.763C222.187 320.263 223.187 318.263 222.687 313.263Z" fill="#2976A2"/>
<path d="M348.187 510.763C347.187 507.763 349.187 496.763 352.687 496.763C354.406 496.763 355.187 502.763 355.187 505.763C355.187 508.763 355.687 513.763 356.687 515.263C357.687 516.763 360.187 522.763 360.687 524.763C361.187 526.763 361.687 528.763 362.187 530.263C362.687 531.763 363.687 534.263 364.687 536.263C365.687 538.263 366.187 543.263 366.687 545.763C367.187 548.263 371.687 558.763 371.687 558.763C371.687 558.763 361.687 550.263 360.687 548.763C359.687 547.263 359.687 547.263 359.187 544.763C358.687 542.263 356.187 538.763 355.687 536.263C355.187 533.763 355.187 531.263 354.187 528.263C353.187 525.263 350.187 517.763 350.187 517.763C350.187 517.763 349.187 513.763 348.187 510.763Z" fill="#2976A2"/>
<path d="M106.687 451.763C106.687 451.763 99.1869 468.263 99.6869 471.263C100.187 474.263 116.187 507.263 119.687 513.263C123.187 519.263 132.187 528.763 135.187 533.763C138.187 538.763 153.687 551.263 157.187 548.763C159.03 547.447 145.537 530.753 135.187 513.263C125.879 497.535 117.687 483.263 119.687 481.763C121.687 480.263 178.187 538.263 187.687 545.763C197.187 553.263 237.187 584.263 247.187 588.263C257.187 592.263 262.687 603.263 269.187 608.263C275.687 613.263 279.687 614.763 284.187 613.263C286.543 612.478 282.687 586.763 280.687 574.763C278.687 562.763 276.687 543.763 279.687 543.263C282.687 542.763 288.687 553.263 293.687 560.263C298.687 567.263 306.187 577.263 308.687 583.763C311.187 590.263 310.687 596.763 310.687 604.263C310.687 611.763 307.187 616.263 307.187 616.263H226.687L207.187 600.763C207.187 600.763 179.187 584.763 172.687 579.263C166.187 573.763 140.187 550.763 140.187 550.763C140.187 550.763 83.1868 502.763 82.1868 498.763C81.1868 494.763 87.1869 477.763 91.1869 471.263C95.1869 464.763 106.687 451.763 106.687 451.763Z" fill="#042C50"/>
<path d="M320.187 616.263L363.687 616.763C363.687 616.763 336.187 552.263 335.187 555.263C334.187 558.263 328.687 592.763 326.687 598.763C324.687 604.763 320.187 616.263 320.187 616.263Z" fill="#042C50"/>
<path d="M381.187 600.763C384.187 604.263 389.187 616.763 389.187 616.763H381.187L364.687 584.763C364.687 584.763 378.187 597.263 381.187 600.763Z" fill="#042C50"/>
<path d="M205.187 360.763L209.687 346.763L212.187 380.263L203.687 389.763V384.763L205.187 380.263V360.763Z" fill="#0B1E25"/>
<path d="M206.187 402.263C208.187 400.263 213.187 386.763 213.687 388.263C214.187 389.763 216.187 413.763 215.187 415.763C214.187 417.763 212.187 417.763 212.187 419.263C212.187 420.763 218.687 431.763 218.687 431.763C218.687 431.763 220.187 442.763 220.687 445.263C221.187 447.763 232.687 475.763 232.187 478.263C231.687 480.763 229.187 480.763 228.687 483.263C228.187 485.763 232.187 490.763 230.687 491.763C229.187 492.763 222.687 488.763 220.687 486.763C218.687 484.763 218.687 461.263 218.687 461.263L213.187 442.763L208.187 431.763C208.187 431.763 206.687 418.763 205.687 417.763C204.687 416.763 200.687 420.763 199.187 420.763C197.687 420.763 191.687 422.263 190.187 420.763C188.687 419.263 204.187 404.263 206.187 402.263Z" fill="#0B1E25"/>
<path d="M249.687 500.263C246.687 497.263 242.187 496.263 242.187 496.263C242.187 496.263 257.187 519.763 259.187 526.263C261.187 532.763 268.187 543.763 268.187 543.763C268.187 543.763 267.687 541.263 267.687 536.263C267.687 531.263 264.687 523.763 262.687 519.763C260.687 515.763 252.687 503.263 249.687 500.263Z" fill="#0B1E25"/>
<path d="M336.687 558.264C335.187 556.764 338.187 528.264 338.187 528.264L432.687 614.264C432.687 614.264 432.687 607.764 433.687 604.764C434.687 601.764 436.687 601.764 438.187 596.764C439.687 591.764 410.187 483.764 410.187 483.764V466.764C410.187 466.764 387.187 368.764 387.187 366.264C387.187 363.764 389.687 360.764 389.687 358.764C389.687 356.764 369.187 339.764 369.187 339.764L329.187 303.264C329.187 303.264 313.187 289.264 304.687 284.264C296.187 279.264 281.187 273.264 276.187 272.764C271.187 272.264 254.687 269.264 249.187 271.264C243.687 273.264 235.187 276.264 229.187 283.264C223.187 290.264 212.687 311.264 212.687 311.264C212.687 311.264 212.187 305.764 212.687 302.263C213.187 298.763 216.187 281.263 219.187 278.263C222.187 275.264 233.187 265.263 237.687 262.264C242.187 259.264 261.687 248.763 267.187 247.264C272.687 245.764 283.187 243.264 296.187 245.264C309.187 247.264 321.187 255.764 327.187 258.264C333.187 260.764 360.687 283.264 360.687 283.264C360.687 283.264 379.187 300.764 380.687 301.264C382.187 301.764 385.187 297.764 385.687 295.764C386.187 293.764 372.187 271.264 372.187 271.264C372.187 271.264 392.687 300.264 395.187 299.764C397.687 299.264 391.02 267.764 393.687 265.764C396.353 263.764 414.187 271.264 416.187 271.264C418.187 271.264 418.187 261.764 419.187 262.264C420.187 262.764 431.687 288.264 431.187 295.764C430.687 303.264 419.187 326.264 419.187 326.264C419.187 326.264 428.687 326.264 430.187 327.264C431.687 328.264 432.687 336.764 432.687 336.764C432.687 336.764 453.187 335.764 456.187 336.764C459.187 337.764 471.687 346.264 475.687 346.764C479.687 347.264 499.187 351.264 499.187 351.264C499.187 351.264 526.687 357.764 529.687 359.764C532.687 361.764 556.687 386.264 558.687 387.264C560.687 388.264 565.687 387.264 565.687 387.264C565.687 387.264 568.687 384.764 569.687 384.764C570.687 384.764 577.187 387.264 577.187 387.264C577.187 387.264 580.687 385.264 582.687 385.264C584.687 385.264 584.187 387.264 584.187 387.264C584.187 387.264 590.187 384.264 592.687 384.764C595.187 385.264 599.687 390.264 601.187 390.764C602.687 391.264 605.687 392.264 607.687 393.764C609.687 395.264 612.687 403.764 616.187 405.764C619.687 407.764 626.687 408.264 628.187 409.764C629.687 411.264 636.687 421.764 636.687 421.764L649.687 447.764C649.687 447.764 658.187 469.764 658.687 475.764C659.187 481.764 657.187 484.264 656.187 493.264C655.187 502.264 656.687 515.764 656.687 515.764V544.264C656.687 549.264 662.687 569.764 663.687 577.264C664.687 584.764 662.687 616.764 662.687 616.764H436.187H394.687C394.687 616.764 382.687 602.264 380.187 599.764C377.687 597.264 371.187 592.264 368.187 588.764C365.187 585.264 364.187 582.264 362.187 580.264C360.187 578.264 349.187 570.764 345.687 567.264L336.687 558.264Z" fill="#181818"/>
<path d="M460.687 561.764C467.52 579.597 481.387 615.763 482.187 617.763H524.187L500.687 572.264L515.187 565.764L504.187 557.264L469.187 565.764L460.687 561.764Z" fill="#2A2A28"/>
<path d="M554.687 564.764C554.687 566.264 531.687 564.764 527.187 560.264C522.687 555.764 500.687 484.764 500.687 484.764C500.687 484.764 498.687 477.264 499.187 475.264C499.687 473.264 502.687 472.264 504.687 473.264C506.687 474.264 553.687 554.764 554.687 557.264C555.687 559.764 554.687 563.264 554.687 564.764Z" fill="#2A2A28"/>
<path d="M494.187 499.264C496.687 503.764 512.687 533.264 509.187 538.764C505.687 544.264 480.187 549.764 474.687 546.264C469.187 542.764 429.687 428.764 429.687 428.764C429.687 428.764 399.187 352.764 397.187 351.764C395.187 350.764 392.687 355.264 391.687 354.264C390.687 353.264 389.187 351.764 390.187 350.264C391.187 348.764 396.687 347.264 398.187 345.764C399.687 344.264 401.187 335.764 405.687 334.764C410.187 333.764 435.187 342.264 436.687 341.763C438.187 341.263 429.687 335.764 432.187 334.764C434.687 333.763 456.187 337.264 458.187 337.763C460.187 338.263 475.187 347.763 476.187 347.764C477.187 347.764 476.187 346.764 478.687 346.763C481.187 346.763 504.187 352.764 504.187 352.764C504.187 352.764 521.687 355.764 524.187 357.764C526.687 359.763 529.187 369.264 530.187 370.764C531.187 372.263 552.687 393.764 555.687 393.764C558.687 393.764 565.687 388.764 569.687 389.764C573.687 390.763 574.687 393.764 574.687 393.764L596.687 468.764H606.187C606.187 468.764 582.687 396.764 584.187 395.764C585.687 394.763 589.687 393.264 591.687 393.764C593.687 394.263 606.187 414.264 606.187 414.264C606.187 414.264 616.687 419.764 618.687 421.264C620.687 422.763 629.687 431.264 630.187 434.264C630.687 437.264 623.687 474.264 623.687 474.264V509.264C623.687 511.764 625.187 515.264 624.187 516.264C623.187 517.264 616.187 517.764 613.687 516.264C611.187 514.764 582.687 447.764 581.187 447.764C579.687 447.764 591.187 483.764 588.687 485.764C586.187 487.764 552.187 441.264 549.687 442.264C547.187 443.264 565.687 511.264 565.687 511.264L586.687 588.264H579.687L569.687 557.264L555.687 514.764L539.687 449.264L521.187 380.264L534.687 440.264L481.687 393.764L478.687 385.264L467.187 389.764L464.187 393.764C464.187 393.764 420.187 361.264 416.187 364.764C412.187 368.264 451.687 438.264 454.687 442.264C457.687 446.264 491.687 494.764 494.187 499.264Z" fill="#2A2A28"/>
<path d="M654.187 491.764C654.187 493.764 656.187 513.764 654.187 514.764C652.187 515.764 636.187 499.264 635.187 496.264C634.187 493.264 636.187 474.264 636.687 470.764C637.187 467.264 639.187 452.764 639.187 449.264C639.187 445.764 635.687 438.264 635.187 437.264C634.687 436.264 637.687 432.764 639.187 434.264C640.687 435.764 652.187 454.264 653.187 456.764C654.187 459.264 659.187 471.764 659.187 476.764C659.187 481.764 654.187 489.764 654.187 491.764Z" fill="#2A2A28"/>
<path d="M466.187 351.263C464.187 348.263 453.687 345.763 453.687 345.763L462.187 371.263L473.687 370.263C473.687 370.263 468.187 354.263 466.187 351.263Z" fill="#878785"/>
<path d="M522.687 357.763C519.687 355.263 503.187 352.763 503.187 352.763C503.187 352.763 514.687 361.763 516.187 364.763C517.687 367.763 525.187 389.263 528.687 399.263C532.187 409.263 538.187 437.763 539.687 438.763C541.187 439.763 547.687 436.763 547.687 436.763C547.687 436.763 537.187 400.263 535.687 392.763C534.187 385.263 525.687 360.263 522.687 357.763Z" fill="#878785"/>
<path d="M570.687 388.763C569.187 388.263 566.687 390.263 566.687 388.763C566.687 387.263 569.687 384.763 570.687 384.763C571.687 384.763 574.291 384.87 576.687 386.263C579.082 387.657 581.187 384.763 582.187 386.263C583.187 387.763 588.187 413.763 591.687 424.263C595.187 434.763 604.187 462.263 604.187 462.263C604.187 462.263 605.687 466.763 604.687 468.763C603.687 470.763 596.187 470.263 595.687 468.263C595.187 466.263 583.687 426.763 583.687 426.763C583.687 426.763 576.687 398.263 575.187 395.263C573.687 392.263 572.187 389.263 570.687 388.763Z" fill="#F3F3F3"/>
<path d="M472.187 365.263C471.187 364.263 461.187 365.263 461.187 365.263L466.187 381.763C466.187 381.763 474.187 409.763 475.187 413.763C476.187 417.763 489.187 471.764 490.687 473.763C492.187 475.763 500.187 474.263 501.187 472.263C502.187 470.264 493.187 442.263 493.187 442.263C493.187 442.263 484.187 409.263 483.687 405.763C483.187 402.263 473.187 366.263 472.187 365.263Z" fill="#F3F3F3"/>
<path d="M627.687 483.763C628.187 480.763 633.187 460.763 635.187 461.263C637.187 461.763 634.187 479.263 634.187 479.263L633.687 495.263C633.687 495.263 633.187 515.263 632.187 516.763C631.187 518.263 629.187 516.263 629.187 516.263C629.187 516.263 626.187 509.263 626.187 506.263C626.187 503.263 627.187 486.763 627.687 483.763Z" fill="#F3F3F3"/>
</svg>
